onset_sec,duration_sec,velocity,pitch,id
0.96770835,0.35416666,71,57,n0
1.321875,0.16979167,76,57,n4
1.4916667,0.16041666,70,57,n6
1.6520833,0.22916667,77,57,n9
1.0458333,0.17291667,50,60,n1
1.21875,0.15,46,60,n3
1.36875,0.19895834,60,60,n5
1.5677084,0.13125,50,60,n8
1.1375,0.38125,43,64,n2
1.51875,0.17604166,35,64,n7
1.809375,0.071875,82,52,n12
1.6989583,0.18229167,66,60,n11
1.6947917,0.18645833,35,64,n10
1.9760417,0.0625,83,55,n13
2.1385417,0.165625,76,55,n16
2.0072916,0.051041666,56,58,n14
2.1791666,0.18333334,62,58,n18
2.1739583,0.19479166,67,62,n17
2.3041666,0.17083333,81,55,n19
2.475,0.17083333,83,55,n22
2.3625,0.16354166,63,58,n20
2.5260417,0.18541667,65,58,n23
2.5416667,0.14583333,60,62,n24
2.6458333,0.33645833,84,55,n25
2.7979167,0.184375,86,56,n28
2.7114584,0.27083334,59,58,n27
2.8552084,0.12708333,56,59,n29
2.6875,0.29479167,67,62,n26
2.8552084,0.12708333,71,63,n30
2.9916666,0.38229167,86,57,n31
3.10625,0.06979167,57,60,n32
3.2666667,0.171875,59,60,n34
3.1958334,0.6666667,55,64,n33
3.3739583,0.16770834,81,57,n35
3.5416667,0.16354166,82,57,n37
3.7052083,0.15729167,91,57,n39
3.4385417,0.17604166,64,60,n36
3.6145833,0.1375,67,60,n38
3.8885417,0.07395833,89,52,n41
3.7520833,0.20208333,68,60,n40
4.0625,0.119791664,92,55,n42
4.227083,0.19270833,89,55,n45
4.0885415,0.09375,72,58,n43
4.320833,0.098958336,47,58,n46
4.171875,0.24791667,44,62,n44
4.397917,0.0625,89,54,n48
4.547917,0.53229165,91,54,n50
4.39375,0.039583333,48,57,n47
4.5885415,0.165625,32,57,n51
4.522917,0.5572917,58,61,n49
4.7291665,0.16354166,89,53,n52
4.8927083,0.1875,80,53,n55
4.7541666,0.21354167,66,57,n53
4.967708,0.1125,58,57,n56
5.103125,0.42291668,76,52,n57
5.21875,0.21770833,53,56,n58
5.6354165,0.253125,48,56,n62
5.8885417,0.25,49,56,n65
5.436458,0.19895834,50,56,n60
5.35,0.41145834,41,60,n59
5.7614584,0.54895836,45,60,n64
5.5260415,0.203125,68,52,n61
5.7291665,1.4739584,66,52,n63
5.960417,0.31979167,70,48,n66
6.280208,0.92291665,57,48,n68
7.58125,0.184375,17,48,n73
7.765625,0.13541667,45,48,n75
8.289583,0.47395834,61,48,n80
6.1385417,0.31770834,48,56,n67
6.45625,0.746875,43,56,n70
6.3104167,0.89270836,41,60,n69
7.117708,1.6458334,53,33,n72
7.1072917,0.79375,62,45,n71
7.6833334,0.28541666,41,57,n74
7.86875,0.89479166,57,47,n76
8.019792,0.16666667,39,50,n77
8.186459,0.50416666,46,50,n79
8.128125,0.38333333,51,57,n78
8.404166,0.17083333,56,52,n81
8.575,0.18854167,47,52,n83
8.511458,0.25208333,44,57,n82
8.690625,0.45,69,50,n84
8.816667,0.2125,50,53,n85
9.029166,0.125,48,53,n87
8.920834,0.21979167,50,57,n86
9.089583,0.890625,70,47,n88
9.213542,0.19166666,52,50,n89
9.405209,0.575,33,50,n91
9.303125,0.39270833,55,57,n90
9.485416,0.49479166,71,48,n92
9.5875,0.159375,58,52,n93
9.746875,0.30729166,57,52,n95
9.695833,0.284375,46,57,n94
9.9875,1.2395834,62,33,n97
9.969791,0.49166667,72,45,n96
10.129167,0.165625,48,48,n98
10.294791,0.16666667,50,48,n100
10.235416,0.22604166,46,57,n99
10.414583,0.8125,71,47,n101
10.53125,0.16354166,45,50,n102
10.694792,0.47916666,49,50,n104
10.627084,0.36979166,50,57,n103
10.802083,0.425,75,48,n105
10.897917,0.16354166,55,52,n106
11.061459,0.165625,56,52,n108
10.996875,0.23020834,50,57,n107
11.186459,2.196875,69,45,n110
11.173959,0.41458333,79,50,n109
11.279166,0.16666667,56,53,n111
11.445833,0.14270833,52,53,n113
11.547916,0.43958333,80,52,n114
12.004167,0.057291668,63,57,n119
11.902083,0.44375,85,53,n118
12.164583,0.18125,68,57,n121
11.8,0.1875,62,55,n117
12.279166,0.42604166,81,55,n122
12.363542,0.16666667,63,58,n123
12.530209,0.175,65,58,n125
12.461458,0.24375,56,64,n124
12.641666,0.40729168,82,52,n126
12.765625,0.14791666,59,55,n127
12.913542,0.13541667,60,55,n129
12.822917,0.22604166,64,61,n128
13.002084,0.40520832,85,53,n130
13.1,0.15520833,72,57,n131
13.255208,0.15208334,77,57,n133
13.163542,0.24375,69,62,n132
13.383333,2.1364584,77,45,n135
13.376041,0.39166668,85,55,n134
13.458333,0.16458334,66,58,n136
13.622916,0.11770833,65,58,n138
13.569792,0.19791667,63,64,n137
13.740625,0.365625,83,58,n139
13.8375,0.16666667,70,62,n140
14.004167,0.11145833,59,62,n142
13.928125,0.178125,57,67,n141
14.095834,0.38854167,80,57,n143
14.144792,0.17395833,69,60,n144
14.31875,0.165625,63,60,n146
14.255208,0.22916667,62,65,n145
14.457292,0.3875,80,55,n147
14.536458,0.175,63,58,n148
14.711458,0.13333334,64,58,n150
14.626041,0.21875,69,64,n149
14.801042,0.38333333,86,52,n151
14.903125,0.15104167,67,55,n152
15.054167,0.13020833,67,55,n154
14.966666,0.21770833,70,61,n153
15.161458,0.365625,91,53,n155
15.251041,0.159375,76,57,n156
15.410417,0.11666667,73,57,n158
15.314584,0.2125,65,62,n157
15.519792,1.0864583,77,45,n160
15.515625,0.38958332,90,55,n159
15.609375,0.196875,70,58,n161
15.80625,0.08125,37,58,n163
15.723958,0.18125,59,64,n162
15.8875,0.71875,80,58,n164
15.9875,0.13854167,61,62,n165
16.126041,0.46041667,42,62,n167
16.069792,0.5364583,58,67,n166
16.23125,0.375,87,57,n168
16.297916,0.16979167,69,60,n169
16.467709,0.13854167,49,60,n171
16.39375,0.2125,59,65,n170
16.591667,0.375,64,56,n173
16.586458,0.38020834,68,62,n172
16.683332,0.16875,58,65,n174
16.852083,0.109375,64,65,n176
16.782291,0.184375,51,71,n175
16.966667,0.715625,71,59,n178
16.961458,0.72083336,75,65,n177
17.021875,0.171875,74,68,n179
17.19375,0.48854166,78,68,n181
17.136457,0.54583335,69,74,n180
17.30625,0.37604168,82,60,n183
17.301043,0.38125,89,64,n182
17.360416,0.171875,75,67,n184
17.532291,0.096875,70,67,n186
17.455208,0.22708334,79,72,n185
17.644793,0.35729167,86,61,n188
17.629168,0.37291667,92,67,n187
17.727083,0.1625,79,70,n189
17.889584,0.1125,83,70,n191
17.810417,0.19166666,69,76,n190
17.990625,0.8520833,63,64,n192
18.00625,0.8364583,97,70,n193
18.073957,0.17708333,80,73,n194
18.251041,0.59166664,79,73,n196
18.172916,0.66979164,78,79,n195
18.36875,0.47395834,77,65,n198
18.359375,0.48333332,88,69,n197
18.4375,0.15520833,80,72,n199
18.592709,0.25,75,72,n201
18.534374,0.30833334,80,77,n200
18.866667,0.055208333,79,56,n204
18.842709,1.1989583,81,62,n203
19.011457,0.17291667,61,65,n205
19.184376,0.11145833,69,65,n207
19.108334,0.93333334,63,71,n206
19.307291,0.734375,84,59,n209
19.295834,0.74583334,84,65,n208
19.383333,0.14895834,70,68,n210
19.532291,0.509375,69,68,n212
19.460417,0.58125,72,74,n211
19.660418,0.38125,81,60,n214
19.654167,0.3875,89,64,n213
19.730207,0.16979167,65,67,n215
19.9,0.09375,54,67,n217
19.801043,0.240625,72,72,n216
20.003124,0.5416667,83,61,n219
19.99375,0.55625,86,67,n218
20.097918,0.15104167,70,70,n220
20.248959,0.5375,68,70,n222
20.163542,0.7135417,61,76,n221
20.544792,0.59583336,69,61,n227
20.385416,0.33854166,70,64,n224
20.55,0.590625,74,67,n228
20.370832,0.35729167,76,69,n223
20.728125,0.4125,75,69,n231
20.441668,0.14375,69,73,n225
20.585417,0.5552083,69,73,n229
20.49375,0.646875,70,79,n226
20.723959,0.41666666,77,64,n230
20.786459,0.16666667,67,70,n232
20.953125,0.1875,65,70,n234
20.877083,0.26354167,57,76,n233
21.097918,0.7135417,72,59,n236
21.079166,0.7239583,79,65,n235
21.189583,0.15729167,62,68,n237
21.346874,0.85520834,64,68,n239
21.279167,0.728125,51,74,n238
21.463541,0.690625,68,62,n241
21.452084,0.75,73,67,n240
21.538542,0.16458334,63,71,n242
21.703125,0.49895832,59,71,n244
21.638542,0.56354165,59,76,n243
21.811459,0.390625,62,59,n246
21.803125,0.39895833,69,65,n245
21.91875,0.13958333,53,69,n247
22.058332,0.14375,57,69,n249
22.007292,0.19479166,47,74,n248
22.183332,0.51875,61,56,n251
22.154167,0.5385417,76,62,n250
22.2625,0.171875,54,65,n252
22.434376,0.5104167,43,65,n254
22.363543,0.6979167,44,71,n253
22.702084,0.61875,56,56,n260
22.5375,0.3375,62,59,n256
22.692709,0.628125,71,62,n258
22.528126,0.346875,63,64,n255
22.875,0.44583333,71,64,n263
22.586458,0.175,65,68,n257
22.761457,0.559375,56,68,n261
22.696875,0.62395835,58,74,n259
22.875,0.44583333,66,59,n262
22.944792,0.19791667,48,65,n264
23.142708,0.178125,44,65,n266
23.061459,0.259375,48,71,n265
23.265625,0.70416665,56,54,n268
23.228125,0.71666664,70,60,n267
23.355207,0.15,49,63,n269
23.505209,0.5364583,58,63,n271
23.434376,0.709375,53,69,n270
23.60625,0.73229164,63,57,n272
23.6125,0.7260417,71,62,n273
23.691668,0.165625,67,66,n274
23.857292,0.48125,60,66,n276
23.969791,0.36875,67,54,n278
23.944792,0.39375,76,60,n277
24.041666,0.17916666,62,63,n279
24.220833,0.11770833,55,63,n281
24.14375,0.19479166,52,69,n280
24.316668,0.10729167,81,33,n282
24.375,0.7729167,72,53,n284
24.365625,0.75104165,76,60,n283
24.542707,0.16458334,63,63,n285
24.707293,0.50625,59,63,n287
24.636457,0.675,56,69,n286
24.776041,0.68125,72,57,n289
24.769793,0.6875,82,62,n288
24.871876,0.14583333,67,65,n290
25.017708,0.43958333,65,65,n292
25.147917,0.309375,53,53,n294
25.116667,0.340625,80,60,n293
25.213541,0.18020834,70,63,n296
25.39375,0.063541666,65,63,n298
25.311459,0.14583333,49,69,n297
25.466667,0.70520836,62,54,n299
25.476042,0.38333333,60,60,n300
25.557291,0.084375,59,63,n301
25.729166,0.07395833,43,63,n303
25.666666,0.13645834,47,69,n302
25.836458,0.6625,57,57,n305
25.825,0.67395836,66,62,n304
25.9,0.20208333,63,66,n306
26.102083,0.396875,30,66,n308
26.171875,0.32708332,63,54,n310
26.157291,0.34166667,68,60,n309
26.24375,0.14583333,58,63,n311
26.389584,0.109375,61,63,n313
26.339582,0.159375,53,69,n312
26.548958,0.62916666,62,33,n314
26.586458,0.59166664,59,53,n316
26.564583,0.61354166,71,60,n315
26.745832,0.15208334,51,63,n317
26.897917,0.28020832,62,63,n319
26.833334,0.34479168,50,69,n318
27.034374,0.14375,20,57,n321
26.996876,0.18125,65,62,n320
27.082293,0.09583333,51,65,n322
27.230207,0.047916666,58,65,n324
27.308332,0.27083334,53,53,n325
27.323957,0.25520834,57,60,n326
27.410418,0.14270833,64,63,n327
27.553125,0.041666668,60,63,n329
27.483334,0.09583333,51,69,n328
27.653126,0.32708332,74,53,n330
27.759375,0.22083333,64,55,n331
27.870832,0.109375,58,57,n332
27.930208,0.057291668,60,59,n333
28.023958,0.1375,70,52,n334
28.091667,0.08541667,59,53,n335
28.213541,0.104166664,54,55,n336
28.286459,0.04375,55,57,n337
28.375,0.123958334,68,50,n338
28.44375,0.06875,58,52,n339
28.548958,0.12916666,53,53,n340
28.61875,0.059375,51,55,n341
28.720833,0.31770834,75,53,n342
28.7875,0.25104168,55,55,n343
28.917707,0.12083333,59,57,n344
28.989584,0.053125,56,59,n345
29.079166,0.30416667,65,52,n346
29.146875,0.23645833,56,53,n347
29.261457,0.121875,55,55,n348
29.332293,0.051041666,58,57,n349
29.435417,0.36458334,52,50,n350
29.476042,0.32395834,53,52,n351
29.579166,0.22083333,60,53,n352
29.684376,0.13125,52,55,n353
30.421875,0.13958333,38,52,n356
30.501041,0.07083333,45,53,n357
30.822916,0.5552083,46,50,n360
30.922916,0.45520833,49,52,n361
31.3625,1.3541666,44,33,n363
31.341667,0.56041664,56,45,n362
31.573957,0.21354167,37,48,n364
31.7875,0.114583336,44,48,n366
31.683332,0.21875,50,57,n365
31.848959,0.39166668,61,47,n367
31.967709,0.17916666,54,50,n368
32.146873,0.09375,41,50,n370
32.080208,0.16041666,47,57,n369
32.240623,0.47604167,62,48,n371
32.370834,0.18958333,59,52,n372
32.560417,0.15625,43,52,n374
32.503124,0.21354167,19,57,n373
32.64375,0.45520833,69,50,n375
32.789585,0.16458334,51,53,n376
32.954166,0.50416666,62,53,n378
32.88229,0.21666667,59,57,n377
33.046875,0.8541667,67,47,n379
33.29271,0.165625,31,50,n381
33.229168,0.22916667,60,57,n380
33.434376,0.46666667,65,48,n382
33.55521,0.159375,53,52,n383
33.714584,0.60625,57,52,n385
33.621876,0.32708332,62,57,n384
33.892708,1.1614584,55,33,n387
33.87396,0.44166666,71,45,n386
34.013542,0.16875,49,48,n388
34.182293,0.13333334,55,48,n390
34.095833,0.21979167,60,57,n389
34.28125,0.7729167,75,47,n391
34.38125,0.165625,49,50,n392
34.546875,0.46041667,62,50,n394
34.479168,0.36145833,57,57,n393
34.6375,0.41666666,77,48,n395
34.735416,0.16354166,63,52,n396
34.89896,0.15520833,61,52,n398
34.840626,0.21354167,53,57,n397
35.01875,2.284375,66,45,n400
35.00729,0.44479167,76,50,n399
35.139584,0.16354166,58,53,n401
35.303123,0.13125,60,53,n403
35.232292,0.20208333,53,59,n402
35.425,0.4125,77,52,n404
35.776043,0.440625,87,53,n408
35.539585,0.15833333,62,55,n405
35.697918,0.13958333,60,55,n407
36.169792,0.42916667,84,55,n412
35.63646,0.20104167,55,60,n406
35.891666,0.15625,69,57,n409
36.047916,0.16875,73,57,n411
35.977085,0.23958333,69,62,n410
36.271873,0.15104167,61,58,n413
36.422916,0.17604166,67,58,n415
36.36354,0.23541667,60,64,n414
36.535416,0.38333333,84,52,n416
36.63125,0.15104167,69,55,n417
36.78229,0.13645834,70,55,n419
36.69479,0.22395833,66,61,n418
36.885418,0.45208332,87,53,n420
36.98125,0.14583333,76,57,n421
37.127083,0.21041666,76,57,n423
37.033333,0.30416667,69,62,n422
37.303123,2.1958334,72,45,n425
37.29375,0.40416667,89,55,n424
37.364582,0.18958333,66,58,n426
37.554165,0.14375,65,58,n428
37.490623,0.20729166,61,64,n427
37.703125,0.334375,84,58,n429
37.78229,0.16875,67,62,n430
37.951042,0.09791667,58,62,n432
37.879166,0.15833333,59,67,n431
38.065624,0.371875,83,57,n433
38.098957,0.18854167,70,60,n434
38.2875,0.15,63,60,n437
38.208332,0.22916667,59,65,n435
38.419792,0.38125,78,55,n438
38.49271,0.18333334,58,58,n439
38.67604,0.125,43,58,n441
38.595833,0.20520833,56,64,n440
38.75729,0.78020835,77,52,n442
38.834373,0.15625,59,55,n443
38.990623,0.50416666,72,55,n445
38.914585,0.62291664,61,61,n444
39.122917,0.41458333,87,53,n446
39.21146,0.17395833,75,57,n447
39.385418,0.15208334,69,57,n449
39.284374,0.253125,62,62,n448
39.49896,1.08125,79,45,n451
39.494793,0.3625,92,55,n450
39.570835,0.17708333,69,58,n452
39.747917,0.109375,64,58,n454
39.691666,0.165625,60,64,n453
39.872917,0.70729166,92,58,n455
39.939583,0.18645833,72,62,n456
40.12604,0.33958334,75,62,n458
40.03229,0.54791665,67,67,n457
40.22604,0.35416666,98,57,n459
40.270832,0.175,84,60,n460
40.445835,0.134375,73,60,n462
41.428123,0.33229166,81,60,n476
40.396873,0.18333334,57,65,n461
40.608334,1.1520833,89,33,n464
40.675,1.0854167,71,56,n466
40.665627,1.0947917,74,62,n465
40.779167,0.17291667,71,65,n467
40.952084,0.10729167,64,65,n469
40.889584,0.87083334,74,71,n468
41.059376,0.70104164,80,59,n470
41.059376,0.70104164,84,65,n471
41.15521,0.15208334,74,68,n472
41.307293,0.453125,73,68,n474
41.228127,0.53229165,71,74,n473
41.40729,0.353125,94,64,n475
41.478127,0.153125,78,67,n477
41.63125,0.109375,71,67,n479
41.740623,0.41875,94,67,n480
41.578125,0.18229167,69,72,n478
41.744793,0.41458333,86,61,n481
41.845833,0.165625,79,70,n482
42.01146,0.10104167,77,70,n484
41.923958,0.23541667,66,76,n483
42.090626,0.38854167,67,64,n485
42.1125,0.36666667,101,70,n486
42.19896,0.159375,78,73,n487
42.358334,0.12083333,70,73,n489
42.28125,0.19791667,79,79,n488
42.46771,0.43229166,77,65,n490
42.46771,0.43229166,84,69,n491
42.544792,0.146875,82,72,n492
42.691666,0.20833333,70,72,n494
42.645832,0.25416666,67,77,n493
42.877083,0.38333333,64,56,n496
42.861458,0.39895833,67,62,n495
42.97604,0.15208334,64,65,n497
43.128124,0.09791667,61,65,n499
43.066666,0.19375,64,71,n498
43.241665,0.36041668,77,59,n501
43.22604,0.37604168,82,65,n500
43.335415,0.140625,72,68,n502
43.47604,0.12604167,72,68,n504
43.41771,0.184375,59,74,n503
43.583332,0.396875,81,60,n506
43.57396,0.40625,86,64,n505
43.695835,0.15208334,75,67,n507
43.847916,0.08020833,53,67,n509
43.794792,0.18541667,62,72,n508
43.940624,0.340625,71,61,n511
43.928123,0.353125,93,67,n510
44.03021,0.15416667,77,70,n512
44.184376,0.096875,76,70,n514
44.115623,0.165625,73,76,n513
44.279167,0.3625,64,64,n515
44.289585,0.35208333,83,70,n516
44.38229,0.17395833,76,73,n517
44.55625,0.08541667,64,73,n519
44.463543,0.178125,73,79,n518
44.660416,0.31875,55,65,n521
44.651043,0.328125,68,69,n520
44.753124,0.15416667,68,72,n522
44.90729,0.071875,61,72,n524
45.017708,0.32291666,59,65,n525
45.130207,0.21041666,47,67,n526
45.21146,0.12916666,51,69,n527
45.295834,0.048958335,44,71,n528
45.388542,0.35208333,60,64,n529
45.466667,0.27395833,46,65,n530
45.55625,0.184375,51,67,n531
45.651043,0.08958333,46,69,n532
45.735416,0.36458334,67,62,n533
45.8,0.3,48,64,n534
45.91354,0.15,50,65,n535
46.0,0.1,43,67,n536
46.06354,0.37604168,71,65,n537
46.152084,0.2875,57,67,n538
46.2625,0.17708333,47,69,n539
46.35,0.08958333,53,71,n540
46.434376,0.365625,66,64,n541
46.525,0.275,53,65,n542
46.602085,0.19791667,52,67,n543
46.7,0.1,52,69,n544
46.775,2.725,70,62,n545
46.891666,2.6083333,55,64,n546
46.91771,0.24270834,62,65,n547
46.990623,0.32708332,61,67,n548
47.160416,0.396875,60,65,n549
47.317707,0.325,41,67,n553
47.360416,0.35833332,51,69,n554
47.446877,0.31875,55,71,n556
47.18646,0.340625,60,72,n550
47.18646,0.34583333,55,77,n551
47.27396,0.34791666,64,79,n552
47.36354,0.36666667,41,81,n555
47.463543,0.34479168,53,83,n557
47.557293,0.334375,62,65,n560
47.642708,0.33020833,65,67,n562
47.71875,0.340625,55,69,n563
47.765625,0.34895834,63,71,n565
47.527084,0.32395834,60,72,n558
47.53229,0.34479168,70,77,n559
47.621876,0.340625,71,79,n561
47.73021,0.32916668,63,81,n564
47.808334,0.34270832,63,83,n566
47.891666,0.36979166,70,65,n569
47.972916,0.36041668,76,67,n571
48.059376,0.36666667,65,69,n572
48.114582,0.35625,68,71,n574
47.85104,0.34791666,68,72,n567
47.877083,0.3625,90,77,n568
47.9625,0.35520834,84,79,n570
48.059376,0.37395832,76,81,n573
48.151043,0.36354166,81,83,n575
48.26146,0.34375,70,65,n578
48.333332,0.36354166,78,67,n580
48.42604,0.35729167,64,69,n581
48.783333,0.378125,66,69,n590
48.470833,0.36979166,74,71,n583
48.19896,0.35729167,80,72,n576
48.239582,0.346875,96,77,n577
48.317707,0.36770833,91,79,n579
48.433334,0.35833332,78,81,n582
48.514584,0.40416667,82,83,n584
48.60521,0.340625,81,65,n587
48.696877,0.38333333,78,67,n589
48.840626,0.38125,67,71,n592
48.55625,0.346875,79,72,n585
48.58646,0.36354166,97,77,n586
48.685417,0.353125,92,79,n588
48.791668,0.346875,72,81,n591
48.91875,0.31979167,64,83,n594
48.945835,0.5541667,83,65,n595
49.080208,0.41979167,77,67,n598
49.539585,0.4375,91,67,n604
49.977085,0.19479166,78,67,n614
50.171875,0.18854167,78,67,n622
50.360416,0.119791664,63,67,n630
49.161457,0.33854166,70,69,n600
49.221874,0.278125,63,71,n601
48.903126,0.596875,76,72,n593
48.95,0.55,99,77,n596
49.03854,0.46145833,96,79,n597
49.539585,0.42395833,91,79,n605
49.963543,0.19375,85,79,n611
50.15729,0.18229167,78,79,n619
50.339584,0.18125,61,79,n627
49.138542,0.36145833,80,81,n599
49.23854,0.26145834,84,83,n602
49.539585,0.43958333,83,60,n603
49.544792,0.434375,92,64,n606
49.544792,0.42291668,94,72,n607
49.544792,0.41145834,94,76,n608
49.544792,0.41875,94,84,n609
49.979168,0.1875,75,60,n615
50.166668,0.1875,76,60,n621
49.979168,0.19895834,77,64,n616
50.178123,0.17604166,63,64,n623
49.96771,0.184375,90,72,n613
50.152084,0.171875,87,72,n617
49.95625,0.20104167,86,76,n610
50.15729,0.17083333,85,76,n618
49.963543,0.19375,80,84,n612
50.15729,0.16145833,77,84,n620
50.354168,0.31666666,47,60,n628
50.50729,0.16354166,81,63,n635
50.354168,0.31666666,69,64,n629
50.48021,0.190625,72,67,n632
50.49896,0.171875,80,71,n633
50.32396,0.346875,90,72,n625
50.503124,0.16770834,78,75,n634
50.328125,0.23333333,81,76,n626
50.520832,0.15,44,79,n636
50.31875,0.35208333,72,84,n624
50.6875,0.203125,83,58,n640
50.890625,0.18854167,64,58,n651
50.696877,0.19375,81,62,n645
50.890625,0.19375,65,62,n652
50.691666,0.196875,92,66,n643
50.888542,0.17708333,76,66,n650
50.678123,0.196875,98,70,n639
50.875,0.190625,96,70,n647
50.691666,0.19166666,77,74,n644
50.883335,0.19166666,76,74,n648
50.6875,0.19583334,89,78,n641
50.883335,0.19583334,71,78,n649
50.6875,0.21041666,88,82,n642
50.897915,0.18125,77,82,n653
51.079166,0.184375,71,58,n658
51.263542,0.16041666,65,58,n668
51.084373,0.17916666,69,62,n661
51.263542,0.165625,71,62,n669
51.065624,0.18645833,80,66,n655
51.252083,0.16666667,75,66,n667
51.065624,0.171875,93,70,n656
51.2375,0.18125,89,70,n663
51.075,0.171875,76,74,n657
51.246876,0.18645833,67,74,n664
51.079166,0.16770834,78,78,n659
51.246876,0.18645833,68,78,n665
51.079166,0.16770834,79,82,n660
51.246876,0.18229167,71,82,n666
51.604168,0.228125,74,53,n683
51.604168,0.228125,78,57,n684
51.423958,0.40833333,80,58,n673
51.598957,0.23333333,95,61,n680
51.429165,0.403125,76,62,n674
51.598957,0.23333333,84,65,n681
51.41875,0.41354167,77,66,n671
51.619793,0.2125,67,69,n686
51.41875,0.17604166,100,70,n672
51.598957,0.23333333,87,73,n682
51.433334,0.39895833,70,74,n676
51.61354,0.21875,71,77,n685
51.433334,0.39895833,77,78,n677
51.429165,0.403125,85,82,n675
51.86354,0.41145834,96,56,n692
51.864582,0.415625,91,60,n693
51.858334,0.41666666,95,64,n691
51.84479,0.403125,84,68,n689
51.890625,0.371875,40,72,n696
52.270832,0.18125,74,76,n701
52.452084,0.19375,66,76,n711
52.645832,0.28645834,34,76,n718
51.883335,0.37395832,79,80,n694
52.275,0.16666667,86,56,n702
52.441666,0.16458334,72,56,n707
52.28021,0.171875,75,60,n704
52.452084,0.17708333,68,60,n709
52.275,0.17291667,86,64,n703
52.447918,0.17604166,68,64,n708
52.247917,0.18020834,96,68,n698
52.428123,0.171875,94,68,n705
52.2625,0.18958333,86,72,n700
52.452084,0.15416667,75,72,n710
52.25729,0.175,88,80,n699
52.432293,0.16145833,85,80,n706
52.78021,0.165625,87,51,n722
52.80521,0.12708333,71,55,n726
52.60625,0.1875,57,56,n714
52.784374,0.14791666,97,59,n723
52.629166,0.303125,69,60,n717
52.766666,0.165625,94,63,n720
52.62396,0.30833334,86,64,n716
53.609375,0.53333336,85,67,n744
52.6,0.33229166,93,68,n713
52.766666,0.165625,82,71,n721
52.60625,0.32604167,79,72,n715
53.005207,0.3125,52,75,n733
52.59375,0.33854166,80,80,n712
52.98021,0.3375,84,54,n728
52.984375,0.33333334,85,58,n732
52.98021,0.3375,97,62,n729
52.978127,0.33958334,97,66,n727
52.98021,0.3375,93,70,n730
52.98021,0.3375,97,78,n731
53.347916,0.79479164,91,31,n735
53.34375,0.79895836,101,43,n734
53.36771,0.775,73,53,n736
53.39375,0.74895835,79,55,n737
54.138542,0.034375,90,24,n759
54.138542,0.067708336,110,36,n760
53.682293,0.46041667,85,71,n746
53.721874,0.42083332,86,72,n747
53.760418,0.38229167,86,74,n748
53.794792,0.34791666,89,76,n749
53.826042,0.31666666,88,77,n750
53.858334,0.284375,91,79,n751
53.889584,0.253125,87,81,n752
53.920834,0.221875,82,83,n753
53.953125,0.18958333,83,84,n754
53.97604,0.16666667,91,86,n755
54.003124,0.13958333,88,88,n756
54.033333,0.109375,85,89,n757
54.072918,0.06979167,56,91,n758
54.138542,0.044791665,114,96,n761
54.564583,0.20520833,68,60,n766
54.76979,0.16666667,64,60,n776
54.564583,0.17916666,73,64,n767
54.74375,0.21979167,78,64,n772
54.548958,0.190625,84,67,n763
54.739582,0.196875,78,67,n771
54.564583,0.16979167,90,72,n768
54.734375,0.18333334,89,72,n770
54.560417,0.19270833,88,76,n764
54.753124,0.17395833,63,76,n775
54.564583,0.184375,81,79,n769
54.74896,0.19895834,79,79,n773
54.560417,0.18854167,75,84,n765
54.74896,0.16875,72,84,n774
55.114582,0.203125,73,55,n789
54.93646,0.38125,80,60,n780
55.114582,0.203125,78,63,n790
54.963543,0.35416666,70,64,n784
54.93646,0.15729167,81,67,n781
55.09375,0.22395833,86,67,n785
55.09375,0.22395833,80,71,n786
54.91771,0.4,90,72,n777
55.097916,0.21979167,80,75,n787
54.927082,0.390625,58,76,n779
54.947918,0.15520833,48,79,n782
55.103127,0.21458334,63,79,n788
54.91771,0.4,82,84,n778
55.327084,0.23125,81,58,n795
55.558334,0.17395833,59,58,n805
55.33125,0.23020834,88,62,n797
55.56146,0.17604166,66,62,n806
55.327084,0.22916667,95,66,n796
55.55625,0.17604166,70,66,n804
55.30625,0.22395833,97,70,n792
55.53021,0.18854167,91,70,n801
55.31354,0.21666667,83,74,n794
55.53021,0.18854167,64,74,n802
55.3625,0.18125,20,78,n799
55.54375,0.17916666,64,78,n803
55.30625,0.21875,86,82,n793
55.525,0.20729166,80,82,n800
55.732292,0.18541667,75,58,n810
55.91771,0.171875,71,58,n819
55.7375,0.18958333,74,62,n813
55.927082,0.175,76,62,n820
55.732292,0.18125,84,66,n811
55.91354,0.17604166,83,66,n816
55.71875,0.18541667,95,70,n807
55.904167,0.18125,87,70,n814
55.71875,0.18958333,77,74,n808
55.908333,0.17708333,74,74,n815
55.722916,0.190625,74,78,n809
55.91354,0.18020834,73,78,n817
55.732292,0.18125,77,82,n812
55.91354,0.17604166,76,82,n818
56.265625,0.17395833,76,53,n832
56.265625,0.17395833,72,57,n833
56.089584,0.35,77,58,n823
56.25625,0.18333334,90,61,n830
56.102085,0.3375,77,62,n827
56.246876,0.19270833,87,65,n828
56.089584,0.35,88,66,n824
56.25625,0.18333334,76,69,n831
56.085415,0.35416666,98,70,n821
56.25104,0.18854167,79,73,n829
56.085415,0.35416666,69,74,n822
56.26979,0.16979167,71,77,n834
56.09375,0.34583333,72,78,n826
56.089584,0.35,81,82,n825
56.47604,0.44375,95,56,n841
56.471874,0.44375,83,60,n839
56.471874,0.43958333,101,64,n840
56.460415,0.43854168,98,68,n836
56.47604,0.43541667,81,72,n842
56.46771,0.43854168,81,76,n838
56.4625,0.43645832,86,80,n837
56.919792,0.175,82,56,n851
57.09479,0.16041666,81,56,n854
56.915627,0.17916666,86,60,n850
57.09479,0.18125,73,60,n855
56.911457,0.178125,92,64,n848
57.089584,0.18125,77,64,n853
56.89896,0.18229167,91,68,n845
57.08125,0.18125,88,68,n852
56.911457,0.1875,87,72,n849
57.098957,0.171875,76,72,n857
56.90625,0.2,83,76,n847
57.10625,0.18020834,70,76,n858
56.89896,0.19583334,91,80,n846
57.09479,0.16458334,83,80,n856
57.432293,0.165625,82,51,n866
57.44479,0.153125,66,55,n870
57.255207,0.32083333,67,56,n859
57.432293,0.14375,95,59,n867
57.276043,0.3,70,60,n864
57.432293,0.14375,93,63,n868
57.270832,0.30520833,85,64,n862
58.254166,0.53333336,85,67,n891
57.2625,0.31354168,91,68,n861
57.43646,0.13958333,81,71,n869
57.270832,0.30520833,79,72,n863
57.6625,0.33645833,57,75,n878
57.286457,0.28958333,49,76,n865
57.259377,0.31666666,84,80,n860
57.640625,0.35833332,86,54,n876
57.63646,0.3625,92,58,n875
57.625,0.37395832,100,62,n872
57.629166,0.36979166,95,66,n873
57.640625,0.35833332,98,70,n877
57.629166,0.36979166,99,78,n874
58.020832,0.76666665,93,31,n882
58.010418,0.77708334,109,43,n881
58.040627,0.746875,79,55,n883
58.80521,0.039583333,86,24,n908
58.80521,1.1489583,109,36,n909
58.352085,0.43541667,89,72,n894
58.390625,0.396875,88,74,n895
58.428123,0.359375,83,76,n896
58.491665,0.29583332,88,79,n898
58.522915,0.26458332,79,81,n899
58.548958,0.23854166,79,83,n900
58.572918,0.21458334,78,84,n901
58.598957,0.18854167,87,86,n902
58.62604,0.16145833,86,88,n903
58.677082,0.110416666,81,91,n905
58.71146,0.07604167,70,93,n906
58.798958,0.05,96,98,n907
59.223957,1.1291667,74,60,n913
59.252083,0.16875,71,64,n918
59.420834,0.53333336,46,64,n924
59.28229,0.14479166,42,68,n919
59.427082,0.16770834,60,68,n925
59.23125,0.17604166,97,72,n915
59.40729,0.17604166,92,72,n921
59.583332,0.37083334,96,72,n929
59.23125,0.2,75,84,n917
59.43125,0.5229167,65,84,n926
59.772915,0.18125,68,63,n937
59.744793,0.209375,77,67,n933
59.59479,0.359375,70,68,n931
59.744793,0.209375,87,71,n934
59.75625,0.19791667,74,75,n935
59.77396,0.18020834,62,79,n938
59.954166,0.19583334,74,62,n942
60.15,0.21875,63,62,n951
59.985416,0.16979167,73,66,n946
60.15521,0.21354167,66,66,n952
59.959373,0.19583334,94,70,n944
60.15521,0.19791667,85,70,n953
59.94479,0.075,98,74,n940
60.13646,0.20104167,93,74,n947
59.959373,0.18333334,82,78,n945
60.142708,0.19895834,78,78,n948
59.954166,0.19375,85,82,n943
60.147915,0.20104167,75,82,n949
59.94896,0.079166666,92,86,n941
60.147915,0.20520833,87,86,n950
60.353127,1.121875,82,60,n957
60.36875,0.709375,62,62,n960
60.36875,0.15520833,82,66,n961
60.52396,0.17291667,64,66,n963
60.353127,0.17083333,97,70,n958
60.52396,0.5541667,82,70,n964
60.3375,0.18229167,95,74,n954
60.51979,0.1875,89,74,n962
60.341667,0.184375,90,78,n955
60.526043,0.19375,80,78,n965
60.348957,0.18645833,84,82,n956
60.535416,0.18645833,72,82,n967
60.353127,0.17291667,83,86,n959
60.526043,0.21041666,85,86,n966
60.884377,0.19375,54,63,n977
60.696877,0.38125,67,66,n968
61.852085,0.15208334,70,67,n1007
60.872917,0.20520833,83,71,n975
60.70729,0.37083334,98,74,n969
60.878124,0.2,93,75,n976
60.71979,0.35833332,91,78,n971
60.897915,0.18020834,76,79,n979
60.721874,0.35625,69,82,n972
60.741665,0.33645833,58,83,n974
60.736458,0.34166667,61,86,n973
60.89375,0.184375,81,87,n978
61.065624,0.41354167,78,64,n981
61.089584,0.38958332,79,68,n986
61.072918,0.40208334,95,72,n982
61.078125,0.384375,102,76,n983
61.089584,0.38958332,88,80,n987
61.084373,0.390625,85,84,n985
61.08229,0.396875,88,88,n984
61.475,0.93541664,88,60,n989
61.479168,0.17291667,79,64,n992
61.652084,0.56875,61,64,n999
61.479168,0.17291667,85,68,n993
61.652084,0.56875,73,68,n1000
61.475,0.17291667,94,72,n990
61.647915,0.18854167,82,72,n997
61.4625,0.17916666,92,76,n988
61.641666,0.190625,89,76,n996
61.479168,0.178125,86,80,n994
61.65729,0.17916666,81,80,n1001
61.475,0.190625,77,84,n991
61.665627,0.36666667,66,84,n1002
61.479168,0.16875,88,88,n995
61.647915,0.184375,85,88,n998
62.013542,0.20729166,69,63,n1012
62.004166,0.21666667,66,67,n1010
62.0,0.22083333,85,71,n1009
61.83646,0.384375,87,72,n1005
62.017708,0.203125,73,75,n1013
61.83229,0.38854167,95,76,n1003
62.009377,0.21145834,73,79,n1011
61.83646,0.20729166,84,80,n1006
62.04375,0.17708333,47,83,n1016
62.03229,0.18854167,39,84,n1014
61.83229,0.38854167,82,88,n1004
62.214584,0.21875,61,62,n1021
62.433334,0.159375,53,62,n1031
62.23021,0.20729166,69,66,n1023
62.4375,0.153125,66,66,n1032
62.210415,0.20416667,90,70,n1019
62.414585,0.171875,92,70,n1029
62.19896,0.079166666,87,74,n1017
62.401043,0.16875,82,74,n1025
62.210415,0.2,82,78,n1020
62.410416,0.17291667,77,78,n1028
62.204166,0.20104167,78,82,n1018
62.40521,0.18125,72,82,n1026
62.214584,0.2,77,86,n1022
62.414585,0.16875,68,86,n1030
62.583332,1.278125,80,60,n1034
62.59271,0.7083333,57,62,n1040
62.590626,0.14791666,71,66,n1039
62.73854,0.1625,70,66,n1043
62.58646,0.14583333,95,70,n1037
62.732292,0.56875,94,70,n1042
62.56979,0.171875,91,74,n1033
62.741665,0.18854167,98,74,n1044
62.583332,0.16354166,90,78,n1035
62.746876,0.17083333,85,78,n1045
62.58646,0.16458334,76,82,n1038
62.75104,0.19479166,78,82,n1046
62.583332,0.16770834,82,86,n1036
62.75104,0.55,78,86,n1047
63.085415,0.215625,66,63,n1057
62.901043,0.4,63,66,n1049
63.06354,0.2375,67,71,n1056
62.93021,0.37083334,94,74,n1052
63.085415,0.215625,99,75,n1058
62.91771,0.38333333,90,78,n1051
63.10625,0.19479166,70,79,n1061
62.945835,0.35520834,68,82,n1053
63.102085,0.19895834,74,87,n1060
63.29375,0.54479164,72,64,n1064
63.30104,0.33020833,73,68,n1066
63.289585,0.325,91,72,n1062
63.289585,0.33645833,98,76,n1063
63.31146,0.32604167,84,80,n1068
63.30625,0.33125,74,84,n1067
63.29375,0.3375,85,88,n1065
63.63125,0.184375,68,68,n1073
63.815624,0.040625,68,68,n1082
63.614582,0.178125,80,72,n1071
63.79271,0.054166667,87,72,n1078
63.62604,0.1625,94,76,n1072
63.78854,0.072916664,96,76,n1077
63.6375,0.16875,80,80,n1075
63.80625,0.07395833,77,80,n1080
63.6375,0.16875,73,84,n1076
63.80625,0.078125,75,84,n1081
63.63125,0.17083333,76,88,n1074
63.802082,0.08229167,85,88,n1079
63.92604,0.37395832,87,59,n1083
63.338543,0.5,38,65,n1069
63.985416,0.31458333,1,65,n1089
64.07396,0.22604166,44,69,n1092
64.0875,0.2125,78,73,n1093
63.975,0.19270833,100,77,n1087
64.16771,0.13229166,94,77,n1094
63.985416,0.19583334,83,81,n1090
64.18125,0.11875,75,81,n1095
63.985416,0.19583334,77,85,n1091
64.18125,0.11875,73,85,n1096
63.98125,0.20520833,92,89,n1088
64.186455,0.11354167,80,89,n1097
64.28646,0.027083334,90,58,n1098
64.39479,0.31458333,93,66,n1104
64.410416,0.303125,73,70,n1105
64.3875,0.33541667,100,74,n1103
64.36667,0.346875,104,78,n1099
64.370834,0.346875,84,82,n1101
64.717705,0.19270833,83,82,n1110
64.910416,0.071875,66,82,n1119
64.38021,0.346875,74,86,n1102
64.36667,0.346875,96,90,n1100
64.70937,0.15104167,73,66,n1106
64.86042,0.09791667,84,66,n1114
64.71354,0.17395833,78,70,n1107
64.8875,0.07083333,73,70,n1116
64.722916,0.14166667,72,74,n1111
64.864586,0.09375,78,74,n1115
64.71354,0.18333334,97,78,n1108
64.89687,0.072916664,95,78,n1117
64.72708,0.20208333,73,86,n1112
64.92917,0.046875,64,86,n1120
64.71354,0.19270833,84,90,n1109
64.90625,0.08125,74,90,n1118
65.004166,0.49375,97,57,n1121
65.16563,0.20833333,76,71,n1128
65.373955,0.123958334,57,71,n1135
65.16146,0.175,95,75,n1127
65.33646,0.16145833,92,75,n1131
65.14375,0.21458334,95,79,n1123
65.35833,0.13958333,91,79,n1133
66.1625,1.6020833,72,82,n1150
65.157295,0.21666667,80,87,n1126
65.373955,0.123958334,66,87,n1136
65.14792,0.22604166,90,91,n1124
65.373955,0.123958334,76,91,n1137
65.50208,0.055208333,105,56,n1138
65.72708,1.1208333,82,66,n1140
65.73854,0.86875,68,72,n1141
65.722916,0.69375,96,76,n1139
65.73854,0.50104165,93,80,n1142
65.782295,0.28125,30,84,n1144
65.995834,1.76875,75,86,n1147
65.90312,1.8614583,75,88,n1146
65.83021,1.934375,81,90,n1145
65.73854,2.0260417,93,92,n1143
66.30312,1.4614583,70,78,n1152
66.239586,1.525,68,80,n1151
66.063545,1.7010417,63,84,n1148
66.68437,1.0802083,69,70,n1156
66.60729,1.1572917,69,72,n1155
66.50208,1.2625,69,74,n1154
66.416664,1.3479167,83,76,n1153
67.030205,0.734375,64,62,n1160
66.93437,0.83020836,66,64,n1159
66.847916,0.9166667,70,66,n1158
66.745834,1.01875,68,68,n1157
67.35208,0.4125,56,54,n1164
67.27812,0.48645833,63,56,n1163
67.17083,0.59375,70,58,n1162
67.10625,0.65833336,73,60,n1161
67.69271,0.1125,53,46,n1168
67.60729,0.15729167,56,48,n1167
67.5125,0.25208333,63,50,n1166
67.44375,0.32083333,63,52,n1165
67.77604,0.0375,62,44,n1169
67.93021,0.21666667,49,44,n1171
67.88646,0.17604166,36,46,n1170
68.0625,0.15729167,55,46,n1172
68.14687,0.092708334,63,44,n1173
68.30625,0.072916664,58,44,n1175
68.219795,0.065625,65,46,n1174
68.41146,0.063541666,58,46,n1176
68.504166,0.047916666,58,44,n1177
68.65833,0.065625,54,44,n1179
68.597916,0.045833334,52,46,n1178
68.751045,0.058333334,52,46,n1180
68.84167,0.061458334,60,44,n1181
69.03958,0.040625,45,44,n1183
68.93229,0.07083333,57,46,n1182
69.11562,0.046875,52,46,n1184
69.20208,0.044791665,51,44,n1185
69.37292,0.046875,45,44,n1187
69.282295,0.05,53,46,n1186
69.45104,0.05,53,46,n1188
69.54375,0.046875,48,44,n1189
69.722916,0.042708334,37,44,n1191
69.61354,0.059375,57,46,n1190
69.79063,0.084375,57,46,n1192
69.890625,0.38333333,57,38,n1194
69.88646,0.23229167,51,44,n1193
70.11875,0.17916666,32,44,n1196
70.030205,0.17916666,50,46,n1195
70.20937,0.088541664,56,46,n1197
70.27396,0.044791665,61,38,n1198
70.44896,0.051041666,52,38,n1201
70.30312,0.05625,58,44,n1199
70.47396,0.052083332,53,44,n1202
70.39375,0.059375,50,46,n1200
70.57188,0.060416665,53,46,n1203
70.81771,0.044791665,64,34,n1207
70.63229,0.057291668,56,38,n1204
70.64792,0.060416665,55,44,n1205
70.83646,0.063541666,58,44,n1208
70.751045,0.058333334,53,46,n1206
70.94063,0.052083332,52,46,n1209
71.00313,0.055208333,72,37,n1210
71.18542,0.05625,64,37,n1213
71.02604,0.05625,59,44,n1211
71.21146,0.048958335,51,44,n1214
71.11146,0.057291668,58,46,n1212
71.28438,0.065625,56,46,n1215
71.38125,0.05,62,37,n1216
71.56042,0.054166667,64,37,n1219
71.38646,0.054166667,53,44,n1217
71.57188,0.061458334,54,44,n1220
71.479164,0.054166667,50,46,n1218
71.65833,0.06666667,57,46,n1221
71.748955,0.051041666,69,37,n1222
71.92396,0.045833334,73,38,n1225
71.76354,0.060416665,57,44,n1223
71.94479,0.059375,59,44,n1226
71.86146,0.057291668,55,46,n1224
72.04375,0.054166667,53,46,n1227
72.126045,0.35208333,82,39,n1228
72.126045,0.19479166,60,44,n1229
72.32083,0.15729167,45,44,n1231
72.23125,0.203125,49,46,n1230
72.43437,0.051041666,50,46,n1232
72.525,0.051041666,71,39,n1233
72.71042,0.054166667,62,39,n1237
72.52917,0.052083332,48,44,n1234
72.70521,0.046875,56,44,n1236
72.61354,0.054166667,48,46,n1235
72.79583,0.055208333,52,46,n1238
73.07083,0.045833334,75,35,n1242
72.88958,0.059375,66,39,n1240
72.86875,0.07083333,56,44,n1239
73.07083,0.055208333,53,44,n1243
72.972916,0.05625,58,46,n1241
73.15104,0.07083333,56,46,n1244
73.251045,0.05,85,38,n1246
73.42604,0.0375,76,38,n1249
73.24687,0.061458334,64,44,n1245
73.42292,0.06666667,54,44,n1248
73.354164,0.053125,52,46,n1247
73.532295,0.046875,51,46,n1250
73.60625,0.05,59,38,n1251
73.78438,0.04375,68,38,n1255
73.61667,0.053125,55,44,n1252
73.780205,0.07083333,51,44,n1254
73.70417,0.058333334,54,46,n1253
73.8875,0.06979167,53,46,n1256
73.96146,0.045833334,70,38,n1257
74.14792,0.04375,80,39,n1261
74.13438,0.057291668,61,45,n1260
74.33437,0.27708334,71,40,n1262
74.33854,0.21666667,58,46,n1263
74.55521,0.05625,49,46,n1265
74.441666,0.16979167,60,48,n1264
74.629166,0.05,48,48,n1266
74.72083,0.057291668,66,40,n1268
74.88958,0.058333334,71,40,n1270
74.71354,0.052083332,59,46,n1267
74.88958,0.054166667,56,46,n1271
74.80104,0.19895834,52,48,n1269
75.25833,0.053125,73,37,n1276
75.075,0.20729166,78,41,n1272
75.07917,0.04375,60,47,n1273
75.23021,0.061458334,55,47,n1275
75.155205,0.07083333,55,49,n1274
75.32188,0.05,45,49,n1277
75.45208,0.36145833,74,42,n1279
75.43437,0.05,59,48,n1278
75.61042,0.19375,50,48,n1281
75.525,0.20833333,47,50,n1280
75.73333,0.16354166,51,50,n1282
75.813545,0.19166666,69,42,n1284
76.00521,0.104166664,65,42,n1287
75.80417,0.1875,63,48,n1283
75.99167,0.11770833,60,48,n1286
75.89687,0.2125,59,50,n1285
76.17292,0.35833332,75,43,n1288
76.1875,0.061458334,59,49,n1289
76.38021,0.15104167,52,49,n1292
76.291664,0.20416667,51,51,n1290
76.495834,0.051041666,45,51,n1293
76.552086,0.359375,85,44,n1294
76.572914,0.14791666,63,50,n1295
76.72083,0.190625,60,50,n1297
76.75625,0.15520833,79,56,n1298
77.10521,0.190625,81,45,n1302
76.936455,0.159375,67,51,n1299
77.09583,0.2,40,51,n1301
77.16875,0.12708333,23,53,n1303
76.936455,0.359375,86,57,n1300
77.311455,0.18229167,74,46,n1305
77.30729,0.083333336,63,52,n1304
77.48542,0.19375,55,52,n1308
77.40833,0.058333334,60,54,n1306
77.47813,0.20104167,77,58,n1307
77.86562,0.48958334,81,47,n1313
77.67917,0.059375,65,53,n1309
77.86354,0.49166667,65,53,n1312
77.770836,0.184375,51,55,n1311
77.95521,0.4,55,55,n1314
77.683334,0.671875,85,59,n1310
78.04375,0.31145832,85,48,n1316
78.061455,0.15833333,70,54,n1317
78.219795,0.13541667,68,54,n1320
78.15104,0.21875,69,56,n1318
78.21562,0.13958333,87,60,n1319
78.60729,0.48854166,68,49,n1325
78.421875,0.059375,66,55,n1322
78.59062,0.5052083,61,55,n1324
78.51354,0.15208334,51,57,n1323
78.66563,0.43020833,64,57,n1326
78.40417,0.69166666,85,61,n1321
78.79375,0.30208334,88,50,n1329
78.78958,0.16145833,67,56,n1328
78.95104,0.14479166,62,56,n1332
78.86875,0.15416667,68,58,n1330
79.02292,0.072916664,53,58,n1333
78.94375,0.15208334,92,62,n1331
79.325,0.434375,84,51,n1339
79.14479,0.14583333,75,57,n1335
79.29063,0.46875,49,57,n1338
79.22604,0.15625,53,59,n1337
79.38229,0.37708333,71,59,n1340
79.123955,0.6354167,85,63,n1334
79.498955,0.26041666,85,52,n1341
79.50833,0.16875,72,58,n1342
79.677086,0.08229167,68,58,n1344
79.63958,0.119791664,51,60,n1343
79.76875,0.08958333,66,60,n1346
79.68125,0.078125,92,64,n1345
80.032295,0.18541667,85,53,n1350
79.885414,0.184375,71,59,n1348
80.06979,0.14791666,64,59,n1351
79.984375,0.15625,60,61,n1349
80.140625,0.077083334,43,61,n1352
79.84062,0.37708333,85,65,n1347
80.21354,0.090625,77,54,n1353
80.24062,0.43645832,76,60,n1354
80.38854,0.28854167,52,62,n1356
80.379166,0.29791668,89,66,n1355
80.75833,0.24166666,73,55,n1362
80.58542,0.09166667,70,61,n1359
80.754166,0.24583334,54,61,n1361
80.671875,0.328125,57,63,n1360
80.56875,0.108333334,83,67,n1358
80.953125,24.285418,74,56,n1363
80.964584,0.051041666,74,62,n1365
81.15312,0.18229167,69,62,n1367
81.05937,0.17708333,59,64,n1366
81.23646,0.14583333,52,64,n1368
80.95521,0.8052083,89,68,n1364
81.33542,0.13125,60,62,n1369
81.46667,23.771875,65,62,n1371
81.38229,0.18229167,63,64,n1370
81.56458,23.673958,61,64,n1372
81.760414,1.553125,57,68,n1374
81.782295,0.22604166,62,74,n1375
82.00833,0.16145833,50,74,n1377
81.89375,0.23333333,63,76,n1376
82.12708,0.15208334,46,76,n1378
81.74062,0.78229165,86,80,n1373
82.16979,0.22604166,64,74,n1379
82.395836,0.165625,53,74,n1381
82.27917,0.20729166,65,76,n1380
82.48646,0.18020834,48,76,n1382
82.561455,0.20208333,61,74,n1384
82.76354,0.18645833,54,74,n1387
82.666664,0.20625,63,76,n1386
82.87292,0.16458334,53,76,n1388
82.52292,3.090625,65,80,n1383
82.57604,4.2552085,86,92,n1385
82.95,0.19166666,53,74,n1389
83.14167,0.171875,53,74,n1391
83.0375,0.17395833,61,76,n1390
83.21146,0.20416667,68,76,n1392
83.313545,2.3135417,72,68,n1393
83.313545,0.21666667,64,74,n1394
83.530205,0.15520833,44,74,n1396
83.41563,0.18229167,67,76,n1395
83.597916,0.18958333,61,76,n1397
83.68542,0.2,61,74,n1398
83.885414,0.16145833,52,74,n1400
83.7875,0.15729167,58,76,n1399
83.94479,0.18958333,66,76,n1401
84.046875,0.20208333,57,74,n1402
84.248955,0.171875,51,74,n1404
84.13438,0.19166666,58,76,n1403
84.32604,0.18541667,60,76,n1405
84.42083,0.19270833,55,74,n1406
84.61354,0.18645833,51,74,n1408
84.51146,0.20416667,58,76,n1407
84.71562,0.17708333,50,76,n1409
84.8,0.246875,53,74,n1410
85.046875,0.175,21,74,n1412
84.89271,0.21979167,54,76,n1411
85.1125,0.18125,48,76,n1413
85.22188,0.18333334,46,74,n1414
85.405205,0.190625,44,74,n1416
85.29375,0.22604166,50,76,n1415
85.51979,0.196875,37,76,n1417
85.62708,2.3541667,56,68,n1420
85.59583,0.26770833,51,74,n1418
85.86354,0.16458334,26,74,n1422
85.71667,0.234375,49,76,n1421
85.95104,0.16458334,39,76,n1423
85.61354,1.1291667,79,80,n1419
86.02812,0.21145834,55,74,n1425
86.239586,0.20104167,40,74,n1427
86.11562,0.228125,61,76,n1426
86.34375,0.165625,48,76,n1428
86.0125,1.1989583,68,82,n1424
86.44063,0.19895834,45,74,n1430
86.63958,0.20729166,44,74,n1432
86.50938,0.23333333,62,76,n1431
86.74271,0.18333334,53,76,n1433
86.407295,1.1833333,64,84,n1429
86.84688,0.19270833,51,74,n1437
87.03958,0.17916666,36,74,n1439
86.92604,0.22083333,60,76,n1438
87.14687,0.159375,50,76,n1440
86.74271,1.215625,57,80,n1434
86.77604,2.3,60,86,n1435
86.83125,2.3072917,72,92,n1436
87.21875,0.20625,49,74,n1442
87.425,0.15729167,38,74,n1444
87.30625,0.20625,57,76,n1443
87.5125,0.15520833,52,76,n1445
87.21146,1.1489583,60,82,n1441
87.58229,0.20416667,50,74,n1446
87.78646,0.16145833,42,74,n1449
87.66771,0.20625,60,76,n1448
87.873955,0.19375,52,76,n1450
87.59062,1.1385417,65,84,n1447
87.98125,2.3145833,48,68,n1453
87.947914,0.25208333,56,74,n1451
88.2,0.165625,27,74,n1455
88.06771,0.19166666,50,76,n1454
88.25938,0.18645833,51,76,n1456
87.958336,1.0645833,68,80,n1452
88.36562,0.17291667,49,74,n1458
88.53854,0.20729166,43,74,n1460
88.44583,0.18645833,52,76,n1459
88.63229,0.2125,52,76,n1461
88.36042,1.16875,59,82,n1457
88.745834,0.19375,44,74,n1463
88.93958,0.19479166,40,74,n1465
88.844795,0.178125,51,76,n1464
89.02292,0.215625,57,76,n1466
88.729164,1.196875,64,84,n1462
89.13438,0.18541667,47,74,n1469
89.31979,0.190625,49,74,n1472
89.23854,0.159375,49,76,n1471
89.39792,0.22083333,58,76,n1473
89.02292,5.95,52,80,n1467
89.07604,2.7458334,57,86,n1468
89.13854,7.0197916,65,92,n1470
89.510414,0.16770834,44,74,n1474
89.67812,0.22708334,47,74,n1477
89.61875,0.14791666,38,76,n1476
89.76667,0.246875,58,76,n1478
89.52917,2.3072917,61,82,n1475
89.905205,0.16145833,25,74,n1479
90.066666,0.19375,53,74,n1482
90.01354,0.16666667,22,76,n1481
90.18021,0.20208333,60,76,n1483
89.92604,1.5385417,52,84,n1480
90.29583,2.2760417,51,68,n1485
90.260414,0.20416667,51,74,n1484
90.464584,0.20625,53,74,n1487
90.38229,0.19166666,46,76,n1486
90.57396,0.20625,48,76,n1488
90.67083,0.21875,56,74,n1491
90.88958,0.21354167,59,74,n1494
90.780205,0.23541667,62,76,n1493
91.015625,0.21458334,51,76,n1496
90.90417,2.3145833,69,90,n1495
90.65625,0.119791664,66,96,n1490
90.77604,2.196875,83,96,n1492
90.640625,2.30625,76,100,n1489
91.10313,0.23229167,50,74,n1499
91.33542,0.2125,56,74,n1501
91.23021,0.21145834,56,76,n1500
91.441666,0.225,54,76,n1503
91.05104,2.315625,65,94,n1498
91.0375,2.325,75,98,n1497
91.54792,0.23125,55,74,n1505
91.77917,0.175,57,74,n1509
91.95417,0.19375,58,74,n1513
92.14792,0.16875,47,74,n1515
91.666664,0.20416667,59,76,n1507
91.697914,2.3322916,69,78,n1508
91.83646,2.3322916,49,82,n1511
91.464584,0.10208333,56,84,n1504
91.566666,2.2145834,79,84,n1506
91.4375,2.3302083,76,88,n1502
91.870834,0.19166666,59,76,n1512
92.0625,0.15520833,57,76,n1514
91.82188,2.3385417,68,86,n1510
92.316666,0.22916667,51,74,n1517
92.217705,0.21875,61,76,n1516
92.436455,0.22708334,62,76,n1518
92.57188,2.4260416,58,68,n1520
92.54583,0.23020834,59,74,n1519
92.77604,0.146875,36,74,n1522
92.66354,0.184375,48,76,n1521
92.847916,0.20729166,56,76,n1523
92.92292,0.22604166,58,74,n1524
93.14896,0.21354167,57,74,n1529
93.05521,0.19895834,58,76,n1527
93.254166,0.21458334,57,76,n1531
93.21875,7.90625,74,90,n1530
92.972916,0.110416666,53,96,n1526
93.083336,7.2125,83,96,n1528
92.94688,7.352083,77,100,n1525
93.3625,0.22291666,53,74,n1532
93.58542,0.20520833,53,74,n1536
93.46875,0.24166666,63,76,n1535
93.71042,0.18541667,47,76,n1537
93.36667,6.8125,65,94,n1534
93.3625,6.6739583,72,98,n1533
93.79063,0.22708334,52,74,n1540
94.01771,0.19166666,57,74,n1543
93.895836,0.22604166,59,76,n1541
94.12187,0.19375,57,76,n1545
94.030205,2.0,66,78,n1544
94.16875,1.2197917,50,82,n1547
93.78125,0.114583336,69,84,n1539
93.895836,1.8552083,76,84,n1542
93.76771,7.663542,77,88,n1538
94.20937,0.22291666,55,74,n1548
94.43229,0.15208334,44,74,n1550
94.31563,0.17916666,58,76,n1549
94.49479,0.18541667,52,76,n1551
94.160416,1.9229167,56,86,n1546
94.58437,0.184375,53,74,n1552
94.76875,0.221875,47,74,n1554
94.68021,0.190625,50,76,n1553
94.870834,0.23020834,50,76,n1555
94.99792,2.3572917,51,68,n1558
94.99062,0.20416667,47,74,n1557
95.19479,0.175,45,74,n1560
95.10104,0.19375,60,76,n1559
95.29479,0.175,49,76,n1561
94.972916,1.090625,72,80,n1556
95.36979,0.203125,53,74,n1562
95.572914,0.190625,48,74,n1565
95.469795,0.19895834,52,76,n1564
95.66875,0.18958333,53,76,n1566
95.38854,1.1791667,70,82,n1563
95.76354,0.203125,56,74,n1568
95.96667,0.21666667,54,74,n1570
95.85833,0.2125,65,76,n1569
96.07083,0.215625,62,76,n1573
95.751045,1.19375,70,84,n1567
96.183334,0.19895834,62,74,n1577
96.38229,0.21770833,49,74,n1579
96.28646,0.19479166,51,76,n1578
96.48125,0.25,47,76,n1580
96.030205,2.2916667,55,78,n1571
96.083336,2.3041666,73,86,n1574
96.15833,2.3072917,80,92,n1576
96.6,0.1875,27,74,n1582
96.7875,0.17916666,60,74,n1584
96.73125,0.18020834,21,76,n1583
96.91146,0.12916666,45,76,n1585
96.56771,1.1375,53,82,n1581
96.96667,0.17916666,40,74,n1587
97.145836,0.16458334,37,74,n1589
97.04063,0.20729166,66,76,n1588
97.24792,0.17916666,47,76,n1590
96.94479,1.11875,54,84,n1586
97.35521,2.2552083,54,68,n1593
97.31042,0.24583334,59,74,n1591
97.55625,0.153125,26,74,n1595
97.427086,0.18541667,61,76,n1594
97.6125,0.17291667,49,76,n1596
97.31042,1.0739583,69,80,n1592
97.70937,0.15104167,57,74,n1598
97.86042,0.21875,54,74,n1600
97.785416,0.19583334,58,76,n1599
97.98125,0.18645833,61,76,n1601
97.70521,1.1739583,66,82,n1597
98.07917,0.18020834,53,74,n1603
98.25938,0.21041666,58,74,n1605
98.16771,0.19375,73,76,n1604
98.36146,0.21145834,65,76,n1607
98.063545,1.1729167,69,84,n1602
98.469795,0.2,59,74,n1612
98.66979,0.2,49,74,n1614
98.572914,0.19479166,67,76,n1613
98.76771,0.20520833,56,76,n1615
98.32188,3.44375,57,78,n1606
98.38438,2.3802083,34,80,n1608
98.3875,2.7541666,72,86,n1610
98.46562,1.9677083,79,92,n1611
98.86979,0.184375,47,74,n1616
99.05417,0.175,42,74,n1619
98.972916,0.153125,49,76,n1618
99.126045,0.19583334,54,76,n1620
98.879166,2.4208333,55,82,n1617
99.229164,0.16875,40,74,n1621
99.39792,0.21041666,53,74,n1624
99.32188,0.18229167,58,76,n1623
99.504166,0.221875,59,76,n1625
99.23646,2.209375,51,84,n1622
99.61042,2.3104167,62,68,n1627
99.60833,0.234375,46,74,n1626
99.842705,0.19375,47,74,n1629
99.72604,0.228125,62,76,n1628
99.95417,0.215625,57,76,n1630
100.03646,0.24479167,57,74,n1632
100.28125,0.24375,65,74,n1636
100.16979,0.240625,60,76,n1634
100.410416,0.25416666,58,76,n1639
100.17917,0.384375,70,94,n1635
100.29583,2.2541666,74,96,n1637
100.03646,0.48958334,80,98,n1633
100.29896,2.2458334,60,100,n1638
100.02187,2.246875,87,102,n1631
100.525,0.2875,65,74,n1641
100.66458,0.28125,62,76,n1644
100.433334,2.2208333,60,92,n1640
100.563545,1.8520833,40,94,n1643
100.52604,1.7614583,67,98,n1642
100.8125,0.19375,52,74,n1646
101.00625,0.25729167,52,74,n1648
100.94583,0.19583334,48,76,n1647
100.76458,0.79270834,73,80,n1645
101.26354,0.25833333,51,74,n1652
101.14167,0.26145834,46,76,n1650
101.40312,0.234375,49,76,n1654
101.3,0.38958332,65,82,n1653
101.44583,2.278125,57,84,n1656
101.14167,0.53229165,76,86,n1651
101.43125,2.2677083,65,88,n1655
101.125,1.7614583,76,90,n1649
101.52187,0.21666667,54,74,n1657
101.73854,0.17395833,51,74,n1662
101.6375,0.203125,55,76,n1659
101.84062,0.203125,66,76,n1664
101.765625,2.7760417,66,78,n1663
101.55729,1.46875,62,80,n1658
101.68958,1.8729167,48,82,n1661
101.67396,1.7177083,50,86,n1660
101.92083,3.2302084,64,68,n1666
101.9125,0.225,63,74,n1665
102.1375,0.19895834,60,74,n1668
102.04375,0.19375,57,76,n1667
102.2375,0.23229167,55,76,n1669
102.33646,0.22916667,52,74,n1672
102.56563,0.259375,56,74,n1677
102.469795,0.20729166,48,76,n1674
102.41563,0.39270833,67,94,n1673
102.55,2.6885417,61,96,n1676
102.2875,0.49270833,75,98,n1671
102.54479,2.69375,63,100,n1675
102.26875,2.9697917,82,102,n1670
102.825,0.240625,58,74,n1682
102.677086,0.25833333,51,76,n1679
102.93542,0.253125,56,76,n1684
103.188545,0.26145834,47,76,n1687
103.45,0.34583333,42,76,n1691
103.79583,0.5572917,47,76,n1696
102.88646,0.484375,64,90,n1683
102.65417,2.584375,69,92,n1678
102.808334,2.4302084,54,94,n1681
102.780205,2.4583333,60,98,n1680
103.06563,0.20625,52,74,n1686
103.27187,0.353125,51,74,n1688
103.625,0.365625,43,74,n1693
103.02604,0.84375,56,80,n1685
103.5625,0.54479164,50,82,n1692
103.72396,1.5145833,49,84,n1695
103.39167,0.70104164,65,86,n1690
103.69896,1.5395833,57,88,n1694
103.370834,1.8677083,68,90,n1689
103.99062,1.2479167,34,74,n1698
104.35313,0.8854167,42,76,n1701
104.541664,0.696875,47,78,n1702
103.86979,1.36875,52,80,n1697
104.10729,1.13125,40,82,n1700
104.092705,1.1458334,39,86,n1699
105.39375,0.17291667,53,66,n1704
105.566666,0.125,57,66,n1706
105.88021,4.0979166,46,66,n1710
105.15104,0.35104167,68,68,n1703
105.50208,2.153125,39,68,n1705
105.8125,0.17083333,48,64,n1709
105.98333,0.140625,44,64,n1711
106.123955,0.17395833,61,64,n1713
105.691666,0.18854167,66,66,n1707
105.70625,1.1635417,61,70,n1708
106.34167,0.18333334,36,62,n1715
106.29792,3.6802084,62,64,n1714
106.09167,1.1604167,74,72,n1712
106.62187,0.16041666,56,60,n1718
106.782295,0.13333334,54,60,n1720
106.525,0.17916666,64,62,n1717
106.70417,3.2739584,59,62,n1719
106.47708,2.3322916,71,74,n1716
106.98542,0.128125,54,58,n1723
107.11354,0.146875,68,58,n1725
106.91563,0.13854167,57,60,n1722
107.05417,2.9239583,54,60,n1724
106.86979,1.1854167,83,70,n1721
107.35,0.13854167,53,56,n1728
107.48854,0.18541667,66,56,n1730
107.260414,0.178125,58,58,n1727
107.438545,2.5395834,48,58,n1729
107.25208,1.1739583,76,72,n1726
107.76667,0.15208334,52,54,n1733
107.91875,0.123958334,61,54,n1735
107.67396,0.1625,63,56,n1732
107.83646,2.1416667,57,56,n1734
107.655205,2.2979167,82,68,n1731
108.14271,0.13541667,56,52,n1738
108.27812,0.15625,68,52,n1740
108.04271,0.17291667,69,54,n1736
108.21562,1.7625,57,54,n1739
108.05521,1.1322917,69,70,n1737
108.535416,0.14375,53,50,n1743
108.67917,0.134375,65,50,n1745
108.43437,0.175,66,52,n1742
108.609375,1.36875,54,52,n1744
108.42604,1.1510416,81,72,n1741
108.9125,0.17291667,60,48,n1748
109.08542,0.13854167,58,48,n1750
108.813545,0.18854167,64,50,n1747
109.00208,0.9760417,58,50,n1749
108.80937,1.16875,76,74,n1746
109.30937,0.15,49,46,n1753
109.45937,0.12708333,61,46,n1755
109.22396,0.14270833,60,48,n1752
109.36667,0.61145836,49,48,n1754
109.1875,0.790625,84,70,n1751
109.68229,0.14791666,47,44,n1758
109.83021,0.1375,61,44,n1760
109.58646,0.17291667,66,46,n1757
109.75938,0.21875,58,46,n1759
109.57708,0.40104166,80,72,n1756
110.061455,0.17291667,43,42,n1763
110.234375,0.14479166,44,42,n1765
109.967705,0.17395833,65,44,n1762
110.14167,0.2375,59,44,n1764
109.953125,0.8052083,73,68,n1761
110.46667,0.16458334,53,40,n1768
110.63125,0.12708333,48,40,n1770
110.379166,0.18125,62,42,n1767
110.56042,0.19791667,52,42,n1769
110.36562,0.40520832,68,70,n1766
110.8625,0.18958333,52,38,n1773
111.052086,0.12083333,57,38,n1775
110.76354,0.20625,59,40,n1772
110.969795,0.6322917,54,40,n1774
110.74167,0.86041665,74,72,n1771
111.282295,0.14895834,49,36,n1777
111.8625,0.3,47,36,n1782
111.43125,0.16354166,61,36,n1779
111.17292,0.190625,65,38,n1776
111.36354,0.23854166,49,38,n1778
111.729164,0.2875,50,34,n1781
112.01667,0.375,44,34,n1783
111.594795,0.096875,55,36,n1780
112.39167,0.553125,39,34,n1785
112.94479,1.053125,36,34,n1787
112.1625,0.45833334,43,36,n1784
112.620834,1.3770833,42,36,n1786
113.97708,1.7802083,38,33,n1789
113.95625,0.8833333,47,45,n1788
114.39896,0.24895833,30,48,n1790
114.64792,0.19166666,39,48,n1792
115.25833,0.49895832,59,48,n1797
114.55417,0.51979166,44,57,n1791
115.07396,0.184375,50,57,n1795
114.78646,0.471875,56,47,n1793
114.98542,0.178125,32,50,n1794
115.16354,0.094791666,36,50,n1796
115.38958,0.19895834,51,52,n1798
115.58854,0.16875,36,52,n1800
115.498955,0.25833333,46,57,n1799
115.677086,0.41979167,61,50,n1801
115.81458,0.18333334,51,53,n1802
115.99792,0.12291667,47,53,n1804
115.90625,0.190625,54,57,n1803
116.06875,0.9895833,66,47,n1805
116.18125,0.21041666,52,50,n1806
116.39167,0.6666667,37,50,n1808
116.29375,0.42083332,54,57,n1807
116.475,0.5833333,64,48,n1809
116.59688,0.21145834,54,52,n1810
116.808334,0.25,45,52,n1812
116.714584,0.34375,48,57,n1811
117.01979,1.3364583,53,33,n1814
117.00521,0.5520833,65,45,n1813
117.19271,0.17083333,29,48,n1815
117.36354,0.19375,44,48,n1817
117.28958,0.31666666,49,57,n1816
117.50729,0.8489583,60,47,n1818
117.62708,0.159375,48,50,n1819
117.78646,0.49895832,46,50,n1821
117.734375,0.37291667,54,57,n1820
117.89479,0.46145833,66,48,n1822
117.99062,0.19583334,57,52,n1823
118.186455,0.16979167,48,52,n1825
118.10729,0.24895833,50,57,n1824
118.30104,2.36875,62,45,n1827
118.285416,0.44270834,72,50,n1826
118.410416,0.196875,48,53,n1828
118.60729,0.109375,31,53,n1830
118.67812,0.44166666,71,52,n1831
119.17396,0.17083333,58,57,n1836
119.05417,0.459375,72,53,n1835
119.344795,0.16875,57,57,n1838
118.97604,0.14375,51,55,n1834
119.48021,0.47395834,72,55,n1839
119.56875,0.16145833,60,58,n1840
119.73021,0.225,60,58,n1842
119.69271,0.2625,45,64,n1841
119.890625,0.78333336,75,52,n1843
119.95417,0.196875,58,55,n1844
120.15104,0.50208336,54,55,n1846
120.06771,0.60625,59,61,n1845
120.25938,0.41458333,82,53,n1847
120.34375,0.17291667,70,57,n1848
120.51667,0.15729167,65,57,n1850
120.42083,0.253125,57,62,n1849
120.66979,2.221875,66,45,n1852
120.65312,0.43645832,83,55,n1851
120.739586,0.18333334,56,58,n1853
120.92292,0.11145833,59,58,n1855
120.85,0.23958333,55,64,n1854
121.03438,0.43645832,83,58,n1856
121.14167,0.18229167,62,62,n1857
121.32396,0.146875,39,62,n1859
121.234375,0.23645833,53,67,n1858
121.4,0.44895834,79,57,n1860
121.475,0.18854167,57,60,n1861
121.66354,0.18541667,64,60,n1863
121.58229,0.26666668,58,65,n1862
121.77812,0.45104167,76,55,n1864
121.890625,0.16666667,58,58,n1865
122.05729,0.853125,60,58,n1867
121.98125,0.24791667,55,64,n1866
122.152084,0.7583333,79,52,n1868
122.2375,0.16875,56,55,n1869
122.40625,0.47708333,60,55,n1871
122.32708,0.5833333,62,61,n1870
122.51458,0.39583334,86,53,n1872
122.59688,0.15625,64,57,n1873
122.75313,0.15729167,67,57,n1875
122.65938,0.25104168,64,62,n1874
122.89167,1.1583333,70,45,n1877
122.88333,0.3875,85,55,n1876
122.96667,0.18958333,58,58,n1878
123.15625,0.09583333,53,58,n1880
123.07917,0.19166666,56,64,n1879
123.25208,0.33854166,82,58,n1881
123.35104,0.178125,63,62,n1882
123.52917,0.072916664,43,62,n1884
123.44375,0.16979167,57,67,n1883
123.62708,0.42291668,84,57,n1885
123.69583,0.165625,67,60,n1886
123.86146,0.18854167,60,60,n1888
123.80312,0.246875,52,65,n1887
124.01354,1.1239583,65,56,n1889
124.02292,1.1145834,62,62,n1890
124.11562,0.17604166,58,65,n1891
124.291664,0.104166664,58,65,n1893
124.21562,0.921875,55,71,n1892
124.4,0.7375,71,59,n1895
124.395836,0.7416667,82,65,n1894
124.50313,0.14270833,60,68,n1896
124.645836,0.49166667,66,68,n1898
124.56875,0.56875,63,74,n1897
124.775,0.3625,76,60,n1900
124.76354,0.37395832,86,64,n1899
124.83542,0.17291667,74,67,n1901
125.00833,0.090625,69,67,n1903
124.92083,0.21666667,78,72,n1902
125.10625,0.39166668,82,61,n1905
125.09896,0.39895833,95,67,n1904
125.21042,0.1625,72,70,n1906
125.37292,0.1,74,70,n1908
125.28438,0.21354167,68,76,n1907
125.46146,0.87604165,74,64,n1909
125.472916,0.8645833,102,70,n1910
125.552086,0.17604166,72,73,n1911
125.72813,0.609375,67,73,n1913
125.6625,0.675,68,79,n1912
125.84896,0.48854166,78,65,n1915
125.8375,0.5,90,69,n1914
125.90104,0.18229167,80,72,n1916
126.083336,0.25416666,66,72,n1918
126.01979,0.31770834,77,77,n1917
126.364586,2.3927083,78,56,n1921
126.34688,2.4104166,81,62,n1920
126.552086,0.17708333,51,65,n1922
126.729164,0.1625,66,65,n1924
126.6625,2.0947917,42,71,n1923
126.90625,1.8229166,83,59,n1926
126.89167,1.825,68,65,n1925
126.99062,0.14895834,55,68,n1927
127.13958,1.6177083,76,68,n1929
127.08646,1.6708333,57,74,n1928
127.28646,1.4708333,80,60,n1931
127.27396,0.7291667,90,64,n1930
127.354164,0.15,71,67,n1932
127.504166,0.128125,57,67,n1934
127.43229,1.325,63,72,n1933
127.63229,0.5364583,87,61,n1935
127.63229,0.53229165,82,67,n1936
127.751045,0.16458334,70,70,n1937
127.91563,0.525,64,70,n1939
127.822914,0.7,65,76,n1938
128.16875,0.5885417,66,61,n1944
128.00313,0.33125,69,64,n1941
128.16458,0.59270835,73,67,n1943
127.99167,0.33854166,72,69,n1940
128.33022,0.42708334,80,69,n1947
128.08542,0.16041666,69,73,n1942
128.24583,0.51145834,57,73,n1946
128.17813,0.57916665,60,79,n1945
128.33438,0.42291668,76,64,n1948
128.44063,0.171875,66,70,n1949
128.6125,0.14479166,58,70,n1951
128.52292,0.234375,65,76,n1950
128.72917,0.721875,75,59,n1953
128.71666,0.7270833,77,65,n1952
128.8198,0.16666667,56,68,n1954
128.98647,0.90625,57,68,n1956
128.91354,0.7416667,49,74,n1955
129.10728,0.7083333,69,62,n1958
129.09584,0.796875,76,67,n1957
129.1625,0.17916666,62,71,n1959
129.34166,0.55104166,47,71,n1961
129.26562,0.62708336,61,76,n1960
129.45103,0.44166666,68,59,n1963
129.44376,0.44895834,75,65,n1962
129.56354,0.16145833,45,69,n1964
129.725,0.16770834,45,69,n1966
129.65521,0.2375,44,74,n1965
129.82603,0.5385417,66,56,n1968
129.81563,0.54270834,70,62,n1967
129.91978,0.14375,54,65,n1969
130.06354,0.5541667,48,65,n1971
130.01772,0.70416665,41,71,n1970
130.36458,0.590625,69,56,n1976
130.20416,0.34375,63,59,n1973
130.35834,0.596875,69,62,n1975
130.19687,0.36041668,67,64,n1972
130.28438,0.240625,60,68,n1974
130.525,0.43020833,19,68,n1978
130.38542,0.5697917,49,74,n1977
130.54791,0.40729168,68,59,n1979
130.5573,0.39791667,69,64,n1980
130.6177,0.178125,46,65,n1981
130.79584,0.159375,54,65,n1983
130.72188,0.23333333,55,71,n1982
130.91354,0.7125,61,54,n1985
130.90938,0.709375,67,60,n1984
131.00937,0.06666667,59,63,n1986
131.17917,0.54270834,59,63,n1988
131.09479,0.70208335,62,69,n1987
131.28229,0.75208336,65,57,n1989
131.28229,0.75208336,72,62,n1990
131.35521,0.159375,68,66,n1991
131.51459,0.51979166,64,66,n1993
131.62604,0.40833333,61,54,n1995
131.61874,0.415625,54,60,n1994
131.72188,0.1625,61,63,n1996
131.88437,0.15,66,63,n1998
131.79688,0.2375,62,69,n1997
132.02605,1.1885417,64,33,n1999
132.08125,0.74791664,56,53,n2001
132.06459,0.75208336,70,60,n2000
132.23021,0.14166667,61,63,n2002
132.37187,0.54479164,62,63,n2004
132.3198,0.6635417,61,69,n2003
132.49791,0.71666664,77,57,n2006
132.49374,0.72083336,83,62,n2005
132.55417,0.15,69,65,n2007
132.70416,0.5104167,70,65,n2009
132.82916,0.38541666,76,53,n2011
132.81667,0.3625,86,60,n2010
132.91667,0.16458334,68,63,n2012
133.08125,0.13333334,65,63,n2014
132.98334,0.23125,64,69,n2013
133.18854,0.71666664,66,54,n2016
133.17917,0.71458334,77,60,n2015
133.89375,0.35833332,68,60,n2025
133.28438,0.058333334,62,63,n2017
133.45522,0.528125,54,63,n2019
133.36041,0.721875,48,69,n2018
133.55313,0.69895834,62,57,n2021
133.55104,0.70104164,73,62,n2020
133.62291,0.21145834,69,66,n2022
133.83438,0.41770834,24,66,n2024
133.90521,0.346875,68,54,n2026
133.98334,0.196875,57,63,n2027
134.1802,0.071875,31,63,n2029
134.08229,0.16979167,54,69,n2028
134.28229,0.071875,61,33,n2030
134.33542,0.039583333,51,53,n2032
134.30208,0.73229164,72,60,n2031
134.47812,0.16041666,48,63,n2033
134.63853,0.39583334,59,63,n2035
134.56563,0.46875,47,69,n2034
134.75833,0.27604166,49,57,n2037
134.7448,0.28958333,70,62,n2036
134.81354,0.13958333,51,65,n2038
134.95312,0.08125,66,65,n2040
135.07603,0.315625,56,53,n2041
135.07603,0.315625,57,60,n2042
135.15312,0.184375,58,63,n2043
135.3375,0.054166667,47,63,n2045
135.2375,0.15416667,52,69,n2044
135.44063,0.33541667,65,53,n2046
135.53334,0.24270834,47,55,n2047
135.65312,0.12291667,43,57,n2048
135.70416,0.071875,54,59,n2049
135.80624,0.32604167,64,52,n2050
135.87604,0.25625,55,53,n2051
135.9875,0.14479166,56,55,n2052
136.07396,0.058333334,58,57,n2053
136.14479,0.34791666,69,50,n2054
136.23438,0.25833333,58,52,n2055
136.32812,0.159375,56,53,n2056
136.41562,0.077083334,46,55,n2057
136.4875,0.34479168,70,53,n2058
136.56354,0.26875,54,55,n2059
136.66978,0.1625,59,57,n2060
136.7573,0.075,58,59,n2061
136.84375,0.32604167,64,52,n2062
136.91667,0.253125,51,53,n2063
137.02083,0.14895834,57,55,n2064
137.10104,0.06875,58,57,n2065
137.1875,0.425,53,50,n2066
137.24896,0.36354166,51,52,n2067
137.34792,0.26458332,53,53,n2068
137.44792,0.16458334,46,55,n2069
138.30937,0.203125,54,52,n2072
138.76042,0.06979167,77,52,n2077
138.39479,0.11770833,61,53,n2073
138.67084,0.159375,74,50,n2076
139.52396,1.0739583,79,55,n2089
138.99687,0.23333333,81,48,n2080
139.08333,0.146875,83,50,n2081
139.6125,0.98541665,97,29,n2091
139.27292,1.325,92,31,n2083
139.6125,0.98541665,105,41,n2092
139.26772,1.3302083,103,43,n2082
138.83333,0.396875,86,45,n2078
139.33646,1.2614583,72,47,n2084
139.37813,1.2197917,75,48,n2085
139.41562,1.1822916,77,50,n2086
139.45,1.1479167,80,52,n2087
139.48541,1.1125,82,53,n2088
139.56459,1.0333333,83,57,n2090
139.61667,0.98125,79,59,n2093
139.66771,0.9302083,81,60,n2094
139.725,0.87291664,81,62,n2095
139.77605,0.821875,82,64,n2096
139.82916,0.76875,76,65,n2097
139.8698,0.728125,81,67,n2098
139.925,0.67291665,78,69,n2101
140.16978,0.428125,96,26,n2107
139.89375,0.70416665,97,28,n2100
140.16667,0.43125,110,38,n2106
139.88437,0.7135417,104,40,n2099
139.97292,0.625,78,71,n2102
140.01875,0.57916665,89,72,n2103
141.02396,0.18645833,93,72,n2129
141.21042,0.171875,88,72,n2133
141.3823,0.39375,95,72,n2140
140.07187,0.5260417,82,74,n2104
140.125,0.47291666,90,76,n2105
141.02605,0.184375,89,76,n2130
141.21042,0.178125,84,76,n2134
141.38853,0.3875,86,76,n2141
140.17397,0.42395833,90,77,n2108
140.22084,0.37708333,90,79,n2111
140.25313,0.34479168,85,81,n2112
140.29271,0.30520833,86,83,n2113
140.3198,0.278125,86,84,n2114
140.34688,0.25104168,91,86,n2115
140.3698,0.228125,89,88,n2116
140.39792,0.2,89,89,n2117
140.425,0.17291667,88,91,n2118
140.45522,0.14270833,88,93,n2119
140.60625,0.057291668,96,24,n2121
140.61147,1.1645833,115,36,n2122
140.59792,0.04375,108,96,n2120
141.01146,0.228125,63,60,n2126
141.23958,0.16770834,72,60,n2138
141.02396,0.215625,64,64,n2127
141.23958,0.215625,73,64,n2139
141.02396,0.20416667,86,67,n2128
141.22812,0.18854167,74,67,n2137
141.02605,0.18854167,86,79,n2131
141.21458,0.56145835,81,79,n2136
141.02812,0.18229167,76,84,n2132
141.21042,0.17916666,81,84,n2135
141.58438,0.19166666,81,55,n2148
141.40729,0.36875,75,60,n2143
141.58438,0.19166666,87,63,n2149
141.45522,0.32083333,49,64,n2145
141.41667,0.140625,78,67,n2144
141.5573,0.21875,87,67,n2146
141.60208,0.17395833,52,75,n2151
141.38959,0.38645834,82,84,n2142
141.79062,0.21979167,84,58,n2157
142.01042,0.190625,65,58,n2163
141.79062,0.228125,85,62,n2158
142.01875,0.190625,68,62,n2166
141.78542,0.225,98,66,n2156
142.01042,0.190625,77,66,n2164
141.75833,0.23333333,100,70,n2152
141.99167,0.19479166,89,70,n2160
141.76666,0.22916667,88,74,n2154
141.99583,0.19791667,66,74,n2161
141.76666,0.24375,83,78,n2155
142.01042,0.19479166,71,78,n2165
141.7625,0.23645833,87,82,n2153
141.99896,0.20625,82,82,n2162
142.20103,0.19166666,80,58,n2170
142.39272,0.16979167,61,58,n2180
142.20938,0.19583334,81,62,n2174
142.40521,0.1625,66,62,n2181
142.20103,0.18229167,84,66,n2171
142.38333,0.175,83,66,n2177
142.18646,0.18645833,96,70,n2168
142.37291,0.18541667,92,70,n2176
142.19376,0.171875,75,74,n2169
142.36563,0.196875,73,74,n2175
142.20522,0.178125,71,78,n2172
142.38333,0.184375,62,78,n2178
142.20522,0.18333334,80,82,n2173
142.38853,0.17916666,74,82,n2179
142.75313,0.20416667,74,53,n2194
142.74791,0.209375,81,57,n2193
142.5625,0.39479166,79,58,n2185
142.73647,0.22083333,88,61,n2190
142.5677,0.38958332,86,62,n2187
142.73647,0.22083333,81,65,n2191
142.55833,0.39895833,92,66,n2183
142.75937,0.19791667,63,69,n2195
142.55833,0.39895833,95,70,n2184
142.74167,0.215625,82,73,n2192
142.5625,0.39479166,74,74,n2186
142.77083,0.18645833,58,77,n2196
142.5677,0.38958332,71,78,n2188
142.5677,0.38958332,88,82,n2189
142.97395,0.42083332,95,56,n2202
142.97395,0.425,88,60,n2203
142.96666,0.060416665,98,64,n2199
142.95729,0.42083332,96,68,n2198
142.97395,0.41458333,82,72,n2204
142.96666,0.41770834,82,76,n2200
142.96666,0.41145834,87,80,n2201
143.39479,0.19166666,87,56,n2210
143.58646,0.16041666,75,56,n2216
143.39896,0.20416667,81,60,n2212
143.60312,0.159375,58,60,n2220
143.39479,0.18645833,85,64,n2211
143.58125,0.18125,78,64,n2215
143.37813,0.18229167,87,68,n2206
143.56041,0.190625,92,68,n2213
143.38853,0.20208333,84,72,n2209
143.59062,0.171875,74,72,n2217
143.38437,0.20625,82,76,n2208
143.59062,0.18645833,68,76,n2218
143.37813,0.19166666,88,80,n2207
143.5698,0.17708333,80,80,n2214
143.92708,0.14791666,84,51,n2231
143.96042,0.12291667,63,55,n2233
143.74687,0.328125,59,56,n2221
143.92708,0.14791666,95,59,n2232
143.7625,0.3125,72,60,n2224
143.92291,0.15208334,94,63,n2230
143.7625,0.3125,90,64,n2225
144.74896,0.484375,81,67,n2254
143.75104,0.32395834,90,68,n2223
143.91771,0.15729167,84,71,n2229
143.7625,0.3125,76,72,n2226
144.16771,0.32708332,51,75,n2241
143.77708,0.29791668,53,76,n2227
143.74687,0.328125,83,80,n2222
144.1375,0.35729167,84,54,n2239
144.14272,0.35208333,96,58,n2240
144.1302,0.36458334,105,62,n2237
144.12187,0.37291667,98,66,n2235
144.1302,0.36458334,95,70,n2238
144.125,0.36979166,97,78,n2236
144.51875,0.71458334,89,31,n2245
144.5052,0.728125,107,43,n2244
144.52188,0.7114583,84,55,n2246
145.25626,0.044791665,92,24,n2268
145.25626,0.06875,109,36,n2269
144.8052,0.428125,82,71,n2256
144.83855,0.39479166,87,72,n2257
144.87291,0.36041668,90,74,n2258
144.90938,0.32395834,91,76,n2259
144.95312,0.28020832,90,77,n2260
144.98854,0.24479167,87,79,n2261
145.03125,0.20208333,84,81,n2262
145.06041,0.17291667,82,83,n2263
145.09166,0.14166667,80,84,n2264
145.1177,0.115625,87,86,n2265
145.15208,0.08125,86,88,n2266
145.18124,0.052083332,74,89,n2267
145.26146,0.039583333,96,96,n2270
145.6875,0.20104167,84,60,n2278
145.88853,0.17083333,72,60,n2286
145.6875,0.19166666,78,64,n2279
145.87917,0.21979167,71,64,n2285
145.67813,0.18958333,83,67,n2273
145.8677,0.2,79,67,n2284
145.67813,0.17916666,92,72,n2274
145.85728,0.17916666,91,72,n2280
145.67813,0.18333334,83,76,n2275
145.86147,0.18645833,84,76,n2281
145.68333,0.18229167,84,79,n2276
145.86563,0.21458334,82,79,n2282
145.68333,0.18229167,77,84,n2277
145.86563,0.18229167,79,84,n2283
146.23854,0.21875,86,55,n2297
146.05937,0.39791667,66,60,n2290
146.24374,0.21354167,83,63,n2298
146.09895,0.35833332,65,64,n2293
146.0677,0.15208334,85,67,n2291
146.21979,0.2375,92,67,n2294
146.225,0.23229167,83,71,n2295
146.03645,0.42083332,96,72,n2287
146.22917,0.228125,81,75,n2296
146.04791,0.409375,88,76,n2288
146.08022,0.16979167,39,79,n2292
146.25,0.20729166,47,79,n2299
146.04791,0.409375,84,84,n2289
146.44896,0.24375,86,58,n2304
146.6927,0.19791667,66,58,n2311
146.45729,0.23541667,82,62,n2306
146.6927,0.19791667,76,62,n2312
146.44896,0.23125,99,66,n2305
146.6802,0.19791667,79,66,n2309
146.42708,0.24791667,98,70,n2300
146.675,0.19791667,97,70,n2308
146.43854,0.25416666,90,74,n2301
146.6927,0.18958333,76,74,n2313
146.43854,0.25416666,87,78,n2302
146.6927,0.19791667,73,78,n2314
146.44376,0.23854166,89,82,n2303
146.6823,0.2,81,82,n2310
146.89062,0.18020834,78,58,n2320
147.07083,0.16979167,73,58,n2326
146.89062,0.184375,83,62,n2321
147.075,0.17083333,75,62,n2329
146.87813,0.18020834,87,66,n2317
147.05833,0.18229167,87,66,n2325
146.87291,0.18333334,96,70,n2316
147.05624,0.184375,99,70,n2324
146.8823,0.18854167,85,74,n2318
147.07083,0.175,80,74,n2327
146.89062,0.184375,72,78,n2322
147.075,0.175,69,78,n2330
146.8823,0.18854167,82,82,n2319
147.07083,0.175,80,82,n2328
147.43437,0.18333334,64,53,n2342
147.43437,0.18333334,71,57,n2343
147.24063,0.37708333,77,58,n2332
147.41458,0.203125,94,61,n2339
147.24583,0.371875,80,62,n2335
147.41875,0.19895834,84,65,n2340
147.24063,0.37708333,91,66,n2333
147.43854,0.17916666,65,69,n2345
147.24063,0.37708333,95,70,n2334
147.41875,0.19895834,84,73,n2341
147.24583,0.371875,65,74,n2336
147.43854,0.17916666,65,77,n2346
147.25,0.36770833,75,78,n2338
147.24583,0.371875,83,82,n2337
147.63959,0.465625,94,56,n2352
147.63959,0.057291668,89,60,n2353
147.62917,0.060416665,107,64,n2351
147.61354,0.46666667,105,68,n2347
147.625,0.46666667,89,72,n2348
147.625,0.46666667,83,76,n2349
147.625,0.459375,88,80,n2350
148.10521,0.18333334,88,56,n2360
148.28854,0.1625,80,56,n2365
148.11041,0.178125,83,60,n2361
148.28854,0.18958333,70,60,n2366
148.11041,0.16979167,90,64,n2362
148.28021,0.18541667,75,64,n2364
148.08022,0.19583334,95,68,n2356
148.27605,0.184375,91,68,n2363
148.09166,0.196875,88,72,n2358
148.28854,0.171875,74,72,n2367
148.09166,0.215625,80,76,n2359
148.3073,0.46875,67,76,n2369
148.08438,0.20416667,91,80,n2357
148.28854,0.171875,88,80,n2368
148.62396,0.17395833,86,51,n2377
148.64166,0.13854167,69,55,n2383
148.45103,0.20416667,65,56,n2370
148.62917,0.146875,90,59,n2380
148.47812,0.14583333,70,60,n2375
148.62396,0.15208334,93,63,n2379
148.46562,0.21145834,87,64,n2374
149.52083,0.76666665,80,67,n2404
148.46042,0.315625,95,68,n2371
148.6375,0.13854167,78,71,n2382
148.46042,0.16875,83,72,n2372
148.86041,0.33645833,56,75,n2394
148.46042,0.315625,84,80,n2373
148.82916,0.36770833,81,54,n2387
148.82916,0.36770833,90,58,n2388
148.82916,0.36770833,103,62,n2389
148.82916,0.36770833,95,66,n2390
148.82916,0.36770833,99,70,n2391
148.82916,0.36770833,96,78,n2392
149.20209,1.0854167,96,31,n2396
149.1927,1.0947917,110,43,n2395
149.23541,0.03125,80,55,n2397
149.68124,0.60625,95,29,n2410
149.675,0.6125,111,41,n2409
149.59375,0.69375,79,71,n2406
149.63646,0.6510417,85,72,n2407
149.66667,0.62083334,82,74,n2408
149.7,0.5875,85,76,n2411
149.78542,0.50208336,84,79,n2413
149.83022,0.45729166,81,81,n2414
149.87604,0.41145834,79,83,n2415
149.92917,0.35833332,76,84,n2416
149.96771,0.31979167,85,86,n2417
150.0073,0.28020832,86,88,n2418
150.07709,0.21041666,87,91,n2420
150.11563,0.171875,91,93,n2421
150.15,0.1375,85,95,n2422
150.1875,0.1,78,96,n2423
150.27605,0.041666668,100,100,n2425
150.65312,0.19375,69,69,n2429
150.84688,0.171875,81,69,n2436
150.65834,0.184375,54,72,n2430
150.84271,0.17604166,88,72,n2434
150.6625,0.18020834,90,76,n2431
150.84271,0.17083333,91,76,n2435
150.7448,0.18645833,79,81,n2432
150.93124,0.39791667,72,81,n2438
150.83229,0.25104168,76,84,n2433
150.86667,0.19583334,60,88,n2437
151.18333,0.14583333,95,64,n2444
151.21666,0.1125,50,68,n2446
151.01875,0.31041667,80,69,n2440
151.2,0.12916666,71,71,n2445
151.01875,0.31041667,85,72,n2441
151.01353,0.21770833,96,76,n2439
151.23125,0.09791667,81,76,n2447
151.08333,0.24583334,66,84,n2443
151.0625,0.26666668,77,88,n2442
151.35834,0.06875,77,67,n2450
151.54688,0.159375,74,67,n2455
151.35417,0.063541666,86,70,n2449
151.54167,0.16145833,76,70,n2454
151.35,0.067708336,87,74,n2448
151.55104,0.14791666,74,74,n2456
151.4302,0.1875,74,79,n2452
151.6177,0.1375,67,79,n2458
151.53021,0.23854166,61,82,n2453
151.55104,0.2125,42,86,n2457
151.70625,0.17604166,79,67,n2461
151.8823,0.16666667,81,67,n2466
151.70312,0.17395833,79,70,n2460
151.87709,0.18020834,81,70,n2465
151.69896,0.18333334,65,74,n2459
151.8823,0.16458334,85,74,n2467
151.7552,0.16875,73,79,n2462
151.92397,0.17916666,83,79,n2468
151.76875,0.16979167,55,82,n2464
151.93854,0.20729166,49,82,n2470
151.76353,0.165625,48,86,n2463
151.92917,0.19166666,67,86,n2469
152.04897,0.37708333,83,67,n2472
152.21146,0.21458334,85,68,n2480
152.0573,0.36875,86,70,n2473
152.04688,0.37916666,89,74,n2471
152.20729,0.21875,98,75,n2479
152.10312,0.32291666,86,79,n2475
152.3125,0.11354167,81,80,n2482
152.14583,0.28020832,32,82,n2478
152.12083,0.30520833,54,86,n2476
152.39896,0.35,85,69,n2484
152.39375,0.35,81,72,n2483
152.39896,0.34479168,98,76,n2485
152.46875,0.057291668,79,81,n2486
152.63959,0.171875,84,81,n2489
152.57812,0.25208333,70,84,n2488
152.56667,0.24479167,84,88,n2487
152.74896,0.18645833,78,69,n2492
152.93541,0.14895834,71,69,n2498
152.74374,0.1875,86,72,n2490
152.93124,0.15729167,80,72,n2497
152.74374,0.18229167,92,76,n2491
152.92604,0.153125,84,76,n2496
152.81146,0.19791667,82,81,n2493
153.00937,0.340625,53,81,n2501
152.83022,0.16875,53,84,n2495
152.99896,0.35104167,50,84,n2499
152.81146,0.1875,84,88,n2494
152.99896,0.35104167,54,88,n2500
153.24791,0.10208333,90,64,n2507
153.475,0.27395833,5,68,n2514
153.08438,0.265625,76,69,n2503
153.26146,0.088541664,77,71,n2508
153.08855,0.26145834,72,72,n2504
153.07916,0.27083334,88,76,n2502
153.35,0.03125,75,76,n2509
153.16978,0.18020834,65,83,n2505
153.4323,0.18125,72,67,n2511
153.61354,0.13541667,70,67,n2520
153.4323,0.18541667,72,70,n2512
153.6177,0.13125,73,70,n2521
153.43333,0.17604166,72,74,n2513
153.60938,0.13958333,77,74,n2518
153.53229,0.077083334,53,79,n2516
153.60938,0.13958333,75,79,n2519
153.54688,0.20208333,31,82,n2517
153.52812,0.22083333,56,86,n2515
153.77292,0.16458334,89,66,n2522
153.9375,0.09583333,79,66,n2527
153.79584,0.15625,62,69,n2524
153.95209,0.08125,76,69,n2529
153.77292,0.171875,99,73,n2523
153.9448,0.088541664,96,73,n2528
153.80417,0.15520833,87,78,n2525
153.95938,0.07395833,87,78,n2530
154.10417,0.17708333,78,65,n2531
154.28125,0.20520833,66,65,n2538
154.11354,0.171875,66,69,n2533
154.28542,0.20104167,70,69,n2539
154.10834,0.165625,92,73,n2532
154.27396,0.2125,94,73,n2537
154.13959,0.18125,91,77,n2534
154.32083,0.165625,91,77,n2540
154.23125,0.25520834,70,81,n2535
154.25417,0.23229167,66,85,n2536
154.47084,0.34791666,85,64,n2542
154.47084,0.35,82,68,n2543
154.46146,0.35208333,96,72,n2541
154.57916,0.17708333,61,76,n2544
154.75626,0.18854167,66,76,n2547
154.61458,0.17916666,54,80,n2545
154.6198,0.334375,56,84,n2546
154.81876,0.17291667,69,64,n2550
154.99167,0.15625,72,64,n2555
154.82083,0.18020834,63,68,n2551
155.00104,0.146875,76,68,n2557
154.81354,0.178125,77,72,n2549
154.99167,0.15625,80,72,n2556
154.9448,0.1625,75,76,n2552
155.10728,0.044791665,79,76,n2558
154.94896,0.16770834,57,80,n2553
155.11667,0.040625,57,80,n2560
154.95416,0.15729167,57,84,n2554
155.11147,0.045833334,59,84,n2559
155.16145,0.067708336,76,60,n2561
155.37604,0.21041666,62,60,n2567
155.17397,0.20729166,75,64,n2563
155.38126,0.20520833,61,64,n2568
155.16145,0.21979167,84,68,n2562
155.38126,0.20520833,67,68,n2569
155.29584,0.13958333,66,72,n2565
155.43541,0.15104167,63,72,n2570
155.29584,0.15208334,59,76,n2566
155.44792,0.13854167,62,76,n2571
155.28645,0.16145833,56,80,n2564
155.44792,0.13854167,64,80,n2572
155.59688,0.045833334,49,55,n2575
155.75626,0.15208334,65,55,n2579
155.56041,0.2,79,58,n2573
155.76042,0.14791666,77,58,n2580
155.57083,0.0625,76,62,n2574
155.76459,0.14375,78,62,n2581
155.65729,0.146875,67,67,n2576
155.80417,0.104166664,77,67,n2582
155.74167,0.16666667,71,70,n2577
155.75104,0.15729167,68,74,n2578
155.91978,0.17395833,85,54,n2583
156.09375,0.11354167,83,54,n2590
155.9427,0.17604166,56,57,n2585
156.11874,0.088541664,69,57,n2592
155.91978,0.18541667,86,61,n2584
156.10521,0.10208333,84,61,n2591
156.00313,0.15208334,85,66,n2588
156.15521,0.06875,80,66,n2593
156.02396,0.18333334,24,69,n2589
156.2625,0.18333334,82,53,n2594
156.44583,0.26145834,50,53,n2599
156.27188,0.19479166,69,57,n2595
156.46666,0.240625,72,57,n2600
156.27188,0.19479166,83,61,n2596
156.46666,0.240625,77,61,n2601
156.35208,0.175,75,65,n2597
156.52708,0.18020834,71,65,n2603
156.43959,0.26770833,60,69,n2598
156.46666,0.240625,65,73,n2602
156.67397,0.403125,76,52,n2605
156.67813,0.390625,67,56,n2606
156.66875,0.40416667,83,60,n2604
156.77292,0.17916666,58,64,n2607
156.95209,0.209375,65,64,n2610
157.16145,0.325,64,64,n2614
156.85417,0.36354166,47,68,n2608
157.21771,0.14895834,29,68,n2616
156.85834,0.33645833,54,72,n2609
157.1948,0.15833333,39,72,n2615
157.07709,0.22291666,58,52,n2613
157.3,0.18645833,39,52,n2618
157.06876,0.21458334,63,56,n2611
157.28334,0.203125,62,56,n2617
157.07292,0.22708334,60,60,n2612
157.3,0.18645833,40,60,n2619
157.36667,0.119791664,55,68,n2621
157.35312,0.13333334,51,72,n2620
157.51042,0.71770835,50,48,n2624
158.83855,0.15520833,42,48,n2639
158.99374,0.19583334,58,48,n2642
159.18959,0.178125,48,48,n2646
157.50833,0.32291666,42,52,n2623
157.83125,0.396875,16,52,n2629
157.50104,0.29270834,59,56,n2622
157.79375,0.434375,48,56,n2628
157.63542,0.25208333,41,60,n2625
157.8875,0.340625,35,60,n2632
158.83438,0.178125,44,60,n2638
159.0125,0.184375,54,60,n2643
159.19687,0.16145833,45,60,n2647
157.64896,0.225,21,64,n2627
157.87396,0.35416666,40,64,n2631
157.64479,0.20416667,47,68,n2626
157.84895,0.37916666,52,68,n2630
158.30937,0.088541664,47,32,n2634
158.30937,2.4375,44,44,n2635
158.29062,0.5520833,51,56,n2633
158.84271,0.21666667,18,56,n2640
159.05937,0.20416667,37,56,n2644
159.26353,0.29895833,20,56,n2648
158.5573,0.19375,27,58,n2636
158.75104,0.20625,43,58,n2637
158.95729,0.17604166,38,58,n2641
159.13333,0.225,51,58,n2645
159.3677,1.3791667,53,48,n2651
159.35834,1.3885417,49,58,n2649
159.35834,1.3885417,57,60,n2650
159.53958,0.175,61,50,n2653
159.71458,0.21354167,64,50,n2657
159.5625,0.37916666,45,56,n2655
159.5552,0.15416667,53,62,n2654
159.70938,0.22083333,49,62,n2656
159.53229,2.415625,64,68,n2652
159.92813,0.41875,59,50,n2658
159.94167,0.20416667,54,56,n2660
160.14583,0.178125,25,56,n2661
160.32396,0.42291668,41,56,n2662
159.9302,0.403125,54,62,n2659
160.34688,0.4,50,50,n2664
160.33333,0.41354167,52,62,n2663
160.77605,0.052083332,62,30,n2666
160.78021,1.1677083,74,42,n2667
160.775,0.065625,23,56,n2665
160.99687,0.17708333,28,56,n2669
160.89062,0.1875,31,58,n2668
161.07812,0.178125,38,58,n2670
161.20833,0.16666667,50,48,n2673
161.375,0.2,63,48,n2675
161.17397,0.209375,50,56,n2671
161.38333,0.56458336,36,56,n2677
161.25626,0.69166666,39,58,n2674
161.2,0.175,63,60,n2672
161.375,0.17916666,63,60,n2676
161.575,0.15416667,60,48,n2679
161.72917,0.21875,71,48,n2680
161.55417,0.175,64,60,n2678
161.72917,0.21875,68,60,n2681
161.93333,0.17291667,63,50,n2683
162.10625,0.215625,66,50,n2686
161.93333,0.16979167,74,62,n2684
162.10312,0.21875,38,62,n2685
161.925,1.1864583,84,70,n2682
162.32187,0.38125,64,50,n2688
162.32603,0.40416667,58,56,n2690
162.32187,0.37395832,61,62,n2689
162.29897,1.9895834,68,68,n2687
162.70312,0.40833333,56,50,n2692
162.73021,0.175,37,56,n2693
162.90521,0.20208333,45,56,n2694
163.27188,0.17291667,31,58,n2698
163.4448,0.17083333,45,58,n2700
163.61563,0.18229167,56,58,n2704
163.79791,0.13541667,54,58,n2708
163.93333,0.16041666,61,58,n2712
162.69583,0.415625,61,62,n2691
163.11874,0.044791665,64,29,n2696
163.12917,1.159375,68,41,n2697
163.10728,0.271875,27,56,n2695
163.37917,0.16666667,19,56,n2699
163.5375,0.16875,54,48,n2702
163.70625,0.18229167,67,48,n2706
163.54584,0.16458334,57,56,n2703
163.71042,0.178125,66,56,n2707
163.88853,0.15729167,69,56,n2710
164.04584,0.24270834,57,56,n2713
163.53229,0.16875,57,60,n2701
163.70103,0.19166666,65,60,n2705
163.88853,0.17604166,65,48,n2709
164.06459,0.22395833,70,48,n2715
164.09375,0.19479166,40,58,n2716
163.89272,0.16458334,73,60,n2711
164.0573,0.23125,74,60,n2714
164.275,0.055208333,70,50,n2719
164.46562,0.20208333,60,50,n2721
164.27292,0.055208333,77,62,n2718
164.45312,0.209375,56,62,n2720
164.25417,1.21875,87,70,n2717
164.66771,0.34375,50,50,n2724
164.67917,0.38958332,58,56,n2725
164.97708,0.24791667,25,58,n2726
164.6625,0.375,38,62,n2723
164.64375,0.82916665,70,68,n2722
165.01146,0.46145833,52,50,n2727
165.06876,0.40416667,24,56,n2729
165.225,0.24791667,47,58,n2730
165.0375,0.43541667,49,62,n2728
165.47292,3.7979167,52,60,n2732
165.47292,0.039583333,66,68,n2733
165.64375,0.18020834,63,68,n2735
165.57187,0.18541667,67,70,n2734
165.7573,0.15,43,70,n2736
165.45312,0.81354165,75,80,n2731
165.85417,3.4166667,57,62,n2738
165.82396,0.18020834,59,68,n2737
166.00417,3.2666667,67,68,n2740
165.90729,0.165625,54,70,n2739
166.07292,3.1979167,68,70,n2741
166.25,3.0208333,62,72,n2743
166.26666,0.19166666,61,80,n2744
166.45833,0.20729166,62,80,n2746
166.3875,0.20208333,44,82,n2745
166.58958,0.18541667,33,82,n2747
166.24583,0.903125,79,92,n2742
166.70209,2.56875,57,74,n2749
166.66562,0.20833333,71,80,n2748
166.87396,2.396875,62,80,n2751
166.775,0.18854167,46,82,n2750
166.96355,2.3072917,54,82,n2752
167.16562,2.1052084,51,84,n2755
167.14896,0.26458332,68,92,n2754
167.41354,0.28020832,55,92,n2757
167.30833,0.23958333,47,94,n2756
167.54791,0.38333333,45,94,n2758
167.13542,2.1354167,81,104,n2753
167.73854,1.5322917,51,86,n2760
167.69376,0.45416668,45,92,n2759
168.14792,1.1229167,50,92,n2762
167.93124,0.5395833,42,94,n2761
168.47084,0.825,45,94,n2763
169.27083,0.6614583,45,28,n2765
169.25417,0.678125,40,40,n2764
169.64272,0.28958333,53,88,n2769
169.50104,0.43125,55,93,n2768
169.27916,0.48333332,51,96,n2766
169.7625,0.16979167,37,96,n2771
170.33125,0.25208333,65,96,n2782
169.27916,0.46666667,48,100,n2767
169.74583,0.18645833,58,100,n2770
169.92708,0.42395833,50,29,n2775
169.91978,0.43125,58,41,n2774
170.03645,0.18333334,63,86,n2777
170.21979,0.13125,58,86,n2780
169.99063,0.36041668,39,91,n2776
170.71355,0.196875,71,91,n2789
169.90729,0.24270834,69,95,n2773
170.15,0.20104167,51,95,n2779
169.90521,0.23020834,60,98,n2772
170.13542,0.215625,60,98,n2778
170.375,1.7770833,52,31,n2784
170.3625,1.7895833,58,43,n2783
170.49791,0.96458334,58,84,n2786
170.4375,0.6489583,58,89,n2785
170.32603,0.26458332,69,93,n2781
170.59062,0.490625,60,93,n2788
170.58333,1.56875,72,96,n2787
170.74791,1.4041667,53,33,n2793
170.7427,1.409375,61,45,n2791
170.83022,0.1875,58,83,n2795
171.01772,0.87708336,49,83,n2798
170.7427,0.07083333,41,88,n2792
170.81354,0.6375,4,88,n2794
170.91042,0.565625,63,91,n2796
170.72084,0.19791667,71,95,n2790
170.91875,1.2333333,68,95,n2797
171.10834,1.04375,56,35,n2802
171.10104,1.0510417,63,47,n2801
171.25626,0.8958333,60,81,n2804
171.18333,0.6166667,62,86,n2803
171.08646,0.23958333,69,89,n2800
171.32603,0.48333332,65,89,n2805
171.08125,0.24895833,70,93,n2799
171.33022,0.821875,69,93,n2806
171.46666,0.68541664,53,36,n2810
171.4625,0.68958336,62,48,n2808
171.54897,0.14895834,70,79,n2812
171.69792,0.45416668,63,79,n2816
171.4625,0.08645833,55,84,n2809
171.54897,0.603125,33,84,n2813
171.45103,0.16770834,77,88,n2807
171.61874,0.53333336,61,88,n2815
171.47604,0.13645834,62,91,n2811
171.6125,0.5395833,68,91,n2814
171.825,0.32708332,59,38,n2820
171.8198,0.33229166,66,50,n2819
171.97084,0.18125,68,77,n2822
171.89479,0.25729167,65,83,n2821
171.8,0.26875,76,86,n2817
172.06876,0.083333336,55,86,n2824
171.80937,0.24479167,66,89,n2818
172.05417,0.09791667,71,89,n2823
172.15938,1.4322916,61,40,n2826
172.15208,1.4395833,65,52,n2825
172.26353,0.16875,76,76,n2830
172.4323,0.896875,60,76,n2833
172.16771,0.7104167,65,81,n2827
172.17708,0.159375,73,84,n2828
172.33646,0.5572917,59,84,n2831
172.1927,0.14583333,69,88,n2829
172.33855,1.253125,73,88,n2832
172.53021,1.0614583,68,41,n2837
172.52292,1.06875,76,53,n2836
172.67813,0.9135417,69,74,n2839
172.60938,0.62604165,68,79,n2838
172.5052,0.259375,79,83,n2834
172.76459,0.47916666,59,83,n2840
172.51042,0.25625,78,86,n2835
172.76666,0.825,68,86,n2841
172.86667,0.725,76,43,n2842
172.87291,0.71875,81,55,n2843
172.97604,0.16770834,70,72,n2847
173.14375,0.44791666,73,72,n2850
172.8823,0.709375,67,77,n2845
172.87813,0.17916666,76,81,n2844
173.0573,0.534375,70,81,n2848
172.89375,0.175,64,84,n2846
173.06876,0.5229167,65,84,n2849
173.23958,0.35208333,71,45,n2852
173.24374,0.34791666,80,57,n2853
173.41042,0.18125,70,71,n2856
173.32916,0.2625,69,76,n2855
173.23541,0.26458332,81,79,n2851
173.5,0.09166667,73,79,n2857
173.24374,0.26041666,70,83,n2854
173.50417,0.0875,73,83,n2858
173.59271,0.40104166,79,47,n2859
173.59688,0.396875,83,59,n2860
173.72917,0.128125,48,69,n2864
173.85728,0.13645834,55,69,n2867
173.6177,0.37604168,70,74,n2861
173.6177,0.165625,84,77,n2862
173.78334,0.21041666,70,77,n2865
173.63126,0.16041666,74,81,n2863
173.79167,0.20208333,71,81,n2866
173.98125,0.73020834,77,48,n2870
173.98647,0.725,85,60,n2871
174.15625,0.5552083,60,67,n2873
174.0552,0.6489583,77,72,n2872
173.95416,0.26666668,83,76,n2868
174.22084,0.490625,74,76,n2874
173.95416,0.29791668,82,79,n2869
174.25209,0.459375,54,79,n2875
174.35312,0.35833332,68,50,n2880
174.45209,0.1625,76,65,n2882
174.61458,0.096875,76,65,n2885
174.33958,0.371875,77,71,n2877
174.33542,0.1875,88,74,n2876
174.52292,0.18854167,78,74,n2883
174.34375,0.19583334,82,77,n2878
174.53958,0.171875,81,77,n2884
174.72292,0.3875,77,52,n2888
174.88646,0.22395833,59,64,n2891
174.80208,0.30833334,74,69,n2890
174.70416,0.275,91,72,n2886
174.71146,0.271875,84,76,n2887
174.98334,0.12708333,83,76,n2893
175.09688,0.41979167,91,53,n2894
175.21146,0.18645833,79,62,n2898
175.39792,0.11875,78,62,n2901
175.10104,0.415625,81,67,n2895
175.10104,0.1875,82,71,n2896
175.28854,0.228125,78,71,n2899
175.1177,0.1875,78,74,n2897
175.3052,0.21145834,82,74,n2900
175.51146,0.478125,90,55,n2904
175.73854,0.25104168,69,60,n2906
175.65105,0.33854166,73,65,n2905
175.49687,0.36354166,82,69,n2902
175.86041,0.12916666,81,69,n2907
175.50104,0.359375,88,72,n2903
175.86041,0.12916666,82,72,n2908
175.98021,1.2302083,96,57,n2909
176.17084,0.35416666,87,59,n2912
176.525,0.68125,81,59,n2917
176.175,0.33854166,83,64,n2913
176.51353,0.83229166,90,64,n2916
176.00833,0.33229166,83,67,n2911
176.34062,1.0052084,87,67,n2915
176.00417,0.325,80,71,n2910
176.32916,1.0166667,82,71,n2914
177.21458,5.751042,67,38,n2924
177.23334,5.7322917,59,45,n2925
177.21042,5.7552085,76,53,n2922
177.21042,5.7552085,85,57,n2923
177.20625,5.759375,76,59,n2919
177.20625,5.759375,87,62,n2920
177.20625,4.196875,80,65,n2921
177.19687,4.0041666,87,69,n2918
182.78958,4.2166667,65,41,n2941
183.03021,3.9760416,60,48,n2942
183.17813,3.828125,64,53,n2943
183.27083,3.7354167,54,57,n2944
183.33022,3.6760416,65,60,n2945
189.125,0.26875,56,60,n2969
186.8,0.20625,77,64,n2959
186.60728,0.39895833,71,65,n2958
183.41771,3.1895833,59,65,n2946
187.1125,0.15104167,72,65,n2960
186.50417,0.50208336,75,67,n2957
187.36041,0.18645833,66,67,n2961
186.39792,0.60833335,68,69,n2956
183.51562,2.8822916,67,69,n2947
185.76875,0.53333336,63,71,n2951
186.30208,0.70416665,72,71,n2955
187.60938,0.51979166,65,71,n2962
185.55104,0.403125,70,72,n2950
185.95416,0.25520834,65,72,n2952
186.20938,0.796875,74,72,n2954
185.33438,0.75208336,68,74,n2949
186.08646,0.91979164,68,74,n2953
184.93437,2.071875,61,76,n2948
191.04791,2.359375,56,59,n2974
189.5375,0.29479167,57,62,n2970
189.90521,0.365625,56,64,n2971
190.34375,0.84583336,43,65,n2973
190.33855,0.8510417,48,67,n2972
193.40729,2.4427083,57,59,n3002
193.32083,0.109375,63,60,n3001
193.27292,0.15729167,60,62,n3000
193.20312,0.22708334,65,64,n2999
193.15521,0.275,61,65,n2998
193.08958,0.340625,65,67,n2997
193.04688,0.38333333,56,69,n2996
193.00209,0.428125,63,71,n2995
192.9323,0.49791667,70,72,n2994
192.90416,0.5260417,61,74,n2993
192.41875,0.42291668,71,76,n2984
192.84166,0.5885417,73,76,n2992
192.46042,0.31666666,78,77,n2985
192.77708,0.653125,81,77,n2991
192.5,0.221875,77,79,n2986
192.72188,0.7083333,71,79,n2990
192.52812,0.14583333,72,81,n2987
192.67397,0.75625,75,81,n2989
192.58958,0.840625,83,83,n2988
195.85,3.121875,62,59,n3030
195.77083,0.14270833,58,61,n3029
195.71146,0.20208333,58,63,n3028
195.64375,0.26979166,58,65,n3027
195.59271,0.32083333,66,67,n3026
195.53854,0.375,55,69,n3025
195.50417,0.409375,54,71,n3024
195.42604,0.4875,71,73,n3023
195.3823,0.53125,75,75,n3022
195.34895,0.56458336,65,77,n3021
195.26666,0.646875,75,79,n3020
194.89062,0.32083333,77,81,n3013
195.21146,0.70208335,68,81,n3019
194.9427,0.215625,76,83,n3014
195.15834,0.7552083,70,83,n3018
194.97604,0.12083333,73,85,n3015
195.09688,0.81666666,70,85,n3017
195.02083,0.89270836,85,87,n3016
198.97188,3.29375,43,59,n3058
198.61667,0.39375,45,60,n3057
198.5125,0.49791667,51,62,n3056
198.43124,0.57916665,49,64,n3055
198.38333,0.62708336,41,65,n3054
198.2448,0.765625,42,67,n3053
198.21355,0.796875,32,69,n3052
198.11458,0.8958333,44,71,n3051
198.03958,0.97083336,55,72,n3050
198.00313,1.0072917,37,74,n3049
197.41978,0.49895832,56,76,n3040
197.91875,1.0916667,55,76,n3048
197.48438,0.36458334,55,77,n3041
197.84895,1.1614584,65,77,n3047
197.54167,0.24270834,57,79,n3042
197.78438,1.2260417,65,79,n3046
197.57292,0.159375,58,81,n3043
197.73228,1.278125,58,81,n3045
197.64583,1.3645834,61,83,n3044
202.26562,2.1770833,63,59,n3086
204.39688,0.121875,71,61,n3113
204.51875,7.694792,67,61,n3115
202.99791,1.3989583,41,61,n3087
203.10104,1.246875,59,63,n3088
204.34792,0.21458334,70,63,n3112
204.5625,7.6510415,79,63,n3116
202.04062,1.1375,50,65,n3083
204.62396,7.5895834,71,65,n3117
203.17813,1.1239583,58,65,n3089
201.9927,1.253125,53,67,n3082
204.675,7.538542,79,67,n3118
203.24583,1.0208334,62,67,n3090
201.93959,1.3572917,51,69,n3081
204.68437,7.5291667,57,69,n3119
203.29688,0.9375,57,69,n3091
203.36147,0.79479164,61,71,n3092
204.15625,0.5625,73,71,n3108
203.39688,0.74583334,74,73,n3093
204.14272,0.60833335,40,73,n3107
203.41771,0.65520835,70,75,n3094
204.07292,0.6958333,73,75,n3106
203.475,0.54895836,74,77,n3095
204.02396,0.8208333,69,77,n3105
203.48438,0.48958334,81,79,n3096
203.97395,0.91770834,70,79,n3104
203.54375,0.35520834,75,81,n3097
203.89896,1.0416666,66,81,n3103
203.6,0.246875,74,83,n3098
203.84688,1.1802083,65,83,n3102
203.64375,0.12604167,68,85,n3099
203.76979,8.44375,77,85,n3101
203.6927,1.4375,77,87,n3100
204.71875,7.4947915,67,71,n3120
204.75104,7.4625,75,73,n3121
204.76875,7.444792,78,75,n3122
204.84479,7.36875,92,77,n3123
204.89166,7.321875,78,79,n3124
204.94063,7.272917,30,81,n3125
205.02708,7.186458,75,83,n3126
205.1302,7.0833335,83,87,n3127
205.34062,6.8729167,102,89,n3128
206.02083,6.1927085,99,91,n3129
206.56876,5.6447916,98,93,n3130
207.0573,5.15625,101,95,n3131
207.75209,4.461458,99,97,n3132
208.46355,3.75,97,99,n3133
209.59792,2.615625,97,100,n3134
212.20312,1.4697917,90,29,n3135
212.34271,1.3302083,96,41,n3136
212.64062,1.0322917,79,57,n3144
212.63437,1.0385417,82,60,n3142
212.63437,1.0385417,85,64,n3143
212.6125,1.0604167,90,69,n3139
212.6125,1.0604167,92,72,n3140
212.61667,1.05625,94,76,n3141
212.60312,1.0697917,96,81,n3138
213.66354,1.253125,85,32,n3145
213.78438,1.1322917,93,44,n3146
213.98958,0.9270833,78,54,n3153
214.0,0.9166667,70,56,n3154
213.98541,0.93125,90,60,n3152
213.97812,0.93854165,89,64,n3150
213.97812,0.93854165,90,68,n3151
213.96875,0.9479167,92,72,n3149
213.96666,0.95,98,76,n3148
214.89375,1.2614583,88,31,n3155
215.04062,1.1145834,89,43,n3156
215.29897,0.85625,54,53,n3163
215.3073,0.84791666,59,59,n3164
215.31146,0.84375,83,63,n3165
215.29584,0.859375,91,67,n3160
215.29584,0.859375,87,71,n3161
215.29584,0.859375,91,75,n3162
215.27916,0.87604165,93,79,n3159
216.16667,1.4270834,94,36,n3166
216.33125,1.2625,96,48,n3168
216.61354,0.98020834,75,52,n3173
216.62709,0.96666664,81,58,n3175
216.6198,0.9739583,90,62,n3174
216.60104,0.9927083,88,67,n3170
216.60104,0.9927083,97,70,n3171
216.60208,0.9916667,90,74,n3172
216.58438,1.009375,96,79,n3169
217.53958,2.015625,98,28,n3177
217.76979,1.7854167,77,40,n3178
217.97084,1.584375,84,47,n3179
218.3698,1.1854167,78,52,n3185
218.3698,1.1854167,85,59,n3186
218.36458,1.190625,94,62,n3184
218.34895,2.8,93,64,n3183
218.34479,7.121875,85,67,n3182
218.34271,7.123958,86,71,n3181
218.33333,3.06875,96,76,n3180
219.48958,5.977083,100,21,n3187
220.03334,5.4333334,87,33,n3188
220.32603,5.140625,77,40,n3189
220.52708,4.9395833,80,45,n3190
220.68854,4.778125,88,52,n3191
220.84479,0.57916665,89,57,n3192
221.42397,4.065625,82,57,n3201
220.99583,0.41145834,90,60,n3193
221.40729,4.070833,81,60,n3199
221.14896,0.26979166,96,64,n3194
221.41875,4.047917,89,64,n3200
221.39792,4.06875,90,69,n3195
221.40208,4.06875,91,72,n3197
221.40208,4.092708,91,76,n3198
221.39792,4.06875,94,81,n3196
