onset_sec,duration_sec,velocity,pitch,id
0.8255208,2.1979167,22,53,n0
0.98567706,1.0716146,48,60,n1
2.0572917,0.9661458,47,60,n4
3.001302,0.48177084,40,64,n8
1.1601562,1.3763021,39,65,n2
2.5364583,0.48697916,50,65,n6
2.9895833,0.47916666,57,67,n7
1.3958334,1.1276041,57,69,n3
2.5234375,0.5,59,69,n5
3.9804688,1.6054688,30,53,n11
3.4778645,0.9947917,46,62,n9
4.4726562,0.5104167,45,62,n12
3.4778645,1.0,43,65,n10
4.4778647,0.5052083,48,65,n13
5.8216147,0.8828125,50,53,n18
5.4231772,0.82682294,48,58,n17
4.9791665,0.46875,37,60,n15
5.403646,0.8463542,55,62,n16
4.9726562,0.4752604,51,64,n14
7.2747397,0.5494792,54,56,n24
6.6796875,0.6302083,56,57,n22
6.28125,0.4231771,50,58,n20
7.2617188,1.4440104,65,59,n23
6.671875,0.6380208,68,60,n21
6.263021,0.44140625,63,62,n19
8.625,0.625,42,49,n28
8.180989,0.52473956,37,50,n27
8.160156,0.49609375,45,53,n26
8.65625,0.59375,40,53,n29
7.7604165,0.9453125,53,55,n25
8.7630205,0.90234375,57,58,n30
9.2421875,0.4231771,39,48,n32
9.235677,0.4296875,43,52,n31
9.677083,0.61328125,44,52,n35
10.298177,0.14583333,38,53,n36
9.671875,0.6510417,44,55,n33
10.308594,1.6744791,45,57,n37
9.673177,0.6171875,49,60,n34
10.850261,1.1328125,47,53,n38
11.824219,0.66536456,37,64,n41
11.265625,0.71744794,29,65,n40
11.8411455,0.6484375,36,67,n42
11.2473955,0.7239583,48,69,n39
11.9713545,1.7148438,48,69,n44
11.957031,2.703125,66,81,n43
12.8776045,1.3450521,45,53,n47
14.464844,2.001302,40,53,n54
12.489583,0.7994792,37,62,n45
13.2890625,0.3971354,37,62,n49
12.490886,0.79036456,41,65,n46
13.28125,0.4049479,46,65,n48
14.0859375,0.5234375,37,58,n53
13.670573,0.54036456,38,60,n50
14.074219,0.53515625,50,62,n52
13.677083,0.5338542,47,64,n51
14.613281,1.1119791,44,70,n56
14.587239,1.1380209,68,82,n55
15.738281,0.7291667,38,56,n66
15.3515625,0.3736979,46,57,n60
14.988281,0.7369792,44,58,n57
15.735677,0.7317708,48,59,n65
15.354167,0.37109375,55,60,n61
14.9921875,0.73307294,48,62,n58
15.354167,0.37109375,55,72,n62
15.723958,0.74348956,58,74,n64
15.333333,0.44791666,72,84,n59
15.709636,0.7578125,77,86,n63
16.903646,0.22916667,42,49,n73
16.451822,0.53125,40,50,n69
16.466146,0.51692706,42,53,n71
16.089844,0.4140625,44,55,n67
16.897135,0.80859375,33,55,n72
16.91276,0.79296875,37,58,n74
16.967447,0.73828125,57,76,n76
16.459635,0.5234375,60,77,n70
16.942709,0.7630208,78,88,n75
16.436197,0.56119794,81,89,n68
17.330729,0.80078125,44,48,n77
17.701822,0.4296875,45,52,n81
18.035156,0.7890625,50,53,n82
18.053385,0.76953125,49,57,n83
17.696615,0.43489584,49,60,n80
17.688803,0.44270834,65,79,n79
18.179688,1.1901041,59,81,n85
17.665365,0.55338544,84,91,n78
18.152344,1.2148438,87,93,n84
18.473959,1.5013021,47,45,n86
19.244791,0.65755206,47,52,n89
18.824219,0.54557294,45,53,n88
19.259115,0.6432292,42,55,n90
18.822916,0.546875,50,57,n87
19.389322,1.9817709,65,81,n92
19.367188,1.9895834,89,93,n91
20.217447,0.4075521,41,45,n95
20.97526,1.5664062,46,45,n98
20.604166,0.7838542,43,49,n97
19.865885,0.75911456,39,50,n94
20.602865,0.78515625,45,52,n96
19.852865,0.77213544,48,53,n93
21.85026,0.9869792,46,53,n104
21.364584,0.47916666,51,55,n100
21.856771,1.0052084,46,57,n106
21.388021,0.45572916,46,58,n102
21.371094,0.47265625,61,81,n101
21.854166,1.0078125,57,83,n105
21.356771,1.5052084,77,93,n99
21.838541,1.0234375,82,95,n103
22.541666,0.3203125,51,45,n111
22.841146,0.13671875,55,50,n113
22.223959,0.6380208,43,52,n108
22.83724,1.6119791,61,53,n112
22.220053,0.64192706,57,55,n107
22.539062,0.32291666,68,85,n110
22.907553,1.5416666,68,86,n115
22.523438,0.3424479,84,97,n109
22.891928,1.5572916,85,98,n114
23.25651,1.1927084,62,38,n116
23.614584,0.83463544,54,55,n117
24.214844,2.2096355,54,57,n120
23.65625,0.79296875,71,88,n119
24.321615,2.1028645,65,89,n122
23.640625,0.80859375,90,100,n118
24.304688,2.1197917,85,101,n121
25.52474,1.3177084,50,47,n125
25.161459,0.3515625,51,48,n124
24.778646,0.37109375,50,50,n123
26.785156,2.4609375,34,43,n130
26.842447,2.4036458,37,47,n131
26.966146,0.59765625,40,53,n134
26.354166,0.5651042,48,55,n127
25.957031,0.4674479,52,56,n126
26.950521,0.084635414,47,86,n133
26.424479,0.49479166,55,88,n129
26.938803,1.6276041,61,98,n132
26.407553,0.51171875,75,100,n128
28.763021,1.2851562,37,36,n143
29.238281,0.8098958,48,52,n146
28.231771,1.0143229,38,53,n140
27.575521,1.6705729,36,55,n138
29.223959,4.4583335,44,84,n145
28.589844,0.65625,42,86,n142
27.622396,1.6236979,6,88,n139
29.207031,3.4752605,54,96,n144
28.566406,0.6796875,58,98,n141
27.511719,1.734375,62,100,n136
30.470053,0.5286458,48,54,n150
29.963541,0.4609375,59,55,n147
30.436197,0.5625,65,57,n149
29.980469,0.4700521,57,58,n148
30.910156,1.7721354,60,58,n151
30.91276,1.7695312,60,62,n152
32.213543,1.0742188,46,52,n155
31.815104,0.35546875,47,53,n154
31.401041,0.4283854,49,55,n153
33.541668,0.6458333,51,52,n161
33.23828,0.4440104,52,57,n159
32.692707,0.59505206,38,58,n157
33.673176,0.51432294,63,59,n163
33.213543,0.46875,66,60,n158
32.66927,0.61848956,61,61,n156
35.48177,1.4986979,38,53,n173
34.7487,0.7369792,37,55,n167
34.17448,0.5677083,41,57,n164
35.47526,1.3841146,40,57,n171
34.73698,0.74869794,45,58,n166
34.179688,0.5625,54,60,n165
35.014324,0.47135416,36,77,n168
35.127605,0.3580729,45,84,n169
35.273438,0.2669271,48,89,n170
35.47526,0.8854167,59,93,n172
36.8763,2.5260417,50,41,n180
36.859375,2.5429688,63,57,n178
35.983074,0.9973958,54,81,n174
36.864582,0.34765625,47,88,n179
36.40495,0.5755208,34,89,n176
36.85547,0.4934896,64,91,n177
36.360676,0.6197917,57,93,n175
37.773438,1.6054688,53,77,n183
37.382812,0.79036456,45,86,n182
38.173176,0.7421875,45,86,n184
37.35677,0.81901044,57,89,n181
38.17578,1.2265625,55,89,n185
39.3737,1.1875,49,53,n191
39.34375,0.78776044,67,58,n190
39.382812,0.7213542,51,74,n193
39.378906,0.72526044,61,77,n192
38.9375,0.46484375,54,82,n189
38.541668,0.86067706,50,84,n187
38.915363,0.48697916,53,86,n188
38.53255,0.8697917,58,88,n186
40.502605,0.7213542,57,56,n199
40.076824,0.5,74,60,n196
40.516926,0.70703125,66,62,n200
40.52995,0.69401044,62,77,n202
40.134113,0.42708334,45,81,n198
39.72526,0.37890625,54,82,n194
40.51823,0.7057292,65,83,n201
40.10026,0.4609375,59,84,n197
39.734375,0.82682294,56,86,n195
41.526043,0.13411458,53,48,n208
41.214844,0.4453125,54,55,n207
41.648438,1.2096354,65,64,n212
41.183594,0.4765625,71,65,n205
41.209637,0.45052084,47,71,n206
41.641926,1.2161459,44,73,n211
40.86198,0.36197916,48,74,n203
41.18099,0.4596354,59,79,n204
41.640625,1.2174479,39,79,n210
41.610676,1.2473959,62,82,n209
42.848957,0.071614586,40,53,n221
42.364582,0.4934896,66,67,n216
42.834637,0.42447916,58,69,n218
42.160156,0.6979167,55,70,n214
41.983074,0.875,46,72,n213
42.286457,0.57161456,50,76,n215
42.847656,0.77473956,52,77,n220
42.83724,0.7786458,61,81,n219
42.389324,0.46875,61,84,n217
44.10547,2.4947917,45,41,n227
44.085938,2.514323,57,57,n226
43.259113,1.1067709,58,69,n223
44.110676,0.2877604,46,76,n229
43.622395,0.56119794,47,77,n225
44.108074,0.5911458,56,79,n228
43.615887,0.5677083,59,81,n224
44.963543,1.5820312,49,65,n232
44.609375,0.7239583,37,74,n231
45.333332,0.7317708,44,74,n233
44.57422,0.76432294,57,77,n230
45.338543,1.2617188,51,77,n234
46.558594,1.1419271,54,53,n242
46.536457,0.7890625,69,58,n239
46.557293,0.70703125,47,62,n241
46.545574,0.71875,62,65,n240
46.089844,0.5104167,51,70,n238
45.703125,0.89713544,50,72,n235
46.065105,0.53515625,54,74,n237
45.704426,0.8958333,54,76,n236
47.67578,0.765625,53,56,n249
47.295574,0.4049479,73,60,n245
47.66927,0.375,65,62,n248
47.704426,0.7369792,58,65,n251
47.317707,0.3828125,51,69,n247
46.923176,0.34114584,58,70,n243
47.696613,0.8125,60,71,n250
47.298176,0.40234375,59,72,n246
46.940105,0.39453125,55,74,n244
48.9375,0.8802083,45,49,n260
48.411457,0.5260417,35,50,n255
48.960938,0.8567708,42,52,n261
48.377605,0.5598958,46,53,n254
48.045574,0.39583334,44,55,n253
48.497395,0.4908854,40,59,n257
48.04427,0.3971354,49,62,n252
48.466145,0.46614584,66,67,n256
48.932293,0.8854167,52,67,n259
48.915363,0.90234375,67,70,n258
49.86198,0.6588542,37,48,n269
50.48047,1.8242188,37,53,n270
49.33073,0.48697916,41,55,n262
50.496094,0.6953125,33,57,n271
49.58203,0.23567708,47,58,n264
49.84375,0.6770833,38,60,n267
49.339844,0.3528646,42,64,n263
49.692707,0.14973958,46,64,n265
50.514324,1.7473959,36,65,n273
50.5013,1.7434896,48,69,n272
49.859375,0.6614583,57,72,n268
52.128906,2.514323,35,29,n277
52.134113,2.548177,35,41,n278
51.191406,1.1132812,40,57,n274
52.29948,0.5572917,25,61,n281
51.619793,0.6848958,37,63,n276
52.26172,0.7135417,50,65,n280
51.608074,0.69661456,48,66,n275
52.244793,2.53125,57,69,n279
53.210938,0.70963544,39,57,n284
52.83073,0.7786458,32,60,n283
53.609375,1.1666666,25,60,n286
52.8125,0.74869794,49,63,n282
53.5612,0.7578125,49,63,n285
54.64323,2.3710938,42,29,n290
54.682293,2.3385417,33,41,n291
53.920574,0.85546875,35,57,n287
54.817707,0.4466146,44,61,n294
54.31901,0.45703125,25,63,n289
54.798176,0.5364583,58,65,n293
54.266926,0.50911456,56,66,n288
54.783855,1.2643229,65,69,n292
55.617188,0.4309896,50,57,n297
55.30078,0.7473958,39,60,n296
55.26172,0.7447917,52,63,n295
56.00651,1.1197916,53,63,n299
56.01302,1.1132812,60,66,n300
55.994793,1.1315104,70,70,n298
57.014324,2.6445312,48,29,n304
57.020832,2.6614583,46,41,n305
56.69401,0.43229166,60,58,n303
56.385418,0.74088544,51,61,n302
57.130207,0.74609375,53,63,n308
56.3763,0.75,54,65,n301
57.134113,1.4088541,49,66,n309
57.127605,1.4153646,54,69,n307
57.109375,1.4335938,73,72,n306
57.882812,0.66015625,55,60,n313
57.483074,1.0299479,59,61,n310
58.51302,1.1692709,49,61,n316
57.8763,0.6666667,66,63,n312
57.490887,1.0273438,58,65,n311
58.51823,1.1640625,52,65,n317
58.503906,2.016927,64,70,n315
58.483074,2.001302,72,73,n314
59.658855,0.8255208,50,29,n320
60.079426,0.4231771,48,30,n324
59.690105,0.7942708,26,41,n322
60.09375,0.72786456,50,42,n325
59.666668,0.37890625,43,58,n321
60.045574,0.4388021,54,58,n323
59.1875,0.49479166,50,60,n319
59.17448,0.5078125,61,63,n318
60.790363,0.6145833,32,31,n330
61.346355,1.1132812,42,32,n334
60.78255,0.6223958,43,43,n329
61.351562,1.2513021,44,44,n335
60.432293,0.3893229,54,60,n328
60.882812,0.52213544,45,61,n333
61.428387,0.7994792,41,61,n338
60.41927,0.40234375,60,63,n327
60.847656,0.5572917,54,64,n332
61.420574,0.8203125,51,65,n337
60.835938,0.56901044,67,70,n331
61.408855,1.1770834,68,70,n336
60.41276,0.4544271,66,72,n326
62.459637,0.14322917,55,32,n344
62.134113,0.46875,52,49,n340
62.67448,0.5963542,31,50,n348
61.83724,0.765625,50,56,n339
62.60677,0.6588542,61,59,n347
62.227863,0.4140625,44,61,n342
62.240887,0.36197916,38,65,n343
62.602863,0.66276044,44,65,n346
62.191406,0.41145834,73,68,n341
62.585938,0.6796875,81,70,n345
63.536457,0.24348958,45,32,n355
63.13802,0.64192706,51,44,n351
63.820312,0.890625,34,51,n359
62.941406,0.32421875,67,56,n350
63.341145,0.4388021,3,59,n354
63.79427,0.5338542,50,60,n357
63.290363,0.48958334,52,65,n353
63.817707,0.5104167,40,66,n358
63.276043,0.50390625,77,68,n352
63.76953,0.55859375,76,70,n356
64.63021,0.50130206,43,44,n362
65.123695,0.4440104,45,48,n366
64.27344,0.41145834,47,56,n361
65.14193,0.36458334,33,56,n367
64.69662,0.43489584,39,60,n364
64.68359,0.4283854,62,66,n363
65.11198,0.3606771,57,66,n365
64.23568,0.8958333,74,68,n360
65.98698,0.203125,35,32,n373
66.60677,0.3450521,34,37,n378
65.57162,0.61848956,40,44,n370
66.69271,0.26822916,38,44,n379
66.208336,0.6953125,29,48,n375
66.86198,0.6067708,35,49,n380
66.89844,1.7070312,37,53,n382
65.60156,0.5885417,47,54,n372
66.20963,0.7161458,32,56,n376
66.89323,0.9791667,48,61,n381
66.18099,0.72265625,49,63,n374
65.57422,0.61588544,56,65,n371
65.47266,0.16796875,53,66,n369
65.376305,0.13020833,54,68,n368
67.46875,1.1367188,37,49,n383
68.46354,0.6875,38,60,n386
67.8724,0.73307294,31,61,n385
68.50521,0.6458333,20,63,n387
67.85287,0.75,44,65,n384
68.60287,1.7447916,49,65,n389
68.583336,2.5690105,64,77,n388
69.52604,1.1927084,47,49,n392
71.046875,1.1223959,47,49,n399
72.50651,0.8020833,53,49,n412
69.13932,0.7604167,41,58,n391
69.89974,0.44791666,41,58,n393
69.13802,0.7630208,44,61,n390
69.91146,0.4361979,50,61,n394
70.65234,0.4049479,42,54,n398
70.302086,0.34114584,51,56,n395
70.645836,0.45703125,53,58,n397
70.3099,0.33333334,50,60,n396
71.11328,0.7083333,55,66,n401
71.10547,0.7161458,72,78,n400
72.19662,1.1119791,49,52,n410
71.83203,0.3372396,41,53,n407
71.50651,0.31510416,40,54,n403
72.19922,1.109375,43,55,n411
71.82162,0.34765625,51,56,n406
71.48177,0.33984375,50,58,n402
71.81901,0.3502604,56,68,n405
72.17969,1.1289062,57,70,n409
71.79818,0.4049479,75,80,n404
72.16146,1.1471354,76,82,n408
73.27474,0.48828125,39,45,n417
72.81771,0.51171875,54,46,n413
73.26953,0.8203125,38,51,n416
73.28385,0.47916666,39,54,n418
73.31641,0.4466146,57,72,n420
72.86068,0.44791666,55,73,n415
73.29818,0.46484375,76,84,n419
72.83203,0.4765625,76,85,n414
73.72656,0.76432294,51,44,n422
74.04427,0.421875,50,48,n424
74.39323,0.78255206,59,49,n428
74.39974,0.15625,57,53,n429
74.06771,0.3984375,48,56,n425
73.73177,0.3580729,56,75,n423
74.48698,1.2473959,67,77,n431
74.08724,0.37890625,64,80,n427
73.708336,0.3815104,78,87,n421
74.47526,1.2486979,81,89,n430
74.06771,0.3984375,82,92,n426
74.83073,0.9114583,64,37,n432
75.63932,0.5885417,51,48,n435
75.17578,0.56640625,57,49,n433
75.64844,0.57942706,55,51,n436
75.177086,0.5651042,53,53,n434
75.734375,1.6523438,68,77,n438
75.72396,2.5690105,80,89,n437
76.59115,1.1783854,45,37,n441
78.11849,1.1888021,41,37,n448
79.59896,0.74869794,53,37,n462
76.229164,0.71223956,48,46,n439
76.97266,0.4140625,43,46,n443
76.24349,0.6979167,40,49,n440
76.970055,0.41666666,45,49,n442
77.697914,0.52994794,39,42,n447
77.34766,0.39583334,51,44,n444
77.677086,0.55078125,54,46,n446
77.35156,0.3919271,52,48,n445
78.21615,0.072916664,54,78,n450
78.19141,1.1158854,74,90,n449
79.28125,1.0664062,48,40,n460
78.96875,0.33854166,36,41,n457
78.592445,0.71484375,44,42,n453
79.28516,1.0625,55,43,n461
78.93229,0.375,51,44,n456
78.58594,0.7213542,46,46,n452
78.93099,0.3763021,56,80,n455
79.27344,1.0742188,67,82,n459
78.907555,1.4401041,78,92,n454
79.26302,1.0846354,81,94,n458
80.635414,0.8125,55,37,n471
80.35287,1.1731771,40,39,n470
80.33984,1.1861979,47,42,n469
80.33724,1.1888021,55,45,n468
79.958336,0.3893229,59,46,n464
80.322914,1.203125,77,84,n467
79.958336,0.3893229,67,85,n465
80.311195,1.2148438,88,96,n466
79.94271,0.4049479,84,97,n463
81.447914,0.5729167,59,37,n476
81.02213,0.99869794,56,44,n473
81.03125,0.49479166,54,48,n475
81.02344,0.5026042,79,87,n474
81.56641,1.3789062,77,89,n478
81.01432,0.51171875,89,99,n472
81.55599,1.3893229,93,101,n477
81.97787,1.53125,82,41,n479
82.83724,0.671875,64,48,n483
82.38021,0.5651042,67,49,n481
82.83203,0.6770833,67,51,n482
82.37891,0.56640625,72,53,n480
82.97526,2.188802,83,89,n485
82.967445,1.7708334,93,101,n484
83.75912,0.3346354,64,41,n488
84.407555,1.25,78,41,n491
84.078125,0.3671875,68,45,n490
83.42578,0.66796875,64,46,n486
84.06771,0.37760416,72,48,n489
83.42578,0.66796875,71,49,n487
85.12109,0.5364583,62,49,n495
84.73568,0.4283854,68,51,n493
85.11849,0.5390625,61,53,n494
84.72526,0.4388021,74,54,n492
85.22526,2.1757812,77,89,n497
85.21875,2.1822917,90,101,n496
85.936195,0.3268229,60,41,n500
86.282555,0.076822914,58,46,n501
85.60156,0.6614583,61,48,n498
86.28646,0.41145834,58,49,n502
85.60807,0.65494794,62,51,n499
86.62109,1.2955729,65,53,n503
87.33594,0.47916666,52,60,n507
86.94922,0.4518229,58,61,n504
87.33463,0.48046875,55,63,n506
86.94922,0.4518229,60,65,n505
87.416664,2.279948,65,77,n509
87.40365,1.8606771,79,89,n508
88.11588,0.34375,48,53,n512
88.79297,1.4088541,59,53,n515
88.46094,0.35416666,47,57,n514
87.78385,0.67578125,54,58,n511
88.45573,0.359375,53,60,n513
87.779945,0.6796875,61,61,n510
89.63672,0.5442708,43,61,n519
89.19271,0.50390625,57,63,n516
89.71354,2.141927,57,77,n521
89.69922,1.5416666,71,89,n520
90.52865,0.71223956,52,53,n524
90.157555,0.44010416,56,60,n523
90.88412,0.3606771,44,60,n526
90.8776,0.36328125,51,63,n525
91.53385,0.3216146,47,53,n529
91.25521,0.60026044,45,58,n528
91.895836,0.3828125,35,58,n532
91.24349,0.6119792,60,61,n527
91.89844,0.36197916,47,61,n533
91.876305,1.9713541,49,65,n531
91.87109,2.0429688,58,77,n530
92.67969,0.54296875,54,41,n536
92.26823,0.82421875,48,57,n534
93.092445,0.4388021,44,57,n538
92.27474,0.8098958,49,60,n535
93.08463,0.42447916,43,60,n537
93.9375,0.5598958,32,53,n541
93.52213,0.390625,45,55,n540
93.489586,0.9505208,50,58,n539
94.42057,0.59375,45,60,n544
94.427086,0.58723956,43,63,n545
94.39844,0.0625,46,65,n543
94.39193,2.8658855,56,77,n542
95.78646,1.5143229,40,41,n549
97.26693,0.6276042,23,53,n555
94.98047,2.3203125,41,58,n548
97.239586,0.6458333,42,60,n551
94.96875,2.3320312,52,61,n547
97.26172,0.6328125,29,65,n554
97.25391,0.6276042,38,69,n552
97.25781,0.63671875,41,77,n553
97.229164,0.66536456,58,81,n550
97.90625,0.4140625,29,53,n559
98.38932,0.30729166,31,53,n565
98.71094,0.33333334,44,53,n568
97.885414,0.43489584,43,60,n558
98.35677,0.33984375,28,60,n563
98.71094,0.33333334,44,64,n569
98.385414,0.3111979,35,65,n564
98.748695,0.2955729,42,67,n571
97.88151,0.4388021,49,69,n557
98.33724,0.359375,56,69,n561
98.70963,0.3346354,59,70,n567
97.875,0.4453125,57,72,n556
98.354164,0.3424479,50,72,n562
98.72656,0.31770834,52,73,n570
98.70052,0.34375,67,79,n566
98.33073,0.3658854,63,81,n560
99.09766,0.28385416,33,53,n577
99.42838,0.26953125,24,53,n581
99.74349,0.30208334,24,53,n587
99.07943,0.30208334,39,62,n575
99.407555,0.2903646,47,62,n580
99.71354,0.33203125,49,62,n584
99.08594,0.2955729,32,65,n576
99.39453,0.3033854,49,65,n579
99.717445,0.328125,43,65,n586
99.71615,0.3294271,55,68,n585
99.072914,0.29296875,54,70,n574
99.36588,0.33203125,65,70,n578
99.70963,0.3359375,58,71,n583
99.06771,0.3138021,56,74,n573
99.05338,0.328125,67,77,n572
99.69271,0.3528646,71,77,n582
100.052086,0.30859375,40,53,n590
100.36068,0.27734375,43,53,n596
100.66146,0.2747396,39,53,n602
100.37109,0.2669271,32,58,n597
100.66146,0.2747396,42,58,n603
100.04427,0.31770834,38,60,n589
100.37109,0.2669271,36,62,n598
100.645836,0.2903646,59,62,n601
100.05729,0.3046875,49,64,n593
100.376305,0.2578125,24,65,n599
100.63412,0.30208334,67,65,n600
100.05469,0.30729166,57,69,n591
100.33203,0.3059896,69,70,n595
100.05599,0.3059896,57,72,n592
100.32422,0.60807294,73,74,n594
100.02213,0.33984375,73,76,n588
100.98568,0.31640625,28,53,n609
101.32682,0.36979166,41,53,n614
101.70963,0.3346354,43,53,n618
101.69662,0.3515625,45,56,n616
100.98307,0.3190104,21,58,n608
101.71224,1.0039062,43,59,n619
101.3099,0.38671875,44,60,n613
100.96224,0.33984375,45,62,n607
100.95573,0.3372396,58,65,n606
101.29297,0.40364584,58,65,n611
101.74088,0.3033854,26,65,n620
101.70182,0.3424479,64,68,n617
101.29557,0.40104166,61,69,n612
100.94401,0.3580729,67,70,n605
101.6849,1.03125,76,71,n615
101.27474,0.421875,77,72,n610
100.93229,0.36979166,72,74,n604
102.75781,0.3450521,45,49,n634
102.32943,0.38671875,42,50,n626
102.00781,0.7083333,51,52,n624
102.33854,0.37760416,34,53,n628
102.73698,0.11328125,38,53,n630
101.98307,0.73307294,45,55,n621
102.7526,0.38541666,42,58,n632
102.7474,0.35546875,36,61,n631
102.33594,0.38020834,45,62,n627
101.99088,0.72526044,58,64,n623
102.32162,0.39453125,51,65,n625
102.7526,0.3502604,37,65,n633
101.989586,0.7265625,58,67,n622
102.71094,0.76953125,71,70,n629
103.109375,0.37109375,43,48,n638
103.10156,0.37890625,46,52,n637
103.5,0.063802086,34,52,n641
103.97266,0.09375,42,53,n648
103.52344,0.44921875,31,55,n644
103.970055,0.5286458,41,57,n647
103.09896,0.08203125,32,60,n636
103.515625,0.45703125,43,60,n643
103.08073,0.3997396,53,64,n635
103.50781,0.46484375,34,64,n642
103.96875,0.52994794,40,65,n646
103.4974,0.4752604,49,67,n640
103.94531,0.5494792,57,69,n645
103.48047,0.4921875,58,72,n639
104.51693,0.37760416,33,53,n652
104.92448,0.35546875,40,53,n657
105.28776,0.3294271,40,53,n660
104.51172,0.3828125,37,60,n651
104.90625,0.3736979,38,60,n654
105.28776,0.3294271,37,64,n661
104.92838,0.3515625,46,65,n658
105.32031,0.296875,44,67,n664
104.49479,0.3997396,51,69,n650
104.91927,0.3606771,42,69,n656
105.30078,0.3046875,45,70,n663
104.48698,0.4075521,58,72,n649
104.907555,0.37239584,55,72,n655
105.29557,0.3216146,54,73,n662
105.27213,0.3450521,74,79,n659
104.88672,0.39322916,74,81,n653
105.947914,0.28515625,35,53,n674
105.60807,0.3190104,47,62,n668
105.93229,0.30078125,49,62,n673
106.248695,0.3033854,49,62,n678
105.61198,0.29166666,50,65,n669
105.90365,0.3294271,56,65,n672
106.25651,0.2955729,50,65,n679
106.23307,0.3190104,61,68,n677
105.60547,0.28515625,56,70,n667
105.890625,0.3424479,70,70,n671
106.22526,0.3268229,61,71,n676
105.59635,0.33072916,64,74,n666
105.58463,0.3424479,73,77,n665
106.21875,0.33333334,71,77,n675
106.552086,0.296875,48,53,n682
106.859375,0.31510416,36,53,n690
107.1875,0.28515625,44,53,n696
106.859375,0.3059896,45,58,n691
107.16537,0.30729166,52,58,n695
106.55599,0.29296875,31,60,n684
106.859375,0.083333336,48,62,n692
107.154945,0.31770834,65,62,n694
106.55599,0.29296875,55,64,n685
106.842445,0.059895832,55,65,n689
107.145836,0.3268229,70,65,n693
106.552086,0.296875,63,69,n683
106.82552,0.34895834,71,70,n688
106.55599,0.29296875,60,72,n686
106.81901,0.63932294,70,74,n687
106.53646,0.3125,79,76,n681
107.51172,0.2591146,46,53,n702
107.8099,0.3059896,38,53,n707
108.16016,0.33333334,48,53,n712
108.16016,0.33333334,38,56,n713
107.8099,0.3059896,26,57,n708
107.49479,0.27604166,52,58,n700
108.15625,1.0,42,59,n711
107.78516,0.33072916,53,60,n705
107.49479,0.27604166,46,62,n701
107.479164,0.29166666,63,65,n699
107.78646,0.3294271,55,65,n706
108.16016,0.084635414,41,65,n714
108.13802,0.35546875,69,68,n710
107.76693,0.34895834,64,69,n704
107.46354,0.30729166,70,70,n698
108.11588,1.0403646,77,71,n709
107.75651,0.359375,81,72,n703
107.458336,0.3125,78,74,n697
109.186195,0.12109375,45,49,n729
108.75651,0.3997396,42,50,n723
108.41537,0.1640625,53,52,n717
108.7474,0.3997396,36,53,n721
109.14713,0.13671875,30,53,n725
108.385414,0.18880208,47,55,n716
109.17578,0.43489584,44,58,n726
109.18359,0.36979166,39,61,n728
108.7526,0.40364584,45,62,n722
108.42318,0.14973958,57,64,n719
108.72526,0.4309896,61,65,n720
109.17969,0.3736979,45,65,n727
108.41537,0.74088544,62,67,n718
109.14193,0.8255208,71,70,n724
109.52865,0.4388021,43,48,n732
109.52344,0.4440104,49,52,n731
109.98698,0.115885414,37,52,n736
110.592445,0.93880206,33,53,n742
110.00391,0.60807294,31,55,n738
110.59375,0.9010417,44,57,n743
109.54297,0.10546875,30,60,n733
109.99088,0.62109375,42,60,n737
109.5026,0.46484375,49,64,n730
110.00912,0.60286456,8,64,n739
110.583336,0.9479167,36,65,n741
109.979164,0.6328125,47,67,n735
110.5651,0.89453125,49,69,n740
109.96875,0.6432292,57,72,n734
111.49609,0.5651042,38,45,n747
112.061195,0.37239584,31,45,n750
112.479164,0.3111979,25,45,n757
111.49479,0.56901044,30,57,n746
112.063805,0.36979166,32,57,n751
112.45703,0.33333334,32,57,n755
112.46484,0.32552084,22,62,n756
112.072914,0.3606771,19,64,n752
111.47526,0.9583333,35,66,n745
112.4349,0.35546875,45,66,n754
112.04557,0.38802084,41,67,n749
111.45963,0.56901044,45,69,n744
112.02865,0.39453125,41,69,n748
112.42318,0.34895834,44,69,n753
112.77213,0.33984375,47,69,n758
112.81901,0.35546875,32,45,n762
113.17448,0.2799479,36,45,n767
113.52604,0.40234375,21,45,n772
112.8125,0.32421875,31,57,n761
113.13672,0.31770834,42,57,n766
113.50521,0.4231771,37,57,n770
113.52213,0.40625,20,61,n771
113.13021,0.32421875,47,62,n765
112.79557,0.6588542,40,64,n760
113.48828,0.44010416,47,64,n769
113.11588,0.33854166,55,66,n764
112.79037,0.6640625,46,67,n759
113.11198,0.3424479,62,69,n763
113.48047,0.44791666,52,69,n768
113.947914,0.37890625,34,45,n776
114.32682,0.3033854,37,45,n779
114.67318,0.3138021,36,45,n785
113.94531,0.38020834,33,57,n775
114.32552,0.3046875,45,57,n778
114.66276,0.32421875,43,57,n784
114.657555,0.3294271,46,64,n783
114.32682,0.3033854,48,66,n780
113.93229,0.40234375,54,67,n774
114.64974,0.3372396,60,67,n781
114.30599,0.32421875,66,69,n777
114.64974,0.3046875,59,69,n782
113.916664,0.41796875,60,71,n773
114.99088,0.3033854,39,45,n788
115.30469,0.34635416,40,45,n794
115.67578,0.421875,34,45,n799
114.99088,0.3033854,44,57,n789
115.30078,0.3502604,45,57,n792
115.65885,0.071614586,41,57,n797
115.66016,0.4375,48,62,n798
115.302086,0.34895834,51,64,n793
114.96484,0.3294271,60,66,n787
115.645836,0.4518229,54,66,n796
115.29818,0.3528646,57,67,n791
114.95443,0.3359375,67,69,n786
115.29037,0.34114584,65,69,n790
115.63151,0.46614584,54,69,n795
116.16016,0.3828125,34,33,n803
116.54297,0.32552084,36,33,n809
116.91537,0.3528646,45,33,n816
116.186195,0.34895834,26,45,n804
116.53516,0.33333334,39,45,n807
116.89713,0.35546875,43,45,n814
116.13802,0.39322916,37,57,n802
116.53125,0.3372396,46,57,n806
116.88412,0.34375,43,57,n813
116.89713,0.65494794,50,62,n815
116.53776,0.33072916,47,64,n808
116.126305,0.42578125,49,65,n801
116.87891,0.65755206,50,65,n812
116.55729,0.3111979,43,67,n810
116.11849,0.40104166,58,69,n800
116.51953,0.3450521,61,69,n805
116.864586,0.34375,59,69,n811
117.26823,0.2955729,43,33,n822
117.563805,0.36458334,38,33,n827
117.95182,0.34375,47,33,n834
117.2526,0.3190104,49,45,n821
117.583336,0.3450521,46,45,n828
117.94401,0.3515625,44,45,n833
117.22787,0.3138021,42,57,n819
117.541664,0.34765625,52,57,n825
117.88932,0.40625,53,57,n830
117.90885,0.084635414,51,61,n832
117.552086,0.3763021,55,62,n826
117.22135,0.3502604,58,64,n818
117.89974,0.069010414,52,64,n831
117.53646,0.114583336,59,65,n824
117.229164,0.3424479,54,67,n820
117.208336,0.31770834,66,69,n817
117.52604,0.359375,67,69,n823
117.885414,0.119791664,69,69,n829
118.30338,0.3684896,54,33,n839
118.671875,0.3815104,56,33,n844
119.05338,0.40364584,63,33,n849
118.29557,0.37760416,54,45,n837
118.657555,0.40104166,73,46,n840
119.046875,0.41015625,70,47,n847
118.29818,0.37109375,50,57,n838
118.66927,0.375,63,57,n842
119.04427,0.4127604,68,57,n846
119.05859,0.3984375,58,64,n850
118.66927,0.3893229,61,65,n843
118.27865,0.39453125,64,67,n835
119.052086,0.4049479,64,67,n848
118.657555,0.3841146,72,69,n841
119.041664,0.41145834,73,69,n845
118.27865,0.39453125,76,70,n836
119.48047,0.22265625,31,33,n855
119.703125,1.2070312,71,33,n856
120.77213,1.6940104,50,38,n863
119.45443,0.62369794,69,48,n852
120.04948,0.86067706,73,49,n858
120.765625,2.0559895,54,50,n862
119.46224,0.5911458,63,57,n853
120.05338,0.8463542,67,57,n859
120.89974,1.9101562,69,57,n865
120.907555,0.66796875,61,62,n867
120.05859,0.8515625,66,64,n861
119.46224,0.61588544,70,65,n854
120.90365,0.671875,68,65,n866
120.05729,0.85286456,68,67,n860
119.453125,0.58984375,78,69,n851
120.04297,0.84765625,80,69,n857
120.890625,1.0598959,81,69,n864
121.51693,0.43359375,68,63,n869
121.85677,0.51953125,56,64,n871
122.35677,1.1953125,64,65,n873
121.50521,0.4453125,75,67,n868
121.84896,0.52734375,77,68,n870
122.34635,1.6614584,72,69,n872
122.79297,0.41015625,47,52,n875
123.13281,0.40104166,49,53,n877
123.489586,4.5664062,42,55,n879
123.47396,0.99609375,59,59,n878
123.104164,0.4296875,61,60,n876
122.77344,0.3841146,59,61,n874
123.92969,0.4856771,41,43,n880
124.4375,0.39322916,38,44,n884
124.811195,0.3111979,35,45,n888
124.8099,0.4153646,49,63,n887
124.44922,0.3815104,48,64,n885
124.04297,0.37239584,35,65,n882
124.802086,0.3450521,60,66,n886
124.42969,0.40104166,57,67,n883
123.9974,0.41796875,66,68,n881
125.186195,0.3763021,40,46,n890
125.57552,0.41015625,39,47,n894
125.97396,2.5716145,41,48,n896
125.97396,0.7786458,35,60,n897
125.563805,0.39583334,31,62,n893
125.19662,0.3294271,47,64,n891
125.95443,0.4205729,46,64,n895
125.55078,0.38020834,48,65,n892
125.18099,0.3580729,55,67,n889
126.72656,0.6692708,66,66,n901
126.375,0.3828125,54,67,n899
126.70703,0.68880206,72,69,n900
126.36588,0.38671875,70,70,n898
127.282555,1.6888021,68,70,n903
127.27734,1.34375,72,74,n902
127.73698,0.3515625,44,58,n905
128.07031,0.42578125,39,59,n907
128.45442,3.4101562,45,60,n909
128.4323,0.91276044,49,64,n908
128.0677,0.4440104,47,65,n906
127.70052,0.3359375,57,67,n904
128.87239,0.92057294,45,48,n910
129.41927,0.3736979,37,49,n915
129.8086,0.38671875,40,50,n917
129.83333,0.38802084,30,68,n918
129.38933,0.40364584,58,69,n914
128.98047,0.3359375,47,70,n912
129.79297,0.4283854,54,71,n916
129.38542,0.4075521,58,72,n913
128.97005,0.34895834,61,73,n911
130.21614,0.4388021,34,51,n919
130.70703,0.46484375,36,52,n923
131.21745,0.65234375,35,53,n926
131.23828,0.6328125,24,65,n927
130.70703,0.47395834,29,67,n924
130.22005,0.42447916,45,69,n921
131.1836,0.64973956,51,69,n925
130.65495,0.5234375,55,70,n922
130.21745,0.4466146,57,72,n920
131.8698,0.54817706,34,53,n930
132.41797,0.36979166,33,53,n936
132.78777,0.3515625,44,53,n939
131.86458,0.53255206,31,60,n929
132.39714,0.39453125,33,60,n934
132.8125,0.3268229,25,64,n942
131.8789,0.5390625,27,65,n931
132.41797,0.3736979,28,65,n937
132.82161,0.31770834,24,67,n943
131.83333,0.56640625,57,69,n928
132.39973,0.3919271,44,69,n935
132.78906,0.3502604,47,70,n940
132.38933,0.40234375,45,72,n933
132.80078,0.33854166,44,73,n941
132.76562,0.3736979,68,79,n938
132.36589,0.42578125,73,81,n932
133.15495,0.30208334,42,53,n948
133.47136,0.28125,37,53,n952
133.8125,0.2890625,18,53,n959
133.17058,0.28645834,37,62,n949
133.47266,0.2799479,50,62,n953
133.77995,0.3216146,44,62,n957
133.13542,0.2981771,51,65,n946
133.4336,0.3190104,54,65,n951
133.78386,0.31770834,41,65,n958
133.76433,0.3372396,57,68,n955
133.14062,0.28515625,38,70,n947
133.42578,0.3268229,63,70,n950
133.76433,0.3372396,59,71,n956
133.1211,0.3359375,55,74,n945
133.10677,0.3502604,71,77,n944
133.7448,0.35677084,73,77,n954
134.11328,0.3033854,36,53,n964
134.4375,0.3359375,44,53,n969
134.78255,0.2981771,44,53,n975
134.45964,0.3138021,28,58,n971
134.77473,0.3059896,50,58,n974
134.10156,0.31510416,38,60,n962
134.4388,0.05859375,37,62,n970
134.7513,0.3294271,59,62,n973
134.11328,0.3033854,51,64,n965
134.42058,0.3138021,45,65,n968
134.73438,0.34635416,68,65,n972
134.10027,0.31640625,60,69,n961
134.40105,0.37239584,67,70,n967
134.11198,0.3046875,55,72,n963
134.39323,0.4309896,72,74,n966
134.08594,0.33072916,75,76,n960
135.1263,0.26953125,45,53,n980
135.44531,0.51432294,31,53,n985
135.81902,0.7161458,42,56,n986
135.4362,0.4934896,40,57,n984
135.12239,0.2734375,24,58,n979
135.82942,0.7057292,36,59,n988
135.11198,0.28385416,47,62,n977
135.82552,0.70963544,46,62,n987
135.42188,0.5078125,54,63,n982
135.11589,0.2799479,52,65,n978
135.90755,0.100260414,51,65,n990
135.42188,0.5078125,67,66,n983
135.91277,0.6223958,56,68,n991
135.8763,0.6588542,84,71,n989
135.40105,0.5286458,82,72,n981
135.07942,0.31640625,75,74,n976
136.89453,0.44140625,52,52,n1001
136.55469,0.78125,39,53,n996
136.22005,0.31510416,47,55,n992
136.56902,0.72786456,33,55,n999
136.55598,0.734375,53,58,n997
136.8737,0.4622396,63,60,n1000
136.55989,0.7760417,53,61,n998
136.22266,0.3125,56,67,n993
136.55078,0.78515625,59,67,n995
136.51823,0.8177083,79,70,n994
137.89973,0.5260417,43,48,n1012
137.3138,0.5963542,43,49,n1004
138.36719,0.083333336,42,53,n1016
137.29688,0.60286456,43,55,n1003
137.89973,0.4765625,39,55,n1013
138.35156,0.08203125,43,57,n1014
137.29036,0.60546875,50,58,n1002
137.89583,0.48046875,46,58,n1011
137.8763,0.5,54,60,n1009
138.41016,0.47135416,15,60,n1018
137.3789,0.53125,55,61,n1007
137.89192,0.484375,44,64,n1010
137.3711,0.5390625,56,65,n1006
138.38933,0.49739584,43,65,n1017
138.35286,0.51432294,68,69,n1015
137.85808,0.5182292,63,72,n1008
137.34505,0.5651042,72,73,n1005
138.63802,0.65755206,61,41,n1019
138.72266,0.5729167,58,48,n1020
138.84114,0.4544271,53,53,n1021
139.34245,0.3502604,42,53,n1031
139.70442,0.3450521,35,53,n1038
138.90886,0.38671875,58,57,n1025
139.69661,0.3450521,41,58,n1037
138.88152,0.4140625,56,60,n1023
139.33333,0.359375,36,60,n1030
139.71484,0.3450521,31,61,n1040
139.70442,0.35546875,46,64,n1039
138.88672,0.40885416,63,65,n1024
139.33073,0.36197916,50,65,n1029
139.6836,0.072916664,63,67,n1034
138.86719,0.4283854,77,69,n1022
139.3086,0.3841146,66,69,n1028
139.6888,0.33333334,63,70,n1035
139.29688,0.39583334,69,72,n1027
139.6927,0.3671875,60,73,n1036
139.67058,0.3893229,82,79,n1033
139.29297,0.3997396,84,81,n1026
140.04948,0.3268229,42,53,n1047
140.39192,0.28125,41,53,n1052
140.71484,0.29427084,37,53,n1058
140.04167,0.3346354,44,58,n1046
140.03645,0.3111979,51,62,n1044
140.34766,0.32552084,59,62,n1051
140.69531,0.3138021,54,62,n1057
140.03645,0.0703125,62,65,n1045
140.34375,0.3294271,62,65,n1050
140.69011,0.3190104,52,65,n1056
140.68098,0.328125,64,68,n1055
140.02214,0.3125,62,70,n1043
140.33464,0.33854166,73,70,n1049
140.67448,0.3346354,65,71,n1054
140.01823,0.3580729,63,74,n1042
140.01042,0.3658854,76,77,n1041
140.66277,0.34635416,75,77,n1053
141.04427,0.2721354,42,53,n1064
141.32552,0.26822916,49,53,n1067
141.66145,0.375,46,53,n1074
141.33203,0.26171875,48,58,n1069
141.65495,0.35546875,39,58,n1073
140.99739,0.3190104,47,60,n1060
141.33984,0.25390625,40,62,n1070
141.62761,0.390625,67,62,n1072
141.01302,0.3033854,58,64,n1062
141.32812,0.055989582,47,65,n1068
141.625,0.40625,72,65,n1071
141.01302,0.3033854,63,69,n1063
141.30598,0.2877604,71,70,n1066
141.00781,0.30859375,67,72,n1061
141.29167,0.70703125,79,74,n1065
140.99219,0.32421875,81,76,n1059
142.05339,0.27864584,44,53,n1079
142.34895,0.3815104,49,53,n1083
142.65105,0.76171875,49,56,n1085
142.33855,0.109375,43,57,n1081
142.01042,0.3216146,29,58,n1076
142.66145,0.75130206,45,59,n1086
142.01823,0.3138021,59,62,n1077
142.66145,0.75130206,52,62,n1087
142.33594,0.39453125,62,63,n1080
142.03125,0.30078125,67,65,n1078
142.75261,0.041666668,58,65,n1090
142.35547,0.375,69,66,n1084
142.75,0.66276044,61,68,n1089
142.72266,0.6901042,89,71,n1088
142.33855,0.3919271,88,72,n1082
141.9987,0.33333334,85,74,n1075
143.80208,0.5520833,42,52,n1100
143.41536,0.93880206,42,53,n1095
143.03777,0.375,43,55,n1091
143.4336,0.85026044,38,55,n1098
143.41667,0.88671875,52,58,n1096
143.8086,0.54557294,63,60,n1101
143.43098,0.083333336,48,61,n1097
143.04948,0.36197916,62,67,n1092
143.38933,0.96484375,84,70,n1093
145.04036,0.8046875,30,48,n1111
144.29167,0.71223956,46,49,n1103
145.8125,1.28125,39,53,n1116
144.28386,0.72005206,46,55,n1102
145.03516,0.8098958,34,55,n1110
145.80078,1.2929688,43,57,n1114
144.30339,0.7005208,35,58,n1104
145.03386,0.81119794,38,58,n1109
145.04948,0.7916667,36,60,n1112
145.84114,1.2526041,10,60,n1118
144.41016,0.59375,43,61,n1107
145.0586,0.7864583,29,64,n1113
144.40234,0.6015625,44,65,n1106
145.82161,1.2721354,35,65,n1117
145.80208,1.2916666,46,69,n1115
145.0052,0.83984375,58,72,n1108
144.3737,0.6770833,74,73,n1105
147.11067,0.63671875,33,41,n1120
147.78125,0.41145834,19,41,n1126
148.1927,0.3515625,33,41,n1131
147.125,0.6223958,12,53,n1121
147.78386,0.40885416,12,53,n1127
148.1927,0.3424479,30,53,n1132
148.17448,0.076822914,29,62,n1130
147.73567,0.48046875,27,64,n1123
148.16797,0.4231771,41,65,n1129
148.89323,0.3216146,40,65,n1142
147.73567,0.48046875,37,67,n1124
147.1263,0.62109375,30,69,n1122
147.09505,0.64192706,33,72,n1119
147.73698,0.40885416,40,72,n1125
148.14583,0.3763021,48,72,n1128
148.54427,0.3424479,37,41,n1136
148.89192,0.32291666,30,41,n1141
149.27344,0.36458334,25,41,n1146
148.53516,0.3515625,40,53,n1134
148.88802,0.3268229,36,53,n1139
149.24219,0.40885416,40,53,n1144
149.27473,0.3763021,28,60,n1147
148.88933,0.32552084,39,62,n1140
148.53645,0.3502604,44,64,n1135
149.25911,0.3919271,46,64,n1145
148.54427,0.3424479,43,67,n1137
148.52214,0.3424479,51,72,n1133
148.86458,0.3502604,57,72,n1138
149.23438,0.41666666,53,72,n1143
149.63802,0.34895834,40,41,n1150
149.9987,0.33203125,39,41,n1156
150.33073,0.3203125,43,41,n1162
149.65755,0.3294271,28,53,n1151
149.9948,0.33333334,34,53,n1155
150.32812,0.32291666,45,53,n1161
150.3177,0.33333334,56,64,n1159
150.00261,0.3502604,39,65,n1157
149.66536,0.3216146,37,67,n1152
150.32292,0.328125,57,67,n1160
149.98828,0.36458334,52,69,n1154
149.63281,0.35416666,52,70,n1149
149.6289,0.34375,54,74,n1148
150.67058,0.31640625,40,41,n1167
150.99219,0.33854166,36,41,n1172
151.33073,0.38020834,36,41,n1175
150.66927,0.30989584,42,53,n1166
150.97917,0.35546875,42,53,n1171
151.35027,0.3606771,40,53,n1177
151.33203,0.37890625,47,62,n1176
150.97136,0.36328125,46,64,n1170
150.64844,0.069010414,55,65,n1165
151.32292,0.38802084,59,65,n1174
150.97005,0.36458334,52,67,n1169
150.64323,0.34375,52,69,n1164
151.3138,0.3971354,66,74,n1173
151.73698,0.38671875,34,41,n1180
152.1237,0.30989584,43,41,n1186
152.47786,0.2721354,33,41,n1195
151.73958,0.3893229,38,53,n1181
152.1289,0.3046875,49,53,n1188
152.44922,0.30078125,46,53,n1194
151.75,0.36197916,46,65,n1182
152.11198,0.3216146,68,65,n1185
152.4414,0.30859375,48,65,n1193
152.43489,0.31510416,49,67,n1192
151.73567,0.40104166,58,70,n1179
152.4336,0.31640625,59,70,n1191
152.75,0.66276044,59,70,n1198
151.7552,0.3815104,53,74,n1183
152.7487,0.6640625,56,74,n1197
151.72656,0.375,74,77,n1178
152.10156,0.3190104,72,77,n1184
152.42058,0.3216146,76,77,n1190
152.77864,0.3203125,35,41,n1201
153.09895,0.3138021,46,41,n1206
153.4323,0.044270832,55,41,n1212
152.76172,0.3372396,42,53,n1200
153.09895,0.3138021,52,53,n1207
153.41667,0.4205729,52,53,n1209
152.76042,0.30729166,54,65,n1199
153.0677,0.3450521,61,65,n1204
153.41797,0.4296875,60,65,n1210
153.07942,0.33333334,61,69,n1205
153.42058,0.42708334,60,69,n1211
153.0612,0.3515625,59,72,n1202
152.74219,0.3216146,71,77,n1196
153.0638,0.34114584,69,77,n1203
153.40495,0.44270834,79,77,n1208
153.83723,0.40885416,52,53,n1214
154.2461,0.061197918,33,53,n1224
154.53777,0.32291666,43,53,n1228
153.84245,0.37890625,43,60,n1215
154.22136,0.3294271,44,60,n1221
154.5625,0.3046875,35,60,n1230
154.54948,0.31770834,43,62,n1229
154.22527,0.32552084,53,64,n1223
153.85808,0.39453125,39,65,n1218
154.53255,0.3346354,64,65,n1226
154.21614,0.3346354,67,67,n1220
153.84895,0.40364584,62,69,n1217
153.84505,0.37760416,59,72,n1216
154.22266,0.3125,66,72,n1222
154.53516,0.30859375,67,72,n1227
154.51692,0.3502604,76,77,n1225
154.20312,0.34765625,80,79,n1219
153.82942,0.4231771,81,81,n1213
154.86067,0.30859375,48,53,n1235
155.16927,0.26302084,43,53,n1242
155.46223,0.3424479,45,53,n1247
154.87239,0.2799479,42,60,n1236
155.15234,0.2799479,53,60,n1240
155.45442,0.3502604,48,60,n1246
155.15234,0.2799479,53,62,n1241
154.85547,0.56640625,47,64,n1234
155.42188,0.036458332,66,64,n1244
155.13152,0.30078125,69,65,n1238
154.83203,0.60026044,69,67,n1232
154.84375,0.2955729,64,72,n1233
155.13933,0.29296875,72,72,n1239
155.4323,0.37239584,63,72,n1245
155.41277,0.3919271,81,76,n1243
155.1211,0.3111979,80,77,n1237
154.82422,0.60807294,80,79,n1231
155.82031,0.3658854,38,53,n1252
156.1862,0.31510416,49,53,n1259
156.5013,0.265625,52,53,n1266
155.8177,0.36328125,46,62,n1251
156.18098,0.30729166,51,62,n1256
156.48828,0.27864584,53,62,n1264
156.48698,0.2799479,57,64,n1263
156.19922,0.30989584,48,65,n1260
155.82422,0.6588542,55,67,n1253
156.48308,0.28385416,72,67,n1262
156.1823,0.3268229,69,69,n1257
155.79558,0.09375,67,70,n1250
155.79167,0.3919271,69,74,n1249
156.1836,0.30989584,67,74,n1258
156.49348,0.2734375,65,74,n1265
156.46875,0.2981771,86,79,n1261
156.16797,0.34114584,84,81,n1255
155.78516,0.7239583,81,82,n1248
156.79167,0.27083334,50,53,n1270
157.0625,0.25390625,53,53,n1275
157.3164,0.063802086,61,53,n1280
156.79297,0.265625,35,62,n1271
157.0586,0.24739583,45,62,n1274
157.30598,0.30208334,47,62,n1279
157.07812,0.27083334,53,64,n1278
156.78516,0.55078125,56,65,n1269
157.33594,0.049479168,75,65,n1282
157.06511,0.28385416,76,67,n1276
156.78125,0.5677083,71,69,n1268
156.79297,0.2825521,60,74,n1272
157.07552,0.26302084,68,74,n1277
157.33855,0.38671875,68,74,n1283
157.32812,0.3971354,87,77,n1281
157.05469,0.29427084,84,79,n1273
156.77083,0.578125,84,81,n1267
157.47136,0.25390625,63,53,n1284
157.99219,0.13932292,57,53,n1290
158.3086,0.123697914,67,53,n1296
158.33203,0.3736979,65,58,n1297
158.04948,0.37890625,54,60,n1291
157.60808,0.5234375,64,62,n1285
158.41145,0.29427084,76,67,n1299
158.1289,0.29947916,67,69,n1294
157.7448,0.38671875,62,70,n1289
158.41927,0.28645834,84,70,n1300
158.1211,0.30729166,79,72,n1293
157.73177,0.3997396,74,74,n1288
157.72527,0.40364584,80,77,n1287
158.1289,0.29427084,73,77,n1295
158.42317,0.27864584,50,77,n1301
158.40625,0.29947916,89,82,n1298
158.10938,0.3190104,88,84,n1292
157.71875,0.4127604,87,86,n1286
158.59114,0.114583336,69,53,n1302
158.91016,0.092447914,67,53,n1309
159.38152,0.4231771,48,53,n1321
159.36589,0.4388021,50,57,n1318
158.93489,0.118489586,48,60,n1310
158.64844,0.3359375,65,62,n1303
159.37239,0.43229166,62,65,n1320
159.03255,0.31640625,75,69,n1315
159.35286,0.4518229,92,69,n1317
158.73047,0.2721354,75,70,n1307
159.00781,0.34114584,84,72,n1314
158.71094,0.29166666,88,74,n1306
158.70183,0.30078125,66,77,n1304
159.00652,0.3424479,85,77,n1313
159.36589,0.42708334,73,77,n1319
159.35027,0.4544271,92,81,n1316
158.99739,0.3515625,90,84,n1312
158.70964,0.29296875,92,86,n1305
159.82422,0.40364584,48,53,n1328
160.22786,0.28125,66,53,n1335
160.53255,0.29296875,55,53,n1345
160.52995,0.2955729,52,55,n1344
160.23698,0.2721354,56,57,n1336
159.81902,0.6901042,52,58,n1326
160.51823,0.30729166,63,58,n1343
160.24348,0.265625,52,60,n1337
159.82942,0.6796875,49,62,n1329
159.82161,0.40234375,56,65,n1327
160.22395,0.28515625,71,65,n1334
160.51433,0.3111979,73,65,n1341
159.79297,0.41015625,86,77,n1323
160.20312,0.3059896,92,77,n1330
160.51433,0.30859375,83,77,n1342
160.50911,0.31640625,86,79,n1339
160.21223,0.296875,81,81,n1332
159.80078,0.7083333,75,82,n1325
160.51302,0.30729166,82,82,n1340
160.21223,0.296875,76,84,n1333
159.79688,0.71223956,75,86,n1324
159.78906,0.41666666,90,89,n1322
160.20573,0.2981771,83,89,n1331
160.5039,0.31770834,95,89,n1338
160.85677,0.3059896,51,53,n1353
161.16277,0.2669271,65,53,n1361
161.44792,0.33854166,66,53,n1367
161.13542,0.29427084,67,57,n1358
161.44011,0.34635416,63,57,n1366
160.83723,0.59244794,51,58,n1351
161.14844,0.28125,62,60,n1360
160.83073,0.5989583,64,62,n1350
160.83723,0.3059896,61,65,n1352
161.14323,0.28645834,73,65,n1359
161.4323,0.35416666,75,65,n1364
160.82292,0.3046875,92,77,n1348
161.12761,0.30208334,95,77,n1355
161.42969,0.35677084,93,77,n1363
161.1302,0.29947916,86,81,n1357
161.4336,0.3528646,87,81,n1365
160.82031,0.609375,90,82,n1346
161.12761,0.30208334,82,84,n1356
160.82552,0.6041667,77,86,n1349
160.82161,0.3033854,86,89,n1347
161.125,0.2981771,87,89,n1354
161.42317,0.36328125,94,89,n1362
161.67448,0.111979164,68,41,n1368
162.0677,0.10546875,67,41,n1374
162.39192,0.3984375,76,41,n1380
162.42058,0.5260417,78,46,n1381
162.07942,0.44921875,64,48,n1375
161.7539,0.41927084,70,50,n1369
162.50911,0.4375,87,55,n1382
162.15886,0.36979166,81,57,n1378
161.82422,0.34895834,81,58,n1373
162.51562,0.4309896,98,79,n1383
162.15886,0.36979166,99,81,n1379
161.80208,0.37109375,96,82,n1372
162.51692,0.4296875,97,82,n1385
162.15495,0.055989582,79,84,n1376
161.80078,0.044270832,76,86,n1371
162.51562,0.4309896,96,91,n1384
162.15625,0.08984375,99,93,n1377
161.79948,0.3736979,97,94,n1370
162.79036,0.15625,72,41,n1386
163.32031,0.15104167,72,41,n1392
164.0039,0.13151042,75,41,n1398
163.38672,0.70182294,75,48,n1393
164.08855,4.1236978,79,48,n1399
162.8763,0.59505206,78,50,n1387
163.46745,0.66796875,88,57,n1397
164.16406,4.0481772,89,57,n1401
162.96875,0.5026042,88,58,n1391
163.45573,0.6796875,101,81,n1396
164.16536,1.0273438,107,81,n1402
162.95183,0.51953125,100,82,n1390
163.45442,0.68098956,92,84,n1395
162.94402,0.52734375,82,86,n1388
163.45183,0.68359375,107,93,n1394
164.15886,1.03125,107,93,n1400
162.94922,0.52213544,93,94,n1389
165.01302,1.1705729,68,53,n1405
165.09505,1.1627604,72,60,n1406
165.14973,1.1523438,72,63,n1407
165.20442,1.1536459,90,69,n1410
165.625,2.5872395,99,79,n1412
165.1927,1.1419271,101,81,n1409
164.75652,1.5807291,100,84,n1403
164.76042,1.234375,95,89,n1404
165.6198,2.592448,102,91,n1411
165.19011,3.0221355,106,93,n1408
166.1836,0.875,68,53,n1415
166.25781,0.8776042,69,60,n1416
166.30208,0.88411456,76,63,n1417
166.35808,0.9088542,83,69,n1420
165.9948,0.6536458,99,77,n1413
166.64844,0.9244792,93,77,n1422
166.33464,1.2369791,100,81,n1418
166.33723,1.875,87,84,n1419
165.9948,0.6458333,101,89,n1414
166.64062,1.5716146,100,89,n1421
167.0586,0.953125,63,53,n1425
167.13542,0.97265625,65,60,n1426
167.1862,0.9713542,72,63,n1427
167.26692,0.9453125,79,69,n1430
167.2552,0.6302083,97,74,n1429
166.95183,1.2604166,92,75,n1424
167.57292,0.63932294,96,77,n1432
167.57161,0.640625,97,81,n1431
167.25261,0.62890625,97,86,n1428
166.94402,1.2682291,99,87,n1423
168.01172,0.20052083,60,53,n1435
168.10808,1.3424479,63,60,n1436
168.15755,1.2929688,74,63,n1437
168.23177,0.39583334,85,69,n1440
168.62761,0.8229167,100,69,n1442
168.21875,0.8723958,101,72,n1439
167.88542,0.3268229,98,74,n1434
168.6263,0.82421875,103,81,n1441
168.21745,1.2330729,103,84,n1438
167.88152,0.33072916,96,86,n1433
169.26823,0.18229167,64,41,n1445
169.32552,1.0169271,73,48,n1446
169.39583,0.98567706,71,51,n1447
169.45833,1.0013021,80,57,n1450
169.80208,0.6666667,99,67,n1452
169.45312,0.96875,98,69,n1449
169.09114,0.359375,90,72,n1444
169.08855,0.36197916,95,75,n1443
169.80078,0.66796875,99,79,n1451
169.45052,1.0182291,104,81,n1448
170.2552,0.21354167,69,41,n1455
170.34245,0.85286456,57,48,n1456
170.38152,0.859375,73,51,n1457
170.45964,0.8645833,77,57,n1460
170.13933,0.3294271,94,65,n1454
170.73567,0.58984375,94,65,n1462
170.42188,0.9036458,93,69,n1458
170.42317,0.90234375,90,72,n1459
170.13281,0.3359375,94,77,n1453
170.72917,0.5963542,98,77,n1461
171.11848,0.20703125,63,41,n1465
171.19531,0.9401042,59,48,n1466
171.24089,0.95182294,69,51,n1467
171.32422,0.9817708,72,57,n1469
171.32552,0.625,93,62,n1470
171.03645,0.2890625,93,63,n1464
171.63281,0.67317706,95,65,n1472
171.63152,0.6744792,91,69,n1471
171.32031,0.62369794,97,74,n1468
171.03386,0.29166666,92,75,n1463
172.04297,0.26302084,68,41,n1475
172.13542,1.5286459,61,48,n1476
172.1927,1.4648438,68,51,n1477
172.3138,0.4544271,72,57,n1480
172.76823,0.8854167,98,57,n1482
172.3086,0.9765625,95,60,n1479
171.95052,0.35546875,94,62,n1474
172.76562,0.8854167,106,69,n1481
172.30469,1.359375,99,72,n1478
171.94402,0.36197916,97,74,n1473
173.66667,0.84505206,69,41,n1490
173.66406,0.93359375,79,48,n1489
173.65755,0.98046875,83,51,n1488
173.65234,0.9947917,92,53,n1486
173.65364,0.73046875,95,57,n1487
173.28516,0.37890625,91,60,n1484
174.04427,0.60286456,82,60,n1493
173.27864,0.38541666,98,63,n1483
174.03645,0.61067706,86,63,n1492
174.02605,0.62109375,92,67,n1491
173.65105,0.99609375,99,69,n1485
174.51172,0.13541667,64,41,n1496
174.59766,0.13151042,70,48,n1497
174.63802,0.122395836,74,51,n1498
174.38411,0.26302084,83,57,n1495
174.69402,0.057291668,91,57,n1500
175.05469,0.765625,94,57,n1503
174.69661,0.75911456,90,60,n1501
174.6914,0.75651044,96,63,n1499
174.3698,0.33854166,95,65,n1494
175.04948,0.76692706,103,69,n1502
175.83333,1.2278646,68,41,n1511
175.82683,1.3333334,78,48,n1510
175.82422,1.4505209,78,51,n1509
175.81902,1.5377604,91,53,n1507
175.82031,0.9401042,92,57,n1508
175.45573,0.36979166,90,60,n1505
176.25781,1.0989584,85,60,n1514
175.44792,0.37760416,94,63,n1504
176.2539,1.1028646,86,63,n1513
176.24739,1.109375,93,67,n1512
175.8164,1.5403646,98,69,n1506
178.46223,2.641927,77,40,n1526
177.0612,0.2955729,70,41,n1517
177.16016,1.3164062,77,48,n1518
178.46223,2.6796875,77,49,n1527
177.27473,1.2018229,76,51,n1519
178.45833,2.657552,89,52,n1525
176.76042,0.5963542,85,57,n1516
177.38802,1.0651041,95,57,n1522
178.45312,1.1341146,96,57,n1524
177.38152,0.076822914,94,60,n1521
177.37239,1.1041666,96,63,n1520
176.75,0.6067708,95,65,n1515
178.44922,1.1341146,100,69,n1523
179.58723,0.7734375,75,57,n1534
179.32812,0.71223956,50,61,n1529
180.04036,0.64192706,70,61,n1539
179.29297,1.3776041,64,64,n1528
180.01692,1.0963541,84,68,n1536
179.58333,1.5585938,78,69,n1533
179.5586,0.4622396,86,73,n1531
180.02083,0.65625,85,73,n1538
179.56902,0.44791666,73,76,n1532
180.01692,0.6380208,80,76,n1537
179.55078,1.5911459,97,81,n1530
180.01172,1.1302084,102,83,n1535
181.10417,0.23046875,79,40,n1548
181.08464,2.204427,50,47,n1547
181.11589,0.22395833,76,50,n1550
181.11589,0.25390625,75,52,n1551
181.11589,0.79036456,94,56,n1552
180.36067,0.78125,69,57,n1540
180.6823,0.48177084,74,61,n1546
180.67058,0.47135416,73,64,n1544
180.36589,0.7760417,71,66,n1541
181.11328,0.79036456,91,68,n1549
180.67708,0.46484375,66,73,n1545
180.65495,0.48697916,67,76,n1543
180.64583,0.49609375,93,85,n1542
181.90625,0.63932294,77,56,n1559
181.6289,0.609375,61,59,n1553
182.23828,0.6015625,60,59,n1561
181.6289,1.1979166,65,62,n1554
182.22266,1.0664062,71,66,n1560
181.90364,1.3567709,76,68,n1558
181.88281,0.91796875,74,74,n1556
181.89844,0.9036458,77,76,n1557
181.8737,1.4153646,99,86,n1555
183.26562,2.3085938,64,39,n1572
183.26433,2.3411458,67,48,n1571
183.27473,2.311198,74,51,n1573
182.54558,0.71744794,57,56,n1562
183.26302,0.7942708,83,56,n1570
182.83984,0.44921875,54,59,n1568
182.82683,0.47395834,72,62,n1567
182.54558,0.74348956,61,64,n1563
183.26042,0.78776044,85,68,n1569
182.80078,0.48828125,66,74,n1565
182.80208,0.48697916,71,76,n1566
182.78386,0.5052083,88,80,n1564
184.0573,0.76171875,67,56,n1580
183.74348,0.78255206,57,60,n1575
184.52605,0.6432292,64,60,n1585
183.72786,1.4335938,67,63,n1574
184.51172,1.0625,68,67,n1584
184.04817,1.5572916,74,68,n1578
184.04688,0.45572916,67,72,n1577
184.50261,0.640625,74,72,n1582
184.05339,0.45572916,58,75,n1579
184.50911,0.61588544,69,75,n1583
184.01433,1.5911459,99,80,n1576
184.4961,1.109375,104,82,n1581
185.57422,2.1875,65,39,n1593
185.57552,2.1510417,68,46,n1595
185.57942,2.1523438,62,49,n1596
185.58594,2.1757812,65,51,n1598
185.58073,0.76171875,81,55,n1597
184.81902,0.7864583,58,56,n1586
185.16927,0.4361979,68,60,n1592
185.16145,0.4440104,76,63,n1591
184.82683,0.81901044,62,65,n1587
185.57422,0.765625,87,67,n1594
185.14323,0.4622396,58,72,n1590
185.125,0.48046875,71,75,n1589
185.11848,0.48697916,86,84,n1588
186.34245,0.6640625,74,55,n1604
186.0,0.6979167,61,58,n1599
186.69792,0.6354167,55,58,n1607
186.00652,1.3125,65,61,n1600
186.6836,1.078125,65,65,n1606
186.33984,1.421875,76,67,n1603
186.35156,0.9505208,72,73,n1605
186.32422,0.97526044,66,75,n1601
186.32422,1.4375,95,85,n1602
187.74089,0.171875,54,37,n1619
187.72656,0.23307292,69,46,n1616
187.73177,1.2278646,65,49,n1618
187.73047,0.73828125,77,54,n1617
187.00652,0.7552083,55,55,n1609
187.33333,0.4283854,57,58,n1614
187.31902,0.44921875,72,61,n1613
186.9987,0.7630208,67,63,n1608
187.72395,0.73567706,84,66,n1615
187.30208,0.4596354,65,73,n1612
187.29948,0.4622396,66,75,n1611
187.28386,0.4778646,80,79,n1610
188.46875,0.4908854,64,54,n1626
188.17448,0.74869794,60,58,n1621
188.92317,0.63932294,61,58,n1631
188.16797,0.7916667,68,61,n1620
188.90495,1.125,66,65,n1629
188.45964,0.5,75,66,n1625
188.45183,0.4544271,74,70,n1624
188.90625,0.6302083,75,70,n1630
188.44531,0.45833334,69,73,n1622
188.90364,1.1263021,69,73,n1628
188.89192,1.1380209,89,77,n1627
188.44792,0.51171875,89,78,n1623
189.97786,0.17057292,60,37,n1641
189.97786,0.20442708,58,47,n1642
189.98698,0.79557294,61,49,n1643
189.96875,0.7421875,64,53,n1640
189.25781,0.77213544,48,54,n1633
189.5625,0.4674479,57,58,n1638
189.54948,0.48046875,70,61,n1637
189.95703,0.75,78,62,n1639
189.25,0.77994794,65,63,n1632
189.54688,0.4830729,68,66,n1636
189.53645,0.4934896,58,70,n1635
189.52864,0.50130206,78,75,n1634
190.71094,0.3372396,64,53,n1650
190.38152,0.40104166,56,56,n1644
191.05989,0.58463544,47,56,n1653
190.38411,0.3984375,56,59,n1645
191.03777,0.6067708,63,61,n1652
190.70703,0.9375,73,62,n1647
190.70964,0.9348958,64,65,n1649
190.70833,0.93619794,63,68,n1648
190.71223,0.9322917,61,71,n1651
190.6914,0.953125,77,74,n1646
192.11589,0.096354164,51,37,n1664
192.10677,0.12760417,59,46,n1663
192.09766,0.14973958,62,49,n1662
191.36848,0.3658854,53,53,n1654
192.08333,0.72526044,68,54,n1661
191.67317,0.4752604,53,56,n1659
191.3737,0.27083334,57,59,n1655
191.64714,0.50130206,70,65,n1657
192.07942,0.72526044,76,66,n1660
191.63802,0.07421875,75,73,n1656
192.8086,0.49739584,67,54,n1671
192.5013,0.7916667,56,58,n1665
193.29297,0.6614583,57,58,n1676
192.5052,0.81380206,59,61,n1666
193.27473,1.1497396,69,65,n1673
192.80469,0.50130206,69,66,n1670
192.79297,0.48828125,66,70,n1668
193.28125,0.64453125,65,70,n1674
192.80339,0.4856771,61,73,n1669
193.28906,0.63411456,59,73,n1675
193.26302,1.1614584,82,80,n1672
192.77995,0.5260417,86,82,n1667
194.40755,1.078125,53,37,n1686
194.42969,1.0559896,50,47,n1688
194.42058,1.0651041,51,49,n1687
194.38933,0.9973958,58,53,n1685
193.6211,0.80338544,51,54,n1678
193.95442,0.4700521,50,58,n1683
193.9336,0.4908854,59,61,n1682
194.38802,0.99348956,68,62,n1684
193.6198,0.8046875,60,63,n1677
193.92578,0.4986979,50,70,n1681
193.92317,0.50130206,45,73,n1680
193.89323,0.53125,76,78,n1679
195.38672,0.40625,52,53,n1694
194.95703,0.5286458,52,56,n1689
195.81902,0.3059896,40,56,n1697
194.96094,0.52473956,53,59,n1690
195.79817,1.4492188,55,61,n1696
195.38152,0.4752604,64,62,n1693
195.3789,1.8684896,60,68,n1692
195.40755,1.8398438,49,71,n1695
195.3711,1.8763021,66,77,n1691
196.15625,0.6510417,38,53,n1699
196.8073,0.44010416,57,53,n1701
196.48828,1.3320312,44,56,n1700
196.13802,1.109375,53,59,n1698
197.77995,1.4010416,59,49,n1704
197.15886,0.6614583,62,50,n1702
197.47527,0.3580729,42,53,n1703
198.77473,0.40625,50,41,n1707
198.45573,0.72526044,47,44,n1706
198.14192,1.0390625,44,47,n1705
199.92969,1.2513021,50,37,n1710
199.13672,0.90755206,55,38,n1708
199.51953,0.5208333,40,41,n1709
201.07683,1.5390625,42,35,n1712
202.4414,2.2929688,42,36,n1713
200.41406,0.7890625,43,41,n1711
202.97005,0.84244794,36,60,n1714
203.79688,0.9375,39,64,n1718
203.3086,0.50390625,32,65,n1716
203.82031,0.9140625,40,67,n1719
203.29688,0.515625,50,69,n1715
203.77734,2.0377605,58,72,n1717
204.61067,0.13802083,33,35,n1723
204.8073,1.8880209,27,36,n1726
204.46223,0.2721354,44,60,n1722
204.18489,0.5494792,36,62,n1721
204.76823,0.15625,43,64,n1725
204.1823,0.5520833,33,65,n1720
204.76692,0.61328125,54,67,n1724
205.08073,0.734375,51,62,n1727
205.80989,0.13802083,51,65,n1732
205.3802,0.43489584,42,67,n1729
205.79948,0.8958333,65,69,n1731
205.35417,0.4609375,67,70,n1728
205.78125,1.5807291,69,74,n1730
206.56511,0.13020833,42,35,n1736
206.72266,3.8177083,30,36,n1738
206.41536,0.2799479,49,62,n1735
206.15886,0.5364583,40,64,n1734
206.72266,0.3125,49,65,n1739
206.15364,0.5416667,40,67,n1733
206.70703,0.65494794,65,69,n1737
207.03516,0.41927084,55,65,n1740
207.83464,0.46875,61,72,n1745
207.37239,0.48697916,52,74,n1742
207.82942,0.58463544,64,76,n1744
207.35417,0.47135416,71,77,n1741
207.82552,1.0833334,73,77,n1743
208.6211,0.296875,52,65,n1748
208.92839,0.35546875,50,69,n1751
208.29817,0.6197917,50,70,n1747
208.91667,0.3671875,52,72,n1750
208.29036,0.6276042,56,74,n1746
208.90886,0.96744794,72,77,n1749
209.60027,0.27604166,44,65,n1754
209.91536,0.625,43,67,n1757
209.26823,0.60807294,50,70,n1753
209.90886,0.63151044,51,70,n1756
209.25261,0.62369794,58,74,n1752
209.89062,0.75130206,69,77,n1755
210.55339,1.3945312,54,65,n1760
210.27864,0.26171875,46,69,n1759
210.79688,1.1393229,47,69,n1761
210.25261,0.2877604,56,72,n1758
210.95052,1.5117188,60,77,n1762
211.2448,1.1705729,72,84,n1763
211.61719,0.84505206,42,53,n1764
212.33984,0.49739584,37,64,n1768
211.94792,0.51432294,40,65,n1766
212.33203,0.18489583,39,67,n1767
211.9362,0.5260417,45,69,n1765
212.44011,2.0026042,56,72,n1770
212.41536,2.1367188,76,84,n1769
213.08333,0.3997396,50,53,n1773
213.43489,1.0078125,49,60,n1775
212.79297,0.0703125,43,62,n1772
213.42058,1.0221354,51,64,n1774
212.77605,0.70703125,45,65,n1771
213.74089,0.70182294,38,53,n1776
214.3698,0.50651044,44,65,n1779
214.0677,0.375,41,67,n1778
214.3802,0.49609375,51,69,n1780
214.04297,0.3997396,61,70,n1777
215.20183,0.45703125,21,53,n1785
215.51433,0.65755206,48,62,n1786
214.83984,0.0859375,48,64,n1784
215.51692,0.66015625,41,65,n1787
214.82292,0.8359375,54,67,n1783
215.83203,0.8463542,41,53,n1788
216.54297,1.1458334,27,60,n1792
216.17188,0.50651044,35,62,n1789
216.54167,1.1783854,37,64,n1791
216.17708,0.50130206,38,65,n1790
216.67188,1.0143229,51,77,n1794
216.65886,0.9921875,67,89,n1793
217.35938,0.3606771,39,53,n1797
217.6914,0.9505208,46,57,n1801
217.03125,0.68880206,44,58,n1795
217.6888,0.953125,40,60,n1800
217.03777,0.6822917,46,62,n1796
217.6862,0.9557292,49,77,n1799
217.65105,0.98307294,71,89,n1798
218.3073,0.3346354,50,53,n1804
218.58464,0.3919271,40,55,n1806
217.97005,0.5911458,55,58,n1802
218.5612,0.4700521,52,58,n1805
217.97656,0.66536456,57,62,n1803
218.65105,1.1080729,59,77,n1808
218.63411,1.125,80,89,n1807
219.28516,1.2213541,50,53,n1811
218.93489,0.68619794,54,57,n1809
219.6211,0.8854167,52,57,n1812
218.95183,0.8072917,50,60,n1810
219.77214,1.1510416,62,84,n1814
219.7552,1.1497396,80,96,n1813
220.1875,0.73567706,48,41,n1815
220.84375,0.50390625,48,52,n1819
220.50652,0.41666666,50,53,n1816
220.84245,0.5052083,45,55,n1818
220.50652,0.41666666,51,57,n1817
220.92969,0.97005206,57,84,n1821
220.90495,0.9817708,75,96,n1820
221.60677,0.74348956,50,41,n1824
221.91927,0.4309896,46,48,n1828
221.30208,0.078125,50,50,n1823
221.91667,0.43359375,46,52,n1827
221.29036,0.65234375,52,53,n1822
221.89973,0.059895832,49,84,n1826
221.88672,1.0533854,66,96,n1825
222.58723,0.37760416,47,41,n1832
222.98698,1.6705729,36,46,n1836
222.25911,0.7057292,47,50,n1831
222.97136,1.6861979,36,50,n1835
222.2539,0.7109375,47,53,n1830
222.96484,1.6927084,44,84,n1834
222.94011,1.7174479,60,96,n1833
223.79817,1.4231771,38,41,n1839
224.53645,1.5533854,36,45,n1840
223.34895,1.1927084,47,48,n1837
224.54167,1.6445312,25,48,n1841
223.36067,1.296875,45,52,n1838
224.64323,4.8294272,45,89,n1843
224.6237,4.841146,58,101,n1842
226.10286,0.7135417,38,38,n1848
225.67188,0.51432294,46,40,n1845
225.22136,0.8645833,42,41,n1844
226.08594,1.0859375,46,41,n1846
226.08984,1.0872396,44,45,n1847
227.18098,0.33984375,40,36,n1853
226.8164,0.3971354,37,38,n1850
226.49219,0.7213542,42,40,n1849
227.17188,1.0859375,39,41,n1851
227.17708,1.0625,41,45,n1852
228.25652,0.7265625,39,34,n1857
227.86198,0.4296875,36,36,n1855
227.52083,0.7708333,39,38,n1854
228.25781,1.1067709,30,41,n1858
228.23958,1.2708334,30,45,n1856
229.2513,0.2591146,23,33,n1861
228.98308,0.52734375,31,34,n1860
228.63411,0.87630206,33,36,n1859
229.36458,0.2578125,38,41,n1862
229.48308,1.2851562,46,48,n1865
229.47266,2.373698,41,89,n1864
229.46484,2.359375,52,101,n1863
230.75781,0.70703125,34,38,n1869
230.33984,0.4283854,47,40,n1867
229.92448,0.83984375,43,41,n1866
230.76433,1.0846354,33,41,n1870
230.74348,1.1263021,45,45,n1868
231.86067,0.7473958,36,36,n1876
231.46484,0.4388021,42,38,n1872
231.1289,0.77473956,44,40,n1871
231.84895,1.1848959,35,41,n1875
231.8698,1.1731771,37,45,n1877
231.84636,3.1054688,46,89,n1874
231.82422,3.1158855,63,101,n1873
233.04427,0.421875,45,34,n1882
232.60808,0.5026042,42,36,n1879
232.21875,0.89192706,40,38,n1878
233.03386,1.5807291,38,41,n1880
233.04297,2.0091145,42,45,n1881
234.45442,0.59765625,33,33,n1885
233.97266,1.0794271,30,34,n1884
233.47527,1.5768229,44,36,n1883
234.61458,1.1510416,35,41,n1886
234.97656,1.4427084,45,48,n1889
234.95183,3.0546875,48,89,n1888
234.94011,3.1666667,54,101,n1887
237.3164,2.5729167,40,38,n1894
236.4388,0.9088542,53,40,n1891
235.76562,0.7942708,50,41,n1890
237.30208,3.9596355,39,41,n1893
237.29688,3.1197917,45,45,n1892
241.27083,1.7122396,47,34,n1898
240.45312,0.85807294,51,36,n1896
239.88933,0.7161458,49,38,n1895
241.26172,3.046875,32,41,n1897
241.32292,2.985677,12,45,n1899
242.85417,1.2018229,47,35,n1900
244.05598,0.25260416,48,35,n1901
244.26042,0.18619792,55,36,n1902
244.48438,0.45833334,51,38,n1903
247.94661,2.5273438,40,33,n1907
244.9362,3.1796875,42,36,n1906
244.9336,3.1822917,40,41,n1905
244.9323,5.5416665,43,45,n1904
250.33723,10.222656,30,29,n1908
250.89453,9.665364,34,41,n1909
252.32812,8.2317705,29,45,n1910
