onset_sec,duration_sec,velocity,pitch,id
0.6330122,0.05475422,57,38,n1
0.9188025,0.04540594,54,38,n5
1.2059283,0.040064063,45,38,n8
1.4583318,0.046741407,48,38,n11
0.5088136,0.037393127,68,50,n0
0.6370186,0.05074781,65,50,n2
0.76923,0.036057655,73,50,n3
0.897435,0.05208328,65,50,n4
1.051014,0.036057655,67,50,n6
1.1792189,0.048076876,65,50,n7
1.324785,0.036057655,68,50,n9
1.4489836,0.04540594,69,50,n10
1.7401158,0.042735,51,38,n14
2.011216,0.04540594,49,38,n17
1.5785241,0.034722187,80,50,n12
1.7174128,0.05074781,62,50,n13
1.854966,0.036057655,74,50,n15
1.988513,0.05341875,67,50,n16
2.262284,0.05074781,51,38,n20
2.536055,0.048076876,55,38,n23
2.1220598,0.040064063,71,50,n18
2.250265,0.046741407,64,50,n19
2.3811407,0.036057655,77,50,n21
2.5146875,0.05208328,63,50,n22
2.8271873,0.04139953,45,38,n26
3.0835974,0.049412344,48,38,n29
2.6562474,0.038728595,68,50,n24
2.7991426,0.05208328,64,50,n25
2.9179993,0.037393127,66,50,n27
3.0662363,0.05341875,61,50,n28
3.3400073,0.048076876,54,38,n32
3.6030946,0.058760624,53,38,n35
3.187764,0.034722187,76,50,n30
3.315969,0.058760624,64,50,n31
3.4508512,0.038728595,67,50,n33
3.584398,0.05074781,64,50,n34
3.8782012,0.048076876,54,38,n38
4.1493015,0.044070467,52,38,n41
3.7286286,0.034722187,74,50,n36
3.8568337,0.05074781,63,50,n37
3.9903805,0.042735,68,50,n39
4.1252627,0.048076876,67,50,n40
4.393692,0.04540594,53,38,n44
4.660786,0.16159172,54,38,n46
4.248126,0.04139953,70,50,n42
4.381673,0.04139953,70,50,n43
4.492517,0.046741407,81,50,n45
4.660786,0.16159172,57,50,n47
4.92788,0.042735,58,38,n51
5.1882963,0.042735,50,38,n55
4.7729654,0.049412344,83,48,n49
5.0440655,0.036057655,61,48,n52
4.917196,0.04139953,73,50,n50
5.180283,0.038728595,65,50,n54
4.768959,0.05341875,83,52,n48
5.048072,0.029380312,57,52,n53
5.4393644,0.046741407,51,38,n59
5.7131352,0.048076876,58,38,n63
5.3004756,0.04139953,60,48,n57
5.5595565,0.042735,60,48,n61
5.432687,0.04139953,62,50,n58
5.7051225,0.04139953,67,50,n62
5.29914,0.036057655,60,52,n56
5.558221,0.036057655,63,52,n60
5.972216,0.040064063,48,38,n67
6.2126007,0.049412344,51,38,n71
5.8306565,0.04139953,61,48,n65
6.0843954,0.04139953,60,48,n69
5.9561906,0.04139953,66,50,n66
6.2099295,0.044070467,65,50,n70
5.829321,0.038728595,63,52,n64
6.079054,0.04139953,64,52,n68
6.470346,0.046741407,56,38,n75
6.7361045,0.1068375,52,38,n79
6.336799,0.04139953,62,48,n73
6.59588,0.037393127,59,48,n77
6.467675,0.040064063,65,50,n74
6.721414,0.12152766,67,50,n78
6.3341284,0.040064063,60,52,n72
6.5878673,0.036057655,65,52,n76
7.0018625,0.048076876,54,38,n82
7.262279,0.048076876,55,38,n85
6.854961,0.037393127,79,50,n80
6.9991918,0.040064063,62,50,n81
7.116713,0.036057655,77,50,n83
7.2462535,0.049412344,65,50,n84
7.516018,0.05208328,52,38,n88
7.784447,0.05074781,55,38,n91
7.3771296,0.040064063,72,50,n86
7.50667,0.05341875,64,50,n87
7.632204,0.046741407,73,50,n89
7.7684216,0.056089688,65,50,n90
8.039522,0.05208328,53,38,n94
8.301273,0.049412344,54,38,n97
7.8952913,0.038728595,67,50,n92
8.026167,0.05341875,65,50,n93
8.157043,0.040064063,66,50,n95
8.2825775,0.05208328,69,50,n96
8.557684,0.046741407,54,38,n100
8.822106,0.15624985,49,38,n103
8.4174595,0.040064063,68,50,n98
8.544329,0.049412344,65,50,n99
8.685888,0.040064063,76,50,n101
8.804746,0.17361094,73,50,n102
9.069168,0.048076876,52,38,n107
9.348281,0.040064063,52,38,n111
8.939628,0.038728595,77,48,n105
9.209393,0.03071578,58,48,n109
9.061155,0.046741407,68,50,n106
9.338933,0.040064063,65,50,n110
8.935621,0.042735,79,52,n104
9.20138,0.036057655,67,52,n108
9.600685,0.04139953,47,38,n115
9.8544235,0.16559812,55,38,n119
9.463132,0.04139953,58,48,n113
9.738238,0.037393127,60,48,n117
9.591336,0.04540594,64,50,n114
9.845076,0.17494641,74,50,n118
9.455119,0.036057655,64,52,n112
9.730226,0.03205125,74,52,n116
10.133537,0.04139953,56,38,n124
10.407308,0.038728595,50,38,n129
9.973281,0.056089688,69,48,n120
10.265748,0.036057655,69,48,n125
10.124188,0.037393127,77,50,n123
10.399295,0.044070467,65,50,n128
9.983964,0.036057655,79,52,n121
10.272426,0.029380312,56,52,n127
9.990642,0.03338672,84,55,n122
10.268419,0.038728595,71,55,n126
10.687757,0.04139953,49,38,n134
10.9374895,0.048076876,52,38,n138
10.528835,0.040064063,62,48,n130
10.678408,0.04139953,66,50,n133
10.805278,0.042735,72,50,n135
10.929476,0.03205125,60,50,n137
10.534178,0.044070467,45,52,n131
10.948173,0.034722187,73,52,n139
10.811955,0.04139953,68,53,n136
10.538184,0.037393127,65,55,n132
11.223279,0.046741407,54,38,n142
11.47969,0.04540594,53,38,n144
11.06703,0.05208328,86,50,n140
11.21126,0.044070467,58,50,n141
11.36751,0.042735,41,50,n143
11.4890375,0.034722187,48,50,n145
11.760138,0.040064063,45,38,n147
12.015212,0.049412344,44,38,n151
11.615907,0.044070467,55,50,n146
11.770822,0.036057655,50,50,n148
11.868311,0.037393127,62,50,n149
12.004529,0.04540594,61,50,n150
12.26361,0.04540594,50,38,n154
12.499988,0.04139953,48,38,n157
12.132733,0.03071578,62,50,n152
12.2596035,0.038728595,66,50,n153
12.374454,0.038728595,76,50,n155
12.485297,0.036057655,70,50,n156
12.765746,0.07745719,76,38,n160
13.034175,0.06276703,72,38,n163
12.617509,0.14556609,104,50,n158
12.763075,0.06944437,95,50,n159
13.022156,0.4059825,90,50,n162
12.888609,0.044070467,106,63,n161
13.302605,0.13354687,71,38,n168
13.563021,0.060096093,53,38,n171
13.21847,0.21768141,17,39,n166
13.428139,0.037393127,100,50,n169
13.295927,0.14022422,96,51,n167
13.54833,0.06276703,74,52,n170
13.823437,0.060096093,48,38,n174
14.082518,0.070779845,63,38,n177
13.68989,0.037393127,80,50,n172
13.928939,0.04139953,77,50,n175
14.297528,0.097489215,90,38,n181
14.623383,0.060096093,34,38,n185
14.181343,0.213675,101,48,n178
14.455113,0.044070467,88,50,n183
14.599344,0.049412344,60,50,n184
14.184013,0.21100406,93,51,n179
14.185349,0.20966859,94,54,n180
14.85709,0.048076876,51,38,n187
15.116171,0.09214734,62,38,n191
14.732891,0.038728595,76,50,n186
14.861096,0.040064063,65,50,n188
14.981289,0.120192185,74,50,n189
15.1014805,0.11485031,78,50,n190
15.208318,0.03071578,81,38,n192
15.363233,0.05341875,54,38,n193
15.495444,0.046741407,44,38,n195
15.666384,0.05074781,35,38,n197
15.365904,0.042735,67,50,n194
15.627655,0.05074781,60,50,n196
15.759867,0.04540594,54,38,n198
15.920123,0.05074781,36,38,n200
16.008265,0.037393127,58,38,n201
16.148489,0.048076876,59,38,n202
15.892078,0.04139953,58,50,n199
16.159172,0.037393127,56,50,n203
16.406233,0.056089688,50,38,n206
16.671991,0.04540594,52,38,n208
16.278028,0.03205125,74,50,n204
16.391544,0.05475422,68,50,n205
16.543787,0.037393127,47,50,n207
16.689352,0.034722187,52,50,n209
16.944427,0.046741407,46,38,n211
17.187483,0.04540594,51,38,n216
17.051266,0.038728595,63,49,n214
16.806873,0.036057655,55,50,n210
16.94977,0.03338672,54,50,n212
17.178135,0.04139953,69,50,n215
17.045923,0.034722187,71,51,n213
17.451906,0.05208328,42,38,n220
17.728348,0.042735,45,38,n224
17.307674,0.037393127,68,48,n218
17.564085,0.036057655,47,48,n221
17.447899,0.046741407,58,50,n219
17.727013,0.046741407,52,50,n223
17.298326,0.038728595,76,52,n217
17.564085,0.038728595,59,52,n222
17.986094,0.05475422,44,38,n228
18.25853,0.04540594,42,38,n232
17.832514,0.046741407,53,48,n226
18.10228,0.034722187,50,48,n230
17.982086,0.057425156,55,50,n227
18.24918,0.049412344,55,50,n231
17.828508,0.05208328,55,52,n225
18.099607,0.04139953,60,52,n229
18.510933,0.049412344,41,38,n236
18.766006,0.05208328,48,38,n240
18.353348,0.04139953,56,48,n233
18.61777,0.042735,51,48,n238
18.504255,0.049412344,57,50,n235
18.762001,0.044070467,59,50,n239
18.354683,0.04139953,56,52,n234
18.607086,0.048076876,58,52,n237
19.01841,0.046741407,50,38,n244
19.270815,0.10550203,51,38,n248
18.87685,0.04139953,64,48,n241
19.139938,0.04139953,60,48,n246
19.007727,0.05341875,61,50,n243
19.253452,0.12286312,73,50,n247
18.880857,0.046741407,64,52,n242
19.13326,0.044070467,66,52,n245
19.521883,0.049412344,53,38,n253
19.81702,0.044070467,45,38,n258
19.378986,0.03205125,84,48,n251
19.674126,0.040064063,61,48,n255
19.507193,0.046741407,74,50,n252
19.80233,0.046741407,59,50,n257
19.376316,0.040064063,80,52,n249
19.674126,0.040064063,57,52,n256
19.377651,0.037393127,84,55,n250
19.670118,0.040064063,57,55,n254
20.076101,0.044070467,42,38,n263
20.35388,0.044070467,44,38,n268
19.945227,0.037393127,57,48,n260
20.218996,0.03205125,55,48,n265
20.068089,0.05341875,66,50,n262
20.351208,0.046741407,57,50,n267
19.947897,0.036057655,42,52,n261
20.220333,0.037393127,39,52,n266
19.939884,0.04540594,63,55,n259
20.21766,0.04139953,60,55,n264
20.606283,0.0641025,46,38,n273
20.888067,0.048076876,44,38,n278
20.478077,0.040064063,55,48,n270
20.761198,0.03205125,50,48,n276
20.594263,0.07345078,61,50,n272
20.88406,0.04139953,53,50,n277
20.470064,0.04540594,55,52,n269
20.753185,0.04139953,46,52,n275
20.487427,0.04139953,60,55,n271
20.749178,0.05208328,63,55,n274
21.144476,0.05341875,46,38,n282
21.392874,0.037393127,49,38,n286
21.017607,0.044070467,55,48,n280
21.145813,0.05208328,52,50,n283
21.28203,0.038728595,59,50,n285
21.400887,0.037393127,44,50,n287
21.014936,0.048076876,55,52,n279
21.406229,0.040064063,74,52,n288
21.271347,0.046741407,62,53,n284
21.021614,0.05341875,64,55,n281
21.686678,0.05475422,51,38,n291
21.969797,0.05208328,51,38,n294
21.525085,0.048076876,84,50,n289
21.68267,0.042735,52,50,n290
21.828238,0.038728595,67,50,n292
21.961784,0.048076876,60,50,n293
22.235554,0.05341875,48,38,n297
22.50532,0.05074781,47,38,n300
22.079306,0.038728595,68,50,n295
22.219528,0.05475422,60,50,n296
22.353075,0.036057655,73,50,n298
22.485287,0.058760624,60,50,n299
22.772413,0.057425156,51,38,n303
23.054197,0.05208328,37,38,n306
22.621506,0.05074781,68,50,n301
22.765736,0.05341875,60,50,n302
22.89127,0.040064063,71,50,n304
23.028824,0.060096093,58,50,n305
23.305265,0.056089688,47,38,n309
23.567017,0.056089688,45,38,n311
23.15302,0.036057655,67,50,n307
23.297253,0.049412344,50,50,n308
23.4308,0.040064063,62,50,n310
23.576365,0.04540594,54,50,n312
23.84613,0.056089688,48,38,n315
24.122572,0.049412344,45,38,n317
23.700563,0.04139953,70,50,n313
23.840788,0.049412344,57,50,n314
23.98769,0.036057655,61,50,n316
24.14661,0.04139953,40,50,n318
24.404356,0.05074781,45,38,n321
24.67145,0.05074781,48,38,n323
24.250776,0.037393127,63,50,n319
24.38833,0.049412344,58,50,n320
24.531225,0.04139953,62,50,n322
24.692818,0.037393127,46,50,n324
24.941214,0.05074781,49,38,n326
25.21098,0.04540594,47,38,n329
24.81301,0.03071578,61,50,n325
24.95724,0.036057655,49,50,n327
25.088116,0.03071578,59,50,n328
25.235018,0.042735,39,50,n330
25.479408,0.04540594,55,38,n332
25.357882,0.03338672,53,50,n331
25.486086,0.036057655,59,50,n333
25.610285,0.049412344,73,50,n334
25.747837,0.04139953,67,53,n335
26.15115,0.04540594,71,53,n340
25.877378,0.042735,69,57,n336
26.029621,0.036057655,63,57,n338
26.275347,0.05341875,58,57,n341
25.881384,0.034722187,77,58,n337
26.137794,0.03338672,73,59,n339
26.68133,0.044070467,67,48,n346
26.414236,0.038728595,58,49,n342
26.422249,0.036057655,66,50,n343
26.5371,0.042735,75,50,n344
26.679995,0.042735,71,50,n345
26.808199,0.046741407,69,53,n347
27.222195,0.046741407,66,53,n352
26.936405,0.05341875,72,57,n348
27.075293,0.038728595,65,57,n350
27.334373,0.05074781,56,57,n353
26.947088,0.03205125,78,59,n349
27.214182,0.03205125,75,60,n351
27.469257,0.040064063,75,47,n354
27.485283,0.038728595,62,50,n355
27.60681,0.058760624,75,50,n356
27.751041,0.056089688,61,50,n358
27.881916,0.05208328,65,53,n359
27.749704,0.03205125,83,61,n357
28.282557,0.058760624,73,46,n363
28.293242,0.038728595,70,53,n364
28.00745,0.05208328,68,57,n360
28.14634,0.037393127,62,57,n362
28.422781,0.040064063,68,57,n365
28.018135,0.036057655,79,62,n361
28.568348,0.05074781,79,45,n367
28.56167,0.037393127,69,50,n366
28.687204,0.048076876,76,50,n368
28.827429,0.0641025,75,50,n369
28.967653,0.057425156,72,53,n371
28.84212,0.036057655,93,63,n370
29.155954,0.04540594,41,44,n373
29.381647,0.048076876,77,53,n376
29.105206,0.04540594,70,57,n372
29.238752,0.046741407,73,57,n374
29.50184,0.044070467,72,57,n377
29.366959,0.029380312,87,64,n375
29.640728,0.28044844,77,43,n378
29.640728,0.12286312,69,50,n379
29.763592,0.11485031,77,50,n380
29.92919,0.040064063,70,55,n381
30.066744,0.042735,62,58,n382
30.464714,0.057425156,71,58,n386
30.196283,0.042735,68,62,n383
30.336508,0.042735,54,62,n385
30.584906,0.05074781,61,62,n388
30.216316,0.038728595,68,63,n384
30.472727,0.037393127,68,64,n387
31.00825,0.04540594,68,53,n393
30.741156,0.058760624,69,54,n390
30.734478,0.04540594,72,55,n389
30.880043,0.036057655,69,55,n391
31.004242,0.060096093,69,55,n392
31.139124,0.04540594,73,58,n394
31.551785,0.05341875,71,58,n399
31.274008,0.048076876,70,62,n395
31.407555,0.042735,63,62,n397
31.688002,0.046741407,62,62,n400
31.276678,0.03205125,75,64,n396
31.543772,0.029380312,76,65,n398
31.80953,0.034722187,77,52,n401
31.821548,0.04139953,70,55,n402
31.960438,0.036057655,74,55,n403
32.087307,0.058760624,70,55,n404
32.226196,0.060096093,71,58,n406
32.089977,0.028044844,85,66,n405
32.630844,0.056089688,75,51,n410
32.64019,0.056089688,74,58,n411
32.36909,0.05208328,71,62,n408
32.506645,0.040064063,62,62,n409
32.77908,0.044070467,62,62,n412
32.36108,0.026709376,89,67,n407
32.919304,0.05475422,78,50,n414
32.9153,0.042735,70,55,n413
33.058193,0.037393127,71,55,n415
33.182392,0.06677344,75,55,n416
33.322617,0.048076876,74,58,n418
33.185062,0.037393127,89,68,n417
33.46284,0.04540594,77,49,n420
33.73928,0.060096093,77,58,n423
33.45616,0.044070467,73,62,n419
33.58437,0.037393127,69,62,n421
33.868824,0.036057655,65,62,n425
33.732605,0.03071578,93,69,n422
34.01439,0.24305531,79,48,n427
34.00237,0.042735,77,55,n426
34.133247,0.10149562,81,55,n428
34.281483,0.037393127,75,55,n429
34.394997,0.065437965,74,56,n430
34.80632,0.057425156,70,43,n435
34.567272,0.058760624,58,57,n433
34.79831,0.05341875,75,57,n434
34.533886,0.08279906,66,58,n431
34.943874,0.065437965,63,58,n436
34.555252,0.040064063,65,63,n432
35.336502,0.042735,80,37,n440
35.214977,0.05074781,58,58,n439
35.100124,0.05074781,61,59,n438
35.339172,0.056089688,69,59,n441
35.46337,0.05074781,57,60,n442
35.073418,0.024038438,89,69,n437
35.88805,0.058760624,75,43,n447
35.74382,0.05074781,70,60,n446
35.627636,0.07745719,65,61,n445
35.89206,0.07211531,74,61,n448
35.566204,0.078792654,60,62,n443
36.02427,0.038728595,62,62,n449
35.598255,0.024038438,88,64,n444
36.399536,0.040064063,78,37,n453
36.17251,0.07211531,69,63,n451
36.300713,0.07211531,68,64,n452
36.418232,0.11885672,64,65,n454
36.55712,0.102831095,69,66,n455
36.144463,0.025373906,89,69,n450
37.07929,0.17094,79,65,n464
36.804184,0.05208328,76,66,n459
36.951084,0.13087593,86,66,n460
36.68666,0.16960452,74,67,n456
36.700016,0.037393127,75,68,n458
36.97913,0.39396328,62,68,n463
36.69868,0.025373906,80,72,n457
36.960434,0.5502131,77,76,n461
36.96177,0.54887766,94,80,n462
37.625496,0.05208328,72,63,n473
37.361073,0.13621782,81,64,n466
37.49729,0.110843904,75,64,n471
37.25023,0.26041642,82,65,n465
37.373093,0.13755327,66,68,n468
37.50664,0.15224344,75,74,n472
37.393124,0.11752125,68,75,n469
37.495956,0.07211531,103,78,n470
37.363743,0.14690156,89,79,n467
38.177044,0.042735,62,61,n484
37.90461,0.04540594,68,62,n478
38.06887,0.080128126,69,62,n481
37.796436,0.07745719,74,63,n475
37.817802,0.06944437,65,68,n477
38.05418,0.084134534,63,68,n479
38.06086,0.065437965,58,70,n480
37.7951,0.056089688,65,72,n474
38.08089,0.026709376,52,76,n483
37.79777,0.037393127,71,80,n476
38.587032,0.0641025,68,58,n491
38.71123,0.048076876,57,59,n494
38.441467,0.057425156,58,60,n489
38.33196,0.065437965,69,61,n487
38.330624,0.065437965,49,68,n486
38.592377,0.04139953,56,68,n492
38.33463,0.05074781,44,70,n488
38.59371,0.037393127,41,70,n493
38.57902,0.034722187,65,74,n490
38.322613,0.070779845,70,75,n485
39.10787,0.042735,77,46,n500
38.972984,0.05074781,67,59,n498
38.85947,0.058760624,71,60,n497
39.106533,0.05208328,65,60,n499
38.80605,0.05341875,65,61,n495
39.252098,0.070779845,66,61,n501
38.848785,0.03338672,75,66,n496
39.63137,0.06143156,80,40,n505
39.50717,0.07745719,71,61,n504
39.373627,0.06944437,73,62,n502
39.656746,0.06810891,78,62,n506
39.77293,0.06810891,70,63,n507
39.376297,0.03205125,78,72,n503
40.160217,0.048076876,79,46,n512
40.04804,0.05208328,68,63,n511
39.925175,0.1068375,76,64,n510
40.184254,0.06677344,77,64,n513
39.893124,0.080128126,73,65,n508
40.28575,0.065437965,71,65,n514
39.893124,0.034722187,99,67,n509
40.706425,0.05475422,87,40,n520
40.431316,0.07612172,74,66,n515
40.564865,0.07612172,60,67,n517
40.694405,0.102831095,73,68,n519
40.811924,0.11351484,73,69,n521
40.433987,0.02270297,94,72,n516
41.38217,0.065437965,73,68,n530
41.091038,0.070779845,76,69,n524
41.247288,0.13488235,84,69,n526
40.9615,0.19097203,88,70,n522
41.259308,0.1963139,70,71,n528
40.97619,0.03205125,88,75,n523
41.25263,0.52751017,69,79,n527
41.241947,0.5381939,100,83,n525
41.92704,0.04540594,61,66,n540
41.66796,0.112179376,74,67,n532
41.78815,0.093482815,65,67,n536
41.533077,0.24706171,72,68,n531
41.716038,0.07612172,33,71,n534
41.80418,0.10149562,56,71,n538
41.810856,0.08680547,72,77,n539
41.740074,0.057425156,18,78,n535
41.796165,0.07211531,91,81,n537
41.66796,0.112179376,80,82,n533
42.470577,0.04540594,56,64,n550
42.208824,0.042735,61,65,n545
42.353054,0.08680547,67,65,n547
42.07528,0.11351484,75,66,n541
42.12202,0.046741407,51,71,n544
42.357063,0.084134534,53,71,n548
42.3811,0.05074781,55,73,n549
42.093975,0.084134534,66,75,n543
42.34905,0.056089688,72,79,n546
42.08596,0.044070467,80,83,n542
42.90861,0.044070467,67,55,n559
43.016785,0.05341875,71,58,n560
42.895256,0.044070467,75,62,n558
42.748356,0.042735,59,63,n555
42.62015,0.09615375,68,64,n552
42.889915,0.04139953,74,70,n557
42.62015,0.07211531,51,71,n553
42.633503,0.07345078,53,73,n554
42.616142,0.088140935,68,78,n551
42.887245,0.037393127,70,79,n556
43.43345,0.04139953,75,54,n567
43.193066,0.03071578,44,55,n563
43.42811,0.080128126,73,58,n566
43.173035,0.042735,60,62,n562
43.297234,0.046741407,70,62,n564
43.550972,0.060096093,66,62,n568
43.15033,0.03205125,82,63,n561
43.421432,0.028044844,85,64,n565
43.967636,0.040064063,76,41,n574
43.715233,0.036057655,70,42,n571
43.967636,0.057425156,90,53,n575
43.703217,0.03338672,79,54,n570
43.6952,0.048076876,74,55,n569
43.843437,0.037393127,67,55,n572
43.962296,0.06810891,81,55,n573
44.098515,0.06276703,76,58,n576
44.50049,0.042735,81,53,n583
44.24141,0.034722187,83,54,n579
44.495148,0.093482815,76,58,n582
44.23206,0.05475422,76,62,n577
44.366943,0.06944437,70,62,n580
44.62068,0.06944437,72,62,n584
44.23473,0.037393127,92,64,n578
44.491142,0.025373906,89,65,n581
44.775597,0.042735,67,40,n587
44.763577,0.05475422,91,52,n585
44.770256,0.060096093,80,55,n586
44.90914,0.065437965,77,55,n588
45.044025,0.06677344,77,55,n590
45.173565,0.049412344,79,58,n593
45.073406,0.03071578,48,60,n591
45.07741,0.04540594,35,63,n592
45.03735,0.040064063,89,66,n589
45.58222,0.036057655,79,39,n601
45.574207,0.03071578,80,51,n600
45.31646,0.040064063,77,57,n597
45.5702,0.07211531,81,58,n599
45.31112,0.05074781,82,62,n595
45.43799,0.044070467,69,62,n598
45.71176,0.048076876,72,62,n602
45.30845,0.038728595,77,63,n594
45.31379,0.029380312,75,67,n596
45.864002,0.13354687,78,38,n605
45.851986,0.14556609,96,50,n604
45.845306,0.12954047,85,55,n603
45.974846,0.065437965,77,55,n606
46.123085,0.07211531,85,55,n608
46.2593,0.06276703,81,58,n610
46.72805,0.044070467,28,60,n618
46.116405,0.04139953,96,68,n607
46.406204,0.20566219,84,37,n612
46.394184,0.03205125,105,49,n611
46.677303,0.110843904,97,58,n616
46.697334,0.025373906,64,61,n617
46.41021,0.12419859,81,62,n613
46.53441,0.07745719,84,62,n614
46.810852,0.06810891,82,62,n620
46.673298,0.02270297,86,69,n615
46.977783,0.25641,65,36,n623
46.959087,0.27510655,96,48,n622
46.951077,0.13755327,89,55,n621
47.088627,0.14556609,74,55,n624
47.227516,0.048076876,83,60,n625
47.3624,0.04540594,72,63,n626
47.76972,0.034722187,66,59,n633
47.502625,0.037393127,62,60,n629
47.761703,0.07745719,73,63,n632
47.487934,0.048076876,76,67,n627
47.614803,0.06677344,65,67,n630
47.895252,0.05074781,64,67,n634
47.49461,0.042735,75,68,n628
47.755028,0.028044844,83,69,n631
48.297226,0.040064063,74,46,n641
48.03414,0.036057655,64,47,n637
48.286545,0.05074781,88,58,n639
48.02212,0.03205125,78,59,n635
48.026127,0.044070467,71,60,n636
48.155666,0.042735,68,60,n638
48.289215,0.058760624,73,60,n640
48.41742,0.049412344,75,63,n642
48.834087,0.049412344,81,58,n649
48.572334,0.0213675,79,59,n645
48.828743,0.078792654,75,63,n648
48.552303,0.06276703,78,67,n643
48.695198,0.06810891,66,67,n647
48.9476,0.07345078,68,67,n651
48.565655,0.038728595,87,69,n644
48.835423,0.03071578,76,70,n650
49.10919,0.034722187,78,45,n654
49.09717,0.046741407,94,57,n653
49.095837,0.048076876,81,60,n652
49.22404,0.065437965,79,60,n655
49.368275,0.078792654,81,60,n656
49.495144,0.065437965,80,63,n660
49.3843,0.034722187,68,65,n659
49.37495,0.05074781,78,68,n658
49.368275,0.044070467,90,71,n657
49.9265,0.04139953,81,44,n667
49.921158,0.03205125,86,56,n666
49.676765,0.03338672,71,62,n664
49.9265,0.06810891,85,63,n668
49.642044,0.07612172,85,67,n662
49.78761,0.06276703,76,67,n665
50.054703,0.06143156,73,67,n669
49.63804,0.07345078,86,68,n661
49.662075,0.024038438,86,72,n663
50.196262,0.03071578,79,43,n671
50.184246,0.058760624,98,55,n670
50.198936,0.060096093,84,60,n672
50.32714,0.06810891,75,60,n673
50.470036,0.07345078,80,60,n675
50.604916,0.06810891,82,63,n678
50.455345,0.044070467,98,73,n674
50.75716,0.03338672,91,42,n680
50.746475,0.037393127,106,54,n679
51.033604,0.08547,89,63,n685
51.02826,0.029380312,86,66,n684
50.758495,0.060096093,85,67,n681
50.8867,0.08146359,80,67,n682
51.159138,0.08279906,63,67,n687
51.02025,0.025373906,92,74,n683
51.314053,0.2951386,83,41,n690
51.304703,0.30448687,94,53,n689
51.606518,0.03071578,59,58,n694
51.303368,0.12419859,83,60,n688
51.427567,0.18162376,70,60,n691
51.728046,0.037393127,58,62,n695
51.581146,0.028044844,78,66,n692
51.593163,0.048076876,82,67,n693
51.737396,0.048076876,73,70,n696
51.900322,0.102831095,51,52,n698
51.904327,0.084134534,54,57,n699
52.01517,0.03205125,52,58,n701
52.14204,0.08547,72,58,n703
52.274254,0.04139953,54,62,n705
52.13937,0.06944437,78,65,n702
52.144714,0.07211531,81,70,n704
51.872276,0.044070467,72,74,n697
52.003155,0.036057655,71,74,n700
52.276924,0.044070467,68,74,n706
52.44386,0.06810891,50,52,n709
52.423824,0.10416656,66,57,n708
52.562714,0.04540594,31,58,n711
52.716293,0.04540594,70,58,n714
52.819126,0.038728595,65,62,n715
52.696262,0.06276703,79,64,n712
52.413143,0.048076876,75,67,n707
52.54936,0.058760624,77,67,n710
52.700268,0.060096093,80,67,n713
52.8258,0.06677344,75,70,n716
52.9914,0.070779845,59,52,n719
52.98205,0.09481828,69,57,n718
53.090225,0.040064063,71,58,n720
53.249146,0.05341875,59,58,n724
53.297222,0.08680547,43,62,n725
53.234455,0.03071578,78,63,n723
52.966026,0.06143156,84,74,n717
53.10358,0.07211531,78,74,n721
53.226444,0.110843904,101,79,n722
53.514904,0.14423062,63,52,n727
53.796688,0.23904891,58,55,n732
53.520245,0.13888875,61,57,n728
53.625748,0.044070467,50,58,n729
53.80203,0.23370703,38,59,n733
53.89284,0.14289516,44,60,n734
53.500214,0.04139953,84,73,n726
53.938248,0.097489215,44,80,n735
53.649788,0.046741407,73,81,n730
53.779327,0.05475422,74,81,n731
54.04909,0.042735,69,52,n736
54.34957,0.52751017,63,55,n745
54.055767,0.82131326,72,60,n738
54.194656,0.14423062,63,61,n741
54.338886,0.5381939,68,61,n744
54.443054,0.43402734,96,78,n747
54.18798,0.11752125,80,79,n739
54.3055,0.2777775,69,79,n742
54.05176,0.06944437,86,80,n737
54.19332,0.12286312,78,86,n740
54.316185,0.12286312,75,86,n743
54.43905,0.12954047,86,86,n746
54.587284,0.2897967,83,52,n752
54.877083,0.10416656,78,55,n759
54.58061,0.29647407,86,62,n750
54.734188,0.13087593,75,63,n755
54.865063,0.07612172,86,63,n758
54.973236,0.042735,65,64,n762
54.714153,0.13488235,93,77,n754
54.849037,0.036057655,92,77,n757
54.58328,0.29380313,81,79,n751
54.56859,0.14022422,92,86,n748
54.708813,0.1322114,95,86,n753
54.841022,0.065437965,103,86,n756
54.970566,0.056089688,83,86,n760
55.126816,0.02270297,73,52,n766
55.1188,0.13621782,101,64,n765
55.303097,0.0013354687,25,65,n771
55.38723,0.116185784,88,65,n773
55.490063,0.065437965,88,66,n776
55.232315,0.026709376,88,75,n770
55.112125,0.16159172,103,86,n764
55.395245,0.048076876,93,93,n775
55.50609,0.057425156,94,94,n777
55.952133,0.10016016,69,60,n790
55.813244,0.22302328,46,66,n786
55.80657,0.22970062,32,67,n784
55.936108,0.10016016,91,68,n788
55.936108,0.10016016,96,69,n789
56.052296,0.070779845,87,72,n792
55.79722,0.17494641,86,75,n783
55.642307,0.213675,93,86,n780
55.791878,0.24439079,75,87,n782
55.632957,0.40331155,97,98,n778
56.231247,0.097489215,54,54,n795
56.187176,0.13621782,59,59,n793
56.30737,0.037393127,68,60,n796
56.47831,0.11885672,73,60,n800
56.58782,0.040064063,73,64,n801
56.459614,0.07478625,92,67,n798
56.46629,0.056089688,87,72,n799
56.19519,0.05074781,85,76,n794
56.331406,0.03338672,83,76,n797
56.597164,0.04139953,76,76,n802
56.79348,0.07478625,56,54,n805
56.76677,0.10817297,68,59,n804
56.864258,0.048076876,70,60,n806
57.051224,0.060096093,58,60,n810
57.13269,0.048076876,63,64,n811
57.012497,0.036057655,83,66,n808
56.748074,0.048076876,83,69,n803
56.87895,0.040064063,75,69,n807
57.015167,0.056089688,89,69,n809
57.144707,0.060096093,78,72,n812
57.326332,0.09214734,58,54,n815
57.304962,0.11485031,70,59,n814
57.417145,0.036057655,70,60,n816
57.56004,0.078792654,77,60,n820
57.678894,0.060096093,86,64,n821
57.55069,0.065437965,88,65,n819
57.2876,0.049412344,81,76,n813
57.419815,0.06810891,84,76,n817
57.537334,0.078792654,94,81,n818
57.859184,0.1068375,62,54,n824
58.130283,0.05475422,55,57,n829
57.85518,0.1068375,71,59,n823
57.964687,0.037393127,70,60,n826
58.108917,0.20432672,72,61,n828
58.23712,0.07612172,65,62,n831
57.823128,0.04540594,76,75,n822
58.21976,0.093482815,82,82,n830
57.962013,0.040064063,76,83,n825
58.09289,0.04540594,79,83,n827
58.36399,0.08146359,68,54,n833
58.66714,0.5221683,70,57,n843
58.372005,0.25774547,75,62,n834
58.516235,0.11351484,62,63,n838
58.660465,0.5341875,73,63,n842
58.76864,0.14155969,76,64,n844
58.77932,0.41533077,72,80,n846
58.512226,0.11752125,66,81,n837
58.631084,0.044070467,76,81,n839
58.350636,0.06944437,85,82,n832
58.775314,0.41933718,78,83,n845
58.49754,0.1322114,73,84,n835
58.631084,0.05341875,83,84,n840
58.50822,0.12152766,71,88,n836
58.63242,0.06677344,76,88,n841
58.796684,0.120192185,53,88,n847
58.91554,0.27911296,83,54,n852
59.189312,0.046741407,78,57,n861
58.9102,0.28445485,95,64,n850
59.039738,0.13354687,84,65,n855
59.173286,0.08279906,87,65,n858
59.28413,0.028044844,82,66,n862
59.053093,0.128205,92,79,n857
59.181297,0.048076876,85,79,n860
58.807365,0.38728595,56,81,n849
58.916874,0.13354687,89,88,n853
59.050423,0.12286312,93,88,n856
59.173286,0.06677344,91,88,n859
59.3095,0.06677344,89,88,n863
59.42836,0.088140935,82,54,n866
59.41901,0.09214734,87,66,n865
59.57793,0.056089688,85,67,n872
59.71415,0.10950844,81,67,n873
59.824993,0.056089688,81,68,n875
59.565914,0.028044844,80,77,n871
59.45106,0.14423062,85,88,n867
59.71415,0.056089688,100,95,n874
59.82633,0.05341875,94,96,n876
60.343155,0.03338672,52,50,n886
60.42729,0.034722187,73,52,n887
59.967888,0.3458864,65,60,n879
59.959877,0.3538992,87,68,n878
60.105442,0.20833312,87,69,n883
60.112118,0.20165578,88,77,n884
59.977238,0.33653814,70,88,n881
60.104107,0.20966859,93,89,n882
59.957207,0.35657015,96,100,n877
60.873337,0.056089688,69,33,n894
60.717087,0.042735,59,38,n892
60.578197,0.08680547,68,50,n889
60.55416,0.07345078,72,53,n888
60.69839,0.049412344,60,54,n890
60.83995,0.088140935,75,54,n893
60.976166,0.037393127,46,55,n895
60.71041,0.038728595,62,57,n891
60.977505,0.042735,69,58,n896
61.39951,0.057425156,67,33,n903
61.239254,0.044070467,53,38,n900
61.124405,0.078792654,66,50,n898
61.11773,0.08547,70,55,n897
61.23258,0.05208328,53,56,n899
61.386158,0.084134534,74,56,n902
61.502342,0.05074781,50,57,n904
61.239254,0.046741407,59,59,n901
61.510357,0.046741407,59,60,n905
61.952396,0.07612172,62,33,n912
61.781456,0.04139953,44,38,n908
61.661263,0.08279906,57,50,n906
61.670612,0.08947641,71,57,n907
61.79748,0.048076876,43,58,n909
61.947052,0.09214734,71,58,n911
62.04588,0.058760624,37,59,n913
61.79748,0.046741407,59,61,n910
62.07526,0.042735,53,62,n914
62.521305,0.06944437,67,33,n921
62.347694,0.04540594,49,38,n917
62.23685,0.07612172,59,50,n916
62.223495,0.08947641,74,59,n915
62.355705,0.037393127,46,60,n918
62.503944,0.08547,73,60,n920
63.747265,0.03338672,45,61,n947
63.85811,0.08146359,71,61,n948
62.359715,0.042735,62,63,n919
62.636154,0.048076876,66,64,n922
63.070183,0.07745719,75,33,n932
62.916603,0.11885672,64,40,n926
62.77638,0.25908095,92,52,n923
63.16233,0.0641025,73,63,n934
62.92061,0.11485031,86,64,n927
63.055492,0.1068375,74,64,n929
63.160995,0.07211531,73,66,n933
62.931293,0.10416656,85,67,n928
63.060833,0.13755327,73,67,n931
62.792404,0.24305531,68,68,n924
63.059498,0.1322114,75,68,n930
63.337276,0.10950844,72,68,n936
63.59903,0.12152766,72,68,n942
63.864788,0.11752125,65,68,n949
63.617725,0.06143156,61,33,n944
63.44812,0.044070467,54,40,n941
63.71121,0.04139953,33,45,n946
63.334606,0.078792654,64,52,n935
63.44011,0.056089688,69,62,n940
63.60971,0.09481828,62,62,n943
63.34128,0.078792654,66,63,n937
63.703194,0.065437965,65,64,n945
63.417404,0.08279906,70,65,n939
63.358643,0.112179376,59,66,n938
64.16527,0.06276703,59,33,n956
64.00101,0.042735,53,40,n954
63.886154,0.06143156,55,52,n951
63.996998,0.048076876,58,60,n953
64.260086,0.06810891,71,62,n958
63.986313,0.07478625,65,63,n952
63.866123,0.060096093,32,64,n950
64.13856,0.15090796,79,68,n955
64.68476,0.17227547,80,33,n965
64.532524,0.038728595,53,40,n962
64.81163,0.046741407,24,45,n968
64.415,0.08146359,71,52,n959
64.76623,0.09081188,69,57,n966
64.5205,0.06276703,75,61,n961
64.7689,0.088140935,70,61,n967
64.41901,0.12286312,84,68,n960
64.6634,0.19364297,91,69,n964
65.24032,0.06810891,66,36,n975
65.06671,0.040064063,58,41,n973
64.94251,0.08680547,72,53,n970
64.937164,0.06944437,72,56,n969
65.02264,0.08146359,31,57,n971
65.23231,0.078792654,71,57,n974
65.34716,0.044070467,44,58,n976
65.04801,0.056089688,62,60,n972
65.34716,0.048076876,63,61,n977
65.7892,0.08547,73,36,n984
65.612915,0.049412344,61,41,n981
65.50341,0.08547,75,53,n979
65.488716,0.09214734,77,58,n978
65.607574,0.05475422,42,59,n980
65.77985,0.09081188,71,59,n983
65.91073,0.03071578,48,60,n986
65.620926,0.056089688,58,62,n982
65.90805,0.04139953,61,63,n985
66.33006,0.09481828,75,36,n993
66.16313,0.040064063,63,41,n989
66.04694,0.088140935,76,53,n988
66.04427,0.09481828,76,60,n987
66.17248,0.042735,58,61,n990
66.32072,0.10149562,80,61,n992
66.43957,0.048076876,59,62,n994
66.18182,0.04139953,62,64,n991
66.45026,0.06143156,70,65,n995
66.88294,0.10817297,81,36,n1003
66.72135,0.042735,64,41,n999
67.00982,0.036057655,69,48,n1006
66.58113,0.11351484,79,53,n996
66.601166,0.1068375,81,62,n997
66.73204,0.042735,65,63,n1000
66.86425,0.10016016,82,63,n1002
66.99379,0.042735,55,64,n1004
66.74406,0.044070467,69,66,n1001
67.00714,0.036057655,68,67,n1005
67.42381,0.08547,74,36,n1015
67.29427,0.13488235,56,43,n1011
67.54267,0.036057655,47,48,n1018
67.15004,0.27911296,90,55,n1008
67.54133,0.03071578,70,66,n1017
67.26623,0.14022422,67,67,n1010
67.40645,0.13488235,81,67,n1013
67.5026,0.080128126,72,69,n1016
67.26489,0.12686953,75,70,n1009
67.39176,0.19898485,72,70,n1012
67.130005,0.2817839,108,71,n1007
67.41179,0.097489215,84,71,n1014
67.69624,0.11885672,78,71,n1020
67.97803,0.09882469,73,71,n1026
68.23043,0.116185784,82,71,n1032
67.986046,0.056089688,65,36,n1029
67.827126,0.040064063,47,43,n1025
67.70026,0.08680547,73,55,n1021
68.11158,0.040064063,65,64,n1031
67.57606,0.037393127,62,65,n1019
67.73765,0.049412344,48,65,n1023
67.9807,0.10950844,75,65,n1027
68.08487,0.08146359,74,67,n1030
67.80442,0.08279906,73,68,n1024
67.9807,0.14155969,68,68,n1028
67.7056,0.13087593,83,69,n1022
68.51088,0.07612172,74,36,n1040
68.380005,0.048076876,38,43,n1038
68.23311,0.09214734,75,55,n1033
68.31323,0.0013354687,39,63,n1036
68.613716,0.07745719,65,63,n1041
68.26516,0.13888875,61,64,n1034
68.35998,0.07612172,71,66,n1037
68.28385,0.07345078,46,67,n1035
68.49619,0.12419859,84,71,n1039
69.037056,0.31383514,74,36,n1046
68.89817,0.044070467,42,43,n1045
68.75527,0.08680547,77,55,n1042
69.137215,0.17094,68,63,n1048
68.769966,0.10817297,76,71,n1043
69.04106,0.30982876,83,72,n1047
69.5846,0.09882469,66,37,n1056
69.43236,0.038728595,44,49,n1054
69.683426,0.038728595,61,49,n1057
69.28278,0.06810891,82,52,n1049
69.28412,0.084134534,81,61,n1050
69.41499,0.03205125,63,64,n1053
69.56323,0.046741407,94,76,n1055
70.11478,0.097489215,79,37,n1062
69.953186,0.03338672,75,49,n1060
70.236305,0.037393127,70,49,n1063
70.11344,0.038728595,81,53,n1061
69.86104,0.06276703,84,61,n1059
69.839676,0.034722187,105,77,n1058
70.68636,0.6249994,79,34,n1069
70.50607,0.037393127,70,46,n1067
70.7972,0.51415545,62,46,n1071
70.37119,0.036057655,78,53,n1064
70.38321,0.09081188,88,58,n1065
70.675674,0.16159172,71,65,n1068
70.74646,0.56490326,73,66,n1070
71.22055,0.09081188,84,33,n1077
71.060295,0.25106812,71,45,n1076
71.221886,0.08947641,92,54,n1078
70.95078,0.36057657,83,57,n1074
70.93743,0.37393126,104,78,n1073
71.78145,0.09214734,76,39,n1082
70.990845,0.3205125,53,51,n1075
71.502335,0.093482815,85,54,n1079
71.513016,0.03338672,81,63,n1080
71.62653,0.06276703,75,66,n1081
71.90698,0.037393127,71,66,n1084
71.78278,0.15224344,81,78,n1083
72.341,0.11885672,82,39,n1090
72.16473,0.034722187,75,51,n1088
72.453186,0.03338672,77,51,n1091
72.33166,0.038728595,78,55,n1089
72.06857,0.06677344,87,63,n1086
72.05121,0.06276703,105,79,n1085
72.89656,0.07612172,77,36,n1096
72.733635,0.04139953,68,48,n1094
73.0261,0.4447111,39,48,n1098
72.582726,0.034722187,71,55,n1092
72.60009,0.084134534,91,60,n1093
72.887215,0.0641025,63,67,n1095
72.95132,0.51949733,72,68,n1097
73.440094,0.057425156,65,35,n1107
73.27183,0.19898485,62,47,n1105
73.43208,0.05074781,83,56,n1106
73.56162,0.03338672,74,57,n1110
73.151634,0.31917703,94,59,n1101
73.13428,0.33653814,101,80,n1100
74.00901,0.06677344,63,38,n1117
73.84207,0.044070467,55,43,n1115
73.69918,0.097489215,77,55,n1112
73.695175,0.10149562,78,58,n1111
73.814026,0.056089688,58,59,n1113
73.99565,0.078792654,76,59,n1116
74.11451,0.03338672,50,60,n1118
73.82338,0.046741407,63,62,n1114
74.11985,0.042735,62,63,n1119
74.52717,0.084134534,73,38,n1126
74.36424,0.044070467,56,43,n1122
74.23737,0.084134534,72,55,n1120
74.25206,0.09081188,73,60,n1121
74.380264,0.042735,55,61,n1123
74.51248,0.084134534,77,61,n1125
74.62733,0.065437965,55,62,n1127
74.3816,0.04139953,60,64,n1124
74.63267,0.06810891,67,65,n1128
75.077385,0.088140935,77,38,n1135
74.91713,0.037393127,55,43,n1131
74.78224,0.09481828,79,55,n1129
74.80228,0.08947641,79,62,n1130
74.9198,0.044070467,57,63,n1132
75.061356,0.09481828,78,63,n1134
75.17087,0.06276703,47,64,n1136
74.921135,0.07345078,66,66,n1133
75.1949,0.05074781,68,67,n1137
75.606224,0.10016016,76,38,n1145
75.45132,0.036057655,51,43,n1141
75.32845,0.09882469,80,55,n1138
75.34581,0.08947641,87,64,n1139
75.46333,0.034722187,56,65,n1142
75.60489,0.09615375,82,65,n1144
75.73711,0.03205125,45,66,n1146
75.46734,0.046741407,70,68,n1143
75.74111,0.036057655,68,69,n1147
76.155106,0.093482815,79,38,n1155
75.99485,0.23904891,73,45,n1150
76.26996,0.037393127,61,50,n1159
75.87866,0.35523468,92,57,n1148
76.2566,0.07345078,75,68,n1157
76.0082,0.14289516,84,69,n1151
76.1511,0.116185784,73,69,n1154
76.26194,0.060096093,76,71,n1158
76.03625,0.097489215,66,72,n1152
76.133736,0.15892078,90,72,n1153
75.88,0.29113218,93,73,n1149
76.17113,0.10950844,80,73,n1156
76.75206,0.060096093,44,38,n1171
76.55575,0.04139953,55,45,n1167
76.438225,0.09214734,72,57,n1161
76.85222,0.04139953,61,66,n1173
76.55174,0.05341875,63,67,n1166
76.72535,0.102831095,76,67,n1169
76.470276,0.070779845,57,68,n1163
76.82417,0.056089688,71,69,n1172
76.54239,0.07345078,76,70,n1165
76.732025,0.11885672,66,70,n1170
76.4449,0.128205,60,71,n1162
76.422195,0.16025625,73,73,n1160
76.71867,0.11885672,77,73,n1168
77.26621,0.07612172,74,38,n1183
77.1113,0.042735,58,45,n1179
76.97642,0.102831095,74,57,n1175
77.405106,0.03205125,47,64,n1185
77.119316,0.042735,55,65,n1180
77.26221,0.03071578,55,65,n1182
76.97108,0.09615375,78,66,n1174
77.36638,0.05475422,78,67,n1184
77.10329,0.058760624,64,68,n1178
77.00313,0.04139953,39,69,n1177
76.98309,0.120192185,69,73,n1176
77.24218,0.1669336,81,73,n1181
77.79105,0.06677344,79,38,n1192
77.65217,0.04139953,58,45,n1190
77.50126,0.1068375,84,57,n1186
77.89121,0.16292718,38,62,n1194
77.62279,0.078792654,75,66,n1188
77.89655,0.15758531,74,66,n1195
77.51461,0.1495725,82,73,n1187
77.78037,0.2737711,88,74,n1191
78.34661,0.0641025,69,41,n1204
78.16365,0.04139953,62,46,n1201
78.03411,0.09481828,87,58,n1196
78.03812,0.07211531,85,61,n1197
78.12626,0.078792654,36,62,n1199
78.315895,0.09615375,85,62,n1202
78.429405,0.04540594,66,63,n1205
78.15831,0.06944437,71,65,n1200
78.4441,0.06276703,70,66,n1206
78.88213,0.110843904,91,41,n1213
78.733894,0.038728595,49,46,n1211
78.5683,0.10817297,88,58,n1207
78.5723,0.12553406,87,63,n1208
78.70852,0.04139953,61,64,n1209
78.85943,0.11752125,80,64,n1212
78.98229,0.046741407,69,65,n1214
78.70852,0.049412344,73,67,n1210
78.9863,0.0641025,75,68,n1215
79.42433,0.29113218,90,41,n1223
79.282776,0.04139953,70,46,n1221
79.14655,0.10550203,85,58,n1217
79.129196,0.1068375,92,65,n1216
79.256065,0.06944437,66,66,n1219
79.41632,0.1068375,86,66,n1222
79.53117,0.16025625,66,67,n1224
79.26541,0.070779845,84,69,n1220
79.53785,0.17761734,80,70,n1225
79.97054,0.299145,93,41,n1233
79.85302,0.036057655,53,46,n1231
79.698105,0.10016016,95,58,n1227
79.69143,0.10550203,102,67,n1226
79.81429,0.049412344,78,68,n1229
79.95451,0.31517062,91,68,n1232
80.06937,0.20032032,73,69,n1234
79.81963,0.06677344,84,71,n1230
80.08405,0.18563016,88,72,n1235
80.50072,0.10416656,85,41,n1245
80.37385,0.036057655,63,48,n1241
80.61824,0.21634594,69,53,n1247
80.23897,0.084134534,92,60,n1237
80.622246,0.15491438,83,71,n1248
80.349815,0.065437965,74,72,n1240
80.484695,0.34989282,86,72,n1243
80.60489,0.17895281,83,74,n1246
80.34313,0.07612172,76,75,n1238
80.48069,0.3538992,85,75,n1242
80.23229,0.16426265,108,76,n1236
80.49671,0.27243564,85,76,n1244
81.04426,0.48477516,80,41,n1258
80.932076,0.044070467,42,48,n1255
80.77983,0.078792654,82,60,n1251
81.16579,0.16292718,77,69,n1261
80.89335,0.05475422,83,70,n1254
81.04292,0.48611063,82,70,n1256
80.77716,0.080128126,89,71,n1250
81.15243,0.37660217,84,72,n1260
80.875984,0.06276703,81,73,n1253
81.04292,0.48611063,81,73,n1257
80.78384,0.11752125,86,74,n1252
80.76915,0.12286312,89,76,n1249
81.04426,0.2524036,81,76,n1259
81.5691,0.088140935,85,41,n1268
81.30467,0.22435875,82,60,n1263
81.59313,0.48076874,65,67,n1269
81.93635,0.13755327,84,68,n1276
81.32871,0.14556609,80,69,n1264
81.705315,0.36858937,56,70,n1271
81.43822,0.09081188,76,71,n1265
81.29666,0.23237157,89,76,n1262
81.56776,0.26308733,96,76,n1267
82.06188,0.40865344,86,41,n1277
82.19142,0.27911296,92,53,n1282
81.80814,0.26575828,91,60,n1273
82.19009,0.28044844,70,65,n1281
82.1754,0.2951386,86,68,n1280
81.61183,0.04139953,51,69,n1270
81.77209,0.30181593,28,69,n1272
81.83085,0.24305531,101,76,n1274
82.06322,0.40731797,95,77,n1278
82.54132,0.25507453,68,24,n1286
82.81509,0.25908095,77,26,n1296
82.51995,0.15224344,96,31,n1283
82.66017,0.13621782,79,32,n1289
82.801735,0.27243564,85,33,n1294
82.91792,0.15624985,88,34,n1297
82.92727,0.13488235,83,88,n1298
83.06215,0.044070467,67,88,n1301
83.852745,0.24038437,95,88,n1321
84.10515,0.22569422,104,88,n1326
83.18234,0.38862142,93,90,n1306
82.5333,0.19097203,96,91,n1285
82.92994,0.14423062,89,92,n1299
83.31989,0.1535789,93,93,n1308
83.47347,0.097489215,35,93,n1314
82.66151,0.13488235,97,94,n1290
83.05547,0.38862142,101,95,n1300
82.521286,0.27510655,104,100,n1284
82.799065,0.06276703,86,101,n1293
83.082184,0.48878157,73,28,n1303
83.3426,0.22836515,73,29,n1311
83.074165,0.49679437,73,35,n1302
83.198364,0.3725958,79,36,n1307
83.32658,0.24439079,90,37,n1309
83.44543,0.12553406,83,38,n1313
83.32925,0.24171984,79,91,n1310
83.44409,0.12686953,97,95,n1312
83.59634,0.26041642,74,31,n1317
83.86744,0.22569422,79,33,n1322
83.5763,0.28044844,93,39,n1315
83.72721,0.12954047,79,40,n1319
83.84607,0.24706171,95,41,n1320
83.96626,0.12686953,90,42,n1323
83.98095,0.112179376,69,83,n1325
83.97561,0.11752125,67,84,n1324
83.707184,0.1495725,88,86,n1318
83.580315,0.27644202,104,93,n1316
84.39094,0.15624985,73,31,n1336
84.12518,0.20566219,78,35,n1329
84.1145,0.21634594,93,43,n1328
84.23068,0.10016016,89,44,n1331
84.51915,0.0641025,90,44,n1340
84.372246,0.17494641,94,45,n1332
84.37759,0.16960452,99,77,n1333
84.1105,0.22035234,91,79,n1327
84.22935,0.10149562,89,82,n1330
84.4871,0.08146359,83,82,n1339
84.37759,0.16960452,92,86,n1334
84.949165,0.16426265,80,38,n1351
84.67807,0.14423062,91,43,n1344
84.790245,0.070779845,68,44,n1348
84.93715,0.17628187,89,45,n1350
85.04532,0.06810891,86,46,n1354
85.049324,0.0641025,73,76,n1355
84.65136,0.16559812,93,79,n1342
85.03063,0.08279906,84,80,n1353
85.42593,0.2524036,100,81,n1362
85.69703,0.23904891,104,81,n1368
84.779564,0.08547,85,82,n1347
84.67005,0.14690156,63,83,n1343
84.638,0.17895281,102,88,n1341
84.91044,0.20299125,95,89,n1349
85.21092,0.19898485,73,40,n1358
85.468666,0.20966859,71,41,n1364
85.1989,0.21100406,82,47,n1357
85.30307,0.1068375,56,48,n1361
85.439285,0.23904891,93,49,n1363
85.54078,0.13755327,81,50,n1365
85.8279,0.10817297,72,76,n1372
85.2817,0.128205,90,78,n1360
85.75312,0.18295921,54,79,n1370
85.16952,0.24038437,92,83,n1356
85.550125,0.128205,92,83,n1366
85.722404,0.213675,70,43,n1369
85.97614,0.23771344,79,45,n1375
85.68902,0.24706171,94,51,n1367
85.80921,0.12686953,83,52,n1371
85.96011,0.25373906,94,53,n1374
86.07363,0.14022422,85,54,n1376
86.09233,0.12152766,80,70,n1377
85.95344,0.26041642,94,76,n1373
86.23923,0.49946532,82,47,n1380
86.225876,0.22435875,96,55,n1379
86.34073,0.10950844,86,56,n1382
86.47294,0.26575828,92,57,n1385
86.479614,0.25908095,83,65,n1386
86.24323,0.038728595,70,67,n1381
86.342064,0.10817297,81,70,n1383
86.59447,0.14423062,81,70,n1387
86.4716,0.26709375,96,74,n1384
86.21653,0.23370703,97,76,n1378
86.75739,0.128205,96,36,n1391
86.88293,0.08146359,78,37,n1392
87.01514,0.080128126,82,38,n1394
87.138,0.046741407,74,39,n1396
86.75339,0.16025625,100,68,n1389
87.15937,0.06677344,81,68,n1397
87.031166,0.07612172,84,69,n1395
86.8856,0.06810891,79,70,n1393
86.75339,0.12553406,75,71,n1390
86.75205,0.1322114,91,76,n1388
87.70023,0.03205125,55,49,n1404
87.578705,0.10550203,75,50,n1403
87.44516,0.093482815,82,51,n1401
87.31027,0.16025625,102,52,n1399
88.37598,0.1535789,99,52,n1418
87.298256,0.18563016,96,67,n1398
87.4318,0.11351484,75,68,n1400
87.53864,0.08146359,78,69,n1402
87.84847,0.22569422,82,36,n1407
87.94329,0.13087593,79,37,n1412
88.08752,0.10950844,78,38,n1413
88.19703,0.049412344,74,39,n1415
87.88987,0.18429469,39,67,n1410
87.8271,0.24706171,104,68,n1406
88.22908,0.040064063,74,68,n1416
87.875175,0.19898485,49,69,n1408
88.100876,0.07612172,84,69,n1414
88.62571,0.078792654,82,69,n1421
87.93394,0.14022422,80,70,n1411
87.82577,0.24839719,98,76,n1405
88.76727,0.036057655,72,49,n1423
88.66845,0.093482815,77,50,n1422
88.524216,0.088140935,85,51,n1420
88.37464,0.15491438,99,67,n1417
88.508194,0.112179376,78,68,n1419
88.78597,0.03338672,74,70,n1424
88.92619,0.26709375,89,34,n1427
89.04238,0.15090796,66,35,n1430
89.165245,0.11485031,51,36,n1431
89.273415,0.058760624,76,37,n1433
88.91151,0.2817839,98,66,n1426
89.31615,0.038728595,66,66,n1434
89.19328,0.07478625,85,67,n1432
89.014336,0.17895281,78,68,n1429
88.910164,0.28311938,96,74,n1425
89.849,0.046741407,38,47,n1441
89.720795,0.097489215,77,48,n1440
89.580574,0.11351484,76,49,n1438
89.451035,0.15758531,97,50,n1436
89.44703,0.16159172,98,65,n1435
89.57657,0.12419859,78,66,n1437
89.70744,0.070779845,79,67,n1439
89.85568,0.040064063,69,68,n1442
89.98923,1.0470074,74,34,n1444
90.13212,0.90411234,47,35,n1449
90.26033,0.77590734,59,36,n1452
90.39254,0.64369595,74,37,n1456
90.00258,0.5235037,63,38,n1445
90.06134,0.6236639,60,39,n1447
90.264336,0.54887766,83,40,n1453
90.391205,0.5248392,76,41,n1455
90.00926,1.0269755,60,62,n1446
89.98389,0.5502131,85,68,n1443
90.108086,0.2697647,79,69,n1448
90.377846,0.23637797,90,69,n1454
90.25899,0.31116423,93,70,n1451
90.25632,0.5448713,89,74,n1450
90.526085,0.51014906,84,38,n1457
90.685005,0.35122827,62,39,n1466
90.81321,0.22302328,87,40,n1469
90.91604,0.120192185,42,41,n1472
90.528755,0.5074781,94,42,n1458
90.833244,0.20299125,82,43,n1470
90.534096,0.50213623,96,68,n1459
90.80119,0.2350425,89,74,n1467
90.54077,0.4954589,84,80,n1460
90.658295,0.24973266,90,81,n1465
90.90803,0.128205,88,81,n1471
90.809204,0.22702968,95,86,n1468
91.08431,0.20165578,77,36,n1477
91.23789,0.92681533,50,37,n1483
91.26727,1.0950844,31,38,n1485
91.07095,1.0470074,96,48,n1473
91.21118,1.0576912,86,49,n1482
91.24323,0.52617466,74,50,n1484
91.73468,0.12419859,83,51,n1495
91.85888,0.92013794,69,51,n1499
90.576836,0.45940125,48,78,n1462
91.121704,0.45940125,45,79,n1479
91.07229,0.36858937,110,80,n1476
91.44088,0.2644228,91,80,n1488
91.33004,0.49011704,87,81,n1487
91.18714,1.0283109,86,82,n1481
91.07095,2.5560873,86,83,n1474
91.07095,1.0323174,90,88,n1475
91.76941,0.6156511,55,50,n1497
91.58378,0.35523468,94,52,n1491
91.74003,1.1658642,88,62,n1496
91.58111,1.0323174,95,64,n1489
92.61342,1.0136207,98,64,n1519
91.58111,1.0363238,107,79,n1490
91.70531,0.39529875,84,80,n1494
91.82015,0.13621782,83,81,n1498
92.13532,1.4917186,74,36,n1507
92.28623,1.3408107,70,37,n1511
92.36235,1.2646888,71,38,n1513
92.30493,1.3221141,54,39,n1512
92.117966,0.3084933,94,48,n1506
92.268875,1.3581717,95,49,n1510
92.385056,0.52751017,72,50,n1515
92.77902,0.13354687,79,51,n1526
92.91257,0.7144758,74,51,n1532
92.1006,0.38327953,100,80,n1504
92.48388,0.26842922,92,80,n1518
92.36636,0.51549095,87,81,n1514
92.215454,0.79193294,89,82,n1509
92.10327,1.5237699,93,88,n1505
92.91257,0.7144758,61,50,n1531
92.61877,1.0082788,89,52,n1521
92.78703,0.84000987,72,61,n1527
92.90589,0.72115314,58,62,n1530
92.77502,0.8520291,79,63,n1525
92.61743,1.0096143,111,79,n1520
92.75231,0.874732,84,80,n1524
92.88185,0.7451916,87,81,n1529
93.007385,0.6196575,94,82,n1535
93.144936,0.4821042,88,32,n1538
93.425385,0.20165578,79,34,n1544
93.13826,0.48878157,99,44,n1536
93.27982,0.34722188,81,45,n1542
93.428055,0.19898485,87,46,n1545
93.152954,0.37927312,90,76,n1539
93.53223,0.09481828,85,76,n1546
93.420044,0.20699766,93,77,n1543
93.2678,0.3592411,96,78,n1541
93.139595,0.4874461,111,84,n1537
93.95824,0.17361094,80,46,n1557
93.69382,0.43803376,72,47,n1550
93.68581,0.44604656,71,48,n1549
93.952896,0.17895281,84,58,n1556
93.81401,0.31784156,82,59,n1552
92.93661,0.6904373,54,60,n1534
93.66844,0.46340767,96,60,n1547
93.67512,0.4567303,96,75,n1548
93.80332,0.3285253,90,76,n1551
93.920845,0.21100406,90,77,n1555
94.04905,0.08279906,87,78,n1558
94.678055,0.55288404,91,41,n1573
94.527145,0.70379204,78,42,n1570
94.37224,0.5902772,71,43,n1566
94.18928,0.24038437,80,44,n1561
94.672714,0.5582259,89,45,n1572
94.48708,0.7438561,80,46,n1569
94.368225,0.8627128,73,47,n1565
94.18394,0.04540594,72,48,n1559
94.254715,0.17494641,47,72,n1563
94.18661,0.24305531,90,78,n1560
94.30145,0.128205,82,79,n1564
94.559204,0.6717408,87,79,n1571
94.45904,0.77190095,88,80,n1568
94.44435,0.5301811,96,84,n1567
94.99857,0.23237157,50,38,n1586
94.97453,0.25641,89,39,n1582
94.80626,0.42467907,27,40,n1579
94.96251,0.26842922,89,43,n1581
94.79157,0.43936923,79,44,n1578
94.712776,0.5181619,110,78,n1574
94.97453,0.25641,106,84,n1583
94.71946,0.5114845,87,90,n1575
94.826294,0.27644202,99,91,n1580
95.10274,0.128205,97,91,n1587
94.97453,0.25641,107,96,n1584
95.267,0.26175186,77,36,n1590
95.55412,0.24171984,78,38,n1598
95.24563,0.28311938,95,43,n1588
95.3952,0.13354687,82,44,n1593
95.55012,0.24572624,90,45,n1597
95.68233,0.11351484,89,46,n1601
95.68233,0.11351484,85,88,n1602
95.271,0.25774547,101,91,n1592
95.67966,0.116185784,90,92,n1600
96.062935,0.24706171,98,93,n1610
96.32603,0.24305531,84,93,n1617
95.40588,0.12286312,93,94,n1595
95.81588,0.23771344,98,95,n1604
96.18847,0.12152766,96,95,n1613
96.32336,0.08680547,85,95,n1616
95.26833,0.26041642,108,100,n1591
95.54478,0.07211531,100,101,n1596
95.83991,0.213675,73,40,n1607
96.10434,0.20566219,72,41,n1612
95.817215,0.23637797,91,47,n1605
95.944084,0.10950844,80,48,n1609
96.0803,0.22970062,93,49,n1611
96.19115,0.11885672,87,50,n1614
94.752846,0.47809783,49,87,n1577
96.45557,0.11351484,65,88,n1621
96.5811,0.2350425,92,88,n1622
96.8522,0.20165578,102,88,n1630
95.92405,0.12954047,91,90,n1608
95.75712,0.040064063,19,91,n1603
96.35007,0.21901688,71,43,n1618
96.59846,0.21768141,70,45,n1625
96.31935,0.24973266,92,51,n1615
96.44622,0.12286312,85,52,n1620
96.59312,0.22302328,85,53,n1623
96.70263,0.11351484,85,54,n1627
96.75605,0.060096093,51,83,n1628
97.40909,0.0013354687,39,84,n1648
97.39974,0.03071578,46,85,n1647
97.09926,0.21100406,102,86,n1636
97.387726,0.0013354687,50,86,n1646
97.342316,0.058760624,98,43,n1641
98.436066,0.24171984,65,43,n1674
96.865555,0.4447111,76,47,n1632
96.84819,0.20566219,91,55,n1629
96.971054,0.12419859,84,56,n1633
97.175385,0.13488235,68,56,n1639
97.08991,0.22035234,93,57,n1635
97.10594,0.20432672,91,77,n1637
96.86422,0.18963656,75,79,n1631
96.98041,0.07745719,84,82,n1634
97.21144,0.09882469,82,82,n1640
97.35701,0.036057655,74,36,n1643
97.65882,0.078792654,68,38,n1655
97.498566,0.05208328,35,44,n1651
97.630775,0.12152766,71,45,n1653
97.76032,0.046741407,76,46,n1657
97.36235,0.088140935,87,79,n1644
97.75631,0.06677344,81,80,n1656
98.16764,0.07612172,78,81,n1666
98.422714,0.25507453,71,81,n1673
97.48121,0.07211531,84,82,n1649
97.369026,0.116185784,70,83,n1645
97.355675,0.13621782,102,88,n1642
97.620094,0.088140935,95,89,n1652
97.91924,0.110843904,66,40,n1661
98.19301,0.09481828,56,41,n1668
97.89921,0.10950844,89,47,n1658
98.015396,0.06944437,77,48,n1663
98.1436,0.09615375,85,49,n1665
98.26246,0.06810891,76,50,n1669
98.01673,0.06944437,88,78,n1664
97.633446,0.036057655,58,79,n1654
97.90588,0.120192185,86,83,n1660
98.17031,0.06677344,81,83,n1667
98.282486,0.058760624,79,83,n1670
98.69915,0.2350425,75,45,n1679
98.40001,0.2777775,94,51,n1671
98.5162,0.16159172,82,52,n1675
98.68713,0.24706171,93,53,n1678
98.79798,0.13621782,84,54,n1681
98.84739,0.08680547,61,70,n1682
99.49109,0.029380312,58,72,n1700
98.52821,0.1495725,66,76,n1676
98.67779,0.25641,89,76,n1677
98.9569,0.5301811,77,47,n1685
98.95155,0.09615375,93,55,n1684
99.07175,0.10016016,80,56,n1687
99.2921,0.19497843,85,56,n1692
99.19728,0.2897967,89,57,n1690
99.2053,0.2817839,82,65,n1691
99.01165,0.16025625,32,67,n1686
99.46972,0.07745719,85,67,n1697
99.079765,0.09214734,80,70,n1688
99.30946,0.17761734,81,70,n1693
99.195946,0.29113218,97,74,n1689
99.78088,0.046741407,25,74,n1707
98.94621,0.22569422,104,76,n1683
99.45503,0.13621782,102,76,n1694
99.48708,0.040064063,57,36,n1699
99.759514,0.11485031,61,38,n1706
99.46171,0.06143156,89,43,n1696
99.57522,0.084134534,81,44,n1702
99.74616,0.11752125,72,45,n1705
99.86101,0.058760624,82,46,n1709
99.8944,0.028044844,53,64,n1710
99.857,0.07211531,84,68,n1708
100.252304,0.15090796,91,69,n1716
100.50738,0.24973266,92,69,n1722
99.58991,0.088140935,81,70,n1703
99.46037,0.088140935,22,71,n1695
99.7328,0.06944437,88,77,n1704
100.02394,0.10817297,71,40,n1713
100.29103,0.10416656,64,41,n1718
100.00524,0.12686953,91,47,n1712
100.12143,0.057425156,81,48,n1715
100.25364,0.093482815,86,49,n1717
100.36582,0.06677344,77,50,n1719
100.11475,0.06944437,80,66,n1714
99.993225,0.13888875,93,71,n1711
100.37383,0.06143156,91,71,n1720
100.52608,0.2310361,73,43,n1723
100.79183,0.18162376,80,45,n1727
100.50471,0.2524036,94,51,n1721
100.623566,0.13354687,83,52,n1725
100.777145,0.1963139,91,53,n1726
100.885315,0.088140935,87,54,n1730
100.834564,0.13888875,53,57,n1729
101.33804,0.0013354687,48,60,n1741
101.61448,0.18162376,57,61,n1749
100.79317,0.18028829,94,64,n1728
101.314,0.14022422,80,43,n1739
101.05358,0.13755327,78,47,n1733
101.30198,0.088140935,89,53,n1737
101.15508,0.05208328,81,54,n1735
101.04023,0.12553406,95,55,n1732
101.31534,0.042735,79,57,n1740
101.19648,0.044070467,68,58,n1736
101.43018,0.056089688,81,58,n1743
101.303314,0.12686953,90,62,n1738
101.03222,0.15491438,98,64,n1731
101.58109,0.21501046,79,36,n1747
101.57842,0.21768141,89,43,n1746
101.69995,0.09615375,83,44,n1750
101.97773,0.04139953,75,47,n1755
101.86555,0.057425156,75,48,n1752
101.876236,0.040064063,65,50,n1754
101.873566,0.049412344,86,53,n1753
101.99375,0.036057655,77,54,n1756
101.57709,0.21901688,89,55,n1745
101.71197,0.084134534,82,58,n1751
101.58109,0.21501046,80,59,n1748
101.57308,0.22302328,100,64,n1744
102.135315,0.2350425,73,36,n1758
102.30625,0.0641025,52,47,n1763
102.53462,0.048076876,69,47,n1766
102.4171,0.058760624,79,48,n1764
102.43713,0.038728595,81,53,n1765
102.564,0.024038438,71,54,n1767
102.270195,0.10016016,71,59,n1762
102.140656,0.22970062,82,60,n1759
102.13398,0.23637797,97,65,n1757
102.71892,0.1963139,67,36,n1770
102.71892,0.1963139,69,43,n1771
102.81641,0.09882469,77,44,n1775
103.09284,0.05074781,73,47,n1779
102.98467,0.06276703,74,48,n1777
103.94221,0.14289516,94,50,n1792
103.00337,0.040064063,80,53,n1778
103.12891,0.03338672,72,54,n1780
102.70823,0.20699766,80,55,n1769
102.863144,0.05208328,66,58,n1776
102.75898,0.15624985,48,59,n1774
102.70422,0.21100406,85,64,n1768
103.28516,0.24305531,58,36,n1785
103.671104,0.036057655,67,37,n1789
103.26646,0.26175186,71,43,n1782
103.361275,0.1669336,77,44,n1786
103.65374,0.057425156,89,49,n1788
104.894394,0.29780954,97,54,n1805
103.26913,0.25908095,75,55,n1783
103.27046,0.25774547,67,59,n1784
103.51085,0.04139953,117,63,n1787
103.261116,0.26709375,88,64,n1781
103.95422,0.17895281,80,38,n1793
104.23601,0.05208328,69,38,n1796
103.805984,0.32718983,110,39,n1790
104.0851,0.048076876,91,50,n1794
104.89306,0.299145,99,51,n1803
104.53648,0.042735,47,38,n1799
104.76619,0.060096093,62,38,n1802
104.228,0.05475422,82,50,n1795
104.37756,0.037393127,77,50,n1797
104.50711,0.05074781,70,50,n1798
104.6313,0.05475422,68,50,n1800
104.76352,0.034722187,76,50,n1801
104.99722,0.19497843,92,38,n1806
105.3351,0.065437965,58,38,n1810
104.894394,0.29780954,104,48,n1804
105.18018,0.056089688,86,50,n1808
105.32976,0.057425156,69,50,n1809
105.60754,0.06677344,59,38,n1813
105.85994,0.0641025,65,38,n1816
105.4633,0.044070467,69,50,n1811
105.59551,0.046741407,72,50,n1812
105.72505,0.042735,72,50,n1814
105.847916,0.05208328,78,50,n1815
105.98948,0.046741407,65,38,n1817
106.128365,0.06677344,66,38,n1820
106.26726,0.037393127,62,38,n1821
106.40214,0.0641025,63,38,n1823
106.11635,0.07211531,74,50,n1819
106.39813,0.05208328,67,50,n1822
106.53034,0.034722187,61,38,n1824
106.674576,0.06944437,62,38,n1825
106.7961,0.044070467,72,38,n1827
106.928314,0.060096093,65,38,n1828
106.67858,0.049412344,62,50,n1826
106.92965,0.04139953,69,50,n1829
107.18205,0.0641025,63,38,n1832
107.45716,0.048076876,48,38,n1835
107.05118,0.038728595,79,50,n1830
107.17805,0.05074781,69,50,n1831
107.3156,0.036057655,73,50,n1833
107.431786,0.048076876,69,50,n1834
107.73093,0.05475422,51,38,n1838
108.01004,0.040064063,50,38,n1842
107.85379,0.03205125,61,49,n1840
107.57201,0.036057655,69,50,n1836
107.712234,0.060096093,62,50,n1837
107.99402,0.044070467,65,50,n1841
107.84311,0.04139953,70,51,n1839
108.289154,0.044070467,50,38,n1846
108.5469,0.05208328,50,38,n1850
108.12222,0.036057655,73,48,n1844
108.38531,0.044070467,54,48,n1848
108.27847,0.046741407,68,50,n1845
108.54156,0.046741407,58,50,n1849
108.11822,0.036057655,75,52,n1843
108.38397,0.044070467,64,52,n1847
108.82201,0.05208328,50,38,n1854
109.081085,0.057425156,49,38,n1858
108.66709,0.04139953,61,48,n1852
108.938194,0.034722187,51,48,n1856
108.81533,0.05341875,60,50,n1853
109.06907,0.056089688,64,50,n1857
108.66576,0.037393127,60,52,n1851
108.92617,0.049412344,62,52,n1855
109.33884,0.06143156,54,38,n1862
109.589905,0.046741407,58,38,n1866
109.19861,0.036057655,51,48,n1860
109.46036,0.038728595,57,48,n1864
109.32948,0.056089688,63,50,n1861
109.58055,0.05475422,69,50,n1865
109.19727,0.036057655,64,52,n1859
109.44701,0.048076876,66,52,n1863
109.85566,0.049412344,60,38,n1870
110.11607,0.11485031,65,38,n1874
109.73146,0.04139953,64,48,n1868
109.9852,0.24572624,71,48,n1872
109.84231,0.06143156,73,50,n1869
110.09605,0.13488235,81,50,n1873
109.72612,0.036057655,74,52,n1867
109.98119,0.24973266,84,52,n1871
110.38718,0.044070467,60,38,n1879
110.68632,0.05341875,52,38,n1884
110.2376,0.03071578,88,48,n1876
110.514046,0.038728595,65,48,n1880
110.37115,0.05074781,80,50,n1878
110.67163,0.046741407,65,50,n1883
110.23627,0.036057655,88,52,n1875
110.52473,0.038728595,61,52,n1882
110.24027,0.038728595,85,55,n1877
110.514046,0.044070467,70,55,n1881
110.95208,0.048076876,49,38,n1889
111.215164,0.056089688,49,38,n1894
110.802505,0.044070467,56,48,n1886
111.08429,0.034722187,48,48,n1892
110.94006,0.05208328,62,50,n1888
111.20715,0.05341875,62,50,n1893
110.80117,0.042735,58,52,n1885
111.06426,0.044070467,54,52,n1890
110.80384,0.048076876,69,55,n1887
111.07227,0.05341875,64,55,n1891
111.475586,0.05341875,53,38,n1899
111.7547,0.05341875,50,38,n1904
111.34337,0.03338672,51,48,n1897
111.59845,0.042735,55,48,n1900
111.47157,0.05074781,62,50,n1898
111.75336,0.05475422,56,50,n1903
111.3407,0.040064063,58,52,n1896
111.60112,0.04540594,53,52,n1901
111.33669,0.049412344,62,55,n1895
111.610466,0.058760624,61,55,n1902
112.01378,0.04540594,51,38,n1909
112.25282,0.04540594,54,38,n1912
111.888245,0.03205125,59,48,n1906
112.00309,0.049412344,66,50,n1908
112.13931,0.034722187,70,50,n1911
112.26485,0.03071578,57,50,n1914
111.893585,0.034722187,51,52,n1907
112.25951,0.046741407,83,52,n1913
112.1313,0.042735,73,53,n1910
111.877556,0.05475422,66,55,n1905
112.55197,0.056089688,58,38,n1917
112.823074,0.05341875,53,38,n1920
112.39439,0.044070467,85,50,n1915
112.54129,0.05341875,61,50,n1916
112.680176,0.036057655,67,50,n1918
112.809715,0.049412344,57,50,n1919
113.09417,0.05208328,51,38,n1923
113.36527,0.05341875,53,38,n1926
112.94326,0.037393127,66,50,n1921
113.07815,0.049412344,64,50,n1922
113.21036,0.038728595,69,50,n1924
113.34524,0.05475422,65,50,n1925
113.63503,0.06276703,50,38,n1929
113.91281,0.048076876,46,38,n1932
113.47077,0.040064063,69,50,n1927
113.611,0.06944437,62,50,n1928
113.73787,0.05208328,61,50,n1930
113.9048,0.04540594,58,50,n1931
114.16922,0.056089688,51,38,n1935
114.44433,0.048076876,51,38,n1938
114.01832,0.036057655,64,50,n1933
114.1572,0.05475422,61,50,n1934
114.29075,0.03338672,64,50,n1936
114.42564,0.05341875,65,50,n1937
114.72344,0.05341875,49,38,n1941
114.989204,0.05475422,51,38,n1944
114.56052,0.038728595,70,50,n1939
114.706085,0.048076876,62,50,n1940
114.83429,0.037393127,72,50,n1942
114.96917,0.056089688,63,50,n1943
115.26564,0.05208328,50,38,n1947
115.54075,0.04540594,46,38,n1950
115.105385,0.038728595,70,50,n1945
115.24027,0.05475422,65,50,n1946
115.36848,0.049412344,66,50,n1948
115.53541,0.037393127,49,50,n1949
115.80918,0.05208328,46,38,n1953
116.07627,0.05341875,51,38,n1956
115.65961,0.038728595,62,50,n1951
115.805176,0.044070467,60,50,n1952
115.92536,0.04139953,65,50,n1954
116.064255,0.048076876,63,50,n1955
116.34604,0.048076876,46,38,n1959
116.6158,0.058760624,49,38,n1962
116.199135,0.03338672,64,50,n1957
116.331345,0.046741407,61,50,n1958
116.4649,0.029380312,64,50,n1960
116.59844,0.060096093,64,50,n1961
117.09657,0.05475422,51,38,n1965
116.74935,0.037393127,71,50,n1963
117.0899,0.05074781,52,50,n1964
117.86313,0.05208328,40,38,n1968
117.46115,0.03338672,50,50,n1966
117.85111,0.05208328,46,50,n1967
118.77926,0.065437965,39,38,n1971
118.24641,0.038728595,58,50,n1969
118.76858,0.06677344,40,50,n1970
119.87167,0.049412344,46,43,n1972
119.98519,0.042735,55,46,n1973
120.391174,0.05074781,66,46,n1977
120.12141,0.04139953,57,50,n1974
120.264305,0.042735,57,50,n1975
120.52472,0.05074781,65,50,n1979
120.380486,0.05074781,65,51,n1976
120.5127,0.04139953,63,54,n1978
120.90666,0.038728595,73,54,n1983
120.66227,0.04139953,63,43,n1981
120.63557,0.049412344,66,58,n1980
120.76511,0.16960452,71,58,n1982
121.04422,0.042735,70,58,n1986
120.93738,0.04540594,66,59,n1984
121.032196,0.060096093,63,62,n1985
121.177765,0.05208328,78,51,n1987
121.30597,0.18429469,69,51,n1990
121.45154,0.084134534,74,62,n1991
121.1791,0.037393127,70,66,n1988
121.29796,0.1923075,78,66,n1989
121.57707,0.04540594,75,66,n1993
121.46222,0.03205125,79,67,n1992
121.6158,0.0641025,65,70,n1994
122.01644,0.05475422,69,55,n2000
122.14331,0.040064063,66,58,n2002
121.727974,0.048076876,61,59,n1995
121.87888,0.042735,71,59,n1998
122.00842,0.05341875,78,70,n1999
121.752014,0.049412344,62,74,n1996
121.87488,0.057425156,73,74,n1997
122.123276,0.040064063,70,74,n2001
122.5346,0.046741407,70,58,n2008
122.276855,0.04139953,65,62,n2004
122.4291,0.029380312,58,62,n2006
122.68551,0.037393127,52,62,n2010
122.52392,0.04139953,74,63,n2007
122.6588,0.049412344,70,66,n2009
122.25148,0.04139953,68,67,n2003
122.38369,0.044070467,71,67,n2005
123.07413,0.07211531,74,51,n2015
123.217026,0.044070467,70,54,n2018
122.79368,0.05341875,67,55,n2011
122.94058,0.040064063,59,55,n2014
123.07947,0.05074781,75,66,n2016
122.79501,0.05074781,71,70,n2012
122.92322,0.044070467,66,70,n2013
123.21302,0.024038438,64,70,n2017
123.632355,0.05341875,69,54,n2024
123.346565,0.056089688,79,58,n2020
123.508156,0.03071578,57,58,n2022
123.796616,0.03338672,52,58,n2026
123.62568,0.057425156,72,59,n2023
123.75388,0.060096093,76,62,n2025
123.34523,0.042735,68,63,n2019
123.476105,0.042735,72,63,n2021
124.18925,0.06143156,58,47,n2032
124.308105,0.04139953,61,50,n2034
123.90079,0.049412344,63,51,n2028
124.05704,0.049412344,56,51,n2030
124.17322,0.04540594,76,62,n2031
123.894104,0.06276703,70,66,n2027
124.02899,0.044070467,58,66,n2029
124.30409,0.03338672,64,66,n2033
124.723434,0.05208328,65,50,n2040
124.44699,0.044070467,68,54,n2036
124.58454,0.04540594,63,54,n2038
124.866325,0.046741407,66,54,n2042
124.712746,0.04139953,69,55,n2039
124.834274,0.042735,72,58,n2041
124.43898,0.042735,68,59,n2035
124.567184,0.040064063,66,59,n2037
124.99186,0.08146359,66,47,n2044
125.08935,0.042735,57,47,n2045
125.24693,0.048076876,71,58,n2047
124.96516,0.040064063,72,62,n2043
125.10538,0.040064063,70,62,n2046
125.37915,0.060096093,80,62,n2049
125.26029,0.0641025,91,63,n2048
125.39117,0.07211531,72,66,n2050
125.534065,0.042735,84,55,n2052
125.803825,0.14823703,89,66,n2055
125.51403,0.06276703,89,70,n2051
125.67028,0.26575828,76,70,n2054
125.936035,0.07612172,85,70,n2057
125.814514,0.13755327,90,71,n2056
125.95874,0.065437965,86,74,n2058
126.36606,0.07345078,62,59,n2064
126.48091,0.044070467,70,62,n2066
126.07493,0.05074781,70,63,n2059
126.22183,0.05341875,67,63,n2062
126.34202,0.070779845,87,74,n2063
126.0776,0.065437965,88,78,n2060
126.20447,0.056089688,82,78,n2061
126.47557,0.037393127,77,78,n2065
126.902916,0.046741407,60,62,n2072
126.62113,0.05208328,72,66,n2068
126.78005,0.04540594,65,66,n2070
127.0151,0.05475422,55,66,n2074
126.8722,0.05341875,71,67,n2071
127.00575,0.046741407,74,70,n2073
126.60511,0.05208328,71,71,n2067
126.738655,0.046741407,76,71,n2069
127.43043,0.0641025,67,55,n2080
127.55329,0.046741407,68,58,n2082
127.13663,0.046741407,66,59,n2075
127.29688,0.042735,51,59,n2078
127.41173,0.070779845,77,70,n2079
127.1393,0.046741407,73,74,n2076
127.28352,0.036057655,67,74,n2077
127.54261,0.038728595,70,74,n2081
127.96328,0.048076876,72,58,n2088
127.697525,0.04540594,63,62,n2084
127.84843,0.042735,65,62,n2086
128.10217,0.056089688,61,62,n2090
127.959274,0.044070467,72,63,n2087
128.08882,0.04540594,63,66,n2089
127.68684,0.040064063,68,67,n2083
127.82039,0.038728595,64,67,n2085
128.22102,0.056089688,72,55,n2092
128.3519,0.07612172,58,55,n2093
128.50014,0.070779845,65,55,n2097
128.63503,0.05208328,59,62,n2099
128.4948,0.060096093,84,66,n2096
128.49078,0.048076876,75,67,n2095
128.21703,0.04139953,63,70,n2091
128.3519,0.07612172,72,70,n2094
128.62167,0.058760624,68,70,n2098
128.78459,0.065437965,66,55,n2102
129.07573,0.06677344,61,55,n2107
129.18924,0.034722187,52,60,n2109
128.91948,0.042735,59,61,n2104
129.04901,0.07478625,77,64,n2106
128.77925,0.048076876,71,65,n2101
129.04234,0.056089688,74,70,n2105
128.76723,0.05208328,79,74,n2100
128.90479,0.042735,61,74,n2103
129.17856,0.042735,59,74,n2108
129.3495,0.06143156,42,55,n2112
129.61392,0.112179376,63,55,n2117
129.73277,0.04540594,68,58,n2119
129.4403,0.046741407,58,59,n2113
129.59254,0.08947641,73,62,n2116
129.31477,0.120192185,77,63,n2111
129.30943,0.05475422,71,67,n2110
129.45767,0.044070467,58,67,n2114
129.58453,0.070779845,74,67,n2115
129.74612,0.040064063,66,70,n2120
129.89304,0.112179376,74,55,n2123
130.17615,0.112179376,67,55,n2128
130.291,0.04540594,65,59,n2129
130.0159,0.05475422,67,60,n2124
130.16147,0.11752125,86,63,n2126
129.88503,0.09481828,84,64,n2121
130.16814,0.05074781,74,70,n2127
129.88635,0.04540594,74,74,n2122
130.01723,0.038728595,65,74,n2125
130.30702,0.029380312,51,74,n2130
130.4566,0.14289516,71,55,n2133
130.86258,0.038728595,59,57,n2139
130.57011,0.060096093,70,58,n2134
130.45126,0.128205,82,62,n2131
130.45126,0.05475422,73,67,n2132
130.5888,0.06143156,60,67,n2135
130.75307,0.05208328,69,67,n2137
130.87727,0.05475422,74,70,n2140
131.03754,0.25373906,73,45,n2143
131.02818,0.26308733,77,55,n2141
131.14703,0.14423062,80,57,n2144
131.42482,0.037393127,72,57,n2148
131.27524,0.07612172,72,61,n2146
131.02818,0.13621782,85,74,n2142
131.1644,0.12686953,78,74,n2145
131.30328,0.1068375,99,79,n2147
130.78513,0.07345078,47,53,n2138
131.74399,0.09214734,59,59,n2153
132.00307,0.128205,75,61,n2155
131.58107,0.25507453,89,73,n2150
132.0084,0.12152766,87,80,n2156
131.73198,0.10416656,78,81,n2152
131.86418,0.06944437,76,81,n2154
132.13528,0.080128126,72,62,n2158
132.25948,0.79326844,71,63,n2159
132.3877,0.66506344,78,64,n2162
132.52791,0.29380313,85,65,n2165
132.40504,0.64770234,94,78,n2163
132.26616,0.7865911,80,79,n2160
132.12994,0.07211531,78,80,n2157
133.26242,0.22569422,15,82,n2185
132.26883,0.13621782,80,86,n2161
132.40504,0.1322114,86,86,n2164
132.53726,0.12686953,80,86,n2166
132.6628,0.38995686,85,66,n2168
132.81104,0.11752125,64,67,n2173
132.92856,0.12419859,65,67,n2176
133.02338,0.04139953,81,70,n2178
133.08214,0.028044844,52,76,n2180
132.66547,0.13488235,92,77,n2170
132.80035,0.2524036,82,77,n2172
132.66412,0.128205,90,86,n2169
132.79233,0.12553406,91,86,n2171
132.91786,0.13354687,86,86,n2175
133.05142,0.049412344,76,86,n2179
133.21301,0.27510655,63,55,n2184
133.49078,0.11752125,62,55,n2190
133.6083,0.05074781,69,61,n2192
133.3332,0.15491438,72,62,n2187
133.4841,0.07745719,72,65,n2189
133.1943,0.29380313,84,66,n2181
133.47209,0.06276703,80,70,n2188
133.205,0.28311938,93,74,n2183
133.59361,0.036057655,66,74,n2191
133.1943,0.29380313,98,86,n2182
133.76321,0.2697647,79,55,n2196
134.05302,0.07478625,48,55,n2201
134.14784,0.04139953,55,59,n2202
133.87941,0.1535789,71,60,n2197
134.03432,0.09481828,73,63,n2199
133.7472,0.28579032,93,64,n2194
133.74854,0.13888875,95,67,n2195
133.88742,0.14556609,77,67,n2198
134.03432,0.06810891,66,67,n2200
134.15718,0.03071578,75,70,n2203
133.74586,0.2871258,94,79,n2193
134.29607,0.29113218,71,55,n2205
134.63127,0.06810891,50,55,n2212
134.41893,0.16826907,71,58,n2208
134.97182,0.14022422,69,59,n2219
134.28673,0.30048046,88,62,n2204
134.8543,0.25774547,77,63,n2216
134.58588,0.08146359,81,70,n2211
134.29874,0.12553406,97,74,n2206
134.42427,0.16292718,80,74,n2209
134.73277,0.038728595,61,74,n2214
134.3041,0.28311938,92,86,n2207
134.8543,0.25774547,63,55,n2215
135.16814,0.060096093,42,55,n2223
134.69405,0.10950844,64,60,n2213
135.27364,0.27243564,59,62,n2225
134.55516,0.102831095,68,64,n2210
135.12407,0.070779845,64,66,n2221
134.86499,0.13755327,93,67,n2218
135.00253,0.10950844,74,67,n2220
135.13208,0.088140935,56,67,n2222
135.2683,0.065437965,60,68,n2224
135.29767,0.24839719,65,73,n2226
134.86365,0.24839719,91,79,n2217
135.38982,0.15624985,59,55,n2228
135.67961,0.07345078,66,55,n2234
135.77711,0.1963139,68,60,n2236
135.52203,0.046741407,60,61,n2231
135.66226,0.06677344,73,64,n2233
135.3965,0.1495725,65,65,n2229
135.49132,0.05475422,68,68,n2230
135.3778,0.16826907,74,69,n2227
135.6222,0.07478625,80,69,n2232
135.74506,0.080128126,72,70,n2235
135.81717,0.16826907,76,75,n2237
135.90799,0.078792654,62,55,n2240
136.16306,0.10550203,64,55,n2245
136.41412,0.24038437,74,55,n2251
136.69191,0.14423062,79,55,n2257
136.95366,0.21634594,81,55,n2264
136.26723,0.088140935,75,58,n2247
136.02417,0.06143156,60,59,n2242
136.15504,0.116185784,79,62,n2244
135.89195,0.1068375,76,63,n2239
136.00548,0.060096093,78,70,n2241
135.88661,0.10550203,79,71,n2238
136.14302,0.10016016,86,71,n2243
136.2512,0.040064063,72,72,n2246
136.28726,0.3672539,82,77,n2248
136.80942,0.08279906,79,56,n2260
136.53432,0.120192185,68,57,n2253
136.69324,0.14690156,79,60,n2258
136.4128,0.24171984,82,61,n2250
136.53165,0.12286312,77,72,n2252
136.39943,0.25507453,90,73,n2249
136.67989,0.084134534,85,73,n2255
136.76268,0.10817297,69,74,n2259
136.84549,0.102831095,75,79,n2261
137.04848,0.12152766,86,58,n2265
136.94698,0.22302328,85,59,n2263
137.21942,0.06677344,75,66,n2268
137.07518,0.09481828,74,74,n2266
137.22476,0.057425156,80,74,n2269
136.92828,0.24171984,94,75,n2262
137.11525,0.05475422,51,79,n2267
137.47316,0.22168781,81,55,n2280
137.77097,0.08947641,76,55,n2286
137.86444,0.08279906,73,60,n2288
137.60938,0.08547,82,61,n2283
137.76028,0.0641025,86,64,n2285
137.47716,0.21768141,89,65,n2281
137.41707,0.0013354687,51,73,n2277
137.55595,0.13888875,81,80,n2282
136.68121,0.048076876,16,81,n2256
137.7162,0.11351484,79,81,n2284
137.83372,0.05475422,85,82,n2287
137.41173,0.28311938,47,85,n2276
137.99933,0.25774547,76,55,n2292
138.25708,0.116185784,77,55,n2298
138.36124,0.06677344,82,58,n2299
138.09013,0.17895281,78,59,n2294
138.2504,0.12553406,90,62,n2297
137.97662,0.29246765,95,63,n2290
137.9753,0.29380313,100,75,n2289
138.11151,0.15758531,87,82,n2295
138.24905,0.11885672,94,83,n2296
138.65771,0.35523468,86,83,n2308
138.37459,0.028044844,82,84,n2300
137.97797,0.29113218,96,87,n2291
138.50414,0.28445485,83,55,n2302
138.78859,0.22435875,89,55,n2310
138.91011,0.102831095,90,56,n2314
138.63101,0.38194406,76,57,n2306
138.7926,0.22035234,88,60,n2311
138.50012,0.51282,95,61,n2301
138.50815,0.5048072,98,77,n2304
138.63902,0.18696563,76,84,n2307
138.02603,0.24305531,39,85,n2293
138.78058,0.23237157,92,85,n2309
138.8981,0.11485031,92,86,n2313
138.5068,0.5061427,94,89,n2303
139.34814,0.60363185,98,42,n2323
139.34949,0.6022964,107,54,n2324
139.05702,0.89476407,83,55,n2317
139.39223,0.55956143,92,56,n2326
139.15985,0.79193294,92,58,n2319
139.045,0.45405936,101,59,n2316
139.49905,0.4313564,73,59,n2327
139.09308,0.8587064,39,78,n2318
139.1959,0.7558753,62,79,n2322
139.17053,0.7812492,65,86,n2320
139.03833,0.9134606,100,87,n2315
139.93042,0.1068375,84,59,n2331
139.67267,0.13354687,75,63,n2329
139.80621,0.14556609,76,63,n2330
140.05328,0.13621782,76,63,n2333
139.93175,0.042735,112,65,n2332
139.66867,0.28311938,111,66,n2328
140.20819,0.036057655,77,56,n2335
140.32037,0.1068375,89,56,n2336
140.45259,0.058760624,107,63,n2337
140.18816,0.038728595,109,64,n2334
140.48062,0.213675,87,64,n2338
140.59415,0.10016016,87,67,n2339
141.01347,0.11752125,114,61,n2343
140.73705,0.05074781,106,62,n2340
141.03084,0.10016016,94,68,n2344
140.74905,0.058760624,96,71,n2341
140.87059,0.12152766,89,71,n2342
141.15103,0.06810891,83,71,n2345
141.54233,0.27110016,95,42,n2349
141.6732,0.14022422,91,54,n2352
141.57437,0.046741407,89,56,n2350
141.70125,0.112179376,72,59,n2353
141.27657,0.044070467,106,60,n2346
141.28992,0.112179376,93,75,n2347
141.4021,0.16426265,79,75,n2348
142.11525,0.088140935,84,59,n2360
141.82144,0.08680547,80,63,n2355
141.97101,0.16025625,71,63,n2358
142.22876,0.12152766,81,63,n2361
142.22876,0.12152766,66,65,n2362
141.96968,0.12286312,86,66,n2357
142.09254,0.10149562,84,66,n2359
141.84547,0.0641025,95,67,n2356
142.38234,0.12286312,91,56,n2365
142.5052,0.42868546,87,56,n2367
142.79633,0.13755327,88,62,n2371
142.63608,0.29780954,92,63,n2368
142.48383,0.16960452,88,64,n2366
142.65344,0.28044844,87,64,n2369
142.3623,0.57158065,98,65,n2364
142.7803,0.1535789,95,67,n2370
143.29713,0.15090796,79,59,n2378
143.18896,0.25908095,88,60,n2376
143.0661,0.38194406,89,61,n2375
142.9379,0.51014906,81,62,n2373
143.19029,0.25774547,99,68,n2377
142.91652,0.06143156,94,71,n2372
143.03004,0.29246765,91,71,n2374
143.32251,0.12553406,88,71,n2379
143.51881,0.35523468,91,32,n2382
143.84468,0.060096093,81,35,n2387
143.5108,0.3632475,105,44,n2381
143.84201,0.3285253,103,47,n2386
143.8607,0.30982876,86,56,n2388
143.9809,0.18963656,73,59,n2390
143.50813,0.1669336,103,75,n2380
143.67506,0.19898485,90,75,n2385
144.16118,0.26575828,83,39,n2394
144.42694,0.26842922,84,39,n2397
144.14516,0.27644202,114,51,n2392
144.4216,0.2737711,93,51,n2396
144.42961,0.26575828,93,59,n2398
144.0677,0.102831095,68,63,n2391
144.27202,0.2737711,80,63,n2395
144.54579,0.1495725,83,63,n2399
144.14915,0.5462067,89,71,n2393
144.70204,0.042735,87,35,n2401
144.97314,0.25641,82,39,n2408
144.69403,0.05208328,98,47,n2400
144.95311,0.27644202,95,51,n2407
144.97314,0.25641,83,56,n2409
145.11337,0.116185784,64,59,n2412
144.70605,0.5235037,80,70,n2402
145.23756,0.07345078,88,32,n2415
145.506,0.17094,84,32,n2420
145.23222,0.084134534,104,44,n2414
145.49799,0.17895281,96,44,n2419
145.506,0.17094,87,59,n2421
145.18549,0.058760624,60,63,n2413
145.35109,0.27510655,82,63,n2418
145.62619,0.07612172,84,63,n2422
145.24425,0.43269187,96,69,n2416
145.77843,0.3338672,87,32,n2424
146.0482,0.0641025,78,35,n2430
145.77042,0.34188,99,44,n2423
146.04019,0.07211531,93,47,n2428
146.10696,0.03205125,51,55,n2431
145.79312,0.128205,93,56,n2426
145.92133,0.12286312,62,56,n2427
146.04419,0.07612172,80,56,n2429
146.17908,0.042735,79,59,n2432
145.78778,0.32451892,92,68,n2425
146.33533,0.25373906,74,39,n2436
146.58907,0.080128126,83,39,n2438
146.3193,0.2697647,100,51,n2433
146.58907,0.06810891,85,51,n2439
146.88287,0.10416656,77,55,n2447
146.59174,0.12419859,93,59,n2440
146.32864,0.12553406,98,60,n2435
146.45418,0.20299125,93,60,n2437
146.7186,0.0641025,87,63,n2441
146.3233,0.3338672,97,67,n2434
146.86017,0.36992484,73,35,n2444
147.1326,0.097489215,77,39,n2451
146.85483,0.37526673,93,47,n2443
147.12192,0.10817297,87,51,n2450
147.93788,1.5491438,73,53,n2468
146.98703,0.116185784,97,55,n2448
147.10323,0.12686953,96,55,n2449
147.40103,0.39529875,66,59,n2457
146.85349,0.37660217,94,66,n2442
147.36765,0.30048046,88,32,n2454
147.66812,0.128205,82,32,n2461
147.36497,0.29647407,99,44,n2453
147.66144,0.13488235,91,44,n2460
147.38232,0.12686953,96,60,n2455
147.5092,0.15090796,95,60,n2458
147.66011,0.13621782,91,60,n2459
147.7843,0.07745719,83,63,n2462
147.9272,1.5598274,50,63,n2467
147.91518,1.5718467,94,29,n2464
147.91118,1.5758531,111,41,n2463
147.91518,1.5718467,91,52,n2465
147.91518,0.33520266,91,64,n2466
148.20232,0.76923,82,69,n2469
148.32117,0.39663422,85,72,n2474
148.26106,0.19364297,67,75,n2472
148.72714,0.5288456,70,65,n2482
148.45471,0.5395294,84,66,n2477
148.7178,0.65437967,94,72,n2480
148.44536,0.53285205,97,73,n2475
148.71913,0.1669336,95,74,n2481
148.4467,0.12954047,99,76,n2476
148.57623,0.2644228,82,76,n2479
148.84067,0.6463669,70,76,n2484
149.256,0.2310361,68,65,n2492
148.99425,0.49278796,78,66,n2488
148.97154,0.12686953,92,69,n2486
149.0984,0.13087593,81,69,n2489
149.22928,0.25774547,78,69,n2490
149.37218,0.11485031,80,72,n2493
148.97821,0.5088136,105,73,n2487
149.23062,0.25641,110,75,n2491
149.76747,0.48076874,75,65,n2500
149.50839,0.52083284,93,66,n2496
149.75813,0.49011704,89,72,n2498
149.49905,0.51949733,106,73,n2494
149.76614,0.4821042,89,74,n2499
149.49905,0.120192185,106,76,n2495
149.61925,0.25507453,91,76,n2497
149.87431,0.37393126,80,76,n2501
150.28831,0.5248392,76,65,n2508
150.02924,0.21901688,76,66,n2504
150.01988,0.12954047,87,69,n2503
150.14943,0.09882469,79,69,n2505
150.27896,0.5341875,80,69,n2507
150.4125,0.51549095,82,72,n2509
150.01854,0.22970062,104,73,n2502
150.27496,1.0603622,107,75,n2506
150.81316,0.5422003,85,65,n2515
150.55408,0.53685844,83,66,n2512
150.81316,0.52751017,87,69,n2516
150.928,0.5248392,93,72,n2517
150.53804,0.535523,95,73,n2510
150.79979,1.0523493,105,74,n2514
150.54205,0.12686953,90,76,n2511
150.66891,0.40731797,89,76,n2513
151.35535,0.51014906,74,65,n2524
151.09093,0.5248392,79,66,n2520
151.34067,0.5248392,91,69,n2523
151.45284,0.52083284,94,72,n2525
151.07356,0.5248392,107,73,n2518
151.33531,1.0416657,105,75,n2522
151.07623,0.12553406,103,76,n2519
151.20177,0.39930516,100,76,n2521
151.8655,0.71981764,83,65,n2532
151.61577,0.5048072,74,66,n2528
151.8655,0.71981764,89,69,n2533
151.97368,0.42200813,67,72,n2534
151.5984,0.51282,100,73,n2526
151.85214,0.73317236,102,74,n2531
151.60107,0.13354687,96,76,n2527
151.73462,0.39129233,94,76,n2530
152.12057,0.46474314,85,66,n2536
152.39568,0.18963656,87,72,n2540
152.11122,0.4740914,100,73,n2535
152.37698,0.20833312,118,75,n2539
152.12592,0.10817297,97,76,n2537
152.23409,0.28311938,80,76,n2538
152.51721,0.06810891,88,76,n2541
152.91785,0.65571517,89,76,n2545
152.92052,1.0496784,109,78,n2546
152.66545,0.128205,106,79,n2543
152.79366,0.24439079,85,79,n2544
153.03804,0.6784181,85,79,n2547
152.65343,0.040064063,108,80,n2542
153.17827,0.13354687,82,72,n2548
153.31181,0.13755327,79,72,n2550
153.44937,0.77590734,85,72,n2553
153.43468,1.0416657,115,73,n2552
153.17827,1.0470074,112,75,n2549
153.57356,0.3979697,86,76,n2554
153.97153,0.6330122,78,76,n2559
153.9702,0.70379204,110,78,n2558
153.71646,0.11885672,104,79,n2556
153.83531,0.25373906,90,79,n2557
154.08905,0.16426265,83,79,n2561
153.7071,0.96687937,112,80,n2555
154.22527,0.13488235,84,72,n2562
154.36015,0.12419859,83,72,n2565
154.48436,0.18963656,78,72,n2567
154.47635,0.19764937,106,73,n2566
154.22527,0.4487175,108,75,n2563
154.60455,0.06944437,85,76,n2568
155.00117,0.50213623,88,72,n2574
154.99985,0.5114845,114,75,n2573
155.1187,0.50213623,99,76,n2575
154.75145,0.12954047,100,79,n2570
154.88098,0.37126032,91,79,n2572
154.73276,0.52751017,106,80,n2569
155.50331,0.53285205,90,72,n2579
156.03616,0.69845015,92,72,n2587
155.51132,0.5168264,107,75,n2580
156.02815,0.706463,115,75,n2586
155.62083,0.53685844,103,76,n2581
155.25224,0.120192185,106,79,n2576
155.37244,0.40064064,94,79,n2578
155.89995,0.38194406,102,79,n2585
155.26025,0.5061427,115,80,n2577
156.1577,0.5769225,97,76,n2588
155.77309,0.12686953,104,79,n2583
155.7664,0.5048072,115,80,n2582
157.13126,0.046741407,55,38,n2592
157.2381,0.040064063,54,40,n2593
156.28189,0.12419859,103,79,n2590
156.4061,0.3285253,96,79,n2591
156.27121,0.46340767,107,80,n2589
157.62137,0.07345078,72,21,n2598
158.18094,0.0641025,68,21,n2605
158.022,0.057425156,32,26,n2602
157.38232,0.05475422,41,38,n2594
157.38365,0.044070467,55,41,n2595
157.49718,0.05475422,51,42,n2596
157.64006,0.16826907,78,42,n2599
157.91518,0.057425156,62,43,n2601
157.50519,0.040064063,53,45,n2597
157.90182,0.06276703,58,38,n2600
158.03804,0.049412344,56,44,n2603
158.18361,0.065437965,72,44,n2606
158.29178,0.06677344,53,45,n2607
158.04204,0.049412344,49,47,n2604
158.29178,0.06276703,59,48,n2608
158.73515,0.11885672,71,21,n2615
158.56021,0.044070467,49,26,n2611
158.45203,0.070779845,55,38,n2609
158.45871,0.08146359,59,45,n2610
158.58157,0.04139953,40,46,n2613
158.72714,0.12686953,66,46,n2614
158.8273,0.05208328,50,47,n2616
158.58023,0.05475422,54,49,n2612
158.83531,0.05341875,58,50,n2617
159.25732,0.088140935,69,21,n2624
159.08237,0.048076876,55,26,n2620
158.99423,0.065437965,51,38,n2618
159.00491,0.05208328,45,47,n2619
159.10641,0.042735,45,48,n2621
159.25598,0.06810891,70,48,n2623
159.12111,0.06143156,56,51,n2622
159.36816,0.040064063,66,52,n2625
159.80219,0.09081188,81,21,n2636
159.65396,0.16025625,67,28,n2632
159.89433,0.044070467,58,33,n2638
159.51907,0.2951386,86,40,n2627
159.89967,0.056089688,75,51,n2639
159.64194,0.15224344,78,52,n2631
159.79417,0.116185784,78,52,n2635
159.88232,0.09481828,72,54,n2637
159.6406,0.14556609,68,55,n2630
159.78616,0.13755327,78,55,n2633
159.51373,0.27911296,83,56,n2626
159.79285,0.116185784,80,56,n2634
160.3257,0.060096093,68,21,n2649
160.18814,0.057425156,33,28,n2645
160.1,0.046741407,40,40,n2643
160.47794,0.034722187,46,49,n2652
160.1975,0.037393127,48,50,n2646
160.3297,0.093482815,70,50,n2650
160.0626,0.08680547,72,51,n2641
160.2202,0.0013354687,27,52,n2647
160.44322,0.07745719,56,52,n2651
160.1681,0.06276703,61,53,n2644
160.07997,0.1068375,49,54,n2642
160.05058,0.11752125,74,56,n2640
160.32303,0.110843904,79,56,n2648
160.88393,0.14823703,65,21,n2659
160.71832,0.046741407,50,28,n2656
160.98274,0.05341875,30,33,n2661
160.6155,0.080128126,52,40,n2655
161.04417,0.044070467,30,47,n2663
160.7664,0.046741407,44,48,n2658
160.60214,0.058760624,68,49,n2653
161.00278,0.06276703,68,50,n2662
160.74904,0.0641025,67,51,n2657
160.60214,0.11485031,71,56,n2654
160.8906,0.14155969,72,56,n2660
161.39407,0.1923075,73,21,n2669
161.22714,0.044070467,50,28,n2666
161.47687,0.10950844,53,33,n2672
161.147,0.06143156,57,40,n2664
161.43547,0.15090796,70,45,n2671
161.2632,0.057425156,68,49,n2667
161.15903,0.13488235,77,56,n2665
161.40608,0.18028829,84,57,n2670
161.95764,0.05475422,62,24,n2679
161.78001,0.044070467,57,29,n2676
161.66917,0.080128126,63,41,n2674
161.6665,0.058760624,67,44,n2673
161.772,0.04540594,26,45,n2675
161.94028,0.09214734,61,45,n2678
162.0725,0.038728595,36,46,n2680
161.78001,0.065437965,63,48,n2677
162.0725,0.042735,52,49,n2681
162.49583,0.07345078,71,24,n2688
162.3329,0.044070467,52,29,n2686
162.21939,0.07745719,62,41,n2683
162.21805,0.056089688,58,46,n2682
162.3182,0.05208328,44,47,n2684
162.49182,0.07745719,65,47,n2687
162.62003,0.04540594,41,48,n2689
162.32356,0.05475422,58,50,n2685
162.62003,0.060096093,63,51,n2690
163.05272,0.06677344,68,24,n2697
162.8898,0.05074781,46,29,n2693
163.7111,0.040064063,62,36,n2708
163.93814,0.21233954,9,36,n2712
164.24663,0.042735,52,36,n2721
164.79817,0.048076876,41,36,n2734
162.75758,0.08547,75,41,n2691
162.76694,0.080128126,69,48,n2692
162.89113,0.04540594,50,49,n2694
163.03403,0.097489215,67,49,n2696
163.14354,0.056089688,48,50,n2698
162.89113,0.05208328,57,52,n2695
163.15689,0.06677344,61,53,n2699
163.58023,0.11752125,72,24,n2706
163.42532,0.046741407,55,29,n2702
163.31314,0.07745719,63,41,n2701
163.3118,0.08146359,73,50,n2700
163.43867,0.04540594,51,51,n2703
163.57756,0.08547,78,51,n2705
163.70444,0.040064063,46,52,n2707
163.44669,0.05341875,63,54,n2704
163.72046,0.24839719,61,55,n2709
164.1291,0.10550203,77,24,n2718
163.9782,0.17227547,69,31,n2715
163.86201,0.28846124,87,43,n2711
164.2493,0.06810891,79,54,n2722
163.96886,0.16159172,63,55,n2714
164.13045,0.110843904,72,55,n2719
164.22794,0.070779845,77,57,n2720
163.95818,0.1495725,49,58,n2713
164.10774,0.16826907,66,58,n2716
163.85934,0.2644228,100,59,n2710
164.12376,0.09882469,83,59,n2717
164.69801,0.0641025,64,24,n2730
164.50705,0.05074781,54,31,n2727
164.42825,0.056089688,58,43,n2725
164.84225,0.042735,61,52,n2736
164.54845,0.042735,60,53,n2729
164.70737,0.09214734,68,53,n2731
164.42426,0.08279906,69,54,n2724
164.82355,0.08146359,65,55,n2735
164.53242,0.057425156,68,56,n2728
164.72873,0.13488235,63,56,n2733
164.4336,0.10950844,68,57,n2726
164.4189,0.10416656,70,59,n2723
164.71004,0.097489215,67,59,n2732
165.23888,0.06276703,73,24,n2744
164.96645,0.07478625,65,43,n2737
165.6048,0.065437965,69,51,n2748
165.00919,0.029380312,50,52,n2738
165.1641,0.0013354687,30,52,n2742
165.36174,0.06143156,66,53,n2745
165.12804,0.037393127,50,54,n2741
165.02121,0.065437965,42,55,n2739
165.06528,0.036057655,10,59,n2740
165.23354,0.10950844,72,59,n2743
165.77307,0.19764937,73,24,n2750
165.61816,0.06276703,43,31,n2749
165.49129,0.08680547,70,43,n2746
165.89459,0.07612172,71,51,n2752
165.50197,0.10550203,73,59,n2747
165.77441,0.1963139,81,60,n2751
166.29257,0.08947641,75,33,n2759
166.147,0.044070467,59,38,n2756
166.03883,0.07745719,69,50,n2754
166.02815,0.07745719,75,53,n2753
166.16971,0.037393127,59,54,n2757
166.29524,0.084134534,74,54,n2760
166.42612,0.042735,40,55,n2761
166.17772,0.036057655,53,57,n2758
166.43011,0.0641025,65,58,n2762
166.85347,0.08279906,75,33,n2768
166.67986,0.04139953,56,38,n2765
166.98033,0.044070467,40,45,n2772
166.56367,0.10416656,69,50,n2763
166.57301,0.10416656,75,55,n2764
166.72125,0.044070467,55,56,n2767
166.85614,0.08146359,77,56,n2769
166.9563,0.056089688,47,57,n2770
166.7119,0.05475422,65,59,n2766
166.96832,0.065437965,68,60,n2771
167.40367,0.09081188,74,33,n2778
167.23674,0.044070467,52,38,n2775
167.50517,0.04540594,60,45,n2781
167.1259,0.09214734,72,50,n2773
167.12724,0.102831095,76,57,n2774
167.27013,0.044070467,41,58,n2777
167.40501,0.080128126,78,58,n2779
167.4985,0.06944437,43,59,n2780
167.26746,0.06677344,61,61,n2776
167.5172,0.0641025,65,62,n2782
167.96324,0.10016016,71,33,n2789
167.80031,0.049412344,44,38,n2785
168.06607,0.39930516,61,45,n2790
167.69214,0.08947641,68,50,n2783
167.69882,0.08547,80,59,n2784
167.82703,0.03205125,45,60,n2787
167.9579,0.08279906,76,60,n2788
168.1048,0.36057657,23,61,n2792
167.81767,0.05074781,63,63,n2786
168.08209,0.27510655,66,64,n2791
168.50278,0.10550203,77,33,n2802
168.3492,0.116185784,65,40,n2796
168.61629,0.06276703,72,45,n2804
168.2103,0.25507453,95,52,n2793
168.62163,0.06944437,76,63,n2805
168.35721,0.10817297,82,64,n2798
168.50143,0.12419859,73,64,n2801
168.59625,0.10149562,71,66,n2803
168.3492,0.116185784,84,67,n2797
168.48407,0.15491438,72,67,n2799
168.21564,0.24973266,90,68,n2794
168.49342,0.14289516,87,68,n2800
168.7752,0.14556609,81,68,n2806
169.05832,0.11485031,79,68,n2814
169.3174,0.128205,70,68,n2820
169.06902,0.060096093,65,33,n2815
168.9221,0.037393127,54,40,n2811
169.17584,0.048076876,33,45,n2817
168.8086,0.08146359,73,52,n2809
169.20122,0.034722187,53,61,n2818
168.92612,0.040064063,60,62,n2812
169.05565,0.08947641,73,62,n2813
168.79123,0.09481828,70,63,n2807
169.16783,0.05341875,64,64,n2816
168.89006,0.070779845,73,65,n2810
168.80725,0.12686953,53,66,n2808
169.58984,0.080128126,69,33,n2826
169.44829,0.04139953,48,40,n2824
169.31607,0.088140935,70,52,n2819
169.62323,0.048076876,39,59,n2828
169.74208,0.048076876,61,59,n2830
169.4416,0.060096093,65,60,n2823
169.32008,0.07478625,70,61,n2821
169.7314,0.046741407,67,62,n2829
169.4563,0.044070467,63,63,n2825
169.33209,0.046741407,40,64,n2822
169.59518,0.17895281,78,68,n2827
170.11201,0.21501046,78,33,n2836
169.97847,0.046741407,40,40,n2833
170.2362,0.09081188,59,45,n2839
169.84758,0.088140935,78,52,n2831
170.20683,0.120192185,53,57,n2838
169.98514,0.07345078,76,61,n2834
170.24422,0.08279906,63,61,n2840
169.8743,0.14022422,77,68,n2832
170.13203,0.19497843,92,69,n2837
170.67157,0.08680547,76,36,n2847
170.5033,0.036057655,62,41,n2845
170.78108,0.04139953,57,48,n2848
170.3938,0.08680547,76,53,n2842
170.3831,0.080128126,83,56,n2841
170.4993,0.042735,39,57,n2844
170.65955,0.09481828,81,57,n2846
170.78508,0.04540594,58,58,n2849
170.49663,0.07211531,61,60,n2843
170.7891,0.080128126,68,61,n2850
171.2111,0.116185784,86,36,n2856
171.03749,0.048076876,64,41,n2853
170.93599,0.08680547,81,53,n2852
170.92398,0.10817297,84,58,n2851
171.0455,0.05475422,50,59,n2854
171.21378,0.11351484,83,59,n2857
171.3313,0.044070467,60,60,n2858
171.05486,0.05341875,72,62,n2855
171.34198,0.06677344,69,63,n2859
171.76398,0.10817297,87,36,n2866
171.60106,0.040064063,57,41,n2863
171.45282,0.088140935,84,53,n2860
171.47418,0.097489215,84,60,n2861
171.59839,0.0641025,66,61,n2862
171.7613,0.112179376,92,61,n2865
171.89085,0.044070467,57,62,n2867
171.6064,0.07478625,76,64,n2864
171.8962,0.06810891,74,65,n2868
172.29817,0.12286312,82,36,n2874
172.17398,0.044070467,44,41,n2872
172.0097,0.097489215,81,53,n2869
172.0391,0.09615375,82,62,n2870
172.16595,0.044070467,64,63,n2871
172.30486,0.08547,90,63,n2875
172.4197,0.04139953,50,64,n2876
172.17932,0.07478625,75,66,n2873
172.42905,0.05074781,81,67,n2877
172.85373,0.15758531,75,36,n2887
172.96057,0.05074781,61,48,n2889
172.57462,0.4366983,82,55,n2878
172.98727,0.036057655,42,66,n2890
172.70415,0.13755327,72,67,n2883
172.8417,0.16960452,77,67,n2886
172.84038,0.17094,79,69,n2885
172.69214,0.31917703,77,70,n2882
172.57462,0.26308733,97,71,n2879
172.8377,0.17361094,85,71,n2884
173.38925,0.26575828,71,36,n2901
173.50677,0.14823703,52,48,n2904
173.11949,0.09481828,75,55,n2893
173.52145,0.13354687,69,64,n2905
173.01398,0.028044844,55,65,n2891
173.24902,0.044070467,58,65,n2898
173.38658,0.26842922,81,65,n2899
173.11815,0.128205,79,66,n2892
173.49208,0.16292718,74,67,n2903
173.237,0.06944437,79,68,n2897
173.39993,0.25507453,74,68,n2902
173.1275,0.13488235,82,69,n2895
173.11949,0.12286312,71,71,n2894
173.38658,0.25507453,83,71,n2900
173.93413,0.21501046,75,36,n2914
173.65901,0.088140935,80,55,n2907
173.73914,0.070779845,15,63,n2911
174.05298,0.09615375,76,63,n2915
173.69641,0.038728595,47,64,n2909
173.77788,0.080128126,76,66,n2912
173.68172,0.057425156,55,67,n2908
173.64165,0.11885672,86,71,n2906
173.92477,0.22435875,89,71,n2913
174.44427,0.3084933,77,36,n2919
174.17717,0.09214734,82,55,n2916
174.73273,0.046741407,68,61,n2924
175.25223,0.08279906,86,61,n2932
175.48326,0.17094,80,61,n2935
174.55511,0.19764937,73,63,n2921
174.1932,0.11485031,89,71,n2917
174.44962,0.3031514,86,72,n2920
174.98647,0.22168781,66,37,n2927
174.8636,0.0013354687,13,49,n2926
175.07195,0.13621782,69,49,n2930
174.72205,0.03071578,84,52,n2922
174.82889,0.03338672,73,64,n2925
175.14272,0.065437965,62,75,n2931
174.99315,0.21501046,87,76,n2928
175.53802,0.12553406,62,37,n2940
175.36708,0.040064063,70,49,n2934
175.6275,0.046741407,78,49,n2946
175.55804,0.09615375,87,53,n2941
175.51532,0.13888875,85,54,n2938
175.53268,0.12152766,58,58,n2939
175.5033,0.15090796,69,60,n2936
175.26024,0.078792654,104,77,n2933
176.08423,0.070779845,70,34,n2951
175.91997,0.036057655,68,46,n2949
176.20041,0.51282,54,46,n2954
175.80377,0.037393127,75,53,n2948
175.79977,0.08547,96,58,n2947
176.07755,0.06276703,68,65,n2950
176.1096,0.60363185,66,66,n2953
176.6064,0.1068375,81,33,n2960
176.47017,0.24305531,46,45,n2958
176.5957,0.11752125,92,54,n2959
176.34598,0.3672539,95,57,n2957
176.33128,0.38194406,103,78,n2956
177.13925,0.10149562,77,39,n2965
177.26212,0.03338672,62,51,n2967
176.86281,0.10950844,88,54,n2961
176.87215,0.038728595,84,63,n2962
176.97499,0.07211531,82,66,n2963
177.12321,0.17094,88,78,n2964
177.71216,0.16159172,77,39,n2976
177.53053,0.28846124,72,51,n2970
177.819,0.05475422,83,51,n2977
177.69748,0.17628187,89,55,n2975
177.63336,0.24038437,79,56,n2973
177.68011,0.19364297,23,62,n2974
177.4277,0.44604656,88,63,n2969
177.3863,0.4874461,114,79,n2968
178.2784,0.58760625,72,36,n2982
178.12482,0.044070467,58,48,n2980
178.41728,0.47676235,36,48,n2985
177.96056,0.04139953,68,55,n2978
177.97525,0.08146359,97,60,n2979
178.26103,0.0641025,67,67,n2981
178.30911,0.5849353,72,68,n2983
178.84598,0.048076876,58,35,n2990
178.66568,0.22836515,55,47,n2988
178.8206,0.07345078,80,56,n2989
178.95415,0.03205125,76,57,n2992
178.53615,0.35790563,93,59,n2987
178.51611,0.37793764,96,80,n2986
179.35612,0.26842922,70,38,n2998
179.21991,0.044070467,43,43,n2997
179.48032,0.14423062,74,50,n3000
179.08102,0.1669336,77,55,n2993
179.08502,0.16292718,80,58,n2994
179.2012,0.048076876,64,59,n2995
179.36414,0.26041642,83,59,n2999
179.49501,0.12419859,52,60,n3002
179.20656,0.049412344,63,62,n2996
179.49234,0.1322114,69,63,n3001
179.91568,0.21233954,80,26,n3009
179.77814,0.11351484,69,31,n3007
180.0292,0.09882469,75,38,n3012
179.65527,0.23637797,78,43,n3004
179.61922,0.27243564,84,60,n3003
179.74875,0.13755327,71,61,n3005
179.8863,0.24171984,80,61,n3008
180.01317,0.11485031,59,62,n3010
179.75943,0.1322114,77,64,n3006
180.0332,0.09481828,82,65,n3013
180.33502,0.09081188,49,43,n3018
180.20682,0.21901688,85,55,n3015
180.56071,0.17361094,80,66,n3025
180.29362,0.1322114,70,67,n3017
180.42717,0.3071578,72,67,n3020
180.54869,0.17628187,71,69,n3023
180.28561,0.13354687,72,70,n3016
180.41916,0.31517062,74,70,n3019
180.17343,0.2524036,106,71,n3014
180.43518,0.10016016,79,71,n3021
180.8652,0.10550203,63,31,n3031
180.73566,0.2350425,81,43,n3028
180.87723,0.093482815,56,65,n3032
180.99074,0.23637797,93,65,n3034
180.73566,0.2350425,80,66,n3029
181.11493,0.112179376,83,66,n3038
180.83583,0.13488235,79,68,n3030
181.02412,0.20299125,56,68,n3036
180.72498,0.24572624,87,69,n3027
180.72098,0.24973266,85,71,n3026
180.9854,0.24171984,103,71,n3033
181.53427,0.15892078,80,47,n3044
181.66782,0.036057655,69,59,n3045
181.27519,0.09081188,86,64,n3040
181.2565,0.10950844,97,67,n3039
181.38603,0.056089688,60,68,n3041
181.53027,0.16292718,92,68,n3043
181.66916,0.036057655,68,69,n3046
181.39404,0.05074781,84,71,n3042
181.6745,0.05475422,78,72,n3047
182.07246,0.23370703,80,35,n3054
181.95628,0.07478625,56,40,n3051
182.1793,0.12686953,75,47,n3057
181.81606,0.21501046,84,52,n3049
181.8067,0.22435875,91,69,n3048
181.91222,0.11885672,82,70,n3050
182.08449,0.03071578,65,70,n3055
181.97899,0.05208328,54,73,n3052
182.05644,0.08146359,91,73,n3053
182.18732,0.11885672,81,74,n3059
182.18198,0.12419859,84,76,n3058
182.60399,0.22836515,75,47,n3070
182.4691,0.11485031,65,52,n3068
182.71616,0.116185784,82,59,n3073
182.34224,0.24171984,88,64,n3062
182.33289,0.10817297,93,73,n3060
182.44106,0.14289516,70,73,n3065
182.62402,0.20833312,67,74,n3071
182.45975,0.12419859,78,75,n3066
182.36226,0.22168781,53,76,n3063
182.59998,0.16025625,79,76,n3069
182.33421,0.04540594,82,80,n3061
182.46376,0.120192185,68,80,n3067
182.7322,0.10016016,76,80,n3074
183.15019,0.15758531,78,35,n3083
182.99394,0.31383514,77,40,n3080
183.31847,0.046741407,41,47,n3085
182.86707,0.44070467,90,52,n3077
183.14351,0.10550203,89,61,n3082
183.24901,0.058760624,72,61,n3084
183.72978,0.03338672,46,66,n3097
183.13951,0.16826907,80,70,n3081
182.91649,0.39129233,28,71,n3078
182.8644,0.12686953,93,73,n3076
182.99127,0.3165061,81,73,n3079
183.41194,0.34054452,88,34,n3087
183.40259,0.34989282,107,46,n3086
183.82727,0.038728595,72,67,n3098
183.69507,0.057425156,88,68,n3095
183.4333,0.13488235,72,75,n3089
183.56819,0.18429469,33,75,n3094
183.83128,0.038728595,84,75,n3099
183.41995,0.11485031,93,81,n3088
183.5348,0.21768141,63,81,n3093
184.36546,0.05074781,57,38,n3110
184.2573,0.097489215,61,41,n3109
183.96349,0.110843904,77,53,n3102
184.07434,0.27243564,75,53,n3105
183.95815,0.16025625,88,57,n3101
184.11841,0.22836515,10,57,n3106
183.9528,0.110843904,95,62,n3100
184.06364,0.28311938,76,62,n3104
184.25061,0.09615375,88,73,n3107
184.3668,0.029380312,81,74,n3111
184.25328,0.093482815,86,76,n3108
184.36813,0.049412344,82,77,n3112
184.50703,0.32451892,91,34,n3114
184.49634,0.33520266,107,46,n3113
184.81018,0.034722187,75,60,n3121
184.92369,0.03338672,71,67,n3122
184.79416,0.05074781,91,68,n3120
184.52039,0.116185784,97,75,n3116
184.63657,0.19497843,75,75,n3119
184.92503,0.038728595,82,75,n3123
184.52306,0.10416656,96,81,n3117
184.62721,0.20432672,78,81,n3118
185.07994,0.24706171,92,50,n3127
185.0973,0.112179376,63,53,n3129
185.20949,0.11752125,85,53,n3135
185.07327,0.1495725,97,57,n3124
185.22284,0.10416656,59,57,n3136
185.50328,0.120192185,70,61,n3143
185.38977,0.23370703,66,62,n3139
185.50061,0.12286312,67,65,n3142
185.39111,0.23237157,69,66,n3140
185.37775,0.14155969,80,69,n3138
185.51932,0.10416656,33,69,n3145
186.19106,2.9380312,87,72,n3166
185.5073,0.116185784,75,75,n3144
185.0973,0.22970062,75,81,n3130
186.20575,2.923341,76,81,n3170
186.0535,0.09481828,80,57,n3162
185.9213,0.22702968,77,58,n3157
185.76103,0.38728595,73,59,n3151
185.63416,0.4233436,77,60,n3146
186.05751,0.09081188,80,60,n3163
185.90927,0.23904891,86,62,n3155
185.76637,0.38194406,72,63,n3152
185.64752,0.5008008,71,64,n3149
185.64351,0.14289516,70,69,n3148
185.7864,0.13755327,51,69,n3154
185.92397,0.12152766,77,69,n3158
185.49527,0.128205,76,73,n3141
185.68224,0.46607858,63,73,n3150
185.36707,0.25641,82,74,n3137
185.63817,0.51014906,81,76,n3147
185.78107,0.3672539,71,77,n3153
185.91327,0.2350425,87,78,n3156
185.20013,0.12686953,74,79,n3132
186.04549,0.102831095,86,79,n3161
186.61841,0.3165061,65,39,n3183
187.56125,1.5678403,93,44,n3227
186.3246,0.82131326,84,47,n3172
187.14592,1.9831711,77,47,n3202
186.61574,2.5133522,70,51,n3182
186.33128,2.797807,78,55,n3174
186.19505,2.9340248,77,80,n3167
186.30457,0.15892078,84,83,n3171
186.88016,0.14289516,82,83,n3191
186.46349,0.116185784,78,83,n3177
187.02306,2.1060343,85,83,n3198
186.57968,0.16826907,83,83,n3181
186.88416,0.45806578,58,87,n3192
187.34222,1.7868571,16,87,n3215
187.55858,1.5705112,82,88,n3226
186.573,0.9842405,89,89,n3180
187.17397,0.24706171,64,35,n3207
188.32379,0.80528766,99,35,n3259
187.46776,1.0016016,43,36,n3223
187.44505,1.432958,67,37,n3222
186.74928,1.9711518,83,38,n3188
187.02306,2.1060343,83,48,n3197
186.89485,2.234239,89,49,n3193
186.74794,2.3811407,89,50,n3186
186.74794,0.1322114,83,83,n3187
187.14992,1.9791647,97,84,n3204
186.74127,0.14289516,91,87,n3185
186.73325,1.988513,99,90,n3184
187.93785,0.14823703,43,91,n3246
187.01637,1.088407,99,92,n3196
188.10478,0.8733966,50,92,n3256
187.14725,0.26575828,91,93,n3203
188.34116,0.78792655,93,93,n3262
188.33315,0.7959394,90,28,n3260
187.87508,0.14823703,50,29,n3244
187.97925,1.1498386,67,34,n3249
188.74448,0.384615,51,36,n3279
188.72043,0.15892078,72,38,n3276
188.8887,0.22970062,45,39,n3284
188.99687,0.1322114,72,40,n3287
187.9699,1.1591868,78,41,n3248
188.72177,0.40731797,88,90,n3277
188.08609,0.25641,81,91,n3253
188.5161,0.48343968,25,91,n3269
188.97818,0.15090796,85,92,n3286
189.43358,0.24038437,61,92,n3302
188.7231,0.4059825,82,94,n3278
188.47737,0.6450314,54,95,n3268
188.10077,0.2524036,69,99,n3255
188.09276,0.24839719,68,100,n3254
188.33582,0.34321547,98,101,n3261
188.58688,0.5422003,97,103,n3271
188.3465,0.78258467,74,30,n3265
189.13843,0.26842922,58,31,n3291
188.87802,0.25106812,72,37,n3282
188.87935,0.24973266,74,38,n3283
189.11841,0.28846124,81,39,n3289
189.24661,0.16025625,51,40,n3295
189.14511,0.26175186,86,87,n3292
189.66327,0.26709375,99,90,n3306
189.93839,0.42868546,111,90,n3313
190.46054,0.213675,97,90,n3325
188.99954,0.12954047,96,91,n3288
189.1224,0.2697647,103,95,n3290
188.85397,0.27510655,109,97,n3280
189.26129,0.14556609,88,97,n3296
189.15579,0.25106812,64,33,n3293
189.42822,0.24572624,70,33,n3301
189.6753,0.25507453,83,35,n3308
189.39351,0.28044844,99,41,n3299
189.50702,0.1669336,87,42,n3303
189.66728,0.26308733,94,43,n3307
189.78613,0.14423062,86,44,n3310
189.67929,0.25106812,87,83,n3309
189.39217,0.2817839,105,85,n3297
189.79282,0.13755327,84,86,n3311
189.52171,0.15224344,63,87,n3305
189.51904,0.15491438,83,88,n3304
189.39217,0.2817839,108,95,n3298
189.94907,0.4180017,81,37,n3314
189.93839,0.42868546,88,45,n3312
190.06792,0.25373906,79,46,n3316
190.32166,0.07345078,85,46,n3322
190.19879,0.16826907,94,47,n3318
190.2028,0.16426265,96,79,n3320
189.95306,0.41399533,87,81,n3315
190.323,0.06143156,81,83,n3323
190.07326,0.29380313,80,84,n3317
190.20013,0.1669336,96,88,n3319
190.47124,0.20299125,81,38,n3326
190.75035,0.22035234,74,40,n3335
190.46054,0.213675,94,45,n3324
190.5754,0.09882469,88,46,n3331
190.73431,0.23637797,85,47,n3333
190.85852,0.112179376,86,48,n3340
190.90659,0.0641025,64,78,n3343
190.47658,0.19764937,93,81,n3327
190.86653,0.10416656,81,82,n3341
190.61813,0.084134534,86,84,n3332
190.52065,0.1535789,43,85,n3330
190.745,0.22569422,104,91,n3334
191.00275,0.24439079,81,42,n3346
191.26717,0.23904891,75,43,n3351
190.99606,0.25106812,82,49,n3344
191.13095,0.116185784,81,50,n3347
191.25648,0.24973266,89,51,n3349
191.37802,0.128205,83,52,n3353
191.56097,0.02270297,64,74,n3359
191.28052,0.22569422,83,75,n3352
191.8107,0.24038437,104,78,n3366
192.08047,0.22702968,107,78,n3372
192.59329,0.07345078,107,78,n3383
191.1323,0.11485031,92,79,n3348
191.573,0.20032032,60,80,n3361
190.8879,0.08279906,66,81,n3342
191.26584,0.24038437,92,83,n3350
190.99606,0.25106812,102,85,n3345
191.39537,0.110843904,85,85,n3354
191.54228,0.2310361,82,45,n3358
191.81873,0.23237157,83,47,n3367
191.53026,0.24305531,96,53,n3356
191.66113,0.112179376,86,54,n3362
191.80937,0.24171984,97,55,n3365
191.92422,0.12686953,88,56,n3369
192.59729,0.13888875,107,70,n3384
191.82272,0.22836515,86,71,n3368
191.56631,0.025373906,65,72,n3360
191.53694,0.23637797,89,73,n3357
191.93623,0.11485031,68,74,n3370
191.70921,0.0641025,46,75,n3364
191.66914,0.10416656,74,76,n3363
191.52892,0.24439079,97,83,n3355
192.08714,0.22035234,82,49,n3373
192.07913,0.22836515,97,57,n3371
192.19533,0.112179376,84,58,n3375
192.43837,0.18696563,85,58,n3381
192.33688,0.28846124,94,59,n3377
192.3449,0.28044844,92,67,n3379
192.10318,0.20432672,73,69,n3374
192.45708,0.16826907,80,71,n3382
192.19933,0.10817297,77,72,n3376
192.33821,0.2871258,96,76,n3378
192.61198,0.20165578,92,38,n3385
192.86172,0.11351484,60,40,n3388
192.96722,0.03338672,70,41,n3390
192.99794,0.05208328,82,70,n3391
192.87907,0.07745719,85,71,n3389
192.71349,0.07478625,76,72,n3387
193.5014,0.03338672,83,51,n3398
193.38522,0.1068375,79,52,n3397
193.26503,0.12954047,79,53,n3395
192.3943,0.2310361,28,54,n3380
193.12747,0.17761734,103,54,n3393
193.12614,0.17895281,103,69,n3392
193.24901,0.11485031,74,70,n3394
193.35718,0.07211531,76,71,n3396
193.50542,0.04540594,84,72,n3399
193.66434,0.26575828,91,38,n3402
193.7912,0.13888875,81,39,n3404
193.92743,0.102831095,70,40,n3405
194.02357,0.04540594,75,41,n3407
193.66032,0.2697647,106,70,n3401
194.0583,0.05341875,77,70,n3408
193.94478,0.07745719,80,71,n3406
193.77652,0.1535789,71,72,n3403
193.65633,0.2737711,108,78,n3400
194.5551,0.03205125,84,51,n3415
194.44157,0.11752125,80,52,n3413
194.32005,0.13087593,82,53,n3412
194.19185,0.23237157,100,54,n3410
194.18651,0.23771344,103,69,n3409
194.3107,0.116185784,80,70,n3411
194.44157,0.06143156,73,71,n3414
194.58047,0.07345078,78,72,n3416
194.72603,0.22435875,88,36,n3419
194.85156,0.116185784,78,37,n3422
194.9851,0.080128126,72,38,n3424
195.09329,0.034722187,61,39,n3425
194.71135,0.23904891,90,68,n3418
195.10797,0.03205125,73,68,n3426
194.98378,0.070779845,85,69,n3423
194.7888,0.16159172,47,70,n3421
194.71,0.24038437,88,76,n3417
195.6101,0.036057655,71,49,n3433
195.51129,0.10416656,65,50,n3432
195.38708,0.09615375,73,51,n3430
195.24019,0.20432672,92,52,n3428
195.23083,0.213675,98,67,n3427
195.35771,0.11485031,76,68,n3429
195.47523,0.070779845,80,69,n3431
195.61546,0.070779845,77,70,n3434
195.83849,0.93349266,42,36,n3439
196.04013,0.73183686,71,38,n3444
195.77304,0.76655906,84,41,n3437
196.5396,0.23237157,84,41,n3457
197.0217,0.120192185,20,41,n3477
197.14189,1.1832253,3,41,n3479
196.06418,0.48611063,49,42,n3446
196.04147,0.59161264,62,43,n3445
195.77171,1.0002661,75,64,n3436
195.753,0.5235037,85,70,n3435
195.88121,0.25373906,77,71,n3440
196.13495,0.1963139,83,71,n3448
196.02812,0.7438561,91,72,n3443
196.02678,0.5181619,94,76,n3442
196.28052,0.4914525,86,40,n3451
196.55028,0.22168781,62,42,n3460
196.63309,0.13888875,23,43,n3463
196.28186,0.49011704,95,44,n3452
196.33127,0.21901688,38,45,n3453
196.53159,0.24038437,87,46,n3456
196.27652,0.4954589,104,70,n3449
196.54494,0.22702968,95,76,n3458
196.27919,0.49278796,91,82,n3450
196.41006,0.2524036,97,83,n3455
196.66246,0.10950844,91,83,n3464
196.95894,0.64369595,66,84,n3475
197.60263,0.093482815,29,84,n3493
196.54628,0.22569422,97,88,n3459
196.81204,1.0363238,71,38,n3468
196.82405,1.0550203,68,39,n3469
196.94424,1.1404903,76,40,n3473
196.80002,1.0376592,97,50,n3465
196.93623,0.6530442,89,52,n3472
197.42502,0.16826907,36,53,n3487
197.59329,0.73183686,74,53,n3492
197.30081,1.0243045,102,81,n3482
196.80937,0.36591843,117,82,n3467
197.17528,0.24038437,90,82,n3480
197.06578,0.4914525,92,83,n3478
196.89217,1.0416657,49,85,n3471
196.8067,1.0216336,110,90,n3466
197.58928,0.5448713,48,52,n3491
197.30215,0.31517062,94,54,n3483
197.57326,0.7518689,69,64,n3490
197.35825,0.96687937,19,65,n3484
197.29681,1.0283109,97,66,n3481
197.41566,0.41666624,89,82,n3486
197.55722,0.30181593,82,83,n3489
197.69612,0.17094,87,84,n3496
197.84836,0.47676235,71,38,n3500
197.99792,0.32718983,78,39,n3507
198.08473,0.24038437,72,40,n3509
197.83768,0.4874461,93,50,n3499
197.97923,0.3458864,95,51,n3506
198.13416,0.19097203,58,52,n3511
198.33714,1.0082788,102,81,n3513
197.83234,0.36858937,97,82,n3498
198.20093,0.12419859,93,82,n3512
198.08473,0.24038437,96,83,n3510
197.86705,0.45806578,58,84,n3503
197.93382,0.39129233,75,85,n3505
197.82832,0.49679437,104,90,n3497
198.65631,0.6891019,69,52,n3523
198.36385,0.32585436,83,54,n3515
198.50275,0.84268075,77,64,n3519
198.35316,0.9922533,101,66,n3514
199.0209,0.10149562,60,79,n3538
198.46667,0.87873846,88,82,n3518
198.61626,0.13087593,77,83,n3521
198.75113,0.5942836,65,84,n3528
198.88869,0.4567303,59,34,n3534
199.01022,0.33520266,74,35,n3537
199.00354,0.15758531,88,47,n3536
199.1451,0.20032032,65,48,n3540
199.54974,0.1495725,57,49,n3550
199.69933,0.19097203,58,49,n3553
198.86331,0.37526673,103,78,n3530
199.23859,0.1068375,92,78,n3542
199.12239,0.22302328,93,79,n3539
198.97684,0.36858937,90,80,n3535
198.86865,0.47676235,91,86,n3532
200.16406,0.21768141,43,47,n3561
199.66058,0.22970062,70,48,n3552
199.38014,0.51014906,88,50,n3545
199.52437,0.36591843,86,61,n3549
199.37613,0.51415545,93,62,n3544
199.37079,0.51949733,101,77,n3543
199.48831,0.4019761,87,78,n3548
199.60718,0.28311938,85,79,n3551
199.75809,0.1322114,84,80,n3554
200.39243,0.52083284,89,43,n3569
200.4031,0.51014906,73,44,n3571
200.23885,0.44337562,60,45,n3566
199.90498,1.0082788,70,46,n3557
200.38174,0.3031514,94,47,n3568
200.23218,0.16292718,63,48,n3565
200.2068,0.706463,37,49,n3564
199.89163,0.049412344,75,50,n3555
199.92902,0.9842405,58,74,n3558
199.90231,0.52751017,84,80,n3556
200.01315,0.26308733,75,81,n3559
200.27625,0.6370186,90,81,n3567
200.1654,0.2697647,95,82,n3562
200.15605,0.5408648,90,86,n3560
200.63147,0.2817839,89,41,n3578
200.67154,0.24171984,74,42,n3579
200.68222,0.2310361,60,45,n3580
200.42982,0.48343968,94,80,n3573
200.69691,0.21634594,98,86,n3582
200.43784,0.47542688,90,92,n3575
200.54735,0.2697647,94,93,n3577
200.81711,0.09615375,94,93,n3585
200.69691,0.21634594,101,98,n3583
200.98137,0.3071578,84,38,n3587
201.29253,0.51949733,76,40,n3599
200.96935,0.31917703,99,45,n3586
201.11626,0.17227547,84,46,n3594
201.2765,0.535523,99,47,n3597
201.39804,0.41399533,80,48,n3600
201.39937,0.41265985,94,90,n3601
201.6451,0.1669336,86,92,n3606
202.12053,0.20699766,44,92,n3625
200.9934,0.20833312,95,93,n3589
201.39937,0.41265985,90,94,n3602
201.00407,0.28445485,83,95,n3590
201.13228,0.15624985,91,96,n3595
201.05081,0.23771344,17,97,n3593
200.98538,0.3031514,107,102,n3588
201.2765,0.535523,101,103,n3598
201.5436,0.26842922,85,42,n3605
201.82672,0.24439079,58,43,n3611
201.53426,0.2777775,86,49,n3604
201.67047,0.14155969,81,50,n3607
201.796,0.27510655,89,51,n3608
201.93756,0.13354687,75,52,n3616
202.10316,0.0013354687,58,86,n3624
201.81604,0.25507453,85,87,n3610
202.33821,0.25641,103,90,n3632
202.59462,0.47676235,105,90,n3637
203.11143,0.16826907,107,90,n3648
201.20172,0.08680547,42,93,n3596
201.796,0.26575828,100,95,n3609
201.53159,0.28044844,110,97,n3603
201.93222,0.13888875,74,97,n3615
202.07913,0.24839719,82,45,n3622
202.33954,0.73183686,85,47,n3633
202.06177,0.26575828,80,53,n3619
202.18463,0.14289516,86,54,n3628
202.33153,0.7398497,98,55,n3631
202.44638,0.6249994,88,56,n3635
202.96855,0.102831095,84,82,n3647
202.35423,0.7171467,88,83,n3634
202.06177,0.26575828,97,85,n3620
202.45305,0.618322,82,86,n3636
202.1686,0.15892078,54,87,n3627
202.206,0.12152766,88,88,n3629
202.06177,0.26575828,102,95,n3621
203.11545,0.0641025,94,45,n3649
202.60663,0.46474314,82,49,n3639
202.59862,0.47275594,92,57,n3638
202.72415,0.24439079,82,58,n3641
202.96855,0.102831095,72,58,n3646
202.85236,0.21901688,94,59,n3643
202.86305,0.20833312,91,79,n3645
202.61598,0.45539483,76,81,n3640
202.72949,0.34188,83,84,n3642
202.86171,0.20966859,96,88,n3644
203.13948,0.037393127,65,38,n3651
203.40791,0.04139953,63,40,n3656
203.23831,0.06944437,84,46,n3653
203.38521,0.060096093,85,47,n3655
203.5054,0.044070467,72,48,n3658
203.49072,0.03071578,80,80,n3657
203.12747,0.05208328,92,81,n3650
203.37854,0.07211531,94,91,n3654
203.63628,0.11885672,70,42,n3660
203.90338,0.070779845,65,43,n3667
203.64429,0.09214734,75,49,n3661
203.78452,0.04139953,67,50,n3664
203.89001,0.08680547,77,51,n3665
204.02089,0.04540594,71,52,n3669
203.93143,0.065437965,63,75,n3668
203.7685,0.057425156,69,79,n3663
203.90071,0.12419859,81,83,n3666
203.62292,0.16159172,94,85,n3659
204.03558,0.03205125,72,85,n3670
204.1718,0.093482815,79,45,n3674
204.43356,0.093482815,77,47,n3680
204.16246,0.09615375,88,53,n3673
204.27196,0.048076876,81,54,n3675
204.42287,0.06677344,87,55,n3677
204.54306,0.044070467,77,56,n3681
204.43088,0.038728595,85,71,n3679
204.15712,0.07211531,94,73,n3671
204.56042,0.042735,64,74,n3682
205.28426,0.18162376,31,75,n3698
204.29066,0.046741407,75,76,n3676
204.42554,0.15491438,99,78,n3678
204.15712,0.13354687,94,83,n3672
204.70866,0.11485031,81,49,n3685
204.70332,0.06810891,91,57,n3683
204.82085,0.05208328,77,58,n3688
205.0679,0.034722187,77,58,n3692
204.95973,0.09481828,84,59,n3690
204.96909,0.038728595,84,67,n3691
204.73804,0.026709376,58,69,n3686
205.23483,0.048076876,89,69,n3696
205.08392,0.048076876,79,71,n3693
204.8195,0.044070467,72,72,n3687
204.95439,0.13755327,90,76,n3689
204.706,0.1535789,101,78,n3684
205.22148,0.24439079,107,78,n3694
205.24017,0.22569422,74,38,n3697
205.54466,0.18830109,30,40,n3704
205.22949,0.23637797,94,45,n3695
205.34302,0.12286312,86,46,n3699
205.4859,0.24706171,93,47,n3702
205.60342,0.12954047,83,48,n3706
205.6141,0.11885672,88,66,n3707
205.40979,0.056089688,58,68,n3701
205.66486,0.06810891,37,70,n3708
205.35236,0.11351484,81,72,n3700
205.50194,0.2310361,92,79,n3703
205.75835,0.2310361,77,42,n3710
206.0281,0.18162376,71,43,n3716
205.75835,0.2310361,77,49,n3711
205.88655,0.102831095,75,50,n3713
206.01208,0.19764937,87,51,n3715
206.13094,0.078792654,84,52,n3718
206.05481,0.08547,57,63,n3717
205.85716,0.1322114,78,68,n3712
206.00807,0.20165578,87,71,n3714
205.749,0.24038437,105,73,n3709
206.13628,0.07345078,81,73,n3719
206.2912,0.17628187,81,45,n3724
206.5516,0.20299125,77,47,n3730
206.28319,0.18429469,91,53,n3723
206.39937,0.06810891,83,54,n3726
206.54092,0.213675,94,55,n3728
206.66379,0.09081188,85,56,n3731
206.5476,0.20699766,79,59,n3729
206.27783,0.18963656,86,61,n3722
206.66646,0.088140935,72,62,n3732
206.14029,0.06944437,54,63,n3720
206.39536,0.07211531,74,64,n3725
206.53558,0.21901688,97,66,n3727
206.27249,0.19497843,97,71,n3721
207.08313,0.13621782,76,45,n3741
206.82538,0.18429469,76,49,n3735
207.06577,0.14155969,89,55,n3738
206.91887,0.09081188,84,56,n3736
206.81068,0.19898485,95,57,n3733
207.08179,0.12553406,74,57,n3740
207.10449,0.097489215,67,59,n3742
206.92955,0.080128126,68,60,n3737
207.20465,0.038728595,63,60,n3745
207.06844,0.13888875,95,64,n3739
206.81068,0.19898485,101,66,n3734
207.3569,0.18830109,72,38,n3750
207.35156,0.19364297,82,45,n3749
207.45572,0.08947641,82,46,n3752
207.72014,0.036057655,80,49,n3755
207.59862,0.078792654,87,50,n3754
207.3382,0.20699766,87,57,n3748
207.43835,0.1068375,73,60,n3751
207.32352,0.22168781,102,66,n3747
207.87639,0.23237157,74,38,n3758
207.88173,0.22702968,61,43,n3760
208.17154,0.046741407,60,49,n3768
208.05534,0.14022422,63,50,n3766
208.14616,0.065437965,83,55,n3767
208.26768,0.05208328,85,56,n3769
207.87639,0.23237157,87,59,n3759
208.03264,0.07612172,43,61,n3765
207.91245,0.05341875,47,62,n3763
207.87105,0.23771344,86,67,n3757
208.40924,0.3031514,70,38,n3771
208.40257,0.30982876,69,45,n3770
208.52142,0.19097203,78,46,n3774
208.78584,0.042735,73,49,n3780
208.70305,0.05475422,72,50,n3778
208.69905,0.040064063,76,52,n3777
208.70439,0.05074781,77,55,n3779
208.80455,0.038728595,77,56,n3781
208.4186,0.13087593,86,57,n3773
208.55081,0.16159172,67,60,n3776
208.41458,0.29780954,94,66,n3772
208.99551,0.17227547,48,38,n3787
208.97548,0.1923075,56,45,n3784
209.06229,0.10550203,66,46,n3789
209.38547,0.20299125,88,50,n3794
208.96347,0.20432672,82,57,n3783
209.23991,0.14289516,100,62,n3791
209.3828,0.22168781,96,62,n3793
208.95012,0.21768141,91,66,n3782
209.79012,0.59829,92,26,n3797
209.78745,0.32451892,100,38,n3796
210.11197,0.26842922,87,38,n3801
209.58847,0.37526673,124,50,n3795
209.96373,0.14556609,95,50,n3798
210.1093,0.128205,103,50,n3800
209.9664,0.5742516,94,62,n3799
210.38841,0.55288404,83,26,n3805
210.3804,0.28311938,92,38,n3804
210.66351,0.26709375,85,38,n3812
210.2375,0.28044844,96,50,n3802
210.51794,0.13755327,92,50,n3806
210.6555,0.13888875,93,50,n3811
210.54065,0.53285205,77,62,n3809
210.9413,0.30448687,82,26,n3815
210.93062,0.27644202,91,38,n3814
211.20705,0.065437965,86,38,n3819
210.79439,0.27644202,106,50,n3813
211.07083,0.12954047,100,50,n3816
211.20038,0.05475422,96,50,n3818
211.0735,0.17227547,91,62,n3817
211.47949,0.37126032,84,26,n3822
211.47548,0.28311938,88,38,n3821
211.7586,0.09214734,85,38,n3826
211.33926,0.27110016,111,50,n3820
211.61037,0.14289516,94,50,n3823
211.75327,0.097489215,94,50,n3825
211.61972,0.2310361,87,62,n3824
212.02837,0.5622323,86,26,n3829
212.02036,0.28311938,93,38,n3828
212.30347,0.27243564,81,38,n3832
211.87746,0.27110016,106,50,n3827
212.14856,0.15090796,108,50,n3830
212.29947,0.12686953,91,50,n3831
212.5906,0.5248392,79,26,n3835
212.57591,0.29647407,93,38,n3834
212.87239,0.23370703,62,38,n3838
212.42633,0.27911296,102,50,n3833
212.70544,0.13888875,103,50,n3836
212.84435,0.13621782,93,50,n3837
213.11543,0.52751017,83,26,n3843
213.1061,0.28044844,89,38,n3842
213.38654,0.25106812,70,38,n3846
212.98056,0.27110016,112,50,n3841
213.25166,0.120192185,102,50,n3844
213.37184,0.13888875,90,50,n3845
213.64294,0.08947641,83,26,n3851
213.6376,0.09481828,92,38,n3850
213.96346,0.21901688,65,38,n3857
213.79385,0.03205125,87,49,n3853
213.51074,0.22168781,101,50,n3849
213.93141,0.037393127,85,50,n3854
213.7805,0.06810891,97,51,n3852
214.19049,0.2350425,86,26,n3862
214.18248,0.24305531,85,38,n3861
214.46426,0.049412344,76,38,n3867
214.0556,0.2697647,98,48,n3859
214.32538,0.10016016,92,48,n3864
214.45224,0.049412344,94,50,n3866
214.0516,0.27110016,102,52,n3858
214.32271,0.102831095,82,52,n3863
214.72868,0.20165578,81,26,n3871
214.71933,0.21100406,91,38,n3870
214.9931,0.04139953,81,38,n3875
214.59647,0.27911296,92,48,n3869
214.87558,0.07478625,86,48,n3873
214.9811,0.049412344,95,50,n3874
214.59514,0.26842922,91,52,n3868
214.86357,0.08680547,94,52,n3872
215.26822,0.27644202,79,26,n3880
215.25352,0.27911296,89,38,n3879
215.53264,0.034722187,80,38,n3885
215.11864,0.27110016,91,48,n3877
215.38974,0.15491438,90,48,n3882
215.52061,0.046741407,96,50,n3884
215.12799,0.26575828,77,52,n3878
215.39375,0.15090796,80,52,n3883
215.10796,0.27243564,105,55,n3876
215.38039,0.16426265,93,55,n3881
215.85449,0.23370703,77,26,n3890
215.84514,0.24305531,84,38,n3889
216.10689,0.05208328,68,38,n3896
215.67554,0.41265985,92,48,n3887
216.09354,0.044070467,88,50,n3894
216.1937,0.28579032,100,50,n3897
216.47948,0.13888875,103,50,n3901
216.61838,0.15090796,87,50,n3902
216.76929,0.27110016,93,50,n3904
217.04037,0.088140935,81,50,n3907
217.15523,0.05341875,74,50,n3908
217.30347,0.20165578,75,50,n3910
215.68755,0.38862142,73,52,n3888
216.07617,0.024038438,95,52,n3893
215.94128,0.14690156,98,54,n3891
215.66753,0.42067266,93,55,n3886
216.36063,0.5395294,81,26,n3899
216.35262,0.27510655,91,38,n3898
216.62772,0.26175186,73,38,n3903
216.90016,0.22836515,71,26,n3906
216.88948,0.23904891,83,38,n3905
217.17126,0.05475422,69,38,n3909
217.43434,0.070779845,57,26,n3912
217.42366,0.08146359,75,38,n3911
217.70946,0.04540594,62,38,n3915
217.5759,0.034722187,74,50,n3913
217.69342,0.042735,74,50,n3914
217.96053,0.049412344,59,38,n3917
218.25432,0.04540594,56,38,n3922
218.11678,0.04139953,60,49,n3920
217.84567,0.03338672,78,50,n3916
218.24231,0.038728595,49,50,n3921
218.11009,0.037393127,76,51,n3919
218.50005,0.037393127,66,26,n3926
218.49338,0.05341875,72,38,n3925
218.79652,0.044070467,59,38,n3930
218.38252,0.12286312,75,48,n3924
218.64696,0.05074781,59,48,n3928
218.7845,0.040064063,73,50,n3929
218.37451,0.13087593,84,52,n3923
218.64294,0.044070467,69,52,n3927
219.07964,0.049412344,50,26,n3934
219.05962,0.046741407,66,38,n3933
219.33739,0.038728595,61,38,n3938
218.9421,0.040064063,60,48,n3932
219.20784,0.04139953,58,48,n3936
219.32137,0.037393127,72,50,n3937
218.93274,0.034722187,66,52,n3931
219.19716,0.036057655,63,52,n3935
219.58846,0.046741407,65,26,n3943
219.57643,0.08947641,74,38,n3942
219.8876,0.046741407,59,38,n3948
219.45758,0.08680547,83,48,n3941
219.73936,0.040064063,66,48,n3945
219.8689,0.038728595,72,50,n3947
219.45357,0.09081188,83,52,n3939
219.74605,0.036057655,56,52,n3946
219.45624,0.088140935,83,55,n3940
219.73535,0.05074781,74,55,n3944
220.15337,0.05208328,50,26,n3953
220.14267,0.05074781,64,38,n3952
220.43246,0.044070467,58,38,n3958
220.0198,0.042735,64,48,n3949
220.29225,0.034722187,67,50,n3954
220.40843,0.037393127,71,50,n3956
220.0198,0.04139953,59,52,n3950
220.41377,0.03338672,82,52,n3957
220.29225,0.04139953,67,53,n3955
220.0305,0.048076876,65,55,n3951
220.67152,0.04139953,67,26,n3961
220.66484,0.06276703,74,38,n3960
220.97067,0.046741407,54,38,n3964
220.5393,0.04540594,93,50,n3959
220.83578,0.038728595,73,50,n3962
220.95865,0.038728595,60,50,n3963
221.22975,0.046741407,54,26,n3968
221.22708,0.044070467,58,38,n3967
221.50352,0.05208328,52,38,n3971
221.09753,0.038728595,51,50,n3965
221.35529,0.03338672,72,50,n3969
221.48082,0.038728595,66,50,n3970
221.76527,0.042735,60,26,n3973
221.7666,0.05341875,59,38,n3974
222.03503,0.049412344,60,38,n3977
221.61302,0.05475422,71,50,n3972
221.88013,0.038728595,70,50,n3975
222.01634,0.044070467,66,50,n3976
222.27008,0.044070467,65,26,n3980
222.2634,0.048076876,64,38,n3979
222.55853,0.06944437,60,38,n3984
222.43434,0.13888875,69,49,n3982
222.15121,0.038728595,75,50,n3978
222.53851,0.044070467,69,50,n3983
222.42766,0.17227547,79,51,n3981
222.83765,0.05074781,61,26,n3987
222.83765,0.06276703,65,38,n3988
223.12344,0.05208328,55,38,n3992
222.72147,0.057425156,61,48,n3986
223.0019,0.040064063,61,48,n3990
223.1181,0.04139953,60,50,n3991
222.71745,0.08146359,58,52,n3985
222.99524,0.038728595,61,52,n3989
223.39053,0.042735,57,26,n3996
223.38654,0.05074781,61,38,n3995
223.68968,0.048076876,58,38,n4000
223.27835,0.034722187,53,48,n3994
223.54813,0.036057655,47,48,n3998
223.66965,0.034722187,69,50,n3999
223.27034,0.038728595,58,52,n3993
223.53209,0.037393127,65,52,n3997
223.95544,0.042735,57,26,n4004
223.95143,0.05208328,57,38,n4003
224.23723,0.049412344,57,38,n4008
223.84059,0.036057655,46,48,n4002
224.097,0.03338672,49,48,n4006
224.22119,0.040064063,64,50,n4007
223.82857,0.036057655,60,52,n4001
224.08365,0.046741407,61,52,n4005
224.49763,0.4313564,60,26,n4012
224.4963,0.31517062,62,38,n4011
224.81148,0.11752125,58,38,n4016
224.6806,0.24839719,53,47,n4014
224.38814,0.034722187,46,48,n4010
224.79544,0.18963656,75,50,n4015
224.36409,0.040064063,74,52,n4009
224.66858,0.26041642,70,53,n4013
225.12263,0.042735,55,26,n4020
225.1213,0.060096093,60,38,n4019
225.42712,0.057425156,54,38,n4024
224.97841,0.14690156,62,46,n4018
225.28423,0.044070467,58,46,n4022
225.42044,0.036057655,56,50,n4023
224.96239,0.18830109,68,54,n4017
225.28156,0.048076876,64,54,n4021
225.73428,0.04540594,53,26,n4028
225.73161,0.048076876,60,38,n4027
226.04277,0.06677344,58,38,n4032
225.5807,0.036057655,51,46,n4026
225.89053,0.03338672,54,46,n4030
226.03743,0.036057655,56,50,n4031
225.56735,0.042735,67,54,n4025
225.88118,0.04139953,59,54,n4029
226.34993,0.046741407,52,26,n4035
226.3526,0.05208328,52,38,n4036
226.68513,0.057425156,47,38,n4040
226.20436,0.04139953,42,46,n4034
226.52756,0.044070467,40,46,n4038
226.67044,0.042735,51,50,n4039
226.183,0.046741407,63,54,n4033
226.51419,0.049412344,57,54,n4037
226.98962,0.048076876,50,26,n4043
226.99095,0.046741407,54,38,n4044
227.3275,0.15624985,51,38,n4048
227.15923,0.32451892,50,45,n4046
226.85608,0.034722187,47,46,n4042
227.30212,0.18162376,67,50,n4047
226.84138,0.049412344,63,54,n4041
227.1432,0.34054452,68,55,n4045
227.70543,0.044070467,50,26,n4052
227.70009,0.07612172,55,38,n4051
228.05934,0.065437965,47,38,n4056
227.53049,0.18028829,53,44,n4050
227.8884,0.042735,45,44,n4054
228.25966,0.037393127,47,44,n4058
228.68166,0.05074781,35,44,n4062
229.54305,0.057425156,23,44,n4069
228.05266,0.042735,58,50,n4055
227.49176,0.213675,64,56,n4049
227.86969,0.056089688,65,56,n4053
228.44662,0.048076876,51,26,n4059
229.2933,0.05208328,43,26,n4066
228.44662,0.05074781,50,38,n4060
229.29865,0.048076876,38,38,n4067
229.77408,0.07478625,38,38,n4071
228.87932,0.070779845,39,38,n4064
228.86328,0.040064063,48,50,n4063
228.24095,0.05475422,63,56,n4057
228.6456,0.06276703,55,56,n4061
229.7634,0.042735,40,50,n4070
229.07562,0.05074781,44,56,n4065
229.52301,0.044070467,44,56,n4068
230.26419,0.060096093,44,26,n4074
230.26686,0.056089688,43,38,n4075
231.04678,0.110843904,34,38,n4078
230.0198,0.05074781,32,44,n4073
230.61275,0.06944437,21,44,n4077
231.04945,0.09081188,37,50,n4079
229.99443,0.06810891,48,56,n4072
230.59271,0.078792654,35,56,n4076
232.36755,0.049412344,50,26,n4082
232.63065,0.06276703,52,26,n4084
233.76445,0.05208328,58,26,n4096
232.2113,0.040064063,62,38,n4080
232.36221,0.042735,51,38,n4081
232.78156,0.044070467,59,38,n4086
232.50778,0.04139953,50,38,n4083
233.48,0.05341875,58,38,n4093
232.67471,0.05341875,34,38,n4085
233.90335,0.044070467,62,38,n4098
232.91777,0.05475422,55,26,n4087
233.20757,0.05208328,48,26,n4090
232.94981,0.046741407,40,38,n4088
233.06067,0.04540594,58,38,n4089
233.2276,0.048076876,41,38,n4091
233.48668,0.058760624,52,26,n4094
233.33177,0.042735,61,38,n4092
233.6189,0.046741407,56,38,n4095
233.77914,0.048076876,53,38,n4097
234.0449,0.05475422,55,26,n4099
234.31601,0.05341875,56,26,n4102
234.06761,0.04540594,45,38,n4100
234.18112,0.042735,59,38,n4101
234.34004,0.04540594,48,38,n4103
234.59645,0.065437965,55,26,n4105
234.87958,0.056089688,54,26,n4108
234.46558,0.044070467,64,38,n4104
234.6205,0.05074781,46,38,n4106
234.75938,0.038728595,56,38,n4107
234.89961,0.04139953,46,38,n4109
235.16136,0.049412344,58,26,n4111
235.03448,0.044070467,66,38,n4110
235.17604,0.038728595,53,38,n4112
235.31761,0.06276703,64,38,n4113
235.43379,0.042735,57,40,n4114
235.88785,0.3672539,46,26,n4121
235.58203,0.3725958,51,33,n4116
235.74763,0.093482815,40,38,n4119
236.0254,0.093482815,45,38,n4124
235.57669,0.084134534,66,41,n4115
235.7049,0.060096093,48,42,n4117
235.84645,0.078792654,62,42,n4120
235.95996,0.049412344,48,43,n4122
235.7316,0.037393127,41,45,n4118
235.98,0.05475422,54,46,n4123
236.40201,0.40064064,51,26,n4130
236.1456,0.31383514,49,33,n4126
236.29918,0.06276703,42,38,n4129
236.51419,0.116185784,48,38,n4133
236.12958,0.07345078,63,43,n4125
236.23775,0.06276703,45,44,n4127
236.41136,0.06810891,64,44,n4131
236.50618,0.060096093,50,45,n4132
236.25244,0.05208328,57,47,n4128
236.5222,0.057425156,53,48,n4134
236.9669,0.40865344,47,26,n4140
236.67044,0.3538992,49,33,n4135
236.82936,0.08146359,47,38,n4138
237.07242,0.12286312,48,38,n4142
236.69714,0.070779845,60,45,n4136
236.8347,0.042735,28,46,n4139
236.98427,0.0641025,64,46,n4141
237.09645,0.036057655,36,47,n4143
236.82135,0.056089688,53,49,n4137
237.10446,0.044070467,52,50,n4144
237.52246,0.12553406,58,26,n4150
237.22198,0.3926278,54,33,n4145
237.37556,0.093482815,51,38,n4147
237.63599,0.10950844,55,38,n4152
237.25136,0.07612172,58,47,n4146
237.38225,0.037393127,37,48,n4148
237.53047,0.08279906,62,48,n4151
237.68939,0.036057655,22,49,n4154
237.3956,0.04540594,56,51,n4149
237.67471,0.046741407,52,52,n4153
238.07669,0.065437965,64,26,n4161
237.77887,0.065437965,62,33,n4155
237.9418,0.05074781,55,38,n4159
238.23961,0.07345078,43,38,n4164
237.80959,0.060096093,66,50,n4156
237.93112,0.03338672,21,51,n4158
238.062,0.0641025,62,52,n4160
238.1635,0.044070467,50,53,n4162
237.92711,0.0641025,55,54,n4157
238.21957,0.05074781,51,56,n4163
238.59485,0.080128126,73,26,n4170
238.33844,0.078792654,66,33,n4166
238.47598,0.06810891,50,38,n4169
238.78314,0.08279906,41,38,n4174
238.33443,0.065437965,69,54,n4165
238.42924,0.04139953,47,55,n4167
238.59752,0.080128126,70,56,n4171
238.70035,0.036057655,41,57,n4172
238.47198,0.049412344,60,58,n4168
238.74442,0.05208328,59,60,n4173
239.13437,0.06677344,74,26,n4180
238.88063,0.09615375,66,33,n4176
239.01953,0.0641025,55,38,n4179
239.27861,0.09481828,53,38,n4182
238.86862,0.07478625,73,58,n4175
238.9621,0.034722187,46,59,n4177
239.1464,0.078792654,74,60,n4181
239.28395,0.042735,30,61,n4184
239.01686,0.04139953,55,62,n4178
239.28261,0.048076876,57,64,n4183
239.66722,0.078792654,64,26,n4189
239.3908,0.13354687,70,33,n4185
239.52567,0.06276703,57,38,n4187
239.77808,0.049412344,58,38,n4191
239.41081,0.08279906,76,62,n4186
239.66722,0.09081188,81,64,n4190
239.79008,0.04139953,59,65,n4192
239.52834,0.057425156,64,66,n4188
239.81413,0.038728595,66,68,n4193
240.19206,0.2524036,83,21,n4200
240.0425,0.040064063,69,26,n4196
239.92764,0.08547,72,38,n4194
239.93031,0.088140935,76,65,n4195
240.0425,0.049412344,58,66,n4197
240.18272,0.26175186,82,66,n4199
240.30826,0.12686953,50,67,n4202
240.0505,0.04139953,70,69,n4198
240.30559,0.13888875,68,70,n4201
240.70757,0.30048046,88,21,n4209
240.59938,0.08146359,10,26,n4208
240.44447,0.07345078,66,38,n4204
240.43512,0.09481828,77,67,n4203
240.55264,0.046741407,60,68,n4206
240.70757,0.30048046,90,68,n4210
240.84244,0.112179376,49,69,n4212
240.56467,0.046741407,74,71,n4207
240.82642,0.18162376,77,72,n4211
241.19633,0.2871258,97,21,n4218
240.95462,0.08279906,77,38,n4213
240.95462,0.093482815,93,69,n4214
241.05478,0.04139953,79,70,n4215
241.195,0.28846124,93,70,n4217
241.30852,0.13888875,56,71,n4219
241.0708,0.06276703,85,73,n4216
241.32721,0.15624985,78,74,n4220
241.69046,0.21901688,96,21,n4227
241.95088,0.4366983,54,26,n4232
242.38757,0.46474314,90,26,n4242
241.43672,0.084134534,85,38,n4221
241.4474,0.24439079,92,71,n4222
241.55157,0.13755327,76,72,n4224
241.68913,0.22035234,98,72,n4226
241.79329,0.116185784,80,73,n4228
241.55959,0.1322114,90,75,n4225
241.80399,0.10550203,84,76,n4229
242.15654,0.45272392,92,21,n4237
242.15254,0.45138845,96,33,n4236
241.92952,0.45138845,89,38,n4231
241.92683,1.8456178,97,74,n4230
242.031,1.7414513,74,75,n4234
242.16322,1.6092398,98,76,n4238
242.25003,0.19364297,83,77,n4239
242.04303,0.3538992,85,78,n4235
242.28609,0.34054452,81,80,n4240
242.60927,0.4821042,92,21,n4249
242.60393,0.48343968,97,33,n4248
242.3809,0.46474314,92,38,n4241
242.39693,0.24305531,100,78,n4243
242.46904,1.3034174,51,79,n4245
242.62663,0.24439079,97,80,n4250
242.73747,1.0349883,55,81,n4252
242.50243,0.36191204,85,82,n4246
242.7535,0.33119625,88,84,n4253
243.09137,0.45806578,92,21,n4264
242.85233,0.470085,83,26,n4256
243.08736,0.45806578,95,33,n4263
242.84564,0.47142047,93,38,n4255
242.86433,0.9081187,96,82,n4257
242.95782,0.81463593,61,83,n4260
243.08469,0.68776643,107,84,n4262
243.1902,0.58226436,85,85,n4266
242.96451,0.3538992,82,86,n4261
243.18886,0.3592411,88,88,n4265
243.54944,0.22302328,89,21,n4274
243.3224,0.45005298,91,26,n4269
243.54543,0.22702968,95,33,n4272
243.31706,0.45539483,93,38,n4267
243.3184,0.45405936,100,86,n4268
243.4279,0.34455094,93,87,n4270
243.5481,0.22435875,34,88,n4273
243.70702,0.065437965,43,89,n4276
243.4279,0.28044844,92,90,n4271
244.37476,0.641025,84,92,n4306
243.98613,0.24839719,77,38,n4288
244.23453,0.25106812,78,38,n4298
243.82721,0.2777775,83,42,n4279
244.105,0.23237157,79,42,n4292
243.82855,0.27110016,91,46,n4280
244.09966,0.24839719,89,46,n4291
243.97545,0.24706171,86,50,n4286
244.22252,0.24439079,86,50,n4295
243.8566,0.75854623,82,86,n4283
243.9848,0.37660217,106,90,n4287
244.11166,0.15224344,111,94,n4294
244.26392,0.22168781,48,94,n4300
243.8566,0.7652236,90,98,n4284
243.98747,0.37526673,103,102,n4289
244.109,0.12419859,110,106,n4293
244.2332,0.23904891,75,106,n4297
244.4856,0.25908095,79,38,n4309
244.74467,0.25641,81,38,n4319
244.33736,0.25106812,85,42,n4302
244.58842,0.26842922,84,42,n4311
244.34805,0.24038437,84,46,n4303
244.58842,0.27110016,88,46,n4312
244.4669,0.2697647,77,50,n4307
244.73666,0.24973266,83,50,n4317
244.61514,0.12954047,85,86,n4313
244.74467,0.12553406,101,86,n4320
244.3614,0.63034123,90,90,n4304
244.4856,0.62633485,88,94,n4310
244.62181,0.11885672,82,98,n4314
244.74068,0.120192185,87,98,n4318
244.36273,0.63034123,103,102,n4305
244.47224,0.6370186,97,106,n4308
245.00108,0.2524036,83,38,n4333
245.2535,0.23637797,82,38,n4343
244.85686,0.25106812,84,42,n4323
245.10793,0.24706171,83,42,n4336
244.85953,0.25106812,91,46,n4324
245.1106,0.24439079,83,46,n4338
244.9864,0.24706171,78,50,n4330
245.23346,0.24572624,81,50,n4342
244.87021,0.7986103,88,86,n4326
244.99174,0.3592411,89,90,n4331
245.11194,0.11485031,108,94,n4339
245.22679,0.2697647,91,94,n4341
244.86087,0.897435,86,98,n4325
244.99307,0.40731797,101,102,n4332
245.10927,0.10950844,107,106,n4337
245.21877,0.26709375,95,106,n4340
245.48987,0.36191204,84,38,n4352
245.355,0.27110016,88,42,n4345
245.62608,0.22569422,82,42,n4357
245.355,0.25641,89,46,n4346
245.6114,0.24038437,81,46,n4355
245.47919,0.34054452,85,50,n4350
245.81973,0.18830109,43,50,n4363
246.00804,0.26041642,88,50,n4368
245.66882,0.088140935,42,86,n4359
245.75697,0.09481828,98,86,n4361
245.35098,0.5008008,97,90,n4344
245.49655,0.35523468,85,94,n4353
245.7583,0.093482815,70,98,n4362
245.40039,0.45138845,37,102,n4348
245.48587,0.36591843,89,106,n4351
246.0214,0.24706171,75,38,n4370
246.26845,0.26041642,85,38,n4377
245.87181,0.25908095,100,44,n4366
246.13089,0.25908095,93,44,n4371
246.38998,0.28311938,93,44,n4379
246.6731,0.16025625,81,44,n4390
246.26845,0.25774547,85,50,n4378
245.87048,0.51949733,99,86,n4365
246.0067,0.5462067,96,90,n4367
246.1349,0.110843904,105,94,n4373
246.24574,0.42200813,91,94,n4376
245.86514,0.5341875,96,98,n4364
246.00937,0.53685844,109,102,n4369
246.13089,0.10950844,104,106,n4372
246.2404,0.43002093,92,106,n4375
246.52887,0.42200813,83,38,n4383
246.96556,0.5502131,106,38,n4396
246.83336,0.11752125,55,44,n4395
246.5262,0.42467907,88,50,n4382
247.34483,0.8840803,72,50,n4404
246.38998,0.5608969,100,86,n4380
246.5529,0.3979697,76,90,n4387
246.66776,0.120192185,103,94,n4388
246.78795,0.16292718,103,94,n4393
246.39932,0.5515486,102,98,n4381
246.54623,0.40464702,78,102,n4386
246.67043,0.12152766,114,106,n4389
246.79196,0.15892078,103,106,n4394
247.14185,1.0870715,96,26,n4398
247.51578,0.18295921,80,38,n4414
247.69873,0.5301811,85,38,n4423
247.3849,0.84401625,87,45,n4407
247.83095,0.29380313,68,31,n4430
248.12476,0.10416656,78,31,n4442
247.98987,0.23904891,95,33,n4439
248.31572,0.535523,91,26,n4444
248.31172,0.5395294,99,38,n4443
248.31973,0.53151655,95,86,n4446
248.31572,0.535523,99,98,n4445
