onset_sec,duration_sec,velocity,pitch,id
2.6442282,1.1364839,27,43,n3
1.5424664,1.1271356,37,59,n1
2.669602,1.0096143,14,59,n4
2.1247308,1.0363238,31,62,n2
3.1610546,0.6196575,35,62,n5
1.5130861,2.3611088,50,67,n0
3.700584,2.2769742,33,36,n7
3.6792164,1.0723814,33,59,n6
4.2134037,0.99893063,38,64,n9
4.178682,1.7988764,57,69,n8
4.7342367,1.2433214,31,52,n11
4.751598,1.2259603,29,59,n12
5.2123346,0.7652236,60,64,n13
6.746788,1.2686954,60,64,n18
4.682153,1.2954047,62,66,n10
5.7932634,2.22222,36,38,n16
5.7812443,0.99358875,35,54,n15
6.255336,1.0189626,46,59,n17
5.746522,2.2689614,56,62,n14
6.8015423,1.2139411,24,47,n20
6.774833,1.2406504,30,54,n19
7.274298,0.7411851,40,59,n22
7.2275567,0.5582259,62,66,n21
7.8245115,1.3501589,35,40,n24
7.8258467,1.1084391,38,55,n25
8.421466,0.75320435,32,59,n27
8.372053,0.5341875,51,64,n26
7.785783,1.3888875,54,66,n23
8.962331,1.410255,33,50,n30
8.934286,1.4382999,34,55,n29
9.453783,0.9188025,41,59,n31
8.906241,1.4663447,41,64,n28
10.137544,1.02564,42,60,n33
10.677073,1.0002661,43,64,n34
10.094809,4.2775064,69,71,n32
11.189893,1.1231292,41,55,n36
11.163183,0.9922533,40,60,n35
11.677339,0.6356831,46,64,n37
12.194165,2.1781495,35,45,n39
12.1554365,1.0296464,40,60,n38
12.717669,0.93349266,33,64,n41
12.6549015,1.7174128,66,72,n40
13.186419,1.1858963,31,55,n44
13.185083,1.0176272,30,60,n43
13.651161,0.72115314,49,64,n46
13.636472,0.7358433,63,67,n45
13.138342,1.2339731,69,69,n42
14.194697,2.1380854,37,50,n48
14.20271,1.0496784,23,60,n49
14.71553,1.0563558,32,62,n50
14.165317,2.1674657,52,66,n47
15.252389,1.0803943,33,60,n52
15.771886,0.5608969,38,62,n54
15.204311,1.1284711,59,67,n51
15.734493,2.8058197,60,69,n53
16.31008,2.2302327,31,43,n56
16.247313,1.0363238,48,59,n55
16.79352,1.0296464,34,62,n58
16.749449,1.7908636,64,71,n57
17.272953,1.2673599,37,54,n60
17.283636,1.045672,34,59,n61
17.823166,0.7171467,29,62,n63
17.765741,0.7745719,64,66,n62
17.244907,1.2954047,62,67,n59
18.357353,2.0846667,26,48,n66
18.32931,1.0897425,39,59,n65
18.870173,1.11111,39,60,n67
18.303934,2.1380854,53,64,n64
19.41905,1.022969,38,59,n69
19.981283,0.46073672,36,60,n71
19.368303,1.0737169,56,66,n68
19.946562,2.99145,58,67,n70
20.482084,2.4559271,34,42,n72
20.48609,1.0817297,38,57,n73
21.044317,1.0162917,10,60,n75
20.977543,1.9604682,59,69,n74
21.530428,1.4075841,36,52,n77
21.56782,1.370191,4,57,n78
22.060608,0.87740296,43,60,n80
22.027222,0.91078967,55,64,n79
21.490364,1.11111,56,66,n76
22.650885,2.8699224,37,47,n83
22.62017,2.900638,35,54,n82
23.107616,1.0697105,42,59,n84
22.601473,2.9193347,45,66,n81
24.177326,1.3434815,45,59,n86
23.669847,1.8509597,42,62,n85
24.803661,1.8349341,58,42,n87
25.454035,1.0817297,48,60,n89
25.454035,1.0590267,54,64,n90
25.434002,1.2045928,65,69,n88
25.974867,0.7398497,58,43,n92
26.541105,0.897435,58,45,n98
26.530422,0.86137736,51,54,n96
26.002913,0.6356831,49,59,n94
26.535765,0.8560355,51,60,n97
25.989557,0.64903784,55,62,n93
26.513062,0.87873846,70,64,n95
25.966854,0.6717408,70,66,n91
27.159428,8.65918,43,50,n99
27.160763,2.7964716,55,59,n100
27.736351,2.2208846,57,62,n102
27.163435,2.7938006,62,66,n101
28.494896,2.3370702,71,71,n103
29.634052,6.184556,32,35,n104
31.884315,1.8469533,40,59,n107
31.881645,2.8298583,43,60,n106
32.03389,1.1605223,50,64,n108
32.13672,1.6159172,62,67,n109
30.831966,1.3915584,39,71,n105
32.223526,3.5950818,69,71,n110
32.556057,3.26255,57,76,n111
32.69094,3.127668,33,33,n112
33.194412,1.0349883,41,64,n113
33.73127,2.0873377,68,59,n114
34.2294,0.9869114,43,64,n116
33.752636,1.9738228,36,67,n115
35.202957,1.6546458,71,57,n118
34.711502,1.1071036,57,60,n117
35.216312,0.6022964,50,64,n120
35.204292,0.6143156,57,69,n119
36.17251,0.62099296,80,59,n124
35.713104,1.1444967,76,62,n122
36.19521,0.6623925,53,64,n126
35.72646,1.131142,55,67,n123
36.179184,0.6156511,66,71,n125
35.705093,1.1525096,66,74,n121
37.45589,2.8178391,33,38,n132
37.45055,2.823181,39,45,n131
37.47325,0.49812984,18,54,n133
36.7935,2.1233952,74,59,n127
36.81353,2.1060343,47,60,n129
37.402473,1.0149562,48,64,n130
36.794834,0.19898485,60,71,n128
37.971382,2.3023481,59,54,n135
38.41743,1.0590267,46,64,n136
37.935326,2.0272415,62,69,n134
39.962566,1.410255,40,69,n141
38.916893,1.3568362,51,59,n138
38.919567,1.3541653,37,60,n139
39.476456,0.7972748,32,64,n140
38.90354,1.370191,57,67,n137
40.005302,1.36752,36,57,n142
40.49275,0.5422003,31,64,n143
41.05498,3.3653812,36,55,n145
41.5865,4.5659676,29,59,n146
41.034946,1.0296464,41,64,n144
42.064594,3.8688529,33,64,n147
42.582756,3.3253171,43,71,n148
43.794025,2.3584378,36,38,n154
43.12763,2.7710977,35,40,n149
43.820736,2.3317285,21,50,n155
43.16235,2.760414,16,52,n150
43.76999,2.3824763,27,62,n153
43.75797,1.3287914,38,72,n152
43.74595,1.324785,46,74,n151
45.104122,1.048343,38,42,n162
44.440395,1.712071,36,43,n158
45.104122,1.048343,35,54,n163
44.42036,1.732103,31,55,n157
45.08409,1.068375,39,66,n160
44.398994,1.7534704,41,67,n156
45.08676,1.0657041,41,72,n161
45.070736,1.0817297,45,74,n159
45.898724,1.4917186,36,40,n165
45.922764,1.4676802,36,52,n167
46.992474,1.8643143,81,59,n169
45.93345,1.4569964,37,64,n168
45.908073,1.4823703,48,71,n166
45.89739,1.493054,52,76,n164
47.5507,1.1044327,80,62,n171
48.079544,0.77724284,92,64,n172
47.54803,1.3087593,78,71,n170
48.660477,1.216612,68,40,n176
48.660477,1.216612,70,47,n177
48.648457,1.2286313,80,56,n174
48.655132,1.2219539,72,62,n175
48.639107,1.2379795,88,66,n173
49.780933,1.4115905,71,38,n182
49.77292,1.4196032,69,45,n181
49.768913,1.28205,70,54,n180
50.49808,0.69444376,87,57,n184
50.180237,0.8587064,88,59,n183
49.762238,1.430287,78,60,n179
49.756893,1.4356289,79,64,n178
50.643646,5.034717,78,35,n185
51.05764,4.720882,61,42,n189
51.058975,4.719547,62,50,n190
51.050964,2.4626043,56,54,n188
51.038944,2.4919846,68,59,n187
51.024254,3.4922507,79,66,n186
53.51357,2.264955,36,54,n191
53.53093,0.50347173,33,59,n192
54.0344,1.7441221,34,59,n194
54.033066,0.48878157,37,62,n193
54.521847,1.2566761,39,62,n196
54.516506,0.5061427,43,66,n195
55.022648,0.7558753,46,66,n198
55.021313,0.68108904,52,71,n197
55.678364,2.0753183,23,35,n202
55.70641,2.1127117,13,47,n204
55.675694,0.32718983,30,69,n201
56.204536,0.63167673,33,69,n206
55.7024,0.299145,23,71,n203
56.7641,0.45138845,21,71,n210
55.656994,0.5395294,45,74,n200
56.196526,0.52083284,43,74,n205
55.607582,1.2286313,67,78,n199
56.75876,0.47809783,31,67,n209
57.236855,1.5558211,24,67,n213
57.21549,0.5462067,20,71,n212
56.717358,0.4821042,46,74,n208
57.199463,0.5301811,47,74,n211
56.67729,2.088673,69,79,n207
57.75368,2.1861622,13,35,n215
57.81912,2.1314082,3,47,n217
58.29321,1.7601478,55,69,n219
57.761696,0.57558703,21,71,n216
58.33728,0.44337562,37,71,n221
57.729645,0.59294814,26,74,n214
58.32259,0.4914525,43,74,n220
58.266502,1.7868571,60,78,n218
59.296146,0.7572108,49,66,n227
58.792675,1.1217937,51,67,n224
58.78066,0.54887766,37,71,n223
59.329536,0.5408648,41,71,n229
58.814045,0.4954589,40,74,n225
59.3095,0.54887766,42,74,n228
58.76597,1.2873919,71,79,n222
59.285465,0.7678945,67,81,n226
59.939842,4.142624,37,35,n234
59.950527,4.1319404,24,47,n235
59.918476,0.5408648,34,64,n233
60.459343,0.51415545,26,64,n238
59.91447,0.5301811,32,67,n232
60.444653,0.5074781,46,67,n237
59.8704,0.5689097,47,71,n231
60.43931,0.48878157,49,71,n236
59.85838,4.167998,65,74,n230
60.973495,0.08947641,39,64,n242
61.462276,0.51014906,35,64,n246
60.95213,0.5048072,37,67,n241
61.456936,0.45940125,36,67,n245
60.92809,0.5074781,48,71,n240
61.43557,0.49812984,46,71,n244
60.917408,3.2558727,64,73,n239
61.972427,0.43936923,29,64,n249
62.411797,1.068375,59,64,n251
61.916336,0.55288404,21,67,n247
62.469223,0.4821042,19,67,n252
61.9337,0.47275594,37,71,n248
62.406456,0.5248392,35,71,n250
62.93263,1.2406504,47,59,n254
63.48017,0.69310826,48,64,n256
62.951324,0.5341875,33,67,n255
63.48551,0.62099296,44,67,n257
62.931293,0.57158065,47,71,n253
63.502876,0.55288404,31,71,n258
64.082466,1.923075,34,35,n261
64.082466,1.9925194,30,47,n262
64.08647,0.47809783,27,66,n263
64.564575,0.6276703,43,66,n266
64.10651,0.47142047,27,67,n264
64.57793,0.52083284,35,67,n267
64.055756,0.49278796,48,71,n260
64.548546,0.5248392,45,71,n265
64.026375,1.1658642,73,74,n259
65.09609,0.48878157,37,64,n270
65.58487,0.4914525,30,64,n274
65.09876,0.47676235,34,67,n271
65.57552,0.470085,36,67,n273
65.07339,0.4914525,42,71,n269
65.564835,0.44738203,43,71,n272
65.05202,2.0432673,61,76,n268
66.00555,2.325051,25,35,n275
66.07499,2.2662904,16,47,n278
66.076324,1.0590267,18,64,n279
66.59048,1.9097203,46,66,n281
66.04561,0.55288404,25,67,n277
66.59849,0.51014906,39,67,n283
66.01222,0.5849353,31,71,n276
66.59715,0.54887766,44,71,n282
66.5611,1.9391006,69,74,n280
67.673546,0.82665515,39,62,n290
67.13535,1.1752125,53,64,n286
67.10864,0.57558703,39,67,n285
67.68423,0.5862708,36,67,n291
67.146034,0.48611063,41,71,n287
67.63214,0.6129801,45,71,n289
67.09528,1.4049131,75,76,n284
67.622795,0.87740296,71,78,n288
68.3306,4.4658074,36,35,n296
68.34128,4.455124,20,47,n297
68.29453,0.641025,35,61,n294
68.93556,0.48611063,30,61,n300
68.31056,0.6169866,37,64,n295
68.92755,0.5288456,33,64,n299
68.2705,0.64903784,44,67,n293
68.91953,0.5288456,34,67,n298
68.245125,2.373128,58,71,n292
69.42167,0.5235037,28,61,n302
69.945175,0.5181619,36,61,n306
69.4564,0.48477516,39,64,n304
69.94117,0.67708266,40,64,n305
69.44838,0.5048072,41,67,n303
69.953186,0.66506344,44,67,n307
69.40698,1.2112702,59,69,n301
70.46334,0.5422003,20,61,n309
71.00554,0.99358875,21,61,n313
70.4994,0.49812984,32,62,n310
70.99753,0.51415545,24,62,n312
71.51168,1.2847209,18,62,n315
70.45132,0.5381939,51,66,n308
70.98951,0.49278796,37,66,n311
71.99913,0.6022964,31,61,n317
71.4823,0.5048072,29,66,n314
71.98711,0.60496736,31,66,n316
72.61344,2.0779893,35,33,n321
72.601425,0.5622323,14,61,n320
73.16366,2.0873377,19,61,n324
73.14763,0.5248392,13,62,n323
72.59207,0.53285205,39,66,n319
73.12492,0.5048072,46,66,n322
72.553345,2.6682665,63,69,n318
73.697845,0.45005298,28,59,n328
74.147896,0.53151655,35,59,n331
73.67247,0.45806578,29,62,n327
74.13053,0.54353577,30,62,n330
73.62974,0.49946532,39,66,n326
74.129196,0.5074781,47,66,n329
73.62439,2.1380854,58,71,n325
74.69143,2.5801256,36,33,n335
74.67941,1.1177874,28,59,n334
75.25099,2.0205643,62,61,n338
74.67407,0.5742516,27,62,n333
75.24832,0.5408648,45,62,n337
74.63668,0.618322,41,66,n332
75.255,0.54353577,48,66,n339
75.22161,2.0499446,62,69,n336
76.330055,0.9415055,63,57,n347
75.7972,1.4743575,66,59,n342
75.789185,0.53151655,43,62,n341
76.3207,0.70245653,58,62,n346
75.79854,0.51014906,58,66,n343
76.308685,0.71180487,69,66,n345
75.762474,1.5090797,75,71,n340
76.303345,0.96821487,81,73,n344
77.039185,1.3301269,51,40,n352
77.036514,1.3327978,53,47,n350
77.036514,1.0523493,58,55,n351
77.02316,1.3461525,62,62,n349
77.02049,1.3488234,72,66,n348
78.10756,2.2449229,59,45,n357
78.09688,2.239581,53,52,n356
78.08887,2.2609487,57,55,n355
78.08753,2.2569423,62,59,n354
78.0715,2.262284,70,64,n353
79.74084,1.2740372,57,50,n361
79.7395,1.2753726,52,54,n360
79.72081,1.2940692,61,57,n359
79.703445,1.1858963,69,62,n358
80.905365,0.8920931,51,40,n371
80.352486,0.6623925,60,45,n366
80.89335,0.90411234,63,47,n369
80.33646,0.69845015,65,52,n363
80.349815,0.54353577,59,55,n365
80.89335,0.7251595,52,55,n370
80.34447,0.6704053,61,59,n364
80.88934,0.9081187,65,62,n368
80.333786,0.68108904,77,64,n362
80.8653,0.93215716,73,66,n367
81.62919,1.6038979,40,45,n375
81.64255,1.5905433,37,52,n376
81.61851,1.6145817,43,55,n374
81.602486,1.6306074,44,59,n373
81.58646,1.6466329,53,64,n372
83.0488,1.8482888,38,50,n380
83.0301,1.8669853,36,54,n379
83.00339,1.8936946,41,57,n377
83.02609,1.8709917,38,62,n378
84.808945,4.4831686,21,35,n382
84.86637,4.4257436,3,47,n385
84.81562,0.52617466,28,69,n383
85.3418,0.6343477,36,69,n386
85.38052,0.5301811,4,71,n388
85.910706,0.4487175,15,71,n392
86.35942,0.51282,15,71,n395
86.872246,0.51014906,22,71,n398
84.819626,0.5502131,32,74,n384
85.36984,0.48878157,15,74,n387
85.85862,0.46874952,42,74,n390
84.75953,1.216612,57,78,n381
85.89869,0.45405936,19,67,n391
86.352745,0.5088136,30,67,n394
86.32737,0.5221683,43,74,n393
85.82657,2.0753183,55,79,n389
86.86156,1.0763878,30,67,n397
87.93794,1.2446569,47,67,n405
89.1826,1.4877121,19,67,n416
87.35835,1.9337587,48,69,n400
87.38239,0.5462067,43,71,n401
86.84954,0.5341875,29,74,n396
87.38373,0.57558703,43,74,n402
87.34233,1.9497844,58,78,n399
88.4935,0.7986103,44,66,n408
87.9286,0.5689097,34,71,n404
88.497505,0.6196575,42,71,n410
87.95931,0.535523,34,74,n406
88.494835,0.6076383,48,74,n409
87.901886,1.390223,71,79,n403
88.46011,0.83199704,68,81,n407
89.14521,4.2240877,36,40,n413
89.146545,4.222752,35,52,n414
89.162575,0.5235037,33,64,n415
89.68607,0.5181619,28,64,n418
89.117165,0.5568905,43,71,n412
89.67406,0.4874461,42,71,n417
89.10248,4.051812,54,74,n411
90.20424,0.44337562,20,64,n421
90.64761,0.5288456,36,64,n422
90.67032,1.4249451,11,67,n423
90.1615,0.51014906,44,71,n420
90.67165,0.4447111,35,71,n424
90.13747,3.2318344,58,73,n419
91.17646,0.42601454,20,64,n426
91.60247,1.005608,49,64,n427
91.11636,0.5088136,41,71,n425
91.625175,0.46741405,36,71,n428
92.10194,1.2673599,53,59,n431
92.60808,0.7612172,52,64,n432
92.09526,0.52083284,36,67,n430
92.6161,0.5862708,39,67,n433
92.09259,0.5288456,41,71,n429
92.62144,0.5622323,49,71,n434
93.20503,4.4537883,34,57,n440
93.18901,0.10016016,41,66,n437
93.72053,0.6704053,37,66,n442
93.20236,0.5515486,39,67,n439
93.753914,0.5088136,30,67,n444
93.18367,0.5448713,54,71,n436
93.72854,0.49812984,46,71,n443
93.15429,1.236644,73,74,n435
94.257385,0.5088136,38,64,n447
94.7662,0.52617466,34,64,n451
94.262726,0.48878157,38,67,n448
94.75151,0.49679437,33,67,n450
94.22667,0.50347173,42,71,n446
94.73014,0.5061427,42,71,n449
94.224,2.0499446,60,76,n445
95.29237,0.98958236,19,64,n454
95.81855,1.8402759,44,66,n457
95.2483,0.578258,39,67,n453
95.82656,0.46474314,37,67,n458
95.23628,0.57024515,42,71,n452
95.806526,0.5235037,42,71,n456
95.7678,1.8910238,68,74,n455
96.83484,0.8239842,48,62,n466
96.28195,1.1551805,53,64,n460
96.291306,0.5622323,46,67,n461
96.85354,0.53151655,40,67,n467
96.33003,0.078792654,33,71,n462
96.817474,0.5475422,42,71,n465
96.27394,1.3848811,75,76,n459
96.80145,0.8573709,79,78,n464
97.41711,1.071046,31,61,n470
98.48815,0.52083284,18,61,n476
97.43713,0.49946532,32,64,n471
97.9366,0.5729161,12,64,n472
97.385056,0.55288404,50,67,n469
97.937935,0.5582259,44,67,n473
97.36502,1.2713662,69,71,n468
98.481476,1.1752125,31,33,n475
98.4975,1.1591868,21,45,n478
99.00898,0.51549095,35,61,n481
99.524475,0.51282,23,61,n484
100.03729,0.49946532,35,61,n489
100.53676,0.5114845,18,61,n492
98.509514,0.5168264,28,64,n479
99.026344,0.63034123,21,64,n482
98.49616,0.26842922,29,67,n477
98.95957,0.6971147,44,67,n480
98.44942,1.2072637,54,69,n474
99.56454,2.2716324,24,38,n487
99.5445,2.2916644,30,50,n485
99.54985,0.49011704,27,62,n486
100.03996,0.49946532,29,62,n490
99.50711,0.5181619,41,66,n483
100.025276,0.48611063,41,66,n488
100.51138,0.49412343,32,66,n491
101.04824,0.5769225,24,61,n495
100.53943,0.5221683,23,62,n493
101.0616,0.6236639,21,62,n496
101.00551,0.641025,37,66,n494
101.669235,3.0862682,35,31,n500
101.7093,3.0462043,20,43,n502
101.62517,0.5301811,24,61,n498
102.15535,0.7011211,43,61,n503
101.685265,1.0082788,24,62,n501
102.69354,0.470085,35,62,n508
101.64653,0.5181619,33,66,n499
102.164696,0.48076874,43,66,n504
101.59312,1.2633535,55,69,n497
102.69354,0.4620722,38,59,n507
103.15561,0.53151655,37,59,n510
103.16363,0.51282,29,62,n511
102.64546,0.47542688,41,66,n506
103.12089,0.5048072,40,66,n509
102.64146,2.0552864,60,71,n505
103.687126,1.0389947,30,59,n514
104.169235,0.5862708,53,61,n517
103.676445,0.5074781,25,62,n513
104.18392,0.5475422,48,62,n518
103.625694,0.5288456,47,66,n512
104.15454,0.5568905,48,66,n516
104.139854,0.6156511,72,69,n515
104.72613,1.3862165,47,35,n521
104.73547,1.1992509,44,47,n524
105.265656,0.8466872,59,57,n527
104.72613,1.3862165,52,59,n522
104.73147,0.5635678,54,62,n523
105.35112,0.5635678,8,62,n529
104.71143,0.52751017,56,66,n520
105.238945,0.6663989,54,66,n525
104.69675,1.4155968,79,71,n519
105.241615,0.87072563,80,73,n526
105.93472,1.2179475,59,40,n534
105.93472,1.2179475,54,47,n535
105.9187,1.2339731,64,56,n532
105.92137,1.0109499,62,61,n533
105.91469,1.2379795,67,62,n531
105.90534,1.2473278,77,66,n530
106.963036,1.7735025,57,45,n540
106.96437,1.7721671,49,52,n541
106.943,1.7935345,56,55,n538
106.95235,1.666665,55,59,n539
106.93232,1.8042183,63,61,n537
106.92965,1.8068892,70,64,n536
108.60833,0.68108904,58,50,n543
108.636375,0.6530442,46,54,n546
108.623024,0.6663989,52,57,n545
108.61902,0.6169866,53,59,n544
108.580284,0.7091339,75,62,n542
109.735466,0.8026167,52,40,n558
109.237335,0.578258,64,45,n551
109.71544,0.82264876,57,47,n555
109.23333,0.58226436,57,52,n549
109.23867,0.5769225,59,55,n552
109.730125,0.8079586,47,56,n557
109.236,0.5795934,58,59,n550
109.21464,0.51282,72,61,n548
109.727455,0.59829,52,61,n556
109.703415,0.834668,66,62,n554
109.19727,0.618322,86,64,n547
109.68739,0.8506936,79,66,n553
110.34845,1.5077442,48,45,n561
110.37382,1.4823703,39,52,n564
110.35112,1.5050733,37,55,n562
110.357796,1.4983959,36,59,n563
110.325745,1.5304472,48,61,n559
110.328415,1.5277762,56,64,n560
111.6759,1.3768682,42,50,n566
111.6759,1.3768682,32,54,n567
111.734665,1.3181076,19,57,n568
111.65053,1.2753726,46,62,n565
112.93258,1.2379795,74,40,n573
112.92724,1.2433214,75,47,n572
112.9259,1.2446569,86,56,n570
112.9259,1.2446569,84,62,n571
112.92056,1.2499988,87,66,n569
113.99161,1.8255857,78,38,n578
113.98894,1.8282567,73,45,n577
113.98092,1.8362695,80,54,n575
113.98493,1.8322631,79,60,n576
113.97558,1.8416114,88,64,n574
115.651596,0.78792655,75,36,n582
115.651596,0.78792655,74,43,n583
115.648926,0.7905975,75,52,n581
115.63957,0.7999458,75,58,n580
115.63557,0.8039522,85,62,n579
116.322,0.6917728,80,38,n586
116.92029,0.99492425,74,40,n592
116.32333,0.6904373,75,45,n588
116.92029,0.99492425,66,47,n593
116.322,0.6917728,70,54,n587
118.89678,8.851487,41,54,n601
116.90827,1.0069435,75,56,n590
116.31132,0.70245653,72,60,n585
116.90961,1.005608,69,62,n591
116.30464,0.7091339,84,64,n584
116.901596,1.0136207,81,66,n589
117.73359,3.2799113,60,43,n595
117.74962,3.2638857,57,50,n597
117.75095,1.3621781,55,53,n598
117.75229,1.3608427,50,55,n599
118.884766,2.1287372,49,56,n600
117.716225,3.2972724,71,64,n594
120.558105,6.8335934,28,38,n606
120.555435,7.2596083,22,45,n605
120.528725,7.2863173,26,57,n604
120.507355,7.307685,28,60,n602
120.51938,2.8752642,34,62,n603
123.205,2.385147,33,43,n607
125.59015,2.224891,37,43,n620
123.2878,4.527239,42,50,n608
123.41067,1.3020821,45,59,n610
124.712746,2.0032032,35,59,n615
123.39464,1.3234495,41,62,n609
124.718094,3.096952,24,62,n616
123.55624,1.1485032,39,71,n611
124.704735,0.9815695,20,71,n614
124.19726,1.0069435,46,74,n613
125.2042,2.4772944,44,74,n618
123.73251,4.082528,71,79,n612
125.6863,1.5170925,38,71,n621
125.46061,2.3544314,44,36,n619
125.69699,2.1180534,36,52,n622
125.71836,2.096686,29,64,n623
126.17909,0.9842405,54,76,n625
126.16841,1.6466329,70,81,n624
126.71595,0.71981764,37,59,n627
127.2034,0.6116447,43,71,n629
127.16334,0.6517087,73,76,n628
126.65719,1.1578515,76,78,n626
127.3917,2.3637798,46,38,n630
127.58534,1.9831711,26,47,n633
127.74827,2.0072095,39,54,n635
127.43577,1.236644,41,59,n631
127.538605,1.1391548,45,66,n632
128.17429,0.9869114,50,71,n636
127.681496,2.073983,66,74,n634
128.67241,1.0830652,41,59,n638
128.67775,1.0777233,36,66,n639
128.63503,1.1204582,74,76,n637
129.11311,0.535523,78,78,n640
129.40291,2.4519205,36,40,n643
129.56851,2.2863226,31,47,n645
129.69138,1.8309276,45,55,n647
129.36685,1.3354688,35,64,n642
129.47636,0.75053346,41,71,n644
130.2269,0.99893063,38,71,n649
130.20152,0.4740914,51,76,n648
129.64864,2.2061944,64,78,n646
130.7317,1.1231292,29,59,n652
130.70233,0.9855759,29,64,n651
131.22583,0.5288456,41,71,n653
130.67561,1.1792189,46,76,n650
131.40344,4.4898458,38,48,n654
131.52231,4.3709893,35,55,n655
131.6879,1.0470074,37,64,n656
131.75467,0.982905,47,71,n658
131.75601,0.9815695,42,72,n659
132.26883,0.9802341,44,76,n660
131.7066,4.1866946,67,83,n657
132.73491,2.0098805,37,64,n661
132.73758,0.9855759,38,71,n662
132.73758,0.9869114,32,72,n663
133.24907,1.0122854,37,76,n664
133.50414,2.3891535,36,45,n665
133.5856,2.30769,43,52,n666
133.73384,2.159453,36,60,n669
133.72316,2.1701367,31,71,n667
133.72449,1.0349883,27,72,n668
134.26135,0.95619565,44,76,n671
134.20125,1.6920389,72,84,n670
134.7448,1.1485032,35,64,n673
134.76215,1.131142,31,67,n676
134.76082,1.1324775,28,69,n675
134.75948,1.133813,15,72,n674
135.21754,0.6757472,53,76,n678
135.19084,0.70245653,75,79,n677
134.69003,1.2032573,72,81,n672
135.42053,2.413192,46,47,n679
135.52203,2.3116963,46,54,n680
135.77043,0.9788986,36,62,n683
135.75174,1.0336528,36,66,n682
136.3193,0.43536282,14,71,n685
136.24318,1.0550203,59,74,n684
135.71167,2.1220598,65,78,n681
136.74933,1.0844007,41,62,n687
136.78539,1.0042725,33,66,n690
136.74933,1.0844007,47,67,n688
137.31155,0.5221683,33,69,n693
136.75467,1.0149562,21,71,n689
137.2982,0.535523,44,74,n692
136.70926,1.1244646,74,79,n686
137.24478,2.7283626,78,81,n691
137.45312,2.5200295,49,43,n694
137.59735,2.375799,41,50,n695
137.7683,2.204859,45,59,n696
137.78966,1.0349883,41,66,n698
137.76962,1.0403302,50,71,n697
138.30247,1.0189626,47,74,n700
138.27977,1.6933744,71,83,n699
138.8193,1.153845,39,62,n704
138.82465,1.1485032,39,66,n705
138.81529,1.1578515,49,67,n703
138.80995,1.0136207,45,71,n702
139.32144,0.6517087,46,74,n707
139.2934,0.6797536,64,78,n706
138.78058,1.1925735,68,79,n701
139.5645,2.2716324,43,45,n708
139.68335,2.1527755,30,52,n709
139.84761,0.9869114,37,60,n713
139.82625,1.0389947,41,64,n712
139.82358,2.0125513,43,71,n711
140.29367,1.0416657,49,72,n714
139.79955,2.0365899,55,76,n710
140.83453,1.0016016,25,60,n718
140.86525,0.9468473,20,64,n719
141.81209,1.0283109,30,64,n726
142.84041,1.1324775,26,64,n734
140.78645,1.0496784,38,66,n716
141.33934,0.49679437,49,67,n722
140.80649,1.0029371,34,69,n717
141.33533,0.5008008,48,72,n721
140.76108,1.0750524,63,78,n715
141.31262,2.6602538,65,79,n720
141.55835,2.4145274,42,42,n723
141.69057,2.2823162,34,48,n724
141.83347,2.139421,36,57,n727
141.80942,0.98958236,38,69,n725
142.3209,0.9869114,42,72,n729
142.2982,1.6746778,63,81,n728
142.81503,1.1578515,27,60,n732
142.799,1.173877,35,69,n730
143.30782,0.71180487,47,72,n736
143.28645,0.68643093,66,76,n735
142.80301,1.0296464,64,78,n731
143.50146,2.6308734,48,47,n737
143.62433,2.5080104,48,54,n738
143.87405,0.9909178,44,62,n741
143.85936,1.0269755,41,66,n740
144.38153,1.0122854,39,71,n743
145.39381,0.73851424,46,71,n748
144.37352,1.0149562,50,74,n742
143.83266,2.2996771,62,78,n739
144.89035,1.2419859,39,59,n746
144.86497,1.2673599,41,62,n744
144.88634,1.2459923,37,66,n745
145.38847,0.7438561,56,74,n747
145.95338,1.8042183,61,42,n749
146.60242,1.0576912,58,60,n755
145.9654,0.6116447,47,64,n752
146.57704,1.068375,57,64,n753
145.95338,0.6290058,51,69,n750
146.58238,1.1752125,70,69,n754
145.95338,1.8042183,58,72,n751
147.10323,0.7558753,68,47,n757
147.6748,0.82264876,64,50,n763
147.66144,0.8466872,65,54,n762
147.10857,0.64903784,60,59,n759
147.66011,0.23237157,64,60,n761
147.1059,0.6517087,60,62,n758
147.64542,0.8520291,77,64,n760
147.09253,0.66506344,72,66,n756
148.37325,5.304482,52,47,n767
148.3412,4.348286,59,59,n766
148.33052,5.347217,60,62,n765
148.3265,5.3512235,67,66,n764
149.5538,2.3410766,55,71,n769
149.5164,2.370457,80,83,n768
151.88687,1.4316225,32,83,n771
153.3185,0.45539483,61,83,n779
150.58478,3.0929456,29,35,n770
152.68948,2.9580634,66,59,n773
152.94322,0.7345078,49,60,n774
152.96458,0.7131403,48,64,n775
151.89488,1.176548,32,71,n772
153.07143,0.5181619,46,71,n776
153.15958,0.5181619,54,72,n777
153.24237,0.43536282,54,76,n778
153.631,4.145295,31,45,n782
153.62297,4.153308,39,52,n781
153.58958,3.561695,40,71,n780
154.18254,0.9535247,42,72,n784
154.15582,0.97756314,45,76,n783
154.66464,3.1116421,30,60,n785
154.67667,1.53846,36,64,n786
155.13606,2.0205643,44,72,n788
155.13339,1.0149562,45,76,n787
156.13365,1.6426265,64,57,n790
155.64755,1.4877121,53,59,n789
156.21512,1.561163,5,64,n795
156.15236,1.62393,46,69,n794
156.14835,0.99358875,53,76,n793
156.14168,1.6346138,51,79,n792
156.13632,1.6399556,61,81,n791
157.13525,0.618322,77,59,n800
156.64381,1.1324775,72,62,n796
159.9905,2.3998373,37,67,n820
157.15129,0.60363185,55,71,n802
157.15663,0.6196575,45,72,n803
156.6625,1.113781,64,74,n798
157.14194,0.6343477,66,76,n801
157.12592,0.6022964,81,83,n799
156.6545,1.1217937,71,86,n797
158.39995,3.9903805,30,45,n809
158.41197,0.51415545,5,54,n810
157.75359,2.224891,69,59,n805
158.36122,1.1017617,46,60,n808
158.34119,1.1458322,40,64,n807
157.75491,4.635412,58,71,n806
157.72821,4.6621213,76,83,n804
158.92612,3.464206,49,54,n813
159.46298,1.0603622,34,60,n816
159.48701,1.0336528,25,64,n817
158.9181,2.1127117,52,69,n812
159.44829,1.0470074,41,72,n815
159.42159,1.0830652,53,76,n814
158.91277,2.116718,61,81,n811
159.97847,2.4118567,49,59,n819
160.52335,1.0763878,25,60,n824
160.52068,1.0897425,30,64,n823
160.4953,1.1097746,40,72,n821
160.50465,1.0590267,42,76,n822
159.94643,2.4439077,53,79,n818
161.05753,1.3327978,39,57,n827
161.59973,0.7905975,8,60,n829
161.61041,0.6063028,26,64,n831
161.03082,1.3595072,42,69,n826
161.60507,0.7852556,36,72,n830
161.56367,0.6463669,37,76,n828
161.02948,1.3608427,49,81,n825
162.23007,3.549676,34,55,n834
162.90982,0.9575311,23,59,n837
162.21672,3.737977,38,64,n833
162.8711,1.0122854,38,71,n836
162.21004,0.65437967,40,76,n832
162.86443,1.0202981,33,76,n835
163.86736,2.0873377,26,59,n838
163.88338,2.071312,16,71,n839
163.88472,2.0699766,7,76,n840
165.12938,0.8253197,41,38,n843
164.49236,1.4623383,39,40,n841
165.20549,0.74919796,27,48,n845
168.6016,1.0349883,89,62,n865
165.15341,0.8012813,34,72,n844
165.12404,0.83066154,54,74,n842
166.45549,0.95486015,39,42,n852
165.76105,0.8373389,44,43,n847
166.45549,0.95486015,46,48,n853
166.47552,0.9348281,39,50,n856
166.47687,0.93349266,28,54,n857
165.77975,0.8186423,22,55,n849
166.46352,0.9468473,31,66,n854
165.76639,0.83199704,36,67,n848
166.4742,0.9361636,36,72,n855
166.42078,0.98958236,51,74,n850
166.43547,0.9748922,50,78,n851
165.74236,0.8560355,51,79,n846
167.27547,0.99492425,39,40,n861
167.30351,0.96687937,39,47,n863
167.2915,0.9788986,35,52,n862
168.08344,1.6720068,85,59,n864
167.26746,1.0029371,41,64,n860
167.2461,1.0243045,48,71,n858
167.25278,1.0176272,49,76,n859
169.08504,0.6704053,97,64,n867
168.61494,1.1404903,75,71,n866
169.2493,1.5451373,89,40,n868
169.65128,1.1431613,70,47,n873
169.64726,1.1471677,79,56,n872
169.63658,1.1578515,80,62,n871
169.63124,1.1631932,85,66,n870
169.62857,1.1658642,90,74,n869
170.55005,1.1858963,62,38,n875
170.55405,1.1818899,59,45,n877
170.53935,1.19658,61,54,n874
170.5634,1.1725416,74,60,n878
170.55005,1.1858963,86,64,n876
171.52895,5.5034666,92,69,n881
171.19107,0.5448713,88,71,n880
170.81046,0.9254798,86,72,n879
171.68787,5.344546,79,31,n883
172.25677,4.775636,73,42,n888
171.68385,5.348552,78,43,n882
172.26746,4.7649527,65,47,n889
172.25009,4.782314,79,54,n887
172.24342,4.788991,76,59,n886
172.2354,4.7970037,83,66,n884
172.2354,4.7970037,88,71,n885
174.23059,2.8018134,67,40,n891
174.24394,2.7884588,65,52,n892
174.22125,2.8111618,81,64,n890
175.61414,1.4182678,56,38,n895
175.60213,1.430287,53,50,n894
175.58876,1.4436417,78,62,n893
177.00703,1.0122854,42,79,n896
178.01932,0.91746706,28,79,n899
178.93678,1.0069435,39,79,n903
177.48647,0.535523,47,82,n897
178.02199,0.9254798,11,82,n900
177.96724,3.9783614,50,84,n898
178.94746,0.9909178,35,82,n904
178.44266,2.4505851,59,86,n901
178.9034,3.7940667,61,89,n902
179.45496,1.0136207,47,74,n905
179.94373,1.0376592,35,79,n907
179.93839,0.06810891,38,82,n906
180.46857,2.2288973,39,74,n910
180.98138,0.070779845,29,79,n913
180.91728,0.09615375,44,82,n912
180.89325,1.6493039,67,86,n911
180.3871,1.0697105,63,88,n909
181.79736,0.90010595,38,67,n918
181.48619,0.6356831,39,72,n917
182.12189,0.57558703,47,72,n922
181.96564,0.73183686,44,79,n921
181.95761,0.7398497,47,82,n920
181.9456,0.7518689,52,84,n919
181.45682,1.2406504,57,88,n916
183.33849,1.1658642,41,55,n929
182.57594,0.79326844,34,62,n925
182.58395,4.2895255,33,77,n926
182.62001,4.253468,3,81,n927
182.62268,4.250797,5,86,n928
184.50435,0.9134606,46,55,n937
183.93144,1.022969,41,57,n933
183.92476,0.55956143,49,60,n932
184.48433,0.45806578,50,60,n936
183.3692,1.1511741,31,62,n930
184.52039,0.86671925,42,62,n938
185.3871,1.4863768,71,62,n942
183.90205,0.57024515,60,65,n931
184.4723,0.4567303,50,65,n935
184.46028,1.6559813,71,69,n934
185.41782,1.4556609,53,53,n944
185.41782,0.86004186,58,55,n945
184.9544,0.44604656,60,57,n941
185.40045,0.4620722,58,57,n943
184.94238,0.9094542,58,60,n940
184.92903,0.91746706,75,65,n939
186.27786,0.5956191,61,55,n953
185.86253,1.0109499,59,57,n948
185.85184,0.28445485,65,60,n947
186.13629,0.13621782,65,60,n951
186.27252,0.6009609,60,60,n952
185.8465,0.28445485,78,65,n946
186.13095,0.27243564,66,65,n950
186.78934,1.6746778,56,65,n960
186.4034,0.38595048,61,65,n956
186.11627,0.27110016,79,69,n949
186.77866,2.1193888,58,69,n958
186.38736,0.39129233,71,69,n955
186.37134,0.50213623,91,74,n954
186.79468,3.0956166,61,50,n961
186.78133,3.102294,59,59,n959
186.75061,3.1049647,84,76,n957
187.40767,2.5467389,77,43,n962
188.49875,1.4556609,46,57,n965
188.47337,0.4567303,58,60,n964
188.46402,0.45138845,74,65,n963
189.36546,0.5395294,63,55,n974
189.905,1.7788444,50,55,n981
188.9301,0.42868546,54,60,n970
189.35878,0.5956191,65,60,n973
188.91408,1.0403302,62,62,n967
188.9154,0.46474314,68,65,n968
189.38016,0.52083284,46,65,n975
188.89804,0.44738203,82,69,n966
189.34543,0.54353577,70,69,n972
189.3294,0.6249994,93,74,n971
190.55536,1.8135666,54,43,n982
189.8903,2.47863,51,50,n979
189.88362,1.7988764,49,59,n977
189.90099,1.7895281,50,65,n980
189.88896,1.774838,53,69,n978
189.85558,1.7761735,80,76,n976
191.68384,0.64770234,29,55,n986
191.6825,0.68643093,35,59,n985
191.6905,0.71180487,33,65,n987
191.6638,0.7051275,39,69,n984
191.63176,0.73717874,68,76,n983
192.32086,2.0673056,29,48,n989
192.33154,2.0566218,27,55,n990
192.82567,1.5624985,32,65,n992
192.80429,1.043001,33,67,n991
192.27411,1.5024023,50,72,n988
193.84329,0.5448713,35,64,n996
193.84729,0.5408648,19,67,n997
193.77652,0.6116447,51,72,n995
193.3091,1.0790588,38,77,n994
193.30643,1.0817297,29,79,n993
194.30136,5.2751017,34,63,n999
194.8302,4.5886707,35,74,n1002
194.28532,0.53285205,43,75,n998
194.81818,1.0202981,29,75,n1001
195.82913,1.0042725,32,70,n1006
195.32433,1.5104152,32,72,n1004
195.83849,0.9735567,20,75,n1007
195.27625,2.498662,58,79,n1003
195.77705,3.7994087,69,82,n1005
196.28453,1.535789,38,67,n1008
196.8334,2.6308734,20,70,n1010
196.83473,0.9855759,25,72,n1011
196.81204,0.9962597,40,75,n1009
197.82031,1.7561414,31,67,n1016
197.31818,2.2582777,36,69,n1013
197.82031,1.043001,34,72,n1017
197.80829,1.0657041,26,75,n1015
197.7749,1.6746778,65,79,n1014
197.25941,1.0670395,64,81,n1012
198.68436,0.8920931,28,60,n1020
198.38255,0.6370186,32,65,n1019
199.01956,0.5568905,29,65,n1024
198.86331,0.7131403,37,72,n1022
198.874,0.70245653,25,75,n1023
198.82593,0.75053346,50,77,n1021
198.32646,1.2499988,60,81,n1018
200.34167,2.390489,36,36,n1029
200.34702,2.3864827,38,43,n1030
199.47763,3.2558727,39,55,n1028
199.46428,1.6519748,35,70,n1027
199.41887,2.2689614,43,74,n1025
199.44958,4.8798027,43,79,n1026
201.1256,1.0777233,44,58,n1033
201.14563,0.5515486,37,62,n1034
201.69717,0.49679437,58,62,n1037
202.19397,0.5181619,53,62,n1040
201.1216,0.59829,39,65,n1032
201.71988,0.47943327,47,65,n1038
201.69585,1.9017075,57,69,n1036
201.11626,1.0616976,52,70,n1031
201.68784,1.9017075,71,74,n1035
202.73216,1.5972207,46,36,n1046
202.7335,1.5958852,46,43,n1047
202.7335,1.5304472,47,55,n1048
202.20332,0.5248392,58,58,n1042
202.71214,0.53151655,54,62,n1044
202.19931,1.0296464,57,65,n1041
202.70012,1.6292719,75,67,n1043
202.17795,1.043001,75,70,n1039
203.24365,0.63167673,74,58,n1051
203.87534,0.39396328,78,58,n1060
203.24365,0.36191204,58,62,n1052
203.60556,0.7238241,70,62,n1055
203.22896,0.38327953,65,65,n1050
203.61224,0.26709375,64,65,n1056
203.87933,0.45005298,74,65,n1061
203.59755,0.27243564,70,69,n1054
203.87,0.38728595,72,69,n1059
203.22095,1.0296464,77,70,n1049
203.58954,0.2644228,86,74,n1053
203.85396,0.39129233,81,74,n1057
203.86064,0.46874952,83,77,n1058
204.91833,2.6201897,77,36,n1070
204.91165,2.626867,80,43,n1069
204.26395,1.7654897,73,55,n1066
204.26395,3.227828,71,64,n1067
204.2506,1.7614833,76,70,n1064
204.24525,2.262284,73,74,n1063
204.24258,3.2184796,85,81,n1062
206.02943,1.5090797,70,50,n1074
206.02943,1.4636737,73,55,n1075
206.0281,0.48878157,68,62,n1073
206.02277,0.49011704,69,65,n1072
206.01208,1.4583318,84,70,n1071
206.51689,1.0216336,83,53,n1081
206.95625,0.58226436,79,57,n1087
206.51155,0.44738203,84,58,n1078
206.95892,0.5248392,82,58,n1089
206.51689,0.43269187,74,62,n1082
206.94958,0.5889417,81,62,n1083
206.51288,0.44204015,75,65,n1079
206.95493,0.58359987,86,65,n1086
206.51422,0.44337562,77,69,n1080
206.9576,0.51949733,81,69,n1088
206.50754,0.44204015,89,74,n1077
206.94958,0.52083284,84,74,n1084
206.94958,0.5889417,86,77,n1085
208.11678,1.9551263,79,36,n1098
208.1141,1.9577972,78,43,n1097
207.49312,2.5787902,83,55,n1096
207.48376,1.7601478,74,58,n1094
207.49178,1.7454576,85,64,n1095
207.4771,1.7614833,79,69,n1093
207.47041,2.4439077,85,70,n1091
207.47041,2.6014931,83,74,n1092
207.46106,1.7681606,95,81,n1090
209.24391,0.68242455,74,58,n1105
209.24258,0.68108904,70,60,n1104
209.23724,0.834668,70,64,n1101
209.23857,0.8333325,80,69,n1102
209.23857,0.67708266,80,72,n1103
209.2359,0.8360034,84,76,n1100
209.22922,0.84268075,90,81,n1099
209.925,1.9871775,71,53,n1111
210.72495,1.2286313,65,57,n1114
209.92635,0.9281508,69,58,n1112
209.92368,2.0299125,69,60,n1110
209.91432,2.0392609,75,65,n1107
210.69957,1.2540052,82,69,n1113
209.91432,0.92013794,75,70,n1108
209.91565,2.0379252,76,72,n1109
209.90898,2.0446026,79,77,n1106
211.91219,0.6022964,53,53,n1122
211.91219,0.61030924,58,55,n1123
211.3032,0.6503733,65,56,n1116
211.89482,0.75988173,62,59,n1121
211.87613,0.7785783,63,63,n1119
211.88013,0.63835406,64,67,n1120
211.27783,0.6757472,83,68,n1115
211.87346,0.7812492,70,71,n1118
211.86143,0.79326844,80,75,n1117
212.52649,2.0606282,51,48,n1129
213.2383,0.6757472,61,52,n1132
212.51448,0.90411234,55,53,n1125
212.52249,2.1127117,51,55,n1127
212.52249,2.1127117,47,60,n1128
213.19957,0.7131403,72,64,n1131
212.53317,0.81463593,51,65,n1130
212.51848,2.116718,62,67,n1126
212.5078,1.4423063,71,72,n1124
214.58713,1.0082788,45,48,n1141
214.58044,0.84401625,47,50,n1140
213.87265,0.7625527,59,51,n1134
214.57243,1.022969,44,54,n1139
214.56041,1.0349883,50,58,n1138
214.55641,0.82264876,47,62,n1137
213.83392,0.8012813,70,63,n1133
214.51768,1.0777233,76,70,n1135
215.4071,5.148232,45,38,n1146
215.42447,5.130871,37,50,n1147
215.38841,2.9019735,45,55,n1144
215.3991,2.652241,42,60,n1145
215.37906,2.6482346,50,62,n1143
215.36703,2.923341,65,67,n1142
216.57564,1.7147418,49,52,n1149
216.56094,1.729432,59,64,n1148
218.04332,2.5120168,33,54,n1152
218.05133,2.504004,33,60,n1153
218.0273,2.134079,36,62,n1151
218.0166,2.538726,38,66,n1150
220.16003,1.9110558,32,31,n1154
220.1814,1.8896883,29,43,n1159
220.16138,1.9097203,33,55,n1155
220.16939,1.9017075,34,58,n1158
220.16138,1.9097203,34,62,n1156
220.16537,1.9057139,39,67,n1157
222.01233,1.0002661,44,79,n1160
223.0126,0.9521892,36,79,n1163
224.52702,1.3595072,39,79,n1170
223.96478,0.5622323,18,79,n1168
222.50645,0.5061427,51,82,n1161
223.0126,0.9241444,26,82,n1164
223.93674,0.64903784,43,82,n1167
222.98055,3.93162,53,84,n1162
223.45064,2.3891535,62,86,n1165
223.92473,0.7972748,65,89,n1166
224.35474,0.99759513,43,74,n1169
225.88652,0.14690156,42,79,n1180
226.03343,0.8800739,21,79,n1181
224.58578,1.2980757,46,82,n1171
224.722,1.1458322,55,89,n1172
224.87424,0.982905,60,91,n1173
225.35234,2.390489,48,74,n1175
225.88385,1.0616976,40,82,n1179
225.83978,1.6119108,73,86,n1176
225.34566,1.0737169,69,88,n1174
225.86783,6.342141,45,89,n1178
225.85715,6.3528247,43,91,n1177
226.74257,5.467409,32,67,n1184
226.46346,0.641025,39,72,n1183
227.10448,5.105497,39,72,n1188
226.9135,5.296469,53,79,n1186
226.94556,5.2644176,40,82,n1187
226.91217,5.2978044,50,84,n1185
226.41937,5.7905927,65,88,n1182
228.48935,1.3060884,29,55,n1197
227.46237,1.0269755,34,62,n1190
228.48935,1.3181076,33,62,n1198
229.80746,0.9081187,41,62,n1205
230.71558,1.4943895,69,62,n1209
227.65202,2.102028,17,69,n1191
227.74283,3.9556584,14,74,n1192
227.81628,4.393692,29,77,n1193
227.97653,4.233436,38,81,n1194
227.45169,0.6236639,49,86,n1189
228.07536,4.134611,47,86,n1195
228.42525,3.7847185,47,93,n1196
229.79544,0.95486015,43,55,n1204
229.2479,1.0296464,26,57,n1201
229.23055,1.0323174,46,60,n1200
230.26286,0.9081187,46,60,n1207
231.17097,0.28311938,57,60,n1214
229.2025,0.56490326,63,65,n1199
229.7674,0.45005298,55,65,n1203
230.21745,0.9361636,77,65,n1206
229.75404,1.6853615,72,69,n1202
230.7503,0.8079586,51,55,n1211
230.27754,0.45405936,40,57,n1208
230.73161,0.43002093,53,57,n1210
231.55826,0.6530442,69,55,n1219
231.16162,1.048343,60,57,n1213
231.4541,0.1068375,53,60,n1218
231.56093,0.64903784,60,60,n1220
231.15361,0.29246765,76,65,n1212
231.44608,0.27644202,58,65,n1217
231.72252,0.41399533,55,65,n1223
231.4394,0.26709375,70,69,n1216
231.7065,0.41666624,55,69,n1222
231.69849,0.5114845,80,74,n1221
232.72145,2.5080104,69,43,n1229
232.12584,2.9834373,56,50,n1227
232.1245,2.9807663,54,59,n1226
232.13652,1.5758531,50,65,n1228
232.12317,2.0192287,46,69,n1225
232.08444,2.99145,78,76,n1224
233.72572,1.5037378,60,57,n1232
233.72173,0.8640483,66,60,n1231
233.71237,0.44204015,74,65,n1230
234.17044,0.42467907,63,55,n1236
234.59512,0.5168264,65,55,n1241
234.58577,0.64369595,65,60,n1239
234.16643,1.0630331,63,62,n1235
234.15442,0.43936923,73,65,n1234
234.59378,0.5181619,65,65,n1240
234.1424,0.44070467,83,69,n1233
234.5831,0.5248392,76,69,n1238
234.5644,0.66506344,99,74,n1237
235.77567,1.820244,46,43,n1248
235.10927,2.4866428,56,50,n1245
235.10527,1.7628187,52,59,n1243
235.11194,1.8149021,46,65,n1247
235.10794,1.792199,55,69,n1244
235.07588,1.7708316,89,76,n1242
236.88011,0.64903784,31,55,n1251
237.52914,2.264955,26,55,n1255
236.86809,0.74252063,36,59,n1250
236.92685,0.6717408,10,65,n1253
236.90013,0.6957792,24,69,n1252
236.84673,0.74919796,63,76,n1249
237.54784,2.2462585,27,48,n1256
238.02327,1.7708316,35,65,n1258
238.00456,1.7895281,38,67,n1257
237.49576,1.535789,52,72,n1254
239.03154,0.7625527,49,72,n1261
239.09564,0.69845015,32,64,n1262
241.45142,1.5024023,42,67,n1274
238.50938,1.2847209,37,77,n1259
238.50938,1.2847209,36,79,n1260
239.66455,3.93162,26,63,n1264
240.67418,0.4914525,38,72,n1269
240.14934,3.4468448,38,74,n1266
239.64052,0.5088136,44,75,n1263
240.14934,0.97756314,35,75,n1267
240.14265,3.4535222,54,77,n1265
241.1309,0.42735,38,70,n1272
241.16562,0.470085,26,72,n1273
241.12689,0.6063028,35,75,n1271
240.61674,2.3090255,65,79,n1268
241.09752,0.71180487,72,82,n1270
241.63571,1.3181076,49,72,n1276
241.7332,1.2152766,39,75,n1277
241.80933,1.1444967,66,82,n1278
241.96957,0.98958236,57,84,n1279
242.95381,0.64236045,40,67,n1284
242.47438,1.1217937,43,69,n1281
242.95381,0.64236045,45,72,n1285
242.94847,0.64770234,49,75,n1283
242.92577,0.6704053,73,79,n1282
242.45702,1.0122854,71,81,n1280
242.95381,0.64236045,50,82,n1286
242.95915,0.6370186,44,84,n1287
243.79382,5.721148,43,60,n1290
243.53876,0.5902772,31,65,n1289
244.12903,2.1955106,42,65,n1294
243.97145,5.543531,47,72,n1292
243.97946,5.535518,41,75,n1293
243.94875,5.0841293,53,77,n1291
243.46931,5.946842,64,81,n1288
245.50456,2.4292176,36,36,n1305
245.5246,2.4118567,28,43,n1306
244.47626,3.4548576,45,55,n1295
247.9311,1.5197635,58,55,n1322
244.60713,1.7361094,42,62,n1299
246.34323,0.6143156,34,62,n1309
246.95755,0.4620722,60,62,n1313
247.41963,0.48878157,60,62,n1316
247.9084,0.54353577,62,62,n1319
248.45193,0.3165061,63,62,n1327
244.7153,3.1957767,47,67,n1300
244.79143,1.5251054,44,70,n1301
246.31653,1.0910779,58,70,n1307
247.40761,1.0216336,75,70,n1315
248.42924,0.99358875,77,70,n1325
244.93031,1.9991968,53,74,n1302
244.48694,0.5568905,49,79,n1296
245.04382,4.4711494,49,79,n1303
245.4605,4.054483,48,86,n1304
246.3686,1.088407,49,58,n1310
246.32454,0.6370186,49,65,n1308
246.96156,0.4740914,57,65,n1314
247.43565,1.0069435,60,65,n1317
246.93619,1.8362695,67,69,n1312
246.9295,1.8429469,70,74,n1311
247.93378,1.581195,54,36,n1323
247.93645,1.5785241,51,43,n1324
247.45702,0.46741405,65,58,n1318
247.91107,1.6038979,75,67,n1320
248.46396,0.5862708,74,58,n1328
249.05023,0.40331155,77,58,n1337
248.76845,0.746527,71,62,n1329
248.4426,0.34321547,69,65,n1326
248.78581,0.25908095,67,65,n1332
249.04489,0.470085,74,65,n1336
248.77246,0.2697647,74,69,n1330
249.04222,0.39663422,74,69,n1335
248.77246,0.25908095,86,74,n1331
249.03154,0.39396328,82,74,n1333
249.03287,0.4821042,82,77,n1334
250.13597,2.8939607,77,36,n1345
250.13597,2.8939607,79,43,n1346
249.45087,1.7574769,76,55,n1342
249.45354,3.484238,75,64,n1344
249.42282,1.7668252,73,70,n1339
249.42549,2.3771343,77,74,n1340
249.41615,3.4962573,81,81,n1338
251.20834,1.8215793,78,50,n1351
251.20834,1.7227547,79,55,n1352
251.20033,0.60897374,73,62,n1348
251.20435,0.60496736,73,65,n1350
251.18965,1.7334385,86,70,n1347
251.81732,1.2126056,85,53,n1358
252.29543,0.7345078,86,57,n1364
251.81198,0.4914525,90,58,n1357
252.30344,0.641025,87,58,n1365
251.80931,0.48343968,80,62,n1355
252.29276,0.73717874,88,62,n1363
251.80931,0.47809783,74,65,n1356
252.28741,0.74252063,83,65,n1362
251.80797,0.47542688,78,69,n1354
252.2834,0.6450314,82,69,n1360
251.80263,0.47809783,91,74,n1353
252.28073,0.63835406,81,74,n1359
252.28607,0.7438561,87,77,n1361
253.67496,2.1193888,82,36,n1373
253.6763,2.1180534,81,43,n1374
252.9311,2.863245,77,55,n1370
252.94446,1.9150622,81,58,n1372
252.93777,1.9177331,74,64,n1371
252.92844,1.923075,76,69,n1369
252.9231,2.7056596,82,70,n1368
252.91908,2.8752642,79,74,n1367
252.91241,1.9350942,91,81,n1366
254.85953,0.7745719,80,58,n1380
254.86353,0.7732364,74,60,n1381
254.85551,0.93883455,77,64,n1379
254.8515,0.94284093,81,69,n1376
254.85417,0.77590734,84,72,n1377
254.85417,0.94017,86,76,n1378
254.8475,0.9468473,89,81,n1375
255.6341,2.1554465,71,53,n1386
256.54755,1.324785,60,57,n1390
255.6341,1.0803943,67,58,n1387
255.63676,2.2355747,68,60,n1388
255.62741,2.2449229,73,65,n1382
256.5115,1.3608427,79,69,n1389
255.62875,1.085736,81,70,n1383
255.63008,2.242252,77,72,n1384
255.63008,2.242252,82,77,n1385
257.78955,0.6290058,51,53,n1398
257.7922,0.6463669,47,55,n1399
257.16586,0.706463,57,56,n1392
257.78287,0.7905975,54,59,n1397
257.7722,0.8012813,56,63,n1395
257.7735,0.6343477,55,67,n1396
257.1445,0.72783047,82,68,n1391
257.76016,0.8133005,68,71,n1394
257.74146,0.83199704,81,75,n1393
258.4212,2.142092,49,48,n1404
259.12234,0.80929404,55,52,n1408
258.41855,0.84935814,50,53,n1402
258.43857,2.2556067,46,55,n1406
261.56625,3.3453493,40,55,n1421
258.4212,2.2729678,46,60,n1405
259.09027,0.8413453,69,64,n1407
258.41855,0.8293261,59,65,n1403
258.40787,2.2863226,63,67,n1401
258.39584,1.5918788,73,72,n1400
260.5633,1.2473278,43,48,n1414
260.57266,1.0283109,42,50,n1416
259.8061,0.88808674,48,51,n1410
260.58734,1.2232894,41,54,n1417
260.5633,1.2473278,43,58,n1415
260.5513,0.9909178,53,62,n1413
259.7687,0.9254798,66,63,n1409
260.53793,1.2727017,52,66,n1411
260.53928,1.2713662,66,70,n1412
261.5916,14.101214,42,38,n1422
261.60095,9.934552,37,50,n1423
261.55957,3.0235012,46,60,n1420
261.5422,3.0315142,51,62,n1419
261.53952,3.3720586,63,67,n1418
262.875,2.0365899,44,52,n1425
262.86032,2.05128,59,64,n1424
264.59375,11.442296,33,54,n1429
264.58307,11.526431,41,60,n1428
264.57373,2.9874437,46,62,n1427
264.5684,11.541121,48,66,n1426
267.60522,8.504265,32,31,n1434
267.62125,3.786054,18,43,n1435
267.58655,8.522962,30,55,n1433
267.5812,8.528303,36,58,n1432
267.56116,4.2013845,37,62,n1430
267.57053,8.538987,39,67,n1431
271.40732,2.5293777,20,43,n1436
271.53552,4.5739803,34,50,n1437
271.64636,1.410255,36,59,n1438
271.76254,1.2459923,18,62,n1439
272.28604,0.51014906,41,71,n1441
273.25693,0.45940125,46,71,n1446
272.7962,0.46073672,31,71,n1443
275.23343,0.43402734,40,71,n1459
272.5585,0.95886654,43,74,n1442
273.51736,2.4746237,41,74,n1447
272.03232,4.077186,59,79,n1440
273.0566,1.9364297,30,59,n1445
273.00854,3.1009583,36,62,n1444
273.71634,0.535523,32,71,n1448
273.7564,2.353096,40,36,n1449
273.9367,2.1728077,34,43,n1450
274.03687,2.0726476,16,52,n1452
273.98743,2.1220598,43,64,n1451
274.25186,0.49412343,34,71,n1453
274.74597,0.4874461,37,71,n1456
274.5056,0.95486015,53,76,n1455
274.4909,1.6185881,59,81,n1454
274.99304,0.89877045,35,59,n1458
275.66745,0.44204015,35,71,n1461
275.46045,0.64903784,59,76,n1460
274.95032,1.1591868,62,78,n1457
275.69284,2.438566,40,38,n1462
275.87045,1.9991968,20,47,n1463
276.03604,2.0953505,38,54,n1466
275.8918,1.0777233,23,59,n1464
276.30182,0.42067266,35,66,n1467
276.72247,0.24572624,37,66,n1469
276.52884,0.93349266,44,71,n1468
275.99197,2.139421,55,74,n1465
276.96954,1.1618578,45,59,n1471
276.9682,0.6690698,35,66,n1470
277.63727,0.49412343,41,66,n1475
277.46234,0.6690698,37,71,n1474
276.96954,1.1618578,63,76,n1472
278.45056,0.48878157,56,76,n1481
277.40356,0.51282,63,78,n1473
277.69336,2.4746237,42,40,n1476
277.86966,2.2983418,25,47,n1477
277.96848,1.8229148,41,55,n1479
278.21555,0.4487175,42,71,n1480
278.66425,0.5408648,45,71,n1482
277.91638,2.2516003,57,78,n1478
278.9514,1.216612,29,59,n1484
280.0184,0.99893063,32,64,n1491
279.2051,0.44738203,30,71,n1485
279.6525,0.51549095,28,71,n1488
278.93936,0.47275594,46,76,n1483
279.4121,0.7558753,36,76,n1486
279.6418,4.4858394,41,48,n1487
279.79138,4.336267,33,55,n1489
281.02136,0.96020204,37,71,n1497
281.98157,2.1460984,45,71,n1504
280.3336,0.45005298,34,72,n1492
280.78363,0.22035234,40,72,n1494
280.55392,0.9455119,48,76,n1493
279.98904,4.1386175,72,83,n1490
281.01733,1.943107,36,64,n1496
281.004,0.27243564,17,72,n1495
281.27643,0.44204015,46,72,n1498
281.71848,0.5288456,40,72,n1500
282.2473,0.46607858,43,72,n1505
282.71338,0.48343968,39,72,n1507
281.49945,1.9471134,44,76,n1499
281.73584,2.3918245,39,45,n1501
281.8587,2.2689614,35,52,n1502
281.97623,2.1514401,37,60,n1503
282.47034,1.6573167,67,84,n1506
282.96045,1.1671997,41,64,n1509
283.19684,0.4567303,46,72,n1510
283.65356,0.4740914,36,72,n1513
283.44656,0.68108904,55,76,n1512
283.41586,0.71180487,69,79,n1511
282.93106,1.19658,69,81,n1508
283.68427,4.305551,42,47,n1514
283.80313,4.1866946,36,54,n1515
284.01147,0.95085377,40,62,n1517
284.04086,0.9014414,6,66,n1518
284.9423,0.96821487,36,66,n1524
285.9105,1.005608,45,66,n1533
284.2318,0.46474314,43,71,n1519
284.69656,0.5061427,36,71,n1521
284.4655,0.9802341,49,74,n1520
283.94336,3.4201355,61,78,n1516
284.9623,1.9591327,23,62,n1525
284.93695,1.9925194,42,67,n1523
285.4778,2.5120168,45,69,n1529
285.2027,0.47809783,34,71,n1526
285.68082,0.5515486,49,71,n1531
285.44577,1.945778,50,74,n1528
284.89554,1.9845066,67,79,n1522
285.42038,2.5694418,69,81,n1527
285.65408,2.3357348,40,43,n1530
285.7903,2.199517,36,50,n1532
285.92654,2.0632992,40,59,n1534
286.23236,0.42200813,26,71,n1535
286.65436,0.4620722,49,71,n1537
286.3966,1.5932143,69,83,n1536
286.92145,1.068375,39,62,n1540
286.9161,1.0737169,42,66,n1539
286.92947,1.0603622,33,67,n1541
287.11642,0.4821042,46,71,n1542
287.59854,0.39129233,42,71,n1545
287.39154,0.59829,43,74,n1544
287.3635,0.62633485,61,78,n1543
286.88007,1.1097746,64,79,n1538
287.63458,2.2382457,35,45,n1546
287.74945,2.1233952,28,52,n1547
287.903,0.9254798,38,60,n1549
287.9391,0.9348281,30,64,n1550
288.15277,0.42467907,43,71,n1551
288.57742,0.46474314,48,71,n1553
288.35175,0.9788986,44,72,n1552
287.8763,1.9965258,58,76,n1548
288.8285,1.0443366,38,60,n1555
288.8739,0.9535247,18,64,n1558
288.83652,1.0363238,43,66,n1557
289.34134,0.53151655,24,67,n1562
288.82983,1.043001,38,69,n1556
289.04218,0.5114845,51,71,n1559
289.55365,0.31917703,27,71,n1564
289.33063,1.0897425,27,72,n1561
288.80045,1.0723814,64,78,n1554
289.28122,0.59161264,67,79,n1560
289.55234,2.4772944,39,42,n1563
289.65784,2.3717926,31,48,n1565
289.83276,2.196846,38,57,n1567
289.82742,1.0657041,33,64,n1566
290.13593,0.44604656,41,69,n1568
290.58197,0.21501046,44,69,n1571
290.42038,0.9281508,22,72,n1570
290.3336,1.6960453,51,81,n1569
290.8571,1.1725416,28,60,n1575
290.89313,1.1364839,6,64,n1576
290.84775,1.071046,28,66,n1574
290.797,0.2524036,11,69,n1572
291.04938,0.4740914,38,69,n1577
291.52347,0.5061427,43,69,n1580
291.34854,0.68108904,24,72,n1579
291.27374,0.7558753,68,76,n1578
290.81302,1.02564,67,78,n1573
291.55954,3.5136182,44,47,n1581
291.69443,3.4561932,38,54,n1582
291.93213,0.96687937,30,62,n1585
291.9188,1.0096143,18,66,n1584
292.2326,0.41132438,16,71,n1586
292.64395,0.4914525,44,71,n1588
292.44095,0.9481828,51,74,n1587
291.83865,3.3119626,59,78,n1583
292.93106,2.2195492,39,59,n1591
292.89902,2.1674657,42,62,n1589
292.9284,2.1314082,37,66,n1590
293.13538,0.4954589,47,71,n1592
293.63086,1.5197635,50,71,n1594
293.38913,1.7614833,56,74,n1593
293.93802,1.8335986,60,42,n1595
294.7887,0.36191204,62,60,n1601
294.25986,0.28579032,60,64,n1598
294.54565,0.60496736,59,64,n1600
293.94736,0.5902772,50,69,n1597
294.53763,0.6129801,70,69,n1599
293.94336,1.2072637,55,72,n1596
295.07315,0.69845015,64,47,n1604
295.65274,0.82131326,59,50,n1608
295.34558,0.42601454,63,59,n1605
295.65143,0.82264876,58,60,n1607
295.06647,0.7051275,64,62,n1603
295.63538,0.83867437,77,64,n1606
295.0598,0.71180487,73,66,n1602
296.36722,5.344546,48,47,n1613
296.35388,2.3985019,57,59,n1612
296.3445,2.4078503,56,62,n1610
296.34854,2.4038436,62,66,n1611
297.47833,2.242252,60,71,n1615
299.72058,1.3688555,39,71,n1618
301.08945,0.53685844,54,71,n1622
297.4463,2.2462585,83,83,n1614
299.69254,1.6493039,39,83,n1617
301.34186,0.49011704,57,83,n1625
298.53067,3.1810865,29,35,n1616
300.66742,3.0194948,63,59,n1619
300.95856,0.75320435,46,60,n1620
300.97726,0.7345078,46,64,n1621
301.18826,0.5235037,56,72,n1623
301.26038,0.45138845,59,76,n1624
301.6864,4.284184,3,45,n1628
301.67438,4.296203,29,52,n1627
301.6263,3.5830626,38,71,n1626
302.2139,0.9909178,14,72,n1630
302.1605,1.0336528,39,76,n1629
302.688,3.2825823,32,60,n1632
302.68,2.5641,38,64,n1631
303.20483,2.0005322,36,72,n1634
303.19415,0.9842405,45,76,n1633
304.1677,1.8028828,67,57,n1636
303.68692,1.5251054,54,59,n1635
304.1944,1.7761735,32,67,n1641
304.18106,1.7895281,47,69,n1639
304.17838,1.0323174,58,76,n1638
304.18237,1.7881926,57,79,n1640
304.17438,1.7962055,63,81,n1637
305.21204,0.706463,76,59,n1649
304.69254,1.2780436,71,62,n1643
305.24408,0.726495,19,64,n1650
305.20935,0.69310826,67,71,n1647
305.20535,0.7652236,55,72,n1646
304.7059,1.2646888,66,74,n1644
305.2107,0.75988173,71,76,n1648
305.19333,0.69310826,87,83,n1645
304.68854,1.28205,84,86,n1642
306.64633,4.105231,41,38,n1656
306.661,4.090541,40,45,n1658
306.65967,0.59294814,47,54,n1657
305.9185,2.3677862,65,59,n1653
306.645,1.1244646,48,60,n1655
306.64233,1.1351484,55,64,n1654
305.90247,4.849087,65,71,n1652
305.88644,4.865113,85,83,n1651
307.25262,3.498928,58,54,n1661
307.76947,1.043001,45,60,n1664
307.77747,1.0403302,44,64,n1665
307.2393,2.1127117,50,69,n1660
307.76544,1.043001,52,72,n1663
307.74677,1.0697105,62,76,n1662
307.21124,2.1247308,76,81,n1659
308.2863,2.4652753,56,59,n1668
308.81247,1.0937489,38,60,n1670
308.8178,1.0977553,34,64,n1672
308.2796,2.4719527,37,67,n1667
308.80844,1.131142,41,72,n1669
308.81647,1.0750524,41,76,n1671
308.25424,2.4973266,79,79,n1666
309.368,1.3835456,41,57,n1675
309.90622,0.8453517,22,60,n1677
309.91556,0.6370186,23,64,n1678
309.352,1.3995713,42,69,n1674
309.9396,0.811965,29,72,n1679
309.8915,0.64903784,43,76,n1676
309.33597,1.4155968,62,81,n1673
310.55658,3.2131379,37,55,n1682
311.2457,1.0202981,31,59,n1685
310.55258,3.2171443,42,64,n1681
311.23633,1.0269755,40,71,n1683
310.54056,0.69978565,44,76,n1680
311.24033,1.022969,38,76,n1684
312.266,1.5037378,35,59,n1688
312.2633,1.5064087,33,71,n1686
312.2633,1.5064087,31,76,n1687
313.67224,0.82131326,46,38,n1693
312.95508,0.81463593,44,40,n1689
313.68292,0.81062955,43,48,n1695
313.7003,0.79326844,18,50,n1696
312.97513,0.7946039,37,52,n1690
316.18024,1.1858963,31,52,n1714
313.68158,0.811965,34,62,n1694
313.66156,0.83199704,46,72,n1692
313.63885,0.8547,60,74,n1691
315.09717,1.2686954,41,42,n1704
314.31592,0.9294863,51,43,n1698
315.10117,1.2646888,43,48,n1706
315.0985,1.2673599,42,50,n1705
315.12656,1.239315,25,54,n1708
314.36,0.8854158,28,55,n1700
315.07715,1.2887274,38,66,n1702
314.32126,0.9241444,45,67,n1699
315.1025,1.2633535,38,72,n1707
315.0825,1.2833855,45,74,n1703
315.07047,1.2954047,56,78,n1701
314.29855,0.9468473,65,79,n1697
316.15488,1.2112702,32,40,n1712
316.16153,1.131142,32,47,n1713
317.2927,0.6677344,79,47,n1716
317.26865,0.66105705,89,59,n1715
316.15085,1.2152766,34,64,n1711
316.13217,1.2339731,42,71,n1709
316.13217,1.2339731,44,76,n1710
317.87628,0.8547,88,50,n1719
318.3624,0.36858937,79,52,n1720
317.8616,0.86939013,91,62,n1717
318.39978,0.33119625,100,64,n1721
317.8629,0.8680547,89,71,n1718
318.60144,0.18830109,83,40,n1722
318.6709,2.239581,70,47,n1723
318.78174,2.1287372,88,54,n1725
321.4807,2.3116963,79,54,n1736
323.79242,7.0766487,74,54,n1745
318.77905,2.1314082,81,56,n1724
318.83514,2.0753183,68,62,n1726
318.91663,1.9938549,92,66,n1727
319.23447,1.6760132,83,74,n1728
319.23447,1.6760132,95,83,n1729
320.83035,8.223817,91,38,n1731
320.82233,10.046731,87,45,n1730
322.8923,7.9767547,82,57,n1742
322.28067,1.5865369,78,59,n1740
321.4834,9.385674,77,60,n1738
321.4807,5.8440113,78,64,n1737
322.88297,7.986103,92,69,n1741
322.2673,1.7414513,96,71,n1739
321.4687,9.400365,79,72,n1735
321.46335,9.405706,87,76,n1734
321.4607,9.408378,89,81,n1733
321.45535,3.011482,92,86,n1732
323.36374,7.4519157,93,31,n1743
323.36505,7.4492445,94,43,n1744
323.8672,7.0018625,80,59,n1746
323.94867,6.920399,87,66,n1747
324.00876,6.860303,91,71,n1748
324.0902,6.7788396,91,78,n1749
324.18237,6.686692,89,83,n1750
324.46683,6.4022374,105,86,n1751
327.33673,3.5323148,75,40,n1754
327.32874,3.5403275,79,52,n1753
327.32474,3.5443342,88,64,n1752
330.81564,12.549399,94,31,n1759
329.05417,1.8149021,78,38,n1756
330.8143,12.550735,95,43,n1758
329.0595,1.8095602,75,50,n1757
331.47668,11.888343,83,50,n1764
331.47668,11.888343,77,55,n1765
329.0368,1.8322631,88,62,n1755
331.4727,11.892349,81,62,n1762
331.4727,11.892349,90,74,n1763
331.4687,11.896356,91,79,n1761
331.46735,11.897691,92,86,n1760
